<?xml version="1.0" encoding="UTF-8" standalone="no"?>
<!DOCTYPE svg PUBLIC "-//W3C//DTD SVG 1.1//EN"
 "http://www.w3.org/Graphics/SVG/1.1/DTD/svg11.dtd">
<!-- Generated by graphviz version 12.2.1 (20241206.2353)
 -->
<!-- Title: G Pages: 1 -->
<svg width="1246pt" height="501pt"
 viewBox="0.00 0.00 1245.75 500.50" xmlns="http://www.w3.org/2000/svg" xmlns:xlink="http://www.w3.org/1999/xlink">
<g id="graph0" class="graph" transform="scale(1 1) rotate(0) translate(4 496.5)">
<title>G</title>
<polygon fill="white" stroke="none" points="-4,4 -4,-496.5 1241.75,-496.5 1241.75,4 -4,4"/>
<text text-anchor="middle" x="618.88" y="-475.2" font-family="Times,serif" font-size="14.00">w_{j,m,t=MYTAU} = w_{j,m,t=MYTAU&#45;1} + MYETA MYCDOT MYLEFT(MYLAMBDA MYCDOT w_{j,m,t=MYTAU&#45;1} + MYFRAC{MYMUADAM}{MYSQRT{MYNUADAM} + MYEPSILON}MYRIGHT)</text>
<!-- 14 -->
<g id="node1" class="node">
<title>14</title>
<ellipse fill="none" stroke="black" cx="483.65" cy="-450" rx="27" ry="18"/>
<text text-anchor="middle" x="483.65" y="-444.95" font-family="Times,serif" font-size="14.00">+</text>
</g>
<!-- 1 -->
<g id="node2" class="node">
<title>1</title>
<ellipse fill="none" stroke="black" cx="400.65" cy="-378" rx="96.9" ry="18"/>
<text text-anchor="middle" x="400.65" y="-372.95" font-family="Times,serif" font-size="14.00">w_{j,m,t=MYTAU&#45;1}</text>
</g>
<!-- 14&#45;&#45;1 -->
<g id="edge1" class="edge">
<title>14&#45;&#45;1</title>
<path fill="none" stroke="black" d="M467.26,-435.17C453.93,-423.93 435.08,-408.04 420.83,-396.02"/>
</g>
<!-- 13 -->
<g id="node3" class="node">
<title>13</title>
<ellipse fill="none" stroke="black" cx="566.65" cy="-378" rx="51.35" ry="18"/>
<text text-anchor="middle" x="566.65" y="-372.95" font-family="Times,serif" font-size="14.00">MYCDOT</text>
</g>
<!-- 14&#45;&#45;13 -->
<g id="edge2" class="edge">
<title>14&#45;&#45;13</title>
<path fill="none" stroke="black" d="M500.05,-435.17C513.75,-423.62 533.3,-407.13 547.68,-395.01"/>
</g>
<!-- 2 -->
<g id="node4" class="node">
<title>2</title>
<ellipse fill="none" stroke="black" cx="521.65" cy="-306" rx="44.19" ry="18"/>
<text text-anchor="middle" x="521.65" y="-300.95" font-family="Times,serif" font-size="14.00">MYETA</text>
</g>
<!-- 13&#45;&#45;2 -->
<g id="edge3" class="edge">
<title>13&#45;&#45;2</title>
<path fill="none" stroke="black" d="M555.76,-360.05C548.69,-349.05 539.5,-334.76 532.45,-323.79"/>
</g>
<!-- 12 -->
<g id="node5" class="node">
<title>12</title>
<ellipse fill="none" stroke="black" cx="610.65" cy="-306" rx="27" ry="18"/>
<text text-anchor="middle" x="610.65" y="-300.95" font-family="Times,serif" font-size="14.00">+</text>
</g>
<!-- 13&#45;&#45;12 -->
<g id="edge4" class="edge">
<title>13&#45;&#45;12</title>
<path fill="none" stroke="black" d="M577.31,-360.05C584.43,-348.73 593.73,-333.92 600.7,-322.83"/>
</g>
<!-- 5 -->
<g id="node6" class="node">
<title>5</title>
<ellipse fill="none" stroke="black" cx="517.65" cy="-234" rx="51.35" ry="18"/>
<text text-anchor="middle" x="517.65" y="-228.95" font-family="Times,serif" font-size="14.00">MYCDOT</text>
</g>
<!-- 12&#45;&#45;5 -->
<g id="edge5" class="edge">
<title>12&#45;&#45;5</title>
<path fill="none" stroke="black" d="M593.16,-291.83C577.69,-280.19 555.09,-263.18 538.65,-250.8"/>
</g>
<!-- 11 -->
<g id="node9" class="node">
<title>11</title>
<ellipse fill="none" stroke="black" cx="702.65" cy="-234" rx="27" ry="18"/>
<text text-anchor="middle" x="702.65" y="-228.95" font-family="Times,serif" font-size="14.00">/</text>
</g>
<!-- 12&#45;&#45;11 -->
<g id="edge8" class="edge">
<title>12&#45;&#45;11</title>
<path fill="none" stroke="black" d="M627.96,-291.83C644.41,-279.32 669.01,-260.6 685.43,-248.11"/>
</g>
<!-- 3 -->
<g id="node7" class="node">
<title>3</title>
<ellipse fill="none" stroke="black" cx="335.65" cy="-162" rx="66.71" ry="18"/>
<text text-anchor="middle" x="335.65" y="-156.95" font-family="Times,serif" font-size="14.00">MYLAMBDA</text>
</g>
<!-- 5&#45;&#45;3 -->
<g id="edge6" class="edge">
<title>5&#45;&#45;3</title>
<path fill="none" stroke="black" d="M483.85,-220C452.29,-207.86 405.3,-189.79 372.72,-177.26"/>
</g>
<!-- 4 -->
<g id="node8" class="node">
<title>4</title>
<ellipse fill="none" stroke="black" cx="517.65" cy="-162" rx="96.9" ry="18"/>
<text text-anchor="middle" x="517.65" y="-156.95" font-family="Times,serif" font-size="14.00">w_{j,m,t=MYTAU&#45;1}</text>
</g>
<!-- 5&#45;&#45;4 -->
<g id="edge7" class="edge">
<title>5&#45;&#45;4</title>
<path fill="none" stroke="black" d="M517.65,-215.7C517.65,-204.85 517.65,-190.92 517.65,-180.1"/>
</g>
<!-- 6 -->
<g id="node10" class="node">
<title>6</title>
<ellipse fill="none" stroke="black" cx="702.65" cy="-162" rx="70.29" ry="18"/>
<text text-anchor="middle" x="702.65" y="-156.95" font-family="Times,serif" font-size="14.00">MYMUADAM</text>
</g>
<!-- 11&#45;&#45;6 -->
<g id="edge9" class="edge">
<title>11&#45;&#45;6</title>
<path fill="none" stroke="black" d="M702.65,-215.7C702.65,-204.85 702.65,-190.92 702.65,-180.1"/>
</g>
<!-- 10 -->
<g id="node11" class="node">
<title>10</title>
<ellipse fill="none" stroke="black" cx="817.65" cy="-162" rx="27" ry="18"/>
<text text-anchor="middle" x="817.65" y="-156.95" font-family="Times,serif" font-size="14.00">+</text>
</g>
<!-- 11&#45;&#45;10 -->
<g id="edge10" class="edge">
<title>11&#45;&#45;10</title>
<path fill="none" stroke="black" d="M722.16,-221.13C743.31,-208.25 776.87,-187.83 798.05,-174.93"/>
</g>
<!-- 8 -->
<g id="node12" class="node">
<title>8</title>
<ellipse fill="none" stroke="black" cx="729.65" cy="-90" rx="92.81" ry="18"/>
<text text-anchor="middle" x="729.65" y="-84.95" font-family="Times,serif" font-size="14.00">MYBRACKETSQRT</text>
</g>
<!-- 10&#45;&#45;8 -->
<g id="edge11" class="edge">
<title>10&#45;&#45;8</title>
<path fill="none" stroke="black" d="M800.69,-147.5C786.5,-136.22 766.2,-120.07 750.93,-107.92"/>
</g>
<!-- 9 -->
<g id="node14" class="node">
<title>9</title>
<ellipse fill="none" stroke="black" cx="904.65" cy="-90" rx="64.15" ry="18"/>
<text text-anchor="middle" x="904.65" y="-84.95" font-family="Times,serif" font-size="14.00">MYEPSILON</text>
</g>
<!-- 10&#45;&#45;9 -->
<g id="edge13" class="edge">
<title>10&#45;&#45;9</title>
<path fill="none" stroke="black" d="M834.43,-147.5C848.65,-136.06 869.09,-119.61 884.26,-107.41"/>
</g>
<!-- 7 -->
<g id="node13" class="node">
<title>7</title>
<ellipse fill="none" stroke="black" cx="729.65" cy="-18" rx="68.24" ry="18"/>
<text text-anchor="middle" x="729.65" y="-12.95" font-family="Times,serif" font-size="14.00">MYNUADAM</text>
</g>
<!-- 8&#45;&#45;7 -->
<g id="edge12" class="edge">
<title>8&#45;&#45;7</title>
<path fill="none" stroke="black" d="M729.65,-71.7C729.65,-60.85 729.65,-46.92 729.65,-36.1"/>
</g>
</g>
</svg>
