<?xml version="1.0" encoding="UTF-8" standalone="no"?>
<!DOCTYPE svg PUBLIC "-//W3C//DTD SVG 1.1//EN"
 "http://www.w3.org/Graphics/SVG/1.1/DTD/svg11.dtd">
<!-- Generated by graphviz version 12.1.2 (20240928.0832)
 -->
<!-- Title: G Pages: 1 -->
<svg width="516pt" height="573pt"
 viewBox="0.00 0.00 516.00 572.50" xmlns="http://www.w3.org/2000/svg" xmlns:xlink="http://www.w3.org/1999/xlink">
<g id="graph0" class="graph" transform="scale(1 1) rotate(0) translate(4 568.5)">
<title>G</title>
<polygon fill="white" stroke="none" points="-4,4 -4,-568.5 512,-568.5 512,4 -4,4"/>
<text text-anchor="middle" x="254" y="-547.2" font-family="Times,serif" font-size="14.00">(I ^ ((0.2 ^ t) / (sech(log(log(π))) + (0.2 + (0.000000 / (x / (y + 0.100000))))))), depth = 7</text>
<!-- 20 -->
<g id="node1" class="node">
<title>20</title>
<ellipse fill="none" stroke="black" cx="146" cy="-522" rx="27" ry="18"/>
<text text-anchor="middle" x="146" y="-516.95" font-family="Times,serif" font-size="14.00">^</text>
</g>
<!-- 1 -->
<g id="node2" class="node">
<title>1</title>
<ellipse fill="none" stroke="black" cx="110" cy="-450" rx="27" ry="18"/>
<text text-anchor="middle" x="110" y="-444.95" font-family="Times,serif" font-size="14.00">I</text>
</g>
<!-- 20&#45;&#45;1 -->
<g id="edge1" class="edge">
<title>20&#45;&#45;1</title>
<path fill="none" stroke="black" d="M137.65,-504.76C131.83,-493.46 124.11,-478.44 118.3,-467.15"/>
</g>
<!-- 19 -->
<g id="node3" class="node">
<title>19</title>
<ellipse fill="none" stroke="black" cx="182" cy="-450" rx="27" ry="18"/>
<text text-anchor="middle" x="182" y="-444.95" font-family="Times,serif" font-size="14.00">/</text>
</g>
<!-- 20&#45;&#45;19 -->
<g id="edge2" class="edge">
<title>20&#45;&#45;19</title>
<path fill="none" stroke="black" d="M154.35,-504.76C160.17,-493.46 167.89,-478.44 173.7,-467.15"/>
</g>
<!-- 4 -->
<g id="node4" class="node">
<title>4</title>
<ellipse fill="none" stroke="black" cx="146" cy="-378" rx="27" ry="18"/>
<text text-anchor="middle" x="146" y="-372.95" font-family="Times,serif" font-size="14.00">^</text>
</g>
<!-- 19&#45;&#45;4 -->
<g id="edge3" class="edge">
<title>19&#45;&#45;4</title>
<path fill="none" stroke="black" d="M173.65,-432.76C167.83,-421.46 160.11,-406.44 154.3,-395.15"/>
</g>
<!-- 18 -->
<g id="node7" class="node">
<title>18</title>
<ellipse fill="none" stroke="black" cx="218" cy="-378" rx="27" ry="18"/>
<text text-anchor="middle" x="218" y="-372.95" font-family="Times,serif" font-size="14.00">+</text>
</g>
<!-- 19&#45;&#45;18 -->
<g id="edge6" class="edge">
<title>19&#45;&#45;18</title>
<path fill="none" stroke="black" d="M190.35,-432.76C196.17,-421.46 203.89,-406.44 209.7,-395.15"/>
</g>
<!-- 2 -->
<g id="node5" class="node">
<title>2</title>
<ellipse fill="none" stroke="black" cx="74" cy="-306" rx="27" ry="18"/>
<text text-anchor="middle" x="74" y="-300.95" font-family="Times,serif" font-size="14.00">0.2</text>
</g>
<!-- 4&#45;&#45;2 -->
<g id="edge4" class="edge">
<title>4&#45;&#45;2</title>
<path fill="none" stroke="black" d="M131.08,-362.5C118.72,-350.48 101.25,-333.49 88.9,-321.49"/>
</g>
<!-- 3 -->
<g id="node6" class="node">
<title>3</title>
<ellipse fill="none" stroke="black" cx="146" cy="-306" rx="27" ry="18"/>
<text text-anchor="middle" x="146" y="-300.95" font-family="Times,serif" font-size="14.00">t</text>
</g>
<!-- 4&#45;&#45;3 -->
<g id="edge5" class="edge">
<title>4&#45;&#45;3</title>
<path fill="none" stroke="black" d="M146,-359.7C146,-348.85 146,-334.92 146,-324.1"/>
</g>
<!-- 8 -->
<g id="node8" class="node">
<title>8</title>
<ellipse fill="none" stroke="black" cx="218" cy="-306" rx="27.3" ry="18"/>
<text text-anchor="middle" x="218" y="-300.95" font-family="Times,serif" font-size="14.00">sech</text>
</g>
<!-- 18&#45;&#45;8 -->
<g id="edge7" class="edge">
<title>18&#45;&#45;8</title>
<path fill="none" stroke="black" d="M218,-359.7C218,-348.85 218,-334.92 218,-324.1"/>
</g>
<!-- 17 -->
<g id="node12" class="node">
<title>17</title>
<ellipse fill="none" stroke="black" cx="290" cy="-306" rx="27" ry="18"/>
<text text-anchor="middle" x="290" y="-300.95" font-family="Times,serif" font-size="14.00">+</text>
</g>
<!-- 18&#45;&#45;17 -->
<g id="edge11" class="edge">
<title>18&#45;&#45;17</title>
<path fill="none" stroke="black" d="M232.92,-362.5C245.28,-350.48 262.75,-333.49 275.1,-321.49"/>
</g>
<!-- 7 -->
<g id="node9" class="node">
<title>7</title>
<ellipse fill="none" stroke="black" cx="218" cy="-234" rx="27" ry="18"/>
<text text-anchor="middle" x="218" y="-228.95" font-family="Times,serif" font-size="14.00">log</text>
</g>
<!-- 8&#45;&#45;7 -->
<g id="edge8" class="edge">
<title>8&#45;&#45;7</title>
<path fill="none" stroke="black" d="M218,-287.7C218,-276.85 218,-262.92 218,-252.1"/>
</g>
<!-- 6 -->
<g id="node10" class="node">
<title>6</title>
<ellipse fill="none" stroke="black" cx="218" cy="-162" rx="27" ry="18"/>
<text text-anchor="middle" x="218" y="-156.95" font-family="Times,serif" font-size="14.00">log</text>
</g>
<!-- 7&#45;&#45;6 -->
<g id="edge9" class="edge">
<title>7&#45;&#45;6</title>
<path fill="none" stroke="black" d="M218,-215.7C218,-204.85 218,-190.92 218,-180.1"/>
</g>
<!-- 5 -->
<g id="node11" class="node">
<title>5</title>
<ellipse fill="none" stroke="black" cx="218" cy="-90" rx="27" ry="18"/>
<text text-anchor="middle" x="218" y="-84.95" font-family="Times,serif" font-size="14.00">π</text>
</g>
<!-- 6&#45;&#45;5 -->
<g id="edge10" class="edge">
<title>6&#45;&#45;5</title>
<path fill="none" stroke="black" d="M218,-143.7C218,-132.85 218,-118.92 218,-108.1"/>
</g>
<!-- 9 -->
<g id="node13" class="node">
<title>9</title>
<ellipse fill="none" stroke="black" cx="290" cy="-234" rx="27" ry="18"/>
<text text-anchor="middle" x="290" y="-228.95" font-family="Times,serif" font-size="14.00">0.2</text>
</g>
<!-- 17&#45;&#45;9 -->
<g id="edge12" class="edge">
<title>17&#45;&#45;9</title>
<path fill="none" stroke="black" d="M290,-287.7C290,-276.85 290,-262.92 290,-252.1"/>
</g>
<!-- 16 -->
<g id="node14" class="node">
<title>16</title>
<ellipse fill="none" stroke="black" cx="362" cy="-234" rx="27" ry="18"/>
<text text-anchor="middle" x="362" y="-228.95" font-family="Times,serif" font-size="14.00">/</text>
</g>
<!-- 17&#45;&#45;16 -->
<g id="edge13" class="edge">
<title>17&#45;&#45;16</title>
<path fill="none" stroke="black" d="M304.92,-290.5C317.28,-278.48 334.75,-261.49 347.1,-249.49"/>
</g>
<!-- 10 -->
<g id="node15" class="node">
<title>10</title>
<ellipse fill="none" stroke="black" cx="290" cy="-162" rx="27" ry="18"/>
<text text-anchor="middle" x="290" y="-156.95" font-family="Times,serif" font-size="14.00">0.0</text>
</g>
<!-- 16&#45;&#45;10 -->
<g id="edge14" class="edge">
<title>16&#45;&#45;10</title>
<path fill="none" stroke="black" d="M347.08,-218.5C334.72,-206.48 317.25,-189.49 304.9,-177.49"/>
</g>
<!-- 15 -->
<g id="node16" class="node">
<title>15</title>
<ellipse fill="none" stroke="black" cx="362" cy="-162" rx="27" ry="18"/>
<text text-anchor="middle" x="362" y="-156.95" font-family="Times,serif" font-size="14.00">/</text>
</g>
<!-- 16&#45;&#45;15 -->
<g id="edge15" class="edge">
<title>16&#45;&#45;15</title>
<path fill="none" stroke="black" d="M362,-215.7C362,-204.85 362,-190.92 362,-180.1"/>
</g>
<!-- 11 -->
<g id="node17" class="node">
<title>11</title>
<ellipse fill="none" stroke="black" cx="326" cy="-90" rx="27" ry="18"/>
<text text-anchor="middle" x="326" y="-84.95" font-family="Times,serif" font-size="14.00">x</text>
</g>
<!-- 15&#45;&#45;11 -->
<g id="edge16" class="edge">
<title>15&#45;&#45;11</title>
<path fill="none" stroke="black" d="M353.65,-144.76C347.83,-133.46 340.11,-118.44 334.3,-107.15"/>
</g>
<!-- 14 -->
<g id="node18" class="node">
<title>14</title>
<ellipse fill="none" stroke="black" cx="398" cy="-90" rx="27" ry="18"/>
<text text-anchor="middle" x="398" y="-84.95" font-family="Times,serif" font-size="14.00">+</text>
</g>
<!-- 15&#45;&#45;14 -->
<g id="edge17" class="edge">
<title>15&#45;&#45;14</title>
<path fill="none" stroke="black" d="M370.35,-144.76C376.17,-133.46 383.89,-118.44 389.7,-107.15"/>
</g>
<!-- 12 -->
<g id="node19" class="node">
<title>12</title>
<ellipse fill="none" stroke="black" cx="362" cy="-18" rx="27" ry="18"/>
<text text-anchor="middle" x="362" y="-12.95" font-family="Times,serif" font-size="14.00">y</text>
</g>
<!-- 14&#45;&#45;12 -->
<g id="edge18" class="edge">
<title>14&#45;&#45;12</title>
<path fill="none" stroke="black" d="M389.65,-72.76C383.83,-61.46 376.11,-46.44 370.3,-35.15"/>
</g>
<!-- 13 -->
<g id="node20" class="node">
<title>13</title>
<ellipse fill="none" stroke="black" cx="434" cy="-18" rx="27" ry="18"/>
<text text-anchor="middle" x="434" y="-12.95" font-family="Times,serif" font-size="14.00">0.1</text>
</g>
<!-- 14&#45;&#45;13 -->
<g id="edge19" class="edge">
<title>14&#45;&#45;13</title>
<path fill="none" stroke="black" d="M406.35,-72.76C412.17,-61.46 419.89,-46.44 425.7,-35.15"/>
</g>
</g>
</svg>
