<?xml version="1.0" encoding="UTF-8" standalone="no"?>
<!DOCTYPE svg PUBLIC "-//W3C//DTD SVG 1.1//EN"
 "http://www.w3.org/Graphics/SVG/1.1/DTD/svg11.dtd">
<!-- Generated by graphviz version 12.1.2 (20240928.0832)
 -->
<!-- Title: G Pages: 1 -->
<svg width="604pt" height="501pt"
 viewBox="0.00 0.00 603.75 500.50" xmlns="http://www.w3.org/2000/svg" xmlns:xlink="http://www.w3.org/1999/xlink">
<g id="graph0" class="graph" transform="scale(1 1) rotate(0) translate(4 496.5)">
<title>G</title>
<polygon fill="white" stroke="none" points="-4,4 -4,-496.5 599.75,-496.5 599.75,4 -4,4"/>
<text text-anchor="middle" x="297.88" y="-475.2" font-family="Times,serif" font-size="14.00">((I ^ sech(0)) &#45; ((y / ((4 ^ I) / exp(x))) &#45; ((y / ((4 ^ I) / exp(x))) * tanh((0.2 &#45; (t &#45; 20.000000)))))), depth = 6</text>
<!-- 29 -->
<g id="node1" class="node">
<title>29</title>
<ellipse fill="none" stroke="black" cx="144.73" cy="-450" rx="27" ry="18"/>
<text text-anchor="middle" x="144.73" y="-444.95" font-family="Times,serif" font-size="14.00">&#45;</text>
</g>
<!-- 4 -->
<g id="node2" class="node">
<title>4</title>
<ellipse fill="none" stroke="black" cx="108.73" cy="-378" rx="27" ry="18"/>
<text text-anchor="middle" x="108.73" y="-372.95" font-family="Times,serif" font-size="14.00">^</text>
</g>
<!-- 29&#45;&#45;4 -->
<g id="edge1" class="edge">
<title>29&#45;&#45;4</title>
<path fill="none" stroke="black" d="M136.38,-432.76C130.56,-421.46 122.84,-406.44 117.03,-395.15"/>
</g>
<!-- 28 -->
<g id="node6" class="node">
<title>28</title>
<ellipse fill="none" stroke="black" cx="198.73" cy="-378" rx="27" ry="18"/>
<text text-anchor="middle" x="198.73" y="-372.95" font-family="Times,serif" font-size="14.00">&#45;</text>
</g>
<!-- 29&#45;&#45;28 -->
<g id="edge5" class="edge">
<title>29&#45;&#45;28</title>
<path fill="none" stroke="black" d="M156.71,-433.46C165.66,-421.86 177.84,-406.08 186.78,-394.49"/>
</g>
<!-- 1 -->
<g id="node3" class="node">
<title>1</title>
<ellipse fill="none" stroke="black" cx="36.73" cy="-306" rx="27" ry="18"/>
<text text-anchor="middle" x="36.73" y="-300.95" font-family="Times,serif" font-size="14.00">I</text>
</g>
<!-- 4&#45;&#45;1 -->
<g id="edge2" class="edge">
<title>4&#45;&#45;1</title>
<path fill="none" stroke="black" d="M93.81,-362.5C81.45,-350.48 63.98,-333.49 51.63,-321.49"/>
</g>
<!-- 3 -->
<g id="node4" class="node">
<title>3</title>
<ellipse fill="none" stroke="black" cx="108.73" cy="-306" rx="27.3" ry="18"/>
<text text-anchor="middle" x="108.73" y="-300.95" font-family="Times,serif" font-size="14.00">sech</text>
</g>
<!-- 4&#45;&#45;3 -->
<g id="edge3" class="edge">
<title>4&#45;&#45;3</title>
<path fill="none" stroke="black" d="M108.73,-359.7C108.73,-348.85 108.73,-334.92 108.73,-324.1"/>
</g>
<!-- 2 -->
<g id="node5" class="node">
<title>2</title>
<ellipse fill="none" stroke="black" cx="90.73" cy="-234" rx="27" ry="18"/>
<text text-anchor="middle" x="90.73" y="-228.95" font-family="Times,serif" font-size="14.00">0</text>
</g>
<!-- 3&#45;&#45;2 -->
<g id="edge4" class="edge">
<title>3&#45;&#45;2</title>
<path fill="none" stroke="black" d="M104.37,-288.05C101.54,-277.05 97.87,-262.76 95.04,-251.79"/>
</g>
<!-- 12 -->
<g id="node7" class="node">
<title>12</title>
<ellipse fill="none" stroke="black" cx="198.73" cy="-306" rx="27" ry="18"/>
<text text-anchor="middle" x="198.73" y="-300.95" font-family="Times,serif" font-size="14.00">/</text>
</g>
<!-- 28&#45;&#45;12 -->
<g id="edge6" class="edge">
<title>28&#45;&#45;12</title>
<path fill="none" stroke="black" d="M198.73,-359.7C198.73,-348.85 198.73,-334.92 198.73,-324.1"/>
</g>
<!-- 27 -->
<g id="node15" class="node">
<title>27</title>
<ellipse fill="none" stroke="black" cx="342.73" cy="-306" rx="27" ry="18"/>
<text text-anchor="middle" x="342.73" y="-300.95" font-family="Times,serif" font-size="14.00">*</text>
</g>
<!-- 28&#45;&#45;27 -->
<g id="edge14" class="edge">
<title>28&#45;&#45;27</title>
<path fill="none" stroke="black" d="M220.29,-366.52C247.59,-353.25 294.34,-330.52 321.49,-317.32"/>
</g>
<!-- 5 -->
<g id="node8" class="node">
<title>5</title>
<ellipse fill="none" stroke="black" cx="162.73" cy="-234" rx="27" ry="18"/>
<text text-anchor="middle" x="162.73" y="-228.95" font-family="Times,serif" font-size="14.00">y</text>
</g>
<!-- 12&#45;&#45;5 -->
<g id="edge7" class="edge">
<title>12&#45;&#45;5</title>
<path fill="none" stroke="black" d="M190.38,-288.76C184.56,-277.46 176.84,-262.44 171.03,-251.15"/>
</g>
<!-- 11 -->
<g id="node9" class="node">
<title>11</title>
<ellipse fill="none" stroke="black" cx="234.73" cy="-234" rx="27" ry="18"/>
<text text-anchor="middle" x="234.73" y="-228.95" font-family="Times,serif" font-size="14.00">/</text>
</g>
<!-- 12&#45;&#45;11 -->
<g id="edge8" class="edge">
<title>12&#45;&#45;11</title>
<path fill="none" stroke="black" d="M207.08,-288.76C212.89,-277.46 220.62,-262.44 226.42,-251.15"/>
</g>
<!-- 8 -->
<g id="node10" class="node">
<title>8</title>
<ellipse fill="none" stroke="black" cx="162.73" cy="-162" rx="27" ry="18"/>
<text text-anchor="middle" x="162.73" y="-156.95" font-family="Times,serif" font-size="14.00">^</text>
</g>
<!-- 11&#45;&#45;8 -->
<g id="edge9" class="edge">
<title>11&#45;&#45;8</title>
<path fill="none" stroke="black" d="M219.81,-218.5C207.45,-206.48 189.98,-189.49 177.63,-177.49"/>
</g>
<!-- 10 -->
<g id="node13" class="node">
<title>10</title>
<ellipse fill="none" stroke="black" cx="234.73" cy="-162" rx="27" ry="18"/>
<text text-anchor="middle" x="234.73" y="-156.95" font-family="Times,serif" font-size="14.00">exp</text>
</g>
<!-- 11&#45;&#45;10 -->
<g id="edge12" class="edge">
<title>11&#45;&#45;10</title>
<path fill="none" stroke="black" d="M234.73,-215.7C234.73,-204.85 234.73,-190.92 234.73,-180.1"/>
</g>
<!-- 6 -->
<g id="node11" class="node">
<title>6</title>
<ellipse fill="none" stroke="black" cx="90.73" cy="-90" rx="27" ry="18"/>
<text text-anchor="middle" x="90.73" y="-84.95" font-family="Times,serif" font-size="14.00">4</text>
</g>
<!-- 8&#45;&#45;6 -->
<g id="edge10" class="edge">
<title>8&#45;&#45;6</title>
<path fill="none" stroke="black" d="M147.81,-146.5C135.45,-134.48 117.98,-117.49 105.63,-105.49"/>
</g>
<!-- 7 -->
<g id="node12" class="node">
<title>7</title>
<ellipse fill="none" stroke="black" cx="162.73" cy="-90" rx="27" ry="18"/>
<text text-anchor="middle" x="162.73" y="-84.95" font-family="Times,serif" font-size="14.00">I</text>
</g>
<!-- 8&#45;&#45;7 -->
<g id="edge11" class="edge">
<title>8&#45;&#45;7</title>
<path fill="none" stroke="black" d="M162.73,-143.7C162.73,-132.85 162.73,-118.92 162.73,-108.1"/>
</g>
<!-- 9 -->
<g id="node14" class="node">
<title>9</title>
<ellipse fill="none" stroke="black" cx="234.73" cy="-90" rx="27" ry="18"/>
<text text-anchor="middle" x="234.73" y="-84.95" font-family="Times,serif" font-size="14.00">x</text>
</g>
<!-- 10&#45;&#45;9 -->
<g id="edge13" class="edge">
<title>10&#45;&#45;9</title>
<path fill="none" stroke="black" d="M234.73,-143.7C234.73,-132.85 234.73,-118.92 234.73,-108.1"/>
</g>
<!-- 20 -->
<g id="node16" class="node">
<title>20</title>
<ellipse fill="none" stroke="black" cx="342.73" cy="-234" rx="27" ry="18"/>
<text text-anchor="middle" x="342.73" y="-228.95" font-family="Times,serif" font-size="14.00">/</text>
</g>
<!-- 27&#45;&#45;20 -->
<g id="edge15" class="edge">
<title>27&#45;&#45;20</title>
<path fill="none" stroke="black" d="M342.73,-287.7C342.73,-276.85 342.73,-262.92 342.73,-252.1"/>
</g>
<!-- 26 -->
<g id="node24" class="node">
<title>26</title>
<ellipse fill="none" stroke="black" cx="432.73" cy="-234" rx="27" ry="18"/>
<text text-anchor="middle" x="432.73" y="-228.95" font-family="Times,serif" font-size="14.00">tanh</text>
</g>
<!-- 27&#45;&#45;26 -->
<g id="edge23" class="edge">
<title>27&#45;&#45;26</title>
<path fill="none" stroke="black" d="M359.66,-291.83C375.64,-279.4 399.5,-260.84 415.57,-248.35"/>
</g>
<!-- 13 -->
<g id="node17" class="node">
<title>13</title>
<ellipse fill="none" stroke="black" cx="306.73" cy="-162" rx="27" ry="18"/>
<text text-anchor="middle" x="306.73" y="-156.95" font-family="Times,serif" font-size="14.00">y</text>
</g>
<!-- 20&#45;&#45;13 -->
<g id="edge16" class="edge">
<title>20&#45;&#45;13</title>
<path fill="none" stroke="black" d="M334.38,-216.76C328.56,-205.46 320.84,-190.44 315.03,-179.15"/>
</g>
<!-- 19 -->
<g id="node18" class="node">
<title>19</title>
<ellipse fill="none" stroke="black" cx="378.73" cy="-162" rx="27" ry="18"/>
<text text-anchor="middle" x="378.73" y="-156.95" font-family="Times,serif" font-size="14.00">/</text>
</g>
<!-- 20&#45;&#45;19 -->
<g id="edge17" class="edge">
<title>20&#45;&#45;19</title>
<path fill="none" stroke="black" d="M351.08,-216.76C356.89,-205.46 364.62,-190.44 370.42,-179.15"/>
</g>
<!-- 16 -->
<g id="node19" class="node">
<title>16</title>
<ellipse fill="none" stroke="black" cx="306.73" cy="-90" rx="27" ry="18"/>
<text text-anchor="middle" x="306.73" y="-84.95" font-family="Times,serif" font-size="14.00">^</text>
</g>
<!-- 19&#45;&#45;16 -->
<g id="edge18" class="edge">
<title>19&#45;&#45;16</title>
<path fill="none" stroke="black" d="M363.81,-146.5C351.45,-134.48 333.98,-117.49 321.63,-105.49"/>
</g>
<!-- 18 -->
<g id="node22" class="node">
<title>18</title>
<ellipse fill="none" stroke="black" cx="378.73" cy="-90" rx="27" ry="18"/>
<text text-anchor="middle" x="378.73" y="-84.95" font-family="Times,serif" font-size="14.00">exp</text>
</g>
<!-- 19&#45;&#45;18 -->
<g id="edge21" class="edge">
<title>19&#45;&#45;18</title>
<path fill="none" stroke="black" d="M378.73,-143.7C378.73,-132.85 378.73,-118.92 378.73,-108.1"/>
</g>
<!-- 14 -->
<g id="node20" class="node">
<title>14</title>
<ellipse fill="none" stroke="black" cx="234.73" cy="-18" rx="27" ry="18"/>
<text text-anchor="middle" x="234.73" y="-12.95" font-family="Times,serif" font-size="14.00">4</text>
</g>
<!-- 16&#45;&#45;14 -->
<g id="edge19" class="edge">
<title>16&#45;&#45;14</title>
<path fill="none" stroke="black" d="M291.81,-74.5C279.45,-62.48 261.98,-45.49 249.63,-33.49"/>
</g>
<!-- 15 -->
<g id="node21" class="node">
<title>15</title>
<ellipse fill="none" stroke="black" cx="306.73" cy="-18" rx="27" ry="18"/>
<text text-anchor="middle" x="306.73" y="-12.95" font-family="Times,serif" font-size="14.00">I</text>
</g>
<!-- 16&#45;&#45;15 -->
<g id="edge20" class="edge">
<title>16&#45;&#45;15</title>
<path fill="none" stroke="black" d="M306.73,-71.7C306.73,-60.85 306.73,-46.92 306.73,-36.1"/>
</g>
<!-- 17 -->
<g id="node23" class="node">
<title>17</title>
<ellipse fill="none" stroke="black" cx="378.73" cy="-18" rx="27" ry="18"/>
<text text-anchor="middle" x="378.73" y="-12.95" font-family="Times,serif" font-size="14.00">x</text>
</g>
<!-- 18&#45;&#45;17 -->
<g id="edge22" class="edge">
<title>18&#45;&#45;17</title>
<path fill="none" stroke="black" d="M378.73,-71.7C378.73,-60.85 378.73,-46.92 378.73,-36.1"/>
</g>
<!-- 25 -->
<g id="node25" class="node">
<title>25</title>
<ellipse fill="none" stroke="black" cx="450.73" cy="-162" rx="27" ry="18"/>
<text text-anchor="middle" x="450.73" y="-156.95" font-family="Times,serif" font-size="14.00">&#45;</text>
</g>
<!-- 26&#45;&#45;25 -->
<g id="edge24" class="edge">
<title>26&#45;&#45;25</title>
<path fill="none" stroke="black" d="M437.08,-216.05C439.91,-205.05 443.59,-190.76 446.41,-179.79"/>
</g>
<!-- 21 -->
<g id="node26" class="node">
<title>21</title>
<ellipse fill="none" stroke="black" cx="450.73" cy="-90" rx="27" ry="18"/>
<text text-anchor="middle" x="450.73" y="-84.95" font-family="Times,serif" font-size="14.00">0.2</text>
</g>
<!-- 25&#45;&#45;21 -->
<g id="edge25" class="edge">
<title>25&#45;&#45;21</title>
<path fill="none" stroke="black" d="M450.73,-143.7C450.73,-132.85 450.73,-118.92 450.73,-108.1"/>
</g>
<!-- 24 -->
<g id="node27" class="node">
<title>24</title>
<ellipse fill="none" stroke="black" cx="522.73" cy="-90" rx="27" ry="18"/>
<text text-anchor="middle" x="522.73" y="-84.95" font-family="Times,serif" font-size="14.00">&#45;</text>
</g>
<!-- 25&#45;&#45;24 -->
<g id="edge26" class="edge">
<title>25&#45;&#45;24</title>
<path fill="none" stroke="black" d="M465.65,-146.5C478,-134.48 495.48,-117.49 507.83,-105.49"/>
</g>
<!-- 22 -->
<g id="node28" class="node">
<title>22</title>
<ellipse fill="none" stroke="black" cx="486.73" cy="-18" rx="27" ry="18"/>
<text text-anchor="middle" x="486.73" y="-12.95" font-family="Times,serif" font-size="14.00">t</text>
</g>
<!-- 24&#45;&#45;22 -->
<g id="edge27" class="edge">
<title>24&#45;&#45;22</title>
<path fill="none" stroke="black" d="M514.38,-72.76C508.56,-61.46 500.84,-46.44 495.03,-35.15"/>
</g>
<!-- 23 -->
<g id="node29" class="node">
<title>23</title>
<ellipse fill="none" stroke="black" cx="558.73" cy="-18" rx="27.3" ry="18"/>
<text text-anchor="middle" x="558.73" y="-12.95" font-family="Times,serif" font-size="14.00">20.0</text>
</g>
<!-- 24&#45;&#45;23 -->
<g id="edge28" class="edge">
<title>24&#45;&#45;23</title>
<path fill="none" stroke="black" d="M531.08,-72.76C536.89,-61.46 544.62,-46.44 550.42,-35.15"/>
</g>
</g>
</svg>
