<?xml version="1.0" encoding="UTF-8" standalone="no"?>
<!DOCTYPE svg PUBLIC "-//W3C//DTD SVG 1.1//EN"
 "http://www.w3.org/Graphics/SVG/1.1/DTD/svg11.dtd">
<!-- Generated by graphviz version 12.2.1 (20241206.2353)
 -->
<!-- Title: G Pages: 1 -->
<svg width="791pt" height="285pt"
 viewBox="0.00 0.00 791.25 284.50" xmlns="http://www.w3.org/2000/svg" xmlns:xlink="http://www.w3.org/1999/xlink">
<g id="graph0" class="graph" transform="scale(1 1) rotate(0) translate(4 280.5)">
<title>G</title>
<polygon fill="white" stroke="none" points="-4,4 -4,-280.5 787.25,-280.5 787.25,4 -4,4"/>
<text text-anchor="middle" x="391.62" y="-259.2" font-family="Times,serif" font-size="14.00">w_{j,m,t=MYTAU} = w_{j,m,t=MYTAU&#45;1} + MYTHETA MYCDOT v_{j,m,t=MYTAU&#45;1} + MYETA MYCDOT g_{j,m,t=MYTAU}</text>
<!-- 9 -->
<g id="node1" class="node">
<title>9</title>
<ellipse fill="none" stroke="black" cx="319.77" cy="-234" rx="27" ry="18"/>
<text text-anchor="middle" x="319.77" y="-228.95" font-family="Times,serif" font-size="14.00">+</text>
</g>
<!-- 1 -->
<g id="node2" class="node">
<title>1</title>
<ellipse fill="none" stroke="black" cx="252.77" cy="-162" rx="89.23" ry="18"/>
<text text-anchor="middle" x="252.77" y="-156.95" font-family="Times,serif" font-size="14.00">w_{j,m,t=MYTAU}</text>
</g>
<!-- 9&#45;&#45;1 -->
<g id="edge1" class="edge">
<title>9&#45;&#45;1</title>
<path fill="none" stroke="black" d="M305.89,-218.5C295.16,-207.28 280.28,-191.74 268.99,-179.95"/>
</g>
<!-- 8 -->
<g id="node3" class="node">
<title>8</title>
<ellipse fill="none" stroke="black" cx="386.77" cy="-162" rx="27" ry="18"/>
<text text-anchor="middle" x="386.77" y="-156.95" font-family="Times,serif" font-size="14.00">+</text>
</g>
<!-- 9&#45;&#45;8 -->
<g id="edge2" class="edge">
<title>9&#45;&#45;8</title>
<path fill="none" stroke="black" d="M333.65,-218.5C345.15,-206.48 361.41,-189.49 372.91,-177.49"/>
</g>
<!-- 4 -->
<g id="node4" class="node">
<title>4</title>
<ellipse fill="none" stroke="black" cx="307.77" cy="-90" rx="51.35" ry="18"/>
<text text-anchor="middle" x="307.77" y="-84.95" font-family="Times,serif" font-size="14.00">MYCDOT</text>
</g>
<!-- 8&#45;&#45;4 -->
<g id="edge3" class="edge">
<title>8&#45;&#45;4</title>
<path fill="none" stroke="black" d="M371.16,-147.17C358.21,-135.7 339.77,-119.36 326.12,-107.26"/>
</g>
<!-- 7 -->
<g id="node7" class="node">
<title>7</title>
<ellipse fill="none" stroke="black" cx="464.77" cy="-90" rx="51.35" ry="18"/>
<text text-anchor="middle" x="464.77" y="-84.95" font-family="Times,serif" font-size="14.00">MYCDOT</text>
</g>
<!-- 8&#45;&#45;7 -->
<g id="edge6" class="edge">
<title>8&#45;&#45;7</title>
<path fill="none" stroke="black" d="M402.18,-147.17C414.97,-135.7 433.17,-119.36 446.66,-107.26"/>
</g>
<!-- 2 -->
<g id="node5" class="node">
<title>2</title>
<ellipse fill="none" stroke="black" cx="138.77" cy="-18" rx="56.47" ry="18"/>
<text text-anchor="middle" x="138.77" y="-12.95" font-family="Times,serif" font-size="14.00">MYTHETA</text>
</g>
<!-- 4&#45;&#45;2 -->
<g id="edge4" class="edge">
<title>4&#45;&#45;2</title>
<path fill="none" stroke="black" d="M275.59,-75.67C245.99,-63.41 202.29,-45.31 172.28,-32.88"/>
</g>
<!-- 3 -->
<g id="node6" class="node">
<title>3</title>
<ellipse fill="none" stroke="black" cx="307.77" cy="-18" rx="94.86" ry="18"/>
<text text-anchor="middle" x="307.77" y="-12.95" font-family="Times,serif" font-size="14.00">v_{j,m,t=MYTAU&#45;1}</text>
</g>
<!-- 4&#45;&#45;3 -->
<g id="edge5" class="edge">
<title>4&#45;&#45;3</title>
<path fill="none" stroke="black" d="M307.77,-71.7C307.77,-60.85 307.77,-46.92 307.77,-36.1"/>
</g>
<!-- 5 -->
<g id="node8" class="node">
<title>5</title>
<ellipse fill="none" stroke="black" cx="464.77" cy="-18" rx="44.19" ry="18"/>
<text text-anchor="middle" x="464.77" y="-12.95" font-family="Times,serif" font-size="14.00">MYETA</text>
</g>
<!-- 7&#45;&#45;5 -->
<g id="edge7" class="edge">
<title>7&#45;&#45;5</title>
<path fill="none" stroke="black" d="M464.77,-71.7C464.77,-60.85 464.77,-46.92 464.77,-36.1"/>
</g>
<!-- 6 -->
<g id="node9" class="node">
<title>6</title>
<ellipse fill="none" stroke="black" cx="613.77" cy="-18" rx="87.18" ry="18"/>
<text text-anchor="middle" x="613.77" y="-12.95" font-family="Times,serif" font-size="14.00">g_{j,m,t=MYTAU}</text>
</g>
<!-- 7&#45;&#45;6 -->
<g id="edge8" class="edge">
<title>7&#45;&#45;6</title>
<path fill="none" stroke="black" d="M494.57,-75C519.19,-63.43 554.17,-47 579.86,-34.93"/>
</g>
</g>
</svg>
