<?xml version="1.0" encoding="UTF-8" standalone="no"?>
<!DOCTYPE svg PUBLIC "-//W3C//DTD SVG 1.1//EN"
 "http://www.w3.org/Graphics/SVG/1.1/DTD/svg11.dtd">
<!-- Generated by graphviz version 9.0.0 (20230911.1827)
 -->
<!-- Title: G Pages: 1 -->
<svg width="214pt" height="285pt"
 viewBox="0.00 0.00 213.71 284.50" xmlns="http://www.w3.org/2000/svg" xmlns:xlink="http://www.w3.org/1999/xlink">
<g id="graph0" class="graph" transform="scale(1 1) rotate(0) translate(4 280.5)">
<title>G</title>
<polygon fill="white" stroke="none" points="-4,4 -4,-280.5 209.71,-280.5 209.71,4 -4,4"/>
<text text-anchor="middle" x="102.86" y="-259.2" font-family="Times,serif" font-size="14.00">~mom*B*cos(theta), depth = 3</text>
<!-- 7 -->
<g id="node1" class="node">
<title>7</title>
<ellipse fill="none" stroke="black" cx="138.88" cy="-234" rx="27" ry="18"/>
<text text-anchor="middle" x="138.88" y="-228.95" font-family="Times,serif" font-size="14.00">*</text>
</g>
<!-- 4 -->
<g id="node2" class="node">
<title>4</title>
<ellipse fill="none" stroke="black" cx="102.88" cy="-162" rx="27" ry="18"/>
<text text-anchor="middle" x="102.88" y="-156.95" font-family="Times,serif" font-size="14.00">*</text>
</g>
<!-- 7&#45;&#45;4 -->
<g id="edge1" class="edge">
<title>7&#45;&#45;4</title>
<path fill="none" stroke="black" d="M130.53,-216.76C124.71,-205.46 116.99,-190.44 111.18,-179.15"/>
</g>
<!-- 6 -->
<g id="node6" class="node">
<title>6</title>
<ellipse fill="none" stroke="black" cx="175.88" cy="-162" rx="27" ry="18"/>
<text text-anchor="middle" x="175.88" y="-156.95" font-family="Times,serif" font-size="14.00">cos</text>
</g>
<!-- 7&#45;&#45;6 -->
<g id="edge5" class="edge">
<title>7&#45;&#45;6</title>
<path fill="none" stroke="black" d="M147.46,-216.76C153.44,-205.46 161.38,-190.44 167.34,-179.15"/>
</g>
<!-- 2 -->
<g id="node3" class="node">
<title>2</title>
<ellipse fill="none" stroke="black" cx="30.88" cy="-90" rx="27" ry="18"/>
<text text-anchor="middle" x="30.88" y="-84.95" font-family="Times,serif" font-size="14.00">~</text>
</g>
<!-- 4&#45;&#45;2 -->
<g id="edge2" class="edge">
<title>4&#45;&#45;2</title>
<path fill="none" stroke="black" d="M87.96,-146.5C75.6,-134.48 58.13,-117.49 45.78,-105.49"/>
</g>
<!-- 3 -->
<g id="node5" class="node">
<title>3</title>
<ellipse fill="none" stroke="black" cx="102.88" cy="-90" rx="27" ry="18"/>
<text text-anchor="middle" x="102.88" y="-84.95" font-family="Times,serif" font-size="14.00">B</text>
</g>
<!-- 4&#45;&#45;3 -->
<g id="edge4" class="edge">
<title>4&#45;&#45;3</title>
<path fill="none" stroke="black" d="M102.88,-143.7C102.88,-132.85 102.88,-118.92 102.88,-108.1"/>
</g>
<!-- 1 -->
<g id="node4" class="node">
<title>1</title>
<ellipse fill="none" stroke="black" cx="30.88" cy="-18" rx="30.88" ry="18"/>
<text text-anchor="middle" x="30.88" y="-12.95" font-family="Times,serif" font-size="14.00">mom</text>
</g>
<!-- 2&#45;&#45;1 -->
<g id="edge3" class="edge">
<title>2&#45;&#45;1</title>
<path fill="none" stroke="black" d="M30.88,-71.7C30.88,-60.85 30.88,-46.92 30.88,-36.1"/>
</g>
<!-- 5 -->
<g id="node7" class="node">
<title>5</title>
<ellipse fill="none" stroke="black" cx="176.88" cy="-90" rx="28.83" ry="18"/>
<text text-anchor="middle" x="176.88" y="-84.95" font-family="Times,serif" font-size="14.00">theta</text>
</g>
<!-- 6&#45;&#45;5 -->
<g id="edge6" class="edge">
<title>6&#45;&#45;5</title>
<path fill="none" stroke="black" d="M176.13,-143.7C176.28,-132.85 176.48,-118.92 176.63,-108.1"/>
</g>
</g>
</svg>
