<?xml version="1.0" encoding="UTF-8" standalone="no"?>
<!DOCTYPE svg PUBLIC "-//W3C//DTD SVG 1.1//EN"
 "http://www.w3.org/Graphics/SVG/1.1/DTD/svg11.dtd">
<!-- Generated by graphviz version 9.0.0 (20230911.1827)
 -->
<!-- Title: G Pages: 1 -->
<svg width="332pt" height="357pt"
 viewBox="0.00 0.00 332.41 356.50" xmlns="http://www.w3.org/2000/svg" xmlns:xlink="http://www.w3.org/1999/xlink">
<g id="graph0" class="graph" transform="scale(1 1) rotate(0) translate(4 352.5)">
<title>G</title>
<polygon fill="white" stroke="none" points="-4,4 -4,-352.5 328.41,-352.5 328.41,4 -4,4"/>
<text text-anchor="middle" x="162.21" y="-331.2" font-family="Times,serif" font-size="14.00">n_rho*mom*tanh(mom*B/(kb*T)), depth = 4</text>
<!-- 12 -->
<g id="node1" class="node">
<title>12</title>
<ellipse fill="none" stroke="black" cx="149.41" cy="-306" rx="27" ry="18"/>
<text text-anchor="middle" x="149.41" y="-300.95" font-family="Times,serif" font-size="14.00">*</text>
</g>
<!-- 3 -->
<g id="node2" class="node">
<title>3</title>
<ellipse fill="none" stroke="black" cx="113.41" cy="-234" rx="27" ry="18"/>
<text text-anchor="middle" x="113.41" y="-228.95" font-family="Times,serif" font-size="14.00">*</text>
</g>
<!-- 12&#45;&#45;3 -->
<g id="edge1" class="edge">
<title>12&#45;&#45;3</title>
<path fill="none" stroke="black" d="M141.06,-288.76C135.25,-277.46 127.52,-262.44 121.72,-251.15"/>
</g>
<!-- 11 -->
<g id="node5" class="node">
<title>11</title>
<ellipse fill="none" stroke="black" cx="187.41" cy="-234" rx="27" ry="18"/>
<text text-anchor="middle" x="187.41" y="-228.95" font-family="Times,serif" font-size="14.00">tanh</text>
</g>
<!-- 12&#45;&#45;11 -->
<g id="edge4" class="edge">
<title>12&#45;&#45;11</title>
<path fill="none" stroke="black" d="M158.23,-288.76C164.37,-277.46 172.52,-262.44 178.65,-251.15"/>
</g>
<!-- 1 -->
<g id="node3" class="node">
<title>1</title>
<ellipse fill="none" stroke="black" cx="32.41" cy="-162" rx="32.41" ry="18"/>
<text text-anchor="middle" x="32.41" y="-156.95" font-family="Times,serif" font-size="14.00">n_rho</text>
</g>
<!-- 3&#45;&#45;1 -->
<g id="edge2" class="edge">
<title>3&#45;&#45;1</title>
<path fill="none" stroke="black" d="M97.41,-219.17C83.58,-207.22 63.64,-189.99 49.5,-177.77"/>
</g>
<!-- 2 -->
<g id="node4" class="node">
<title>2</title>
<ellipse fill="none" stroke="black" cx="113.41" cy="-162" rx="30.88" ry="18"/>
<text text-anchor="middle" x="113.41" y="-156.95" font-family="Times,serif" font-size="14.00">mom</text>
</g>
<!-- 3&#45;&#45;2 -->
<g id="edge3" class="edge">
<title>3&#45;&#45;2</title>
<path fill="none" stroke="black" d="M113.41,-215.7C113.41,-204.85 113.41,-190.92 113.41,-180.1"/>
</g>
<!-- 10 -->
<g id="node6" class="node">
<title>10</title>
<ellipse fill="none" stroke="black" cx="189.41" cy="-162" rx="27" ry="18"/>
<text text-anchor="middle" x="189.41" y="-156.95" font-family="Times,serif" font-size="14.00">/</text>
</g>
<!-- 11&#45;&#45;10 -->
<g id="edge5" class="edge">
<title>11&#45;&#45;10</title>
<path fill="none" stroke="black" d="M187.91,-215.7C188.22,-204.85 188.62,-190.92 188.93,-180.1"/>
</g>
<!-- 6 -->
<g id="node7" class="node">
<title>6</title>
<ellipse fill="none" stroke="black" cx="153.41" cy="-90" rx="27" ry="18"/>
<text text-anchor="middle" x="153.41" y="-84.95" font-family="Times,serif" font-size="14.00">*</text>
</g>
<!-- 10&#45;&#45;6 -->
<g id="edge6" class="edge">
<title>10&#45;&#45;6</title>
<path fill="none" stroke="black" d="M181.06,-144.76C175.25,-133.46 167.52,-118.44 161.72,-107.15"/>
</g>
<!-- 9 -->
<g id="node10" class="node">
<title>9</title>
<ellipse fill="none" stroke="black" cx="225.41" cy="-90" rx="27" ry="18"/>
<text text-anchor="middle" x="225.41" y="-84.95" font-family="Times,serif" font-size="14.00">*</text>
</g>
<!-- 10&#45;&#45;9 -->
<g id="edge9" class="edge">
<title>10&#45;&#45;9</title>
<path fill="none" stroke="black" d="M197.76,-144.76C203.58,-133.46 211.3,-118.44 217.11,-107.15"/>
</g>
<!-- 4 -->
<g id="node8" class="node">
<title>4</title>
<ellipse fill="none" stroke="black" cx="77.41" cy="-18" rx="30.88" ry="18"/>
<text text-anchor="middle" x="77.41" y="-12.95" font-family="Times,serif" font-size="14.00">mom</text>
</g>
<!-- 6&#45;&#45;4 -->
<g id="edge7" class="edge">
<title>6&#45;&#45;4</title>
<path fill="none" stroke="black" d="M138.03,-74.83C125.02,-62.85 106.45,-45.74 93.29,-33.63"/>
</g>
<!-- 5 -->
<g id="node9" class="node">
<title>5</title>
<ellipse fill="none" stroke="black" cx="153.41" cy="-18" rx="27" ry="18"/>
<text text-anchor="middle" x="153.41" y="-12.95" font-family="Times,serif" font-size="14.00">B</text>
</g>
<!-- 6&#45;&#45;5 -->
<g id="edge8" class="edge">
<title>6&#45;&#45;5</title>
<path fill="none" stroke="black" d="M153.41,-71.7C153.41,-60.85 153.41,-46.92 153.41,-36.1"/>
</g>
<!-- 7 -->
<g id="node11" class="node">
<title>7</title>
<ellipse fill="none" stroke="black" cx="225.41" cy="-18" rx="27" ry="18"/>
<text text-anchor="middle" x="225.41" y="-12.95" font-family="Times,serif" font-size="14.00">kb</text>
</g>
<!-- 9&#45;&#45;7 -->
<g id="edge10" class="edge">
<title>9&#45;&#45;7</title>
<path fill="none" stroke="black" d="M225.41,-71.7C225.41,-60.85 225.41,-46.92 225.41,-36.1"/>
</g>
<!-- 8 -->
<g id="node12" class="node">
<title>8</title>
<ellipse fill="none" stroke="black" cx="297.41" cy="-18" rx="27" ry="18"/>
<text text-anchor="middle" x="297.41" y="-12.95" font-family="Times,serif" font-size="14.00">T</text>
</g>
<!-- 9&#45;&#45;8 -->
<g id="edge11" class="edge">
<title>9&#45;&#45;8</title>
<path fill="none" stroke="black" d="M240.33,-74.5C252.69,-62.48 270.16,-45.49 282.52,-33.49"/>
</g>
</g>
</svg>
