<?xml version="1.0" encoding="UTF-8" standalone="no"?>
<!DOCTYPE svg PUBLIC "-//W3C//DTD SVG 1.1//EN"
 "http://www.w3.org/Graphics/SVG/1.1/DTD/svg11.dtd">
<!-- Generated by graphviz version 9.0.0 (20230911.1827)
 -->
<!-- Title: G Pages: 1 -->
<svg width="188pt" height="285pt"
 viewBox="0.00 0.00 188.00 284.50" xmlns="http://www.w3.org/2000/svg" xmlns:xlink="http://www.w3.org/1999/xlink">
<g id="graph0" class="graph" transform="scale(1 1) rotate(0) translate(4 280.5)">
<title>G</title>
<polygon fill="white" stroke="none" points="-4,4 -4,-280.5 184,-280.5 184,4 -4,4"/>
<text text-anchor="middle" x="90" y="-259.2" font-family="Times,serif" font-size="14.00">(h/(2*pi))*omega, depth = 3</text>
<!-- 7 -->
<g id="node1" class="node">
<title>7</title>
<ellipse fill="none" stroke="black" cx="103" cy="-234" rx="27" ry="18"/>
<text text-anchor="middle" x="103" y="-228.95" font-family="Times,serif" font-size="14.00">*</text>
</g>
<!-- 5 -->
<g id="node2" class="node">
<title>5</title>
<ellipse fill="none" stroke="black" cx="63" cy="-162" rx="27" ry="18"/>
<text text-anchor="middle" x="63" y="-156.95" font-family="Times,serif" font-size="14.00">/</text>
</g>
<!-- 7&#45;&#45;5 -->
<g id="edge1" class="edge">
<title>7&#45;&#45;5</title>
<path fill="none" stroke="black" d="M93.72,-216.76C87.26,-205.46 78.68,-190.44 72.23,-179.15"/>
</g>
<!-- 6 -->
<g id="node7" class="node">
<title>6</title>
<ellipse fill="none" stroke="black" cx="144" cy="-162" rx="36" ry="18"/>
<text text-anchor="middle" x="144" y="-156.95" font-family="Times,serif" font-size="14.00">omega</text>
</g>
<!-- 7&#45;&#45;6 -->
<g id="edge6" class="edge">
<title>7&#45;&#45;6</title>
<path fill="none" stroke="black" d="M112.51,-216.76C119.04,-205.62 127.68,-190.87 134.26,-179.63"/>
</g>
<!-- 1 -->
<g id="node3" class="node">
<title>1</title>
<ellipse fill="none" stroke="black" cx="27" cy="-90" rx="27" ry="18"/>
<text text-anchor="middle" x="27" y="-84.95" font-family="Times,serif" font-size="14.00">h</text>
</g>
<!-- 5&#45;&#45;1 -->
<g id="edge2" class="edge">
<title>5&#45;&#45;1</title>
<path fill="none" stroke="black" d="M54.65,-144.76C48.83,-133.46 41.11,-118.44 35.3,-107.15"/>
</g>
<!-- 4 -->
<g id="node4" class="node">
<title>4</title>
<ellipse fill="none" stroke="black" cx="99" cy="-90" rx="27" ry="18"/>
<text text-anchor="middle" x="99" y="-84.95" font-family="Times,serif" font-size="14.00">*</text>
</g>
<!-- 5&#45;&#45;4 -->
<g id="edge3" class="edge">
<title>5&#45;&#45;4</title>
<path fill="none" stroke="black" d="M71.35,-144.76C77.17,-133.46 84.89,-118.44 90.7,-107.15"/>
</g>
<!-- 2 -->
<g id="node5" class="node">
<title>2</title>
<ellipse fill="none" stroke="black" cx="63" cy="-18" rx="27" ry="18"/>
<text text-anchor="middle" x="63" y="-12.95" font-family="Times,serif" font-size="14.00">2</text>
</g>
<!-- 4&#45;&#45;2 -->
<g id="edge4" class="edge">
<title>4&#45;&#45;2</title>
<path fill="none" stroke="black" d="M90.65,-72.76C84.83,-61.46 77.11,-46.44 71.3,-35.15"/>
</g>
<!-- 3 -->
<g id="node6" class="node">
<title>3</title>
<ellipse fill="none" stroke="black" cx="135" cy="-18" rx="27" ry="18"/>
<text text-anchor="middle" x="135" y="-12.95" font-family="Times,serif" font-size="14.00">pi</text>
</g>
<!-- 4&#45;&#45;3 -->
<g id="edge5" class="edge">
<title>4&#45;&#45;3</title>
<path fill="none" stroke="black" d="M107.35,-72.76C113.17,-61.46 120.89,-46.44 126.7,-35.15"/>
</g>
</g>
</svg>
