<?xml version="1.0" encoding="UTF-8" standalone="no"?>
<!DOCTYPE svg PUBLIC "-//W3C//DTD SVG 1.1//EN"
 "http://www.w3.org/Graphics/SVG/1.1/DTD/svg11.dtd">
<!-- Generated by graphviz version 9.0.0 (20230911.1827)
 -->
<!-- Title: G Pages: 1 -->
<svg width="506pt" height="573pt"
 viewBox="0.00 0.00 505.88 572.50" xmlns="http://www.w3.org/2000/svg" xmlns:xlink="http://www.w3.org/1999/xlink">
<g id="graph0" class="graph" transform="scale(1 1) rotate(0) translate(4 568.5)">
<title>G</title>
<polygon fill="white" stroke="none" points="-4,4 -4,-568.5 501.88,-568.5 501.88,4 -4,4"/>
<text text-anchor="middle" x="248.94" y="-547.2" font-family="Times,serif" font-size="14.00">mom*H/(kb*T)+(mom*alpha)/(epsilon*c**2*kb*T)*M, depth = 7</text>
<!-- 23 -->
<g id="node1" class="node">
<title>23</title>
<ellipse fill="none" stroke="black" cx="286.88" cy="-522" rx="27" ry="18"/>
<text text-anchor="middle" x="286.88" y="-516.95" font-family="Times,serif" font-size="14.00">+</text>
</g>
<!-- 7 -->
<g id="node2" class="node">
<title>7</title>
<ellipse fill="none" stroke="black" cx="214.88" cy="-450" rx="27" ry="18"/>
<text text-anchor="middle" x="214.88" y="-444.95" font-family="Times,serif" font-size="14.00">/</text>
</g>
<!-- 23&#45;&#45;7 -->
<g id="edge1" class="edge">
<title>23&#45;&#45;7</title>
<path fill="none" stroke="black" d="M271.96,-506.5C259.6,-494.48 242.13,-477.49 229.78,-465.49"/>
</g>
<!-- 22 -->
<g id="node9" class="node">
<title>22</title>
<ellipse fill="none" stroke="black" cx="322.88" cy="-450" rx="27" ry="18"/>
<text text-anchor="middle" x="322.88" y="-444.95" font-family="Times,serif" font-size="14.00">*</text>
</g>
<!-- 23&#45;&#45;22 -->
<g id="edge8" class="edge">
<title>23&#45;&#45;22</title>
<path fill="none" stroke="black" d="M295.23,-504.76C301.04,-493.46 308.77,-478.44 314.57,-467.15"/>
</g>
<!-- 3 -->
<g id="node3" class="node">
<title>3</title>
<ellipse fill="none" stroke="black" cx="106.88" cy="-378" rx="27" ry="18"/>
<text text-anchor="middle" x="106.88" y="-372.95" font-family="Times,serif" font-size="14.00">*</text>
</g>
<!-- 7&#45;&#45;3 -->
<g id="edge2" class="edge">
<title>7&#45;&#45;3</title>
<path fill="none" stroke="black" d="M196.07,-436.81C176.37,-424.04 145.59,-404.09 125.84,-391.29"/>
</g>
<!-- 6 -->
<g id="node6" class="node">
<title>6</title>
<ellipse fill="none" stroke="black" cx="214.88" cy="-378" rx="27" ry="18"/>
<text text-anchor="middle" x="214.88" y="-372.95" font-family="Times,serif" font-size="14.00">*</text>
</g>
<!-- 7&#45;&#45;6 -->
<g id="edge5" class="edge">
<title>7&#45;&#45;6</title>
<path fill="none" stroke="black" d="M214.88,-431.7C214.88,-420.85 214.88,-406.92 214.88,-396.1"/>
</g>
<!-- 1 -->
<g id="node4" class="node">
<title>1</title>
<ellipse fill="none" stroke="black" cx="30.88" cy="-306" rx="30.88" ry="18"/>
<text text-anchor="middle" x="30.88" y="-300.95" font-family="Times,serif" font-size="14.00">mom</text>
</g>
<!-- 3&#45;&#45;1 -->
<g id="edge3" class="edge">
<title>3&#45;&#45;1</title>
<path fill="none" stroke="black" d="M91.5,-362.83C78.49,-350.85 59.91,-333.74 46.76,-321.63"/>
</g>
<!-- 2 -->
<g id="node5" class="node">
<title>2</title>
<ellipse fill="none" stroke="black" cx="106.88" cy="-306" rx="27" ry="18"/>
<text text-anchor="middle" x="106.88" y="-300.95" font-family="Times,serif" font-size="14.00">H</text>
</g>
<!-- 3&#45;&#45;2 -->
<g id="edge4" class="edge">
<title>3&#45;&#45;2</title>
<path fill="none" stroke="black" d="M106.88,-359.7C106.88,-348.85 106.88,-334.92 106.88,-324.1"/>
</g>
<!-- 4 -->
<g id="node7" class="node">
<title>4</title>
<ellipse fill="none" stroke="black" cx="178.88" cy="-306" rx="27" ry="18"/>
<text text-anchor="middle" x="178.88" y="-300.95" font-family="Times,serif" font-size="14.00">kb</text>
</g>
<!-- 6&#45;&#45;4 -->
<g id="edge6" class="edge">
<title>6&#45;&#45;4</title>
<path fill="none" stroke="black" d="M206.53,-360.76C200.71,-349.46 192.99,-334.44 187.18,-323.15"/>
</g>
<!-- 5 -->
<g id="node8" class="node">
<title>5</title>
<ellipse fill="none" stroke="black" cx="250.88" cy="-306" rx="27" ry="18"/>
<text text-anchor="middle" x="250.88" y="-300.95" font-family="Times,serif" font-size="14.00">T</text>
</g>
<!-- 6&#45;&#45;5 -->
<g id="edge7" class="edge">
<title>6&#45;&#45;5</title>
<path fill="none" stroke="black" d="M223.23,-360.76C229.04,-349.46 236.77,-334.44 242.57,-323.15"/>
</g>
<!-- 20 -->
<g id="node10" class="node">
<title>20</title>
<ellipse fill="none" stroke="black" cx="322.88" cy="-378" rx="27" ry="18"/>
<text text-anchor="middle" x="322.88" y="-372.95" font-family="Times,serif" font-size="14.00">/</text>
</g>
<!-- 22&#45;&#45;20 -->
<g id="edge9" class="edge">
<title>22&#45;&#45;20</title>
<path fill="none" stroke="black" d="M322.88,-431.7C322.88,-420.85 322.88,-406.92 322.88,-396.1"/>
</g>
<!-- 21 -->
<g id="node23" class="node">
<title>21</title>
<ellipse fill="none" stroke="black" cx="394.88" cy="-378" rx="27" ry="18"/>
<text text-anchor="middle" x="394.88" y="-372.95" font-family="Times,serif" font-size="14.00">M</text>
</g>
<!-- 22&#45;&#45;21 -->
<g id="edge22" class="edge">
<title>22&#45;&#45;21</title>
<path fill="none" stroke="black" d="M337.8,-434.5C350.15,-422.48 367.63,-405.49 379.98,-393.49"/>
</g>
<!-- 10 -->
<g id="node11" class="node">
<title>10</title>
<ellipse fill="none" stroke="black" cx="322.88" cy="-306" rx="27" ry="18"/>
<text text-anchor="middle" x="322.88" y="-300.95" font-family="Times,serif" font-size="14.00">*</text>
</g>
<!-- 20&#45;&#45;10 -->
<g id="edge10" class="edge">
<title>20&#45;&#45;10</title>
<path fill="none" stroke="black" d="M322.88,-359.7C322.88,-348.85 322.88,-334.92 322.88,-324.1"/>
</g>
<!-- 19 -->
<g id="node14" class="node">
<title>19</title>
<ellipse fill="none" stroke="black" cx="398.88" cy="-306" rx="27" ry="18"/>
<text text-anchor="middle" x="398.88" y="-300.95" font-family="Times,serif" font-size="14.00">*</text>
</g>
<!-- 20&#45;&#45;19 -->
<g id="edge13" class="edge">
<title>20&#45;&#45;19</title>
<path fill="none" stroke="black" d="M338.26,-362.83C351.44,-350.69 370.34,-333.28 383.52,-321.14"/>
</g>
<!-- 8 -->
<g id="node12" class="node">
<title>8</title>
<ellipse fill="none" stroke="black" cx="242.88" cy="-234" rx="30.88" ry="18"/>
<text text-anchor="middle" x="242.88" y="-228.95" font-family="Times,serif" font-size="14.00">mom</text>
</g>
<!-- 10&#45;&#45;8 -->
<g id="edge11" class="edge">
<title>10&#45;&#45;8</title>
<path fill="none" stroke="black" d="M307.07,-291.17C293.32,-279.14 273.46,-261.76 259.48,-249.52"/>
</g>
<!-- 9 -->
<g id="node13" class="node">
<title>9</title>
<ellipse fill="none" stroke="black" cx="322.88" cy="-234" rx="30.88" ry="18"/>
<text text-anchor="middle" x="322.88" y="-228.95" font-family="Times,serif" font-size="14.00">alpha</text>
</g>
<!-- 10&#45;&#45;9 -->
<g id="edge12" class="edge">
<title>10&#45;&#45;9</title>
<path fill="none" stroke="black" d="M322.88,-287.7C322.88,-276.85 322.88,-262.92 322.88,-252.1"/>
</g>
<!-- 17 -->
<g id="node15" class="node">
<title>17</title>
<ellipse fill="none" stroke="black" cx="398.88" cy="-234" rx="27" ry="18"/>
<text text-anchor="middle" x="398.88" y="-228.95" font-family="Times,serif" font-size="14.00">*</text>
</g>
<!-- 19&#45;&#45;17 -->
<g id="edge14" class="edge">
<title>19&#45;&#45;17</title>
<path fill="none" stroke="black" d="M398.88,-287.7C398.88,-276.85 398.88,-262.92 398.88,-252.1"/>
</g>
<!-- 18 -->
<g id="node22" class="node">
<title>18</title>
<ellipse fill="none" stroke="black" cx="470.88" cy="-234" rx="27" ry="18"/>
<text text-anchor="middle" x="470.88" y="-228.95" font-family="Times,serif" font-size="14.00">T</text>
</g>
<!-- 19&#45;&#45;18 -->
<g id="edge21" class="edge">
<title>19&#45;&#45;18</title>
<path fill="none" stroke="black" d="M413.8,-290.5C426.15,-278.48 443.63,-261.49 455.98,-249.49"/>
</g>
<!-- 15 -->
<g id="node16" class="node">
<title>15</title>
<ellipse fill="none" stroke="black" cx="362.88" cy="-162" rx="27" ry="18"/>
<text text-anchor="middle" x="362.88" y="-156.95" font-family="Times,serif" font-size="14.00">*</text>
</g>
<!-- 17&#45;&#45;15 -->
<g id="edge15" class="edge">
<title>17&#45;&#45;15</title>
<path fill="none" stroke="black" d="M390.53,-216.76C384.71,-205.46 376.99,-190.44 371.18,-179.15"/>
</g>
<!-- 16 -->
<g id="node21" class="node">
<title>16</title>
<ellipse fill="none" stroke="black" cx="434.88" cy="-162" rx="27" ry="18"/>
<text text-anchor="middle" x="434.88" y="-156.95" font-family="Times,serif" font-size="14.00">kb</text>
</g>
<!-- 17&#45;&#45;16 -->
<g id="edge20" class="edge">
<title>17&#45;&#45;16</title>
<path fill="none" stroke="black" d="M407.23,-216.76C413.04,-205.46 420.77,-190.44 426.57,-179.15"/>
</g>
<!-- 11 -->
<g id="node17" class="node">
<title>11</title>
<ellipse fill="none" stroke="black" cx="321.88" cy="-90" rx="37.53" ry="18"/>
<text text-anchor="middle" x="321.88" y="-84.95" font-family="Times,serif" font-size="14.00">epsilon</text>
</g>
<!-- 15&#45;&#45;11 -->
<g id="edge16" class="edge">
<title>15&#45;&#45;11</title>
<path fill="none" stroke="black" d="M353.37,-144.76C346.84,-133.62 338.2,-118.87 331.62,-107.63"/>
</g>
<!-- 14 -->
<g id="node18" class="node">
<title>14</title>
<ellipse fill="none" stroke="black" cx="404.88" cy="-90" rx="27" ry="18"/>
<text text-anchor="middle" x="404.88" y="-84.95" font-family="Times,serif" font-size="14.00">^</text>
</g>
<!-- 15&#45;&#45;14 -->
<g id="edge17" class="edge">
<title>15&#45;&#45;14</title>
<path fill="none" stroke="black" d="M372.62,-144.76C379.41,-133.46 388.42,-118.44 395.19,-107.15"/>
</g>
<!-- 12 -->
<g id="node19" class="node">
<title>12</title>
<ellipse fill="none" stroke="black" cx="368.88" cy="-18" rx="27" ry="18"/>
<text text-anchor="middle" x="368.88" y="-12.95" font-family="Times,serif" font-size="14.00">c</text>
</g>
<!-- 14&#45;&#45;12 -->
<g id="edge18" class="edge">
<title>14&#45;&#45;12</title>
<path fill="none" stroke="black" d="M396.53,-72.76C390.71,-61.46 382.99,-46.44 377.18,-35.15"/>
</g>
<!-- 13 -->
<g id="node20" class="node">
<title>13</title>
<ellipse fill="none" stroke="black" cx="440.88" cy="-18" rx="27" ry="18"/>
<text text-anchor="middle" x="440.88" y="-12.95" font-family="Times,serif" font-size="14.00">2</text>
</g>
<!-- 14&#45;&#45;13 -->
<g id="edge19" class="edge">
<title>14&#45;&#45;13</title>
<path fill="none" stroke="black" d="M413.23,-72.76C419.04,-61.46 426.77,-46.44 432.57,-35.15"/>
</g>
</g>
</svg>
