<?xml version="1.0" encoding="UTF-8" standalone="no"?>
<!DOCTYPE svg PUBLIC "-//W3C//DTD SVG 1.1//EN"
 "http://www.w3.org/Graphics/SVG/1.1/DTD/svg11.dtd">
<!-- Generated by graphviz version 9.0.0 (20230911.1827)
 -->
<!-- Title: G Pages: 1 -->
<svg width="211pt" height="357pt"
 viewBox="0.00 0.00 211.00 356.50" xmlns="http://www.w3.org/2000/svg" xmlns:xlink="http://www.w3.org/1999/xlink">
<g id="graph0" class="graph" transform="scale(1 1) rotate(0) translate(4 352.5)">
<title>G</title>
<polygon fill="white" stroke="none" points="-4,4 -4,-352.5 207,-352.5 207,4 -4,4"/>
<text text-anchor="middle" x="101.5" y="-331.2" font-family="Times,serif" font-size="14.00">q/(4*pi*epsilon*r), depth = 4</text>
<!-- 9 -->
<g id="node1" class="node">
<title>9</title>
<ellipse fill="none" stroke="black" cx="104" cy="-306" rx="27" ry="18"/>
<text text-anchor="middle" x="104" y="-300.95" font-family="Times,serif" font-size="14.00">/</text>
</g>
<!-- 1 -->
<g id="node2" class="node">
<title>1</title>
<ellipse fill="none" stroke="black" cx="68" cy="-234" rx="27" ry="18"/>
<text text-anchor="middle" x="68" y="-228.95" font-family="Times,serif" font-size="14.00">q</text>
</g>
<!-- 9&#45;&#45;1 -->
<g id="edge1" class="edge">
<title>9&#45;&#45;1</title>
<path fill="none" stroke="black" d="M95.65,-288.76C89.83,-277.46 82.11,-262.44 76.3,-251.15"/>
</g>
<!-- 8 -->
<g id="node3" class="node">
<title>8</title>
<ellipse fill="none" stroke="black" cx="140" cy="-234" rx="27" ry="18"/>
<text text-anchor="middle" x="140" y="-228.95" font-family="Times,serif" font-size="14.00">*</text>
</g>
<!-- 9&#45;&#45;8 -->
<g id="edge2" class="edge">
<title>9&#45;&#45;8</title>
<path fill="none" stroke="black" d="M112.35,-288.76C118.17,-277.46 125.89,-262.44 131.7,-251.15"/>
</g>
<!-- 6 -->
<g id="node4" class="node">
<title>6</title>
<ellipse fill="none" stroke="black" cx="104" cy="-162" rx="27" ry="18"/>
<text text-anchor="middle" x="104" y="-156.95" font-family="Times,serif" font-size="14.00">*</text>
</g>
<!-- 8&#45;&#45;6 -->
<g id="edge3" class="edge">
<title>8&#45;&#45;6</title>
<path fill="none" stroke="black" d="M131.65,-216.76C125.83,-205.46 118.11,-190.44 112.3,-179.15"/>
</g>
<!-- 7 -->
<g id="node9" class="node">
<title>7</title>
<ellipse fill="none" stroke="black" cx="176" cy="-162" rx="27" ry="18"/>
<text text-anchor="middle" x="176" y="-156.95" font-family="Times,serif" font-size="14.00">r</text>
</g>
<!-- 8&#45;&#45;7 -->
<g id="edge8" class="edge">
<title>8&#45;&#45;7</title>
<path fill="none" stroke="black" d="M148.35,-216.76C154.17,-205.46 161.89,-190.44 167.7,-179.15"/>
</g>
<!-- 4 -->
<g id="node5" class="node">
<title>4</title>
<ellipse fill="none" stroke="black" cx="63" cy="-90" rx="27" ry="18"/>
<text text-anchor="middle" x="63" y="-84.95" font-family="Times,serif" font-size="14.00">*</text>
</g>
<!-- 6&#45;&#45;4 -->
<g id="edge4" class="edge">
<title>6&#45;&#45;4</title>
<path fill="none" stroke="black" d="M94.49,-144.76C87.87,-133.46 79.07,-118.44 72.46,-107.15"/>
</g>
<!-- 5 -->
<g id="node8" class="node">
<title>5</title>
<ellipse fill="none" stroke="black" cx="146" cy="-90" rx="37.53" ry="18"/>
<text text-anchor="middle" x="146" y="-84.95" font-family="Times,serif" font-size="14.00">epsilon</text>
</g>
<!-- 6&#45;&#45;5 -->
<g id="edge7" class="edge">
<title>6&#45;&#45;5</title>
<path fill="none" stroke="black" d="M113.74,-144.76C120.43,-133.62 129.28,-118.87 136.02,-107.63"/>
</g>
<!-- 2 -->
<g id="node6" class="node">
<title>2</title>
<ellipse fill="none" stroke="black" cx="27" cy="-18" rx="27" ry="18"/>
<text text-anchor="middle" x="27" y="-12.95" font-family="Times,serif" font-size="14.00">4</text>
</g>
<!-- 4&#45;&#45;2 -->
<g id="edge5" class="edge">
<title>4&#45;&#45;2</title>
<path fill="none" stroke="black" d="M54.65,-72.76C48.83,-61.46 41.11,-46.44 35.3,-35.15"/>
</g>
<!-- 3 -->
<g id="node7" class="node">
<title>3</title>
<ellipse fill="none" stroke="black" cx="99" cy="-18" rx="27" ry="18"/>
<text text-anchor="middle" x="99" y="-12.95" font-family="Times,serif" font-size="14.00">pi</text>
</g>
<!-- 4&#45;&#45;3 -->
<g id="edge6" class="edge">
<title>4&#45;&#45;3</title>
<path fill="none" stroke="black" d="M71.35,-72.76C77.17,-61.46 84.89,-46.44 90.7,-35.15"/>
</g>
</g>
</svg>
