<?xml version="1.0" encoding="UTF-8" standalone="no"?>
<!DOCTYPE svg PUBLIC "-//W3C//DTD SVG 1.1//EN"
 "http://www.w3.org/Graphics/SVG/1.1/DTD/svg11.dtd">
<!-- Generated by graphviz version 9.0.0 (20230911.1827)
 -->
<!-- Title: G Pages: 1 -->
<svg width="306pt" height="429pt"
 viewBox="0.00 0.00 306.12 428.50" xmlns="http://www.w3.org/2000/svg" xmlns:xlink="http://www.w3.org/1999/xlink">
<g id="graph0" class="graph" transform="scale(1 1) rotate(0) translate(4 424.5)">
<title>G</title>
<polygon fill="white" stroke="none" points="-4,4 -4,-424.5 302.12,-424.5 302.12,4 -4,4"/>
<text text-anchor="middle" x="149.06" y="-403.2" font-family="Times,serif" font-size="14.00">rho_c_0/sqrt(1&#45;v**2/c**2), depth = 5</text>
<!-- 12 -->
<g id="node1" class="node">
<title>12</title>
<ellipse fill="none" stroke="black" cx="84.12" cy="-378" rx="27" ry="18"/>
<text text-anchor="middle" x="84.12" y="-372.95" font-family="Times,serif" font-size="14.00">/</text>
</g>
<!-- 1 -->
<g id="node2" class="node">
<title>1</title>
<ellipse fill="none" stroke="black" cx="41.12" cy="-306" rx="41.12" ry="18"/>
<text text-anchor="middle" x="41.12" y="-300.95" font-family="Times,serif" font-size="14.00">rho_c_0</text>
</g>
<!-- 12&#45;&#45;1 -->
<g id="edge1" class="edge">
<title>12&#45;&#45;1</title>
<path fill="none" stroke="black" d="M74.14,-360.76C67.29,-349.62 58.23,-334.87 51.33,-323.63"/>
</g>
<!-- 11 -->
<g id="node3" class="node">
<title>11</title>
<ellipse fill="none" stroke="black" cx="127.12" cy="-306" rx="27" ry="18"/>
<text text-anchor="middle" x="127.12" y="-300.95" font-family="Times,serif" font-size="14.00">sqrt</text>
</g>
<!-- 12&#45;&#45;11 -->
<g id="edge2" class="edge">
<title>12&#45;&#45;11</title>
<path fill="none" stroke="black" d="M94.09,-360.76C101.04,-349.46 110.26,-334.44 117.2,-323.15"/>
</g>
<!-- 10 -->
<g id="node4" class="node">
<title>10</title>
<ellipse fill="none" stroke="black" cx="127.12" cy="-234" rx="27" ry="18"/>
<text text-anchor="middle" x="127.12" y="-228.95" font-family="Times,serif" font-size="14.00">&#45;</text>
</g>
<!-- 11&#45;&#45;10 -->
<g id="edge3" class="edge">
<title>11&#45;&#45;10</title>
<path fill="none" stroke="black" d="M127.12,-287.7C127.12,-276.85 127.12,-262.92 127.12,-252.1"/>
</g>
<!-- 2 -->
<g id="node5" class="node">
<title>2</title>
<ellipse fill="none" stroke="black" cx="91.12" cy="-162" rx="27" ry="18"/>
<text text-anchor="middle" x="91.12" y="-156.95" font-family="Times,serif" font-size="14.00">1</text>
</g>
<!-- 10&#45;&#45;2 -->
<g id="edge4" class="edge">
<title>10&#45;&#45;2</title>
<path fill="none" stroke="black" d="M118.77,-216.76C112.95,-205.46 105.23,-190.44 99.42,-179.15"/>
</g>
<!-- 9 -->
<g id="node6" class="node">
<title>9</title>
<ellipse fill="none" stroke="black" cx="163.12" cy="-162" rx="27" ry="18"/>
<text text-anchor="middle" x="163.12" y="-156.95" font-family="Times,serif" font-size="14.00">/</text>
</g>
<!-- 10&#45;&#45;9 -->
<g id="edge5" class="edge">
<title>10&#45;&#45;9</title>
<path fill="none" stroke="black" d="M135.46,-216.76C141.28,-205.46 149,-190.44 154.81,-179.15"/>
</g>
<!-- 5 -->
<g id="node7" class="node">
<title>5</title>
<ellipse fill="none" stroke="black" cx="127.12" cy="-90" rx="27" ry="18"/>
<text text-anchor="middle" x="127.12" y="-84.95" font-family="Times,serif" font-size="14.00">^</text>
</g>
<!-- 9&#45;&#45;5 -->
<g id="edge6" class="edge">
<title>9&#45;&#45;5</title>
<path fill="none" stroke="black" d="M154.77,-144.76C148.95,-133.46 141.23,-118.44 135.42,-107.15"/>
</g>
<!-- 8 -->
<g id="node10" class="node">
<title>8</title>
<ellipse fill="none" stroke="black" cx="199.12" cy="-90" rx="27" ry="18"/>
<text text-anchor="middle" x="199.12" y="-84.95" font-family="Times,serif" font-size="14.00">^</text>
</g>
<!-- 9&#45;&#45;8 -->
<g id="edge9" class="edge">
<title>9&#45;&#45;8</title>
<path fill="none" stroke="black" d="M171.46,-144.76C177.28,-133.46 185,-118.44 190.81,-107.15"/>
</g>
<!-- 3 -->
<g id="node8" class="node">
<title>3</title>
<ellipse fill="none" stroke="black" cx="55.12" cy="-18" rx="27" ry="18"/>
<text text-anchor="middle" x="55.12" y="-12.95" font-family="Times,serif" font-size="14.00">v</text>
</g>
<!-- 5&#45;&#45;3 -->
<g id="edge7" class="edge">
<title>5&#45;&#45;3</title>
<path fill="none" stroke="black" d="M112.2,-74.5C99.84,-62.48 82.37,-45.49 70.01,-33.49"/>
</g>
<!-- 4 -->
<g id="node9" class="node">
<title>4</title>
<ellipse fill="none" stroke="black" cx="127.12" cy="-18" rx="27" ry="18"/>
<text text-anchor="middle" x="127.12" y="-12.95" font-family="Times,serif" font-size="14.00">2</text>
</g>
<!-- 5&#45;&#45;4 -->
<g id="edge8" class="edge">
<title>5&#45;&#45;4</title>
<path fill="none" stroke="black" d="M127.12,-71.7C127.12,-60.85 127.12,-46.92 127.12,-36.1"/>
</g>
<!-- 6 -->
<g id="node11" class="node">
<title>6</title>
<ellipse fill="none" stroke="black" cx="199.12" cy="-18" rx="27" ry="18"/>
<text text-anchor="middle" x="199.12" y="-12.95" font-family="Times,serif" font-size="14.00">c</text>
</g>
<!-- 8&#45;&#45;6 -->
<g id="edge10" class="edge">
<title>8&#45;&#45;6</title>
<path fill="none" stroke="black" d="M199.12,-71.7C199.12,-60.85 199.12,-46.92 199.12,-36.1"/>
</g>
<!-- 7 -->
<g id="node12" class="node">
<title>7</title>
<ellipse fill="none" stroke="black" cx="271.12" cy="-18" rx="27" ry="18"/>
<text text-anchor="middle" x="271.12" y="-12.95" font-family="Times,serif" font-size="14.00">2</text>
</g>
<!-- 8&#45;&#45;7 -->
<g id="edge11" class="edge">
<title>8&#45;&#45;7</title>
<path fill="none" stroke="black" d="M214.03,-74.5C226.39,-62.48 243.86,-45.49 256.22,-33.49"/>
</g>
</g>
</svg>
