<?xml version="1.0" encoding="UTF-8" standalone="no"?>
<!DOCTYPE svg PUBLIC "-//W3C//DTD SVG 1.1//EN"
 "http://www.w3.org/Graphics/SVG/1.1/DTD/svg11.dtd">
<!-- Generated by graphviz version 9.0.0 (20230911.1827)
 -->
<!-- Title: G Pages: 1 -->
<svg width="407pt" height="573pt"
 viewBox="0.00 0.00 407.27 572.50" xmlns="http://www.w3.org/2000/svg" xmlns:xlink="http://www.w3.org/1999/xlink">
<g id="graph0" class="graph" transform="scale(1 1) rotate(0) translate(4 568.5)">
<title>G</title>
<polygon fill="white" stroke="none" points="-4,4 -4,-568.5 403.27,-568.5 403.27,4 -4,4"/>
<text text-anchor="middle" x="199.63" y="-547.2" font-family="Times,serif" font-size="14.00">exp(~(((theta&#45;theta1)/sigma)**2/2))/(sqrt(2*pi)*sigma), depth = 7</text>
<!-- 18 -->
<g id="node1" class="node">
<title>18</title>
<ellipse fill="none" stroke="black" cx="251.83" cy="-522" rx="27" ry="18"/>
<text text-anchor="middle" x="251.83" y="-516.95" font-family="Times,serif" font-size="14.00">/</text>
</g>
<!-- 11 -->
<g id="node2" class="node">
<title>11</title>
<ellipse fill="none" stroke="black" cx="215.83" cy="-450" rx="27" ry="18"/>
<text text-anchor="middle" x="215.83" y="-444.95" font-family="Times,serif" font-size="14.00">exp</text>
</g>
<!-- 18&#45;&#45;11 -->
<g id="edge1" class="edge">
<title>18&#45;&#45;11</title>
<path fill="none" stroke="black" d="M243.48,-504.76C237.67,-493.46 229.94,-478.44 224.14,-467.15"/>
</g>
<!-- 17 -->
<g id="node13" class="node">
<title>17</title>
<ellipse fill="none" stroke="black" cx="287.83" cy="-450" rx="27" ry="18"/>
<text text-anchor="middle" x="287.83" y="-444.95" font-family="Times,serif" font-size="14.00">*</text>
</g>
<!-- 18&#45;&#45;17 -->
<g id="edge12" class="edge">
<title>18&#45;&#45;17</title>
<path fill="none" stroke="black" d="M260.18,-504.76C266,-493.46 273.72,-478.44 279.53,-467.15"/>
</g>
<!-- 10 -->
<g id="node3" class="node">
<title>10</title>
<ellipse fill="none" stroke="black" cx="215.83" cy="-378" rx="27" ry="18"/>
<text text-anchor="middle" x="215.83" y="-372.95" font-family="Times,serif" font-size="14.00">~</text>
</g>
<!-- 11&#45;&#45;10 -->
<g id="edge2" class="edge">
<title>11&#45;&#45;10</title>
<path fill="none" stroke="black" d="M215.83,-431.7C215.83,-420.85 215.83,-406.92 215.83,-396.1"/>
</g>
<!-- 9 -->
<g id="node4" class="node">
<title>9</title>
<ellipse fill="none" stroke="black" cx="215.83" cy="-306" rx="27" ry="18"/>
<text text-anchor="middle" x="215.83" y="-300.95" font-family="Times,serif" font-size="14.00">/</text>
</g>
<!-- 10&#45;&#45;9 -->
<g id="edge3" class="edge">
<title>10&#45;&#45;9</title>
<path fill="none" stroke="black" d="M215.83,-359.7C215.83,-348.85 215.83,-334.92 215.83,-324.1"/>
</g>
<!-- 7 -->
<g id="node5" class="node">
<title>7</title>
<ellipse fill="none" stroke="black" cx="143.83" cy="-234" rx="27" ry="18"/>
<text text-anchor="middle" x="143.83" y="-228.95" font-family="Times,serif" font-size="14.00">^</text>
</g>
<!-- 9&#45;&#45;7 -->
<g id="edge4" class="edge">
<title>9&#45;&#45;7</title>
<path fill="none" stroke="black" d="M200.91,-290.5C188.56,-278.48 171.08,-261.49 158.73,-249.49"/>
</g>
<!-- 8 -->
<g id="node12" class="node">
<title>8</title>
<ellipse fill="none" stroke="black" cx="215.83" cy="-234" rx="27" ry="18"/>
<text text-anchor="middle" x="215.83" y="-228.95" font-family="Times,serif" font-size="14.00">2</text>
</g>
<!-- 9&#45;&#45;8 -->
<g id="edge11" class="edge">
<title>9&#45;&#45;8</title>
<path fill="none" stroke="black" d="M215.83,-287.7C215.83,-276.85 215.83,-262.92 215.83,-252.1"/>
</g>
<!-- 5 -->
<g id="node6" class="node">
<title>5</title>
<ellipse fill="none" stroke="black" cx="107.83" cy="-162" rx="27" ry="18"/>
<text text-anchor="middle" x="107.83" y="-156.95" font-family="Times,serif" font-size="14.00">/</text>
</g>
<!-- 7&#45;&#45;5 -->
<g id="edge5" class="edge">
<title>7&#45;&#45;5</title>
<path fill="none" stroke="black" d="M135.48,-216.76C129.67,-205.46 121.94,-190.44 116.14,-179.15"/>
</g>
<!-- 6 -->
<g id="node11" class="node">
<title>6</title>
<ellipse fill="none" stroke="black" cx="179.83" cy="-162" rx="27" ry="18"/>
<text text-anchor="middle" x="179.83" y="-156.95" font-family="Times,serif" font-size="14.00">2</text>
</g>
<!-- 7&#45;&#45;6 -->
<g id="edge10" class="edge">
<title>7&#45;&#45;6</title>
<path fill="none" stroke="black" d="M152.18,-216.76C158,-205.46 165.72,-190.44 171.53,-179.15"/>
</g>
<!-- 3 -->
<g id="node7" class="node">
<title>3</title>
<ellipse fill="none" stroke="black" cx="68.83" cy="-90" rx="27" ry="18"/>
<text text-anchor="middle" x="68.83" y="-84.95" font-family="Times,serif" font-size="14.00">&#45;</text>
</g>
<!-- 5&#45;&#45;3 -->
<g id="edge6" class="edge">
<title>5&#45;&#45;3</title>
<path fill="none" stroke="black" d="M98.79,-144.76C92.49,-133.46 84.12,-118.44 77.83,-107.15"/>
</g>
<!-- 4 -->
<g id="node10" class="node">
<title>4</title>
<ellipse fill="none" stroke="black" cx="146.83" cy="-90" rx="33.44" ry="18"/>
<text text-anchor="middle" x="146.83" y="-84.95" font-family="Times,serif" font-size="14.00">sigma</text>
</g>
<!-- 5&#45;&#45;4 -->
<g id="edge9" class="edge">
<title>5&#45;&#45;4</title>
<path fill="none" stroke="black" d="M116.88,-144.76C123.09,-133.62 131.31,-118.87 137.56,-107.63"/>
</g>
<!-- 1 -->
<g id="node8" class="node">
<title>1</title>
<ellipse fill="none" stroke="black" cx="28.83" cy="-18" rx="28.83" ry="18"/>
<text text-anchor="middle" x="28.83" y="-12.95" font-family="Times,serif" font-size="14.00">theta</text>
</g>
<!-- 3&#45;&#45;1 -->
<g id="edge7" class="edge">
<title>3&#45;&#45;1</title>
<path fill="none" stroke="black" d="M59.55,-72.76C53.09,-61.46 44.51,-46.44 38.06,-35.15"/>
</g>
<!-- 2 -->
<g id="node9" class="node">
<title>2</title>
<ellipse fill="none" stroke="black" cx="108.83" cy="-18" rx="33.44" ry="18"/>
<text text-anchor="middle" x="108.83" y="-12.95" font-family="Times,serif" font-size="14.00">theta1</text>
</g>
<!-- 3&#45;&#45;2 -->
<g id="edge8" class="edge">
<title>3&#45;&#45;2</title>
<path fill="none" stroke="black" d="M78.11,-72.76C84.48,-61.62 92.91,-46.87 99.33,-35.63"/>
</g>
<!-- 15 -->
<g id="node14" class="node">
<title>15</title>
<ellipse fill="none" stroke="black" cx="287.83" cy="-378" rx="27" ry="18"/>
<text text-anchor="middle" x="287.83" y="-372.95" font-family="Times,serif" font-size="14.00">sqrt</text>
</g>
<!-- 17&#45;&#45;15 -->
<g id="edge13" class="edge">
<title>17&#45;&#45;15</title>
<path fill="none" stroke="black" d="M287.83,-431.7C287.83,-420.85 287.83,-406.92 287.83,-396.1"/>
</g>
<!-- 16 -->
<g id="node18" class="node">
<title>16</title>
<ellipse fill="none" stroke="black" cx="365.83" cy="-378" rx="33.44" ry="18"/>
<text text-anchor="middle" x="365.83" y="-372.95" font-family="Times,serif" font-size="14.00">sigma</text>
</g>
<!-- 17&#45;&#45;16 -->
<g id="edge17" class="edge">
<title>17&#45;&#45;16</title>
<path fill="none" stroke="black" d="M303.24,-435.17C316.47,-423.3 335.5,-406.22 349.1,-394.01"/>
</g>
<!-- 14 -->
<g id="node15" class="node">
<title>14</title>
<ellipse fill="none" stroke="black" cx="287.83" cy="-306" rx="27" ry="18"/>
<text text-anchor="middle" x="287.83" y="-300.95" font-family="Times,serif" font-size="14.00">*</text>
</g>
<!-- 15&#45;&#45;14 -->
<g id="edge14" class="edge">
<title>15&#45;&#45;14</title>
<path fill="none" stroke="black" d="M287.83,-359.7C287.83,-348.85 287.83,-334.92 287.83,-324.1"/>
</g>
<!-- 12 -->
<g id="node16" class="node">
<title>12</title>
<ellipse fill="none" stroke="black" cx="287.83" cy="-234" rx="27" ry="18"/>
<text text-anchor="middle" x="287.83" y="-228.95" font-family="Times,serif" font-size="14.00">2</text>
</g>
<!-- 14&#45;&#45;12 -->
<g id="edge15" class="edge">
<title>14&#45;&#45;12</title>
<path fill="none" stroke="black" d="M287.83,-287.7C287.83,-276.85 287.83,-262.92 287.83,-252.1"/>
</g>
<!-- 13 -->
<g id="node17" class="node">
<title>13</title>
<ellipse fill="none" stroke="black" cx="359.83" cy="-234" rx="27" ry="18"/>
<text text-anchor="middle" x="359.83" y="-228.95" font-family="Times,serif" font-size="14.00">pi</text>
</g>
<!-- 14&#45;&#45;13 -->
<g id="edge16" class="edge">
<title>14&#45;&#45;13</title>
<path fill="none" stroke="black" d="M302.75,-290.5C315.11,-278.48 332.58,-261.49 344.93,-249.49"/>
</g>
</g>
</svg>
