<?xml version="1.0" encoding="UTF-8" standalone="no"?>
<!DOCTYPE svg PUBLIC "-//W3C//DTD SVG 1.1//EN"
 "http://www.w3.org/Graphics/SVG/1.1/DTD/svg11.dtd">
<!-- Generated by graphviz version 9.0.0 (20230911.1827)
 -->
<!-- Title: G Pages: 1 -->
<svg width="657pt" height="501pt"
 viewBox="0.00 0.00 656.88 500.50" xmlns="http://www.w3.org/2000/svg" xmlns:xlink="http://www.w3.org/1999/xlink">
<g id="graph0" class="graph" transform="scale(1 1) rotate(0) translate(4 496.5)">
<title>G</title>
<polygon fill="white" stroke="none" points="-4,4 -4,-496.5 652.88,-496.5 652.88,4 -4,4"/>
<text text-anchor="middle" x="324.44" y="-475.2" font-family="Times,serif" font-size="14.00">1/(4*pi*epsilon)*q/sqrt(r**2+d**2&#45;2*r*d*cos(alpha)), depth = 6</text>
<!-- 27 -->
<g id="node1" class="node">
<title>27</title>
<ellipse fill="none" stroke="black" cx="280" cy="-450" rx="27" ry="18"/>
<text text-anchor="middle" x="280" y="-444.95" font-family="Times,serif" font-size="14.00">/</text>
</g>
<!-- 9 -->
<g id="node2" class="node">
<title>9</title>
<ellipse fill="none" stroke="black" cx="244" cy="-378" rx="27" ry="18"/>
<text text-anchor="middle" x="244" y="-372.95" font-family="Times,serif" font-size="14.00">*</text>
</g>
<!-- 27&#45;&#45;9 -->
<g id="edge1" class="edge">
<title>27&#45;&#45;9</title>
<path fill="none" stroke="black" d="M271.65,-432.76C265.83,-421.46 258.11,-406.44 252.3,-395.15"/>
</g>
<!-- 26 -->
<g id="node11" class="node">
<title>26</title>
<ellipse fill="none" stroke="black" cx="319" cy="-378" rx="27" ry="18"/>
<text text-anchor="middle" x="319" y="-372.95" font-family="Times,serif" font-size="14.00">sqrt</text>
</g>
<!-- 27&#45;&#45;26 -->
<g id="edge10" class="edge">
<title>27&#45;&#45;26</title>
<path fill="none" stroke="black" d="M289.05,-432.76C295.35,-421.46 303.71,-406.44 310,-395.15"/>
</g>
<!-- 7 -->
<g id="node3" class="node">
<title>7</title>
<ellipse fill="none" stroke="black" cx="171" cy="-306" rx="27" ry="18"/>
<text text-anchor="middle" x="171" y="-300.95" font-family="Times,serif" font-size="14.00">/</text>
</g>
<!-- 9&#45;&#45;7 -->
<g id="edge2" class="edge">
<title>9&#45;&#45;7</title>
<path fill="none" stroke="black" d="M229.23,-362.83C216.65,-350.77 198.65,-333.51 186,-321.38"/>
</g>
<!-- 8 -->
<g id="node10" class="node">
<title>8</title>
<ellipse fill="none" stroke="black" cx="244" cy="-306" rx="27" ry="18"/>
<text text-anchor="middle" x="244" y="-300.95" font-family="Times,serif" font-size="14.00">q</text>
</g>
<!-- 9&#45;&#45;8 -->
<g id="edge9" class="edge">
<title>9&#45;&#45;8</title>
<path fill="none" stroke="black" d="M244,-359.7C244,-348.85 244,-334.92 244,-324.1"/>
</g>
<!-- 1 -->
<g id="node4" class="node">
<title>1</title>
<ellipse fill="none" stroke="black" cx="99" cy="-234" rx="27" ry="18"/>
<text text-anchor="middle" x="99" y="-228.95" font-family="Times,serif" font-size="14.00">1</text>
</g>
<!-- 7&#45;&#45;1 -->
<g id="edge3" class="edge">
<title>7&#45;&#45;1</title>
<path fill="none" stroke="black" d="M156.08,-290.5C143.72,-278.48 126.25,-261.49 113.9,-249.49"/>
</g>
<!-- 6 -->
<g id="node5" class="node">
<title>6</title>
<ellipse fill="none" stroke="black" cx="171" cy="-234" rx="27" ry="18"/>
<text text-anchor="middle" x="171" y="-228.95" font-family="Times,serif" font-size="14.00">*</text>
</g>
<!-- 7&#45;&#45;6 -->
<g id="edge4" class="edge">
<title>7&#45;&#45;6</title>
<path fill="none" stroke="black" d="M171,-287.7C171,-276.85 171,-262.92 171,-252.1"/>
</g>
<!-- 4 -->
<g id="node6" class="node">
<title>4</title>
<ellipse fill="none" stroke="black" cx="88" cy="-162" rx="27" ry="18"/>
<text text-anchor="middle" x="88" y="-156.95" font-family="Times,serif" font-size="14.00">*</text>
</g>
<!-- 6&#45;&#45;4 -->
<g id="edge5" class="edge">
<title>6&#45;&#45;4</title>
<path fill="none" stroke="black" d="M154.6,-219.17C140.05,-206.9 118.9,-189.06 104.36,-176.8"/>
</g>
<!-- 5 -->
<g id="node9" class="node">
<title>5</title>
<ellipse fill="none" stroke="black" cx="171" cy="-162" rx="37.53" ry="18"/>
<text text-anchor="middle" x="171" y="-156.95" font-family="Times,serif" font-size="14.00">epsilon</text>
</g>
<!-- 6&#45;&#45;5 -->
<g id="edge8" class="edge">
<title>6&#45;&#45;5</title>
<path fill="none" stroke="black" d="M171,-215.7C171,-204.85 171,-190.92 171,-180.1"/>
</g>
<!-- 2 -->
<g id="node7" class="node">
<title>2</title>
<ellipse fill="none" stroke="black" cx="27" cy="-90" rx="27" ry="18"/>
<text text-anchor="middle" x="27" y="-84.95" font-family="Times,serif" font-size="14.00">4</text>
</g>
<!-- 4&#45;&#45;2 -->
<g id="edge6" class="edge">
<title>4&#45;&#45;2</title>
<path fill="none" stroke="black" d="M74.76,-145.81C64.53,-134.07 50.44,-117.89 40.21,-106.16"/>
</g>
<!-- 3 -->
<g id="node8" class="node">
<title>3</title>
<ellipse fill="none" stroke="black" cx="99" cy="-90" rx="27" ry="18"/>
<text text-anchor="middle" x="99" y="-84.95" font-family="Times,serif" font-size="14.00">pi</text>
</g>
<!-- 4&#45;&#45;3 -->
<g id="edge7" class="edge">
<title>4&#45;&#45;3</title>
<path fill="none" stroke="black" d="M90.72,-143.7C92.42,-132.85 94.61,-118.92 96.31,-108.1"/>
</g>
<!-- 25 -->
<g id="node12" class="node">
<title>25</title>
<ellipse fill="none" stroke="black" cx="321" cy="-306" rx="27" ry="18"/>
<text text-anchor="middle" x="321" y="-300.95" font-family="Times,serif" font-size="14.00">&#45;</text>
</g>
<!-- 26&#45;&#45;25 -->
<g id="edge11" class="edge">
<title>26&#45;&#45;25</title>
<path fill="none" stroke="black" d="M319.49,-359.7C319.8,-348.85 320.2,-334.92 320.51,-324.1"/>
</g>
<!-- 16 -->
<g id="node13" class="node">
<title>16</title>
<ellipse fill="none" stroke="black" cx="321" cy="-234" rx="27" ry="18"/>
<text text-anchor="middle" x="321" y="-228.95" font-family="Times,serif" font-size="14.00">+</text>
</g>
<!-- 25&#45;&#45;16 -->
<g id="edge12" class="edge">
<title>25&#45;&#45;16</title>
<path fill="none" stroke="black" d="M321,-287.7C321,-276.85 321,-262.92 321,-252.1"/>
</g>
<!-- 24 -->
<g id="node20" class="node">
<title>24</title>
<ellipse fill="none" stroke="black" cx="489" cy="-234" rx="27" ry="18"/>
<text text-anchor="middle" x="489" y="-228.95" font-family="Times,serif" font-size="14.00">*</text>
</g>
<!-- 25&#45;&#45;24 -->
<g id="edge19" class="edge">
<title>25&#45;&#45;24</title>
<path fill="none" stroke="black" d="M343.66,-295.56C375.81,-282.16 434.33,-257.78 466.43,-244.4"/>
</g>
<!-- 12 -->
<g id="node14" class="node">
<title>12</title>
<ellipse fill="none" stroke="black" cx="254" cy="-162" rx="27" ry="18"/>
<text text-anchor="middle" x="254" y="-156.95" font-family="Times,serif" font-size="14.00">^</text>
</g>
<!-- 16&#45;&#45;12 -->
<g id="edge13" class="edge">
<title>16&#45;&#45;12</title>
<path fill="none" stroke="black" d="M307.12,-218.5C295.62,-206.48 279.36,-189.49 267.86,-177.49"/>
</g>
<!-- 15 -->
<g id="node17" class="node">
<title>15</title>
<ellipse fill="none" stroke="black" cx="326" cy="-162" rx="27" ry="18"/>
<text text-anchor="middle" x="326" y="-156.95" font-family="Times,serif" font-size="14.00">^</text>
</g>
<!-- 16&#45;&#45;15 -->
<g id="edge16" class="edge">
<title>16&#45;&#45;15</title>
<path fill="none" stroke="black" d="M322.24,-215.7C323.01,-204.85 324.01,-190.92 324.78,-180.1"/>
</g>
<!-- 10 -->
<g id="node15" class="node">
<title>10</title>
<ellipse fill="none" stroke="black" cx="182" cy="-90" rx="27" ry="18"/>
<text text-anchor="middle" x="182" y="-84.95" font-family="Times,serif" font-size="14.00">r</text>
</g>
<!-- 12&#45;&#45;10 -->
<g id="edge14" class="edge">
<title>12&#45;&#45;10</title>
<path fill="none" stroke="black" d="M239.08,-146.5C226.72,-134.48 209.25,-117.49 196.9,-105.49"/>
</g>
<!-- 11 -->
<g id="node16" class="node">
<title>11</title>
<ellipse fill="none" stroke="black" cx="254" cy="-90" rx="27" ry="18"/>
<text text-anchor="middle" x="254" y="-84.95" font-family="Times,serif" font-size="14.00">2</text>
</g>
<!-- 12&#45;&#45;11 -->
<g id="edge15" class="edge">
<title>12&#45;&#45;11</title>
<path fill="none" stroke="black" d="M254,-143.7C254,-132.85 254,-118.92 254,-108.1"/>
</g>
<!-- 13 -->
<g id="node18" class="node">
<title>13</title>
<ellipse fill="none" stroke="black" cx="326" cy="-90" rx="27" ry="18"/>
<text text-anchor="middle" x="326" y="-84.95" font-family="Times,serif" font-size="14.00">d</text>
</g>
<!-- 15&#45;&#45;13 -->
<g id="edge17" class="edge">
<title>15&#45;&#45;13</title>
<path fill="none" stroke="black" d="M326,-143.7C326,-132.85 326,-118.92 326,-108.1"/>
</g>
<!-- 14 -->
<g id="node19" class="node">
<title>14</title>
<ellipse fill="none" stroke="black" cx="398" cy="-90" rx="27" ry="18"/>
<text text-anchor="middle" x="398" y="-84.95" font-family="Times,serif" font-size="14.00">2</text>
</g>
<!-- 15&#45;&#45;14 -->
<g id="edge18" class="edge">
<title>15&#45;&#45;14</title>
<path fill="none" stroke="black" d="M340.92,-146.5C353.28,-134.48 370.75,-117.49 383.1,-105.49"/>
</g>
<!-- 21 -->
<g id="node21" class="node">
<title>21</title>
<ellipse fill="none" stroke="black" cx="489" cy="-162" rx="27" ry="18"/>
<text text-anchor="middle" x="489" y="-156.95" font-family="Times,serif" font-size="14.00">*</text>
</g>
<!-- 24&#45;&#45;21 -->
<g id="edge20" class="edge">
<title>24&#45;&#45;21</title>
<path fill="none" stroke="black" d="M489,-215.7C489,-204.85 489,-190.92 489,-180.1"/>
</g>
<!-- 23 -->
<g id="node26" class="node">
<title>23</title>
<ellipse fill="none" stroke="black" cx="599" cy="-162" rx="27" ry="18"/>
<text text-anchor="middle" x="599" y="-156.95" font-family="Times,serif" font-size="14.00">cos</text>
</g>
<!-- 24&#45;&#45;23 -->
<g id="edge25" class="edge">
<title>24&#45;&#45;23</title>
<path fill="none" stroke="black" d="M508.16,-220.81C528.35,-207.96 559.95,-187.85 580.06,-175.05"/>
</g>
<!-- 19 -->
<g id="node22" class="node">
<title>19</title>
<ellipse fill="none" stroke="black" cx="470" cy="-90" rx="27" ry="18"/>
<text text-anchor="middle" x="470" y="-84.95" font-family="Times,serif" font-size="14.00">*</text>
</g>
<!-- 21&#45;&#45;19 -->
<g id="edge21" class="edge">
<title>21&#45;&#45;19</title>
<path fill="none" stroke="black" d="M484.4,-144.05C481.41,-133.05 477.54,-118.76 474.56,-107.79"/>
</g>
<!-- 20 -->
<g id="node25" class="node">
<title>20</title>
<ellipse fill="none" stroke="black" cx="542" cy="-90" rx="27" ry="18"/>
<text text-anchor="middle" x="542" y="-84.95" font-family="Times,serif" font-size="14.00">d</text>
</g>
<!-- 21&#45;&#45;20 -->
<g id="edge24" class="edge">
<title>21&#45;&#45;20</title>
<path fill="none" stroke="black" d="M500.76,-145.46C509.55,-133.86 521.5,-118.08 530.27,-106.49"/>
</g>
<!-- 17 -->
<g id="node23" class="node">
<title>17</title>
<ellipse fill="none" stroke="black" cx="434" cy="-18" rx="27" ry="18"/>
<text text-anchor="middle" x="434" y="-12.95" font-family="Times,serif" font-size="14.00">2</text>
</g>
<!-- 19&#45;&#45;17 -->
<g id="edge22" class="edge">
<title>19&#45;&#45;17</title>
<path fill="none" stroke="black" d="M461.65,-72.76C455.83,-61.46 448.11,-46.44 442.3,-35.15"/>
</g>
<!-- 18 -->
<g id="node24" class="node">
<title>18</title>
<ellipse fill="none" stroke="black" cx="506" cy="-18" rx="27" ry="18"/>
<text text-anchor="middle" x="506" y="-12.95" font-family="Times,serif" font-size="14.00">r</text>
</g>
<!-- 19&#45;&#45;18 -->
<g id="edge23" class="edge">
<title>19&#45;&#45;18</title>
<path fill="none" stroke="black" d="M478.35,-72.76C484.17,-61.46 491.89,-46.44 497.7,-35.15"/>
</g>
<!-- 22 -->
<g id="node27" class="node">
<title>22</title>
<ellipse fill="none" stroke="black" cx="618" cy="-90" rx="30.88" ry="18"/>
<text text-anchor="middle" x="618" y="-84.95" font-family="Times,serif" font-size="14.00">alpha</text>
</g>
<!-- 23&#45;&#45;22 -->
<g id="edge26" class="edge">
<title>23&#45;&#45;22</title>
<path fill="none" stroke="black" d="M603.6,-144.05C606.54,-133.21 610.35,-119.18 613.31,-108.28"/>
</g>
</g>
</svg>
