<?xml version="1.0" encoding="UTF-8" standalone="no"?>
<!DOCTYPE svg PUBLIC "-//W3C//DTD SVG 1.1//EN"
 "http://www.w3.org/Graphics/SVG/1.1/DTD/svg11.dtd">
<!-- Generated by graphviz version 9.0.0 (20230911.1827)
 -->
<!-- Title: G Pages: 1 -->
<svg width="566pt" height="573pt"
 viewBox="0.00 0.00 566.00 572.50" xmlns="http://www.w3.org/2000/svg" xmlns:xlink="http://www.w3.org/1999/xlink">
<g id="graph0" class="graph" transform="scale(1 1) rotate(0) translate(4 568.5)">
<title>G</title>
<polygon fill="white" stroke="none" points="-4,4 -4,-568.5 562,-568.5 562,4 -4,4"/>
<text text-anchor="middle" x="279" y="-547.2" font-family="Times,serif" font-size="14.00">~m*q**4/(2*(4*pi*epsilon)**2*(h/(2*pi))**2)*(1/n**2), depth = 7</text>
<!-- 30 -->
<g id="node1" class="node">
<title>30</title>
<ellipse fill="none" stroke="black" cx="351" cy="-522" rx="27" ry="18"/>
<text text-anchor="middle" x="351" y="-516.95" font-family="Times,serif" font-size="14.00">*</text>
</g>
<!-- 24 -->
<g id="node2" class="node">
<title>24</title>
<ellipse fill="none" stroke="black" cx="315" cy="-450" rx="27" ry="18"/>
<text text-anchor="middle" x="315" y="-444.95" font-family="Times,serif" font-size="14.00">/</text>
</g>
<!-- 30&#45;&#45;24 -->
<g id="edge1" class="edge">
<title>30&#45;&#45;24</title>
<path fill="none" stroke="black" d="M342.65,-504.76C336.83,-493.46 329.11,-478.44 323.3,-467.15"/>
</g>
<!-- 29 -->
<g id="node26" class="node">
<title>29</title>
<ellipse fill="none" stroke="black" cx="387" cy="-450" rx="27" ry="18"/>
<text text-anchor="middle" x="387" y="-444.95" font-family="Times,serif" font-size="14.00">/</text>
</g>
<!-- 30&#45;&#45;29 -->
<g id="edge25" class="edge">
<title>30&#45;&#45;29</title>
<path fill="none" stroke="black" d="M359.35,-504.76C365.17,-493.46 372.89,-478.44 378.7,-467.15"/>
</g>
<!-- 6 -->
<g id="node3" class="node">
<title>6</title>
<ellipse fill="none" stroke="black" cx="153" cy="-378" rx="27" ry="18"/>
<text text-anchor="middle" x="153" y="-372.95" font-family="Times,serif" font-size="14.00">*</text>
</g>
<!-- 24&#45;&#45;6 -->
<g id="edge2" class="edge">
<title>24&#45;&#45;6</title>
<path fill="none" stroke="black" d="M292.81,-439.41C261.96,-426.08 206.42,-402.08 175.44,-388.7"/>
</g>
<!-- 23 -->
<g id="node9" class="node">
<title>23</title>
<ellipse fill="none" stroke="black" cx="315" cy="-378" rx="27" ry="18"/>
<text text-anchor="middle" x="315" y="-372.95" font-family="Times,serif" font-size="14.00">*</text>
</g>
<!-- 24&#45;&#45;23 -->
<g id="edge8" class="edge">
<title>24&#45;&#45;23</title>
<path fill="none" stroke="black" d="M315,-431.7C315,-420.85 315,-406.92 315,-396.1"/>
</g>
<!-- 2 -->
<g id="node4" class="node">
<title>2</title>
<ellipse fill="none" stroke="black" cx="45" cy="-306" rx="27" ry="18"/>
<text text-anchor="middle" x="45" y="-300.95" font-family="Times,serif" font-size="14.00">~</text>
</g>
<!-- 6&#45;&#45;2 -->
<g id="edge3" class="edge">
<title>6&#45;&#45;2</title>
<path fill="none" stroke="black" d="M134.19,-364.81C114.49,-352.04 83.72,-332.09 63.96,-319.29"/>
</g>
<!-- 5 -->
<g id="node6" class="node">
<title>5</title>
<ellipse fill="none" stroke="black" cx="153" cy="-306" rx="27" ry="18"/>
<text text-anchor="middle" x="153" y="-300.95" font-family="Times,serif" font-size="14.00">^</text>
</g>
<!-- 6&#45;&#45;5 -->
<g id="edge5" class="edge">
<title>6&#45;&#45;5</title>
<path fill="none" stroke="black" d="M153,-359.7C153,-348.85 153,-334.92 153,-324.1"/>
</g>
<!-- 1 -->
<g id="node5" class="node">
<title>1</title>
<ellipse fill="none" stroke="black" cx="27" cy="-234" rx="27" ry="18"/>
<text text-anchor="middle" x="27" y="-228.95" font-family="Times,serif" font-size="14.00">m</text>
</g>
<!-- 2&#45;&#45;1 -->
<g id="edge4" class="edge">
<title>2&#45;&#45;1</title>
<path fill="none" stroke="black" d="M40.64,-288.05C37.81,-277.05 34.14,-262.76 31.32,-251.79"/>
</g>
<!-- 3 -->
<g id="node7" class="node">
<title>3</title>
<ellipse fill="none" stroke="black" cx="99" cy="-234" rx="27" ry="18"/>
<text text-anchor="middle" x="99" y="-228.95" font-family="Times,serif" font-size="14.00">q</text>
</g>
<!-- 5&#45;&#45;3 -->
<g id="edge6" class="edge">
<title>5&#45;&#45;3</title>
<path fill="none" stroke="black" d="M141.02,-289.46C132.07,-277.86 119.89,-262.08 110.95,-250.49"/>
</g>
<!-- 4 -->
<g id="node8" class="node">
<title>4</title>
<ellipse fill="none" stroke="black" cx="171" cy="-234" rx="27" ry="18"/>
<text text-anchor="middle" x="171" y="-228.95" font-family="Times,serif" font-size="14.00">4</text>
</g>
<!-- 5&#45;&#45;4 -->
<g id="edge7" class="edge">
<title>5&#45;&#45;4</title>
<path fill="none" stroke="black" d="M157.36,-288.05C160.19,-277.05 163.86,-262.76 166.68,-251.79"/>
</g>
<!-- 15 -->
<g id="node10" class="node">
<title>15</title>
<ellipse fill="none" stroke="black" cx="315" cy="-306" rx="27" ry="18"/>
<text text-anchor="middle" x="315" y="-300.95" font-family="Times,serif" font-size="14.00">*</text>
</g>
<!-- 23&#45;&#45;15 -->
<g id="edge9" class="edge">
<title>23&#45;&#45;15</title>
<path fill="none" stroke="black" d="M315,-359.7C315,-348.85 315,-334.92 315,-324.1"/>
</g>
<!-- 22 -->
<g id="node19" class="node">
<title>22</title>
<ellipse fill="none" stroke="black" cx="387" cy="-306" rx="27" ry="18"/>
<text text-anchor="middle" x="387" y="-300.95" font-family="Times,serif" font-size="14.00">^</text>
</g>
<!-- 23&#45;&#45;22 -->
<g id="edge18" class="edge">
<title>23&#45;&#45;22</title>
<path fill="none" stroke="black" d="M329.92,-362.5C342.28,-350.48 359.75,-333.49 372.1,-321.49"/>
</g>
<!-- 7 -->
<g id="node11" class="node">
<title>7</title>
<ellipse fill="none" stroke="black" cx="243" cy="-234" rx="27" ry="18"/>
<text text-anchor="middle" x="243" y="-228.95" font-family="Times,serif" font-size="14.00">2</text>
</g>
<!-- 15&#45;&#45;7 -->
<g id="edge10" class="edge">
<title>15&#45;&#45;7</title>
<path fill="none" stroke="black" d="M300.08,-290.5C287.72,-278.48 270.25,-261.49 257.9,-249.49"/>
</g>
<!-- 14 -->
<g id="node12" class="node">
<title>14</title>
<ellipse fill="none" stroke="black" cx="315" cy="-234" rx="27" ry="18"/>
<text text-anchor="middle" x="315" y="-228.95" font-family="Times,serif" font-size="14.00">^</text>
</g>
<!-- 15&#45;&#45;14 -->
<g id="edge11" class="edge">
<title>15&#45;&#45;14</title>
<path fill="none" stroke="black" d="M315,-287.7C315,-276.85 315,-262.92 315,-252.1"/>
</g>
<!-- 12 -->
<g id="node13" class="node">
<title>12</title>
<ellipse fill="none" stroke="black" cx="243" cy="-162" rx="27" ry="18"/>
<text text-anchor="middle" x="243" y="-156.95" font-family="Times,serif" font-size="14.00">*</text>
</g>
<!-- 14&#45;&#45;12 -->
<g id="edge12" class="edge">
<title>14&#45;&#45;12</title>
<path fill="none" stroke="black" d="M300.08,-218.5C287.72,-206.48 270.25,-189.49 257.9,-177.49"/>
</g>
<!-- 13 -->
<g id="node18" class="node">
<title>13</title>
<ellipse fill="none" stroke="black" cx="315" cy="-162" rx="27" ry="18"/>
<text text-anchor="middle" x="315" y="-156.95" font-family="Times,serif" font-size="14.00">2</text>
</g>
<!-- 14&#45;&#45;13 -->
<g id="edge17" class="edge">
<title>14&#45;&#45;13</title>
<path fill="none" stroke="black" d="M315,-215.7C315,-204.85 315,-190.92 315,-180.1"/>
</g>
<!-- 10 -->
<g id="node14" class="node">
<title>10</title>
<ellipse fill="none" stroke="black" cx="232" cy="-90" rx="27" ry="18"/>
<text text-anchor="middle" x="232" y="-84.95" font-family="Times,serif" font-size="14.00">*</text>
</g>
<!-- 12&#45;&#45;10 -->
<g id="edge13" class="edge">
<title>12&#45;&#45;10</title>
<path fill="none" stroke="black" d="M240.28,-143.7C238.58,-132.85 236.39,-118.92 234.69,-108.1"/>
</g>
<!-- 11 -->
<g id="node17" class="node">
<title>11</title>
<ellipse fill="none" stroke="black" cx="315" cy="-90" rx="37.53" ry="18"/>
<text text-anchor="middle" x="315" y="-84.95" font-family="Times,serif" font-size="14.00">epsilon</text>
</g>
<!-- 12&#45;&#45;11 -->
<g id="edge16" class="edge">
<title>12&#45;&#45;11</title>
<path fill="none" stroke="black" d="M257.92,-146.5C269.86,-134.88 286.59,-118.62 298.85,-106.7"/>
</g>
<!-- 8 -->
<g id="node15" class="node">
<title>8</title>
<ellipse fill="none" stroke="black" cx="196" cy="-18" rx="27" ry="18"/>
<text text-anchor="middle" x="196" y="-12.95" font-family="Times,serif" font-size="14.00">4</text>
</g>
<!-- 10&#45;&#45;8 -->
<g id="edge14" class="edge">
<title>10&#45;&#45;8</title>
<path fill="none" stroke="black" d="M223.65,-72.76C217.83,-61.46 210.11,-46.44 204.3,-35.15"/>
</g>
<!-- 9 -->
<g id="node16" class="node">
<title>9</title>
<ellipse fill="none" stroke="black" cx="268" cy="-18" rx="27" ry="18"/>
<text text-anchor="middle" x="268" y="-12.95" font-family="Times,serif" font-size="14.00">pi</text>
</g>
<!-- 10&#45;&#45;9 -->
<g id="edge15" class="edge">
<title>10&#45;&#45;9</title>
<path fill="none" stroke="black" d="M240.35,-72.76C246.17,-61.46 253.89,-46.44 259.7,-35.15"/>
</g>
<!-- 20 -->
<g id="node20" class="node">
<title>20</title>
<ellipse fill="none" stroke="black" cx="387" cy="-234" rx="27" ry="18"/>
<text text-anchor="middle" x="387" y="-228.95" font-family="Times,serif" font-size="14.00">/</text>
</g>
<!-- 22&#45;&#45;20 -->
<g id="edge19" class="edge">
<title>22&#45;&#45;20</title>
<path fill="none" stroke="black" d="M387,-287.7C387,-276.85 387,-262.92 387,-252.1"/>
</g>
<!-- 21 -->
<g id="node25" class="node">
<title>21</title>
<ellipse fill="none" stroke="black" cx="459" cy="-234" rx="27" ry="18"/>
<text text-anchor="middle" x="459" y="-228.95" font-family="Times,serif" font-size="14.00">2</text>
</g>
<!-- 22&#45;&#45;21 -->
<g id="edge24" class="edge">
<title>22&#45;&#45;21</title>
<path fill="none" stroke="black" d="M401.92,-290.5C414.28,-278.48 431.75,-261.49 444.1,-249.49"/>
</g>
<!-- 16 -->
<g id="node21" class="node">
<title>16</title>
<ellipse fill="none" stroke="black" cx="387" cy="-162" rx="27" ry="18"/>
<text text-anchor="middle" x="387" y="-156.95" font-family="Times,serif" font-size="14.00">h</text>
</g>
<!-- 20&#45;&#45;16 -->
<g id="edge20" class="edge">
<title>20&#45;&#45;16</title>
<path fill="none" stroke="black" d="M387,-215.7C387,-204.85 387,-190.92 387,-180.1"/>
</g>
<!-- 19 -->
<g id="node22" class="node">
<title>19</title>
<ellipse fill="none" stroke="black" cx="459" cy="-162" rx="27" ry="18"/>
<text text-anchor="middle" x="459" y="-156.95" font-family="Times,serif" font-size="14.00">*</text>
</g>
<!-- 20&#45;&#45;19 -->
<g id="edge21" class="edge">
<title>20&#45;&#45;19</title>
<path fill="none" stroke="black" d="M401.92,-218.5C414.28,-206.48 431.75,-189.49 444.1,-177.49"/>
</g>
<!-- 17 -->
<g id="node23" class="node">
<title>17</title>
<ellipse fill="none" stroke="black" cx="428" cy="-90" rx="27" ry="18"/>
<text text-anchor="middle" x="428" y="-84.95" font-family="Times,serif" font-size="14.00">2</text>
</g>
<!-- 19&#45;&#45;17 -->
<g id="edge22" class="edge">
<title>19&#45;&#45;17</title>
<path fill="none" stroke="black" d="M451.65,-144.41C446.71,-133.25 440.22,-118.6 435.29,-107.47"/>
</g>
<!-- 18 -->
<g id="node24" class="node">
<title>18</title>
<ellipse fill="none" stroke="black" cx="500" cy="-90" rx="27" ry="18"/>
<text text-anchor="middle" x="500" y="-84.95" font-family="Times,serif" font-size="14.00">pi</text>
</g>
<!-- 19&#45;&#45;18 -->
<g id="edge23" class="edge">
<title>19&#45;&#45;18</title>
<path fill="none" stroke="black" d="M468.51,-144.76C475.13,-133.46 483.93,-118.44 490.54,-107.15"/>
</g>
<!-- 25 -->
<g id="node27" class="node">
<title>25</title>
<ellipse fill="none" stroke="black" cx="387" cy="-378" rx="27" ry="18"/>
<text text-anchor="middle" x="387" y="-372.95" font-family="Times,serif" font-size="14.00">1</text>
</g>
<!-- 29&#45;&#45;25 -->
<g id="edge26" class="edge">
<title>29&#45;&#45;25</title>
<path fill="none" stroke="black" d="M387,-431.7C387,-420.85 387,-406.92 387,-396.1"/>
</g>
<!-- 28 -->
<g id="node28" class="node">
<title>28</title>
<ellipse fill="none" stroke="black" cx="459" cy="-378" rx="27" ry="18"/>
<text text-anchor="middle" x="459" y="-372.95" font-family="Times,serif" font-size="14.00">^</text>
</g>
<!-- 29&#45;&#45;28 -->
<g id="edge27" class="edge">
<title>29&#45;&#45;28</title>
<path fill="none" stroke="black" d="M401.92,-434.5C414.28,-422.48 431.75,-405.49 444.1,-393.49"/>
</g>
<!-- 26 -->
<g id="node29" class="node">
<title>26</title>
<ellipse fill="none" stroke="black" cx="459" cy="-306" rx="27" ry="18"/>
<text text-anchor="middle" x="459" y="-300.95" font-family="Times,serif" font-size="14.00">n</text>
</g>
<!-- 28&#45;&#45;26 -->
<g id="edge28" class="edge">
<title>28&#45;&#45;26</title>
<path fill="none" stroke="black" d="M459,-359.7C459,-348.85 459,-334.92 459,-324.1"/>
</g>
<!-- 27 -->
<g id="node30" class="node">
<title>27</title>
<ellipse fill="none" stroke="black" cx="531" cy="-306" rx="27" ry="18"/>
<text text-anchor="middle" x="531" y="-300.95" font-family="Times,serif" font-size="14.00">2</text>
</g>
<!-- 28&#45;&#45;27 -->
<g id="edge29" class="edge">
<title>28&#45;&#45;27</title>
<path fill="none" stroke="black" d="M473.92,-362.5C486.28,-350.48 503.75,-333.49 516.1,-321.49"/>
</g>
</g>
</svg>
