<?xml version="1.0" encoding="UTF-8" standalone="no"?>
<!DOCTYPE svg PUBLIC "-//W3C//DTD SVG 1.1//EN"
 "http://www.w3.org/Graphics/SVG/1.1/DTD/svg11.dtd">
<!-- Generated by graphviz version 9.0.0 (20230911.1827)
 -->
<!-- Title: G Pages: 1 -->
<svg width="210pt" height="285pt"
 viewBox="0.00 0.00 209.83 284.50" xmlns="http://www.w3.org/2000/svg" xmlns:xlink="http://www.w3.org/1999/xlink">
<g id="graph0" class="graph" transform="scale(1 1) rotate(0) translate(4 280.5)">
<title>G</title>
<polygon fill="white" stroke="none" points="-4,4 -4,-280.5 205.83,-280.5 205.83,4 -4,4"/>
<text text-anchor="middle" x="100.92" y="-259.2" font-family="Times,serif" font-size="14.00">~p_d*Ef*cos(theta), depth = 3</text>
<!-- 7 -->
<g id="node1" class="node">
<title>7</title>
<ellipse fill="none" stroke="black" cx="135" cy="-234" rx="27" ry="18"/>
<text text-anchor="middle" x="135" y="-228.95" font-family="Times,serif" font-size="14.00">*</text>
</g>
<!-- 4 -->
<g id="node2" class="node">
<title>4</title>
<ellipse fill="none" stroke="black" cx="99" cy="-162" rx="27" ry="18"/>
<text text-anchor="middle" x="99" y="-156.95" font-family="Times,serif" font-size="14.00">*</text>
</g>
<!-- 7&#45;&#45;4 -->
<g id="edge1" class="edge">
<title>7&#45;&#45;4</title>
<path fill="none" stroke="black" d="M126.65,-216.76C120.83,-205.46 113.11,-190.44 107.3,-179.15"/>
</g>
<!-- 6 -->
<g id="node6" class="node">
<title>6</title>
<ellipse fill="none" stroke="black" cx="172" cy="-162" rx="27" ry="18"/>
<text text-anchor="middle" x="172" y="-156.95" font-family="Times,serif" font-size="14.00">cos</text>
</g>
<!-- 7&#45;&#45;6 -->
<g id="edge5" class="edge">
<title>7&#45;&#45;6</title>
<path fill="none" stroke="black" d="M143.58,-216.76C149.56,-205.46 157.5,-190.44 163.46,-179.15"/>
</g>
<!-- 2 -->
<g id="node3" class="node">
<title>2</title>
<ellipse fill="none" stroke="black" cx="27" cy="-90" rx="27" ry="18"/>
<text text-anchor="middle" x="27" y="-84.95" font-family="Times,serif" font-size="14.00">~</text>
</g>
<!-- 4&#45;&#45;2 -->
<g id="edge2" class="edge">
<title>4&#45;&#45;2</title>
<path fill="none" stroke="black" d="M84.08,-146.5C71.72,-134.48 54.25,-117.49 41.9,-105.49"/>
</g>
<!-- 3 -->
<g id="node5" class="node">
<title>3</title>
<ellipse fill="none" stroke="black" cx="99" cy="-90" rx="27" ry="18"/>
<text text-anchor="middle" x="99" y="-84.95" font-family="Times,serif" font-size="14.00">Ef</text>
</g>
<!-- 4&#45;&#45;3 -->
<g id="edge4" class="edge">
<title>4&#45;&#45;3</title>
<path fill="none" stroke="black" d="M99,-143.7C99,-132.85 99,-118.92 99,-108.1"/>
</g>
<!-- 1 -->
<g id="node4" class="node">
<title>1</title>
<ellipse fill="none" stroke="black" cx="27" cy="-18" rx="27" ry="18"/>
<text text-anchor="middle" x="27" y="-12.95" font-family="Times,serif" font-size="14.00">p_d</text>
</g>
<!-- 2&#45;&#45;1 -->
<g id="edge3" class="edge">
<title>2&#45;&#45;1</title>
<path fill="none" stroke="black" d="M27,-71.7C27,-60.85 27,-46.92 27,-36.1"/>
</g>
<!-- 5 -->
<g id="node7" class="node">
<title>5</title>
<ellipse fill="none" stroke="black" cx="173" cy="-90" rx="28.83" ry="18"/>
<text text-anchor="middle" x="173" y="-84.95" font-family="Times,serif" font-size="14.00">theta</text>
</g>
<!-- 6&#45;&#45;5 -->
<g id="edge6" class="edge">
<title>6&#45;&#45;5</title>
<path fill="none" stroke="black" d="M172.25,-143.7C172.4,-132.85 172.6,-118.92 172.76,-108.1"/>
</g>
</g>
</svg>
