<?xml version="1.0" encoding="UTF-8" standalone="no"?>
<!DOCTYPE svg PUBLIC "-//W3C//DTD SVG 1.1//EN"
 "http://www.w3.org/Graphics/SVG/1.1/DTD/svg11.dtd">
<!-- Generated by graphviz version 9.0.0 (20230911.1827)
 -->
<!-- Title: G Pages: 1 -->
<svg width="602pt" height="573pt"
 viewBox="0.00 0.00 602.00 572.50" xmlns="http://www.w3.org/2000/svg" xmlns:xlink="http://www.w3.org/1999/xlink">
<g id="graph0" class="graph" transform="scale(1 1) rotate(0) translate(4 568.5)">
<title>G</title>
<polygon fill="white" stroke="none" points="-4,4 -4,-568.5 598,-568.5 598,4 -4,4"/>
<text text-anchor="middle" x="297" y="-547.2" font-family="Times,serif" font-size="14.00">sqrt((p&#45;q*A_vec)**2*c**2+m**2*c**4)+q*Volt, depth = 7</text>
<!-- 24 -->
<g id="node1" class="node">
<title>24</title>
<ellipse fill="none" stroke="black" cx="351" cy="-522" rx="27" ry="18"/>
<text text-anchor="middle" x="351" y="-516.95" font-family="Times,serif" font-size="14.00">+</text>
</g>
<!-- 20 -->
<g id="node2" class="node">
<title>20</title>
<ellipse fill="none" stroke="black" cx="315" cy="-450" rx="27" ry="18"/>
<text text-anchor="middle" x="315" y="-444.95" font-family="Times,serif" font-size="14.00">sqrt</text>
</g>
<!-- 24&#45;&#45;20 -->
<g id="edge1" class="edge">
<title>24&#45;&#45;20</title>
<path fill="none" stroke="black" d="M342.65,-504.76C336.83,-493.46 329.11,-478.44 323.3,-467.15"/>
</g>
<!-- 23 -->
<g id="node22" class="node">
<title>23</title>
<ellipse fill="none" stroke="black" cx="387" cy="-450" rx="27" ry="18"/>
<text text-anchor="middle" x="387" y="-444.95" font-family="Times,serif" font-size="14.00">*</text>
</g>
<!-- 24&#45;&#45;23 -->
<g id="edge21" class="edge">
<title>24&#45;&#45;23</title>
<path fill="none" stroke="black" d="M359.35,-504.76C365.17,-493.46 372.89,-478.44 378.7,-467.15"/>
</g>
<!-- 19 -->
<g id="node3" class="node">
<title>19</title>
<ellipse fill="none" stroke="black" cx="315" cy="-378" rx="27" ry="18"/>
<text text-anchor="middle" x="315" y="-372.95" font-family="Times,serif" font-size="14.00">+</text>
</g>
<!-- 20&#45;&#45;19 -->
<g id="edge2" class="edge">
<title>20&#45;&#45;19</title>
<path fill="none" stroke="black" d="M315,-431.7C315,-420.85 315,-406.92 315,-396.1"/>
</g>
<!-- 11 -->
<g id="node4" class="node">
<title>11</title>
<ellipse fill="none" stroke="black" cx="243" cy="-306" rx="27" ry="18"/>
<text text-anchor="middle" x="243" y="-300.95" font-family="Times,serif" font-size="14.00">*</text>
</g>
<!-- 19&#45;&#45;11 -->
<g id="edge3" class="edge">
<title>19&#45;&#45;11</title>
<path fill="none" stroke="black" d="M300.08,-362.5C287.72,-350.48 270.25,-333.49 257.9,-321.49"/>
</g>
<!-- 18 -->
<g id="node15" class="node">
<title>18</title>
<ellipse fill="none" stroke="black" cx="387" cy="-306" rx="27" ry="18"/>
<text text-anchor="middle" x="387" y="-300.95" font-family="Times,serif" font-size="14.00">*</text>
</g>
<!-- 19&#45;&#45;18 -->
<g id="edge14" class="edge">
<title>19&#45;&#45;18</title>
<path fill="none" stroke="black" d="M329.92,-362.5C342.28,-350.48 359.75,-333.49 372.1,-321.49"/>
</g>
<!-- 7 -->
<g id="node5" class="node">
<title>7</title>
<ellipse fill="none" stroke="black" cx="135" cy="-234" rx="27" ry="18"/>
<text text-anchor="middle" x="135" y="-228.95" font-family="Times,serif" font-size="14.00">^</text>
</g>
<!-- 11&#45;&#45;7 -->
<g id="edge4" class="edge">
<title>11&#45;&#45;7</title>
<path fill="none" stroke="black" d="M224.19,-292.81C204.49,-280.04 173.72,-260.09 153.96,-247.29"/>
</g>
<!-- 10 -->
<g id="node12" class="node">
<title>10</title>
<ellipse fill="none" stroke="black" cx="243" cy="-234" rx="27" ry="18"/>
<text text-anchor="middle" x="243" y="-228.95" font-family="Times,serif" font-size="14.00">^</text>
</g>
<!-- 11&#45;&#45;10 -->
<g id="edge11" class="edge">
<title>11&#45;&#45;10</title>
<path fill="none" stroke="black" d="M243,-287.7C243,-276.85 243,-262.92 243,-252.1"/>
</g>
<!-- 5 -->
<g id="node6" class="node">
<title>5</title>
<ellipse fill="none" stroke="black" cx="63" cy="-162" rx="27" ry="18"/>
<text text-anchor="middle" x="63" y="-156.95" font-family="Times,serif" font-size="14.00">&#45;</text>
</g>
<!-- 7&#45;&#45;5 -->
<g id="edge5" class="edge">
<title>7&#45;&#45;5</title>
<path fill="none" stroke="black" d="M120.08,-218.5C107.72,-206.48 90.25,-189.49 77.9,-177.49"/>
</g>
<!-- 6 -->
<g id="node11" class="node">
<title>6</title>
<ellipse fill="none" stroke="black" cx="135" cy="-162" rx="27" ry="18"/>
<text text-anchor="middle" x="135" y="-156.95" font-family="Times,serif" font-size="14.00">2</text>
</g>
<!-- 7&#45;&#45;6 -->
<g id="edge10" class="edge">
<title>7&#45;&#45;6</title>
<path fill="none" stroke="black" d="M135,-215.7C135,-204.85 135,-190.92 135,-180.1"/>
</g>
<!-- 1 -->
<g id="node7" class="node">
<title>1</title>
<ellipse fill="none" stroke="black" cx="27" cy="-90" rx="27" ry="18"/>
<text text-anchor="middle" x="27" y="-84.95" font-family="Times,serif" font-size="14.00">p</text>
</g>
<!-- 5&#45;&#45;1 -->
<g id="edge6" class="edge">
<title>5&#45;&#45;1</title>
<path fill="none" stroke="black" d="M54.65,-144.76C48.83,-133.46 41.11,-118.44 35.3,-107.15"/>
</g>
<!-- 4 -->
<g id="node8" class="node">
<title>4</title>
<ellipse fill="none" stroke="black" cx="99" cy="-90" rx="27" ry="18"/>
<text text-anchor="middle" x="99" y="-84.95" font-family="Times,serif" font-size="14.00">*</text>
</g>
<!-- 5&#45;&#45;4 -->
<g id="edge7" class="edge">
<title>5&#45;&#45;4</title>
<path fill="none" stroke="black" d="M71.35,-144.76C77.17,-133.46 84.89,-118.44 90.7,-107.15"/>
</g>
<!-- 2 -->
<g id="node9" class="node">
<title>2</title>
<ellipse fill="none" stroke="black" cx="59" cy="-18" rx="27" ry="18"/>
<text text-anchor="middle" x="59" y="-12.95" font-family="Times,serif" font-size="14.00">q</text>
</g>
<!-- 4&#45;&#45;2 -->
<g id="edge8" class="edge">
<title>4&#45;&#45;2</title>
<path fill="none" stroke="black" d="M89.72,-72.76C83.26,-61.46 74.68,-46.44 68.23,-35.15"/>
</g>
<!-- 3 -->
<g id="node10" class="node">
<title>3</title>
<ellipse fill="none" stroke="black" cx="139" cy="-18" rx="34.97" ry="18"/>
<text text-anchor="middle" x="139" y="-12.95" font-family="Times,serif" font-size="14.00">A_vec</text>
</g>
<!-- 4&#45;&#45;3 -->
<g id="edge9" class="edge">
<title>4&#45;&#45;3</title>
<path fill="none" stroke="black" d="M108.28,-72.76C114.65,-61.62 123.08,-46.87 129.5,-35.63"/>
</g>
<!-- 8 -->
<g id="node13" class="node">
<title>8</title>
<ellipse fill="none" stroke="black" cx="207" cy="-162" rx="27" ry="18"/>
<text text-anchor="middle" x="207" y="-156.95" font-family="Times,serif" font-size="14.00">c</text>
</g>
<!-- 10&#45;&#45;8 -->
<g id="edge12" class="edge">
<title>10&#45;&#45;8</title>
<path fill="none" stroke="black" d="M234.65,-216.76C228.83,-205.46 221.11,-190.44 215.3,-179.15"/>
</g>
<!-- 9 -->
<g id="node14" class="node">
<title>9</title>
<ellipse fill="none" stroke="black" cx="279" cy="-162" rx="27" ry="18"/>
<text text-anchor="middle" x="279" y="-156.95" font-family="Times,serif" font-size="14.00">2</text>
</g>
<!-- 10&#45;&#45;9 -->
<g id="edge13" class="edge">
<title>10&#45;&#45;9</title>
<path fill="none" stroke="black" d="M251.35,-216.76C257.17,-205.46 264.89,-190.44 270.7,-179.15"/>
</g>
<!-- 14 -->
<g id="node16" class="node">
<title>14</title>
<ellipse fill="none" stroke="black" cx="387" cy="-234" rx="27" ry="18"/>
<text text-anchor="middle" x="387" y="-228.95" font-family="Times,serif" font-size="14.00">^</text>
</g>
<!-- 18&#45;&#45;14 -->
<g id="edge15" class="edge">
<title>18&#45;&#45;14</title>
<path fill="none" stroke="black" d="M387,-287.7C387,-276.85 387,-262.92 387,-252.1"/>
</g>
<!-- 17 -->
<g id="node19" class="node">
<title>17</title>
<ellipse fill="none" stroke="black" cx="495" cy="-234" rx="27" ry="18"/>
<text text-anchor="middle" x="495" y="-228.95" font-family="Times,serif" font-size="14.00">^</text>
</g>
<!-- 18&#45;&#45;17 -->
<g id="edge18" class="edge">
<title>18&#45;&#45;17</title>
<path fill="none" stroke="black" d="M405.81,-292.81C425.51,-280.04 456.28,-260.09 476.04,-247.29"/>
</g>
<!-- 12 -->
<g id="node17" class="node">
<title>12</title>
<ellipse fill="none" stroke="black" cx="351" cy="-162" rx="27" ry="18"/>
<text text-anchor="middle" x="351" y="-156.95" font-family="Times,serif" font-size="14.00">m</text>
</g>
<!-- 14&#45;&#45;12 -->
<g id="edge16" class="edge">
<title>14&#45;&#45;12</title>
<path fill="none" stroke="black" d="M378.65,-216.76C372.83,-205.46 365.11,-190.44 359.3,-179.15"/>
</g>
<!-- 13 -->
<g id="node18" class="node">
<title>13</title>
<ellipse fill="none" stroke="black" cx="423" cy="-162" rx="27" ry="18"/>
<text text-anchor="middle" x="423" y="-156.95" font-family="Times,serif" font-size="14.00">2</text>
</g>
<!-- 14&#45;&#45;13 -->
<g id="edge17" class="edge">
<title>14&#45;&#45;13</title>
<path fill="none" stroke="black" d="M395.35,-216.76C401.17,-205.46 408.89,-190.44 414.7,-179.15"/>
</g>
<!-- 15 -->
<g id="node20" class="node">
<title>15</title>
<ellipse fill="none" stroke="black" cx="495" cy="-162" rx="27" ry="18"/>
<text text-anchor="middle" x="495" y="-156.95" font-family="Times,serif" font-size="14.00">c</text>
</g>
<!-- 17&#45;&#45;15 -->
<g id="edge19" class="edge">
<title>17&#45;&#45;15</title>
<path fill="none" stroke="black" d="M495,-215.7C495,-204.85 495,-190.92 495,-180.1"/>
</g>
<!-- 16 -->
<g id="node21" class="node">
<title>16</title>
<ellipse fill="none" stroke="black" cx="567" cy="-162" rx="27" ry="18"/>
<text text-anchor="middle" x="567" y="-156.95" font-family="Times,serif" font-size="14.00">4</text>
</g>
<!-- 17&#45;&#45;16 -->
<g id="edge20" class="edge">
<title>17&#45;&#45;16</title>
<path fill="none" stroke="black" d="M509.92,-218.5C522.28,-206.48 539.75,-189.49 552.1,-177.49"/>
</g>
<!-- 21 -->
<g id="node23" class="node">
<title>21</title>
<ellipse fill="none" stroke="black" cx="387" cy="-378" rx="27" ry="18"/>
<text text-anchor="middle" x="387" y="-372.95" font-family="Times,serif" font-size="14.00">q</text>
</g>
<!-- 23&#45;&#45;21 -->
<g id="edge22" class="edge">
<title>23&#45;&#45;21</title>
<path fill="none" stroke="black" d="M387,-431.7C387,-420.85 387,-406.92 387,-396.1"/>
</g>
<!-- 22 -->
<g id="node24" class="node">
<title>22</title>
<ellipse fill="none" stroke="black" cx="459" cy="-378" rx="27" ry="18"/>
<text text-anchor="middle" x="459" y="-372.95" font-family="Times,serif" font-size="14.00">Volt</text>
</g>
<!-- 23&#45;&#45;22 -->
<g id="edge23" class="edge">
<title>23&#45;&#45;22</title>
<path fill="none" stroke="black" d="M401.92,-434.5C414.28,-422.48 431.75,-405.49 444.1,-393.49"/>
</g>
</g>
</svg>
