<?xml version="1.0" encoding="UTF-8" standalone="no"?>
<!DOCTYPE svg PUBLIC "-//W3C//DTD SVG 1.1//EN"
 "http://www.w3.org/Graphics/SVG/1.1/DTD/svg11.dtd">
<!-- Generated by graphviz version 9.0.0 (20230911.1827)
 -->
<!-- Title: G Pages: 1 -->
<svg width="300pt" height="213pt"
 viewBox="0.00 0.00 299.53 212.50" xmlns="http://www.w3.org/2000/svg" xmlns:xlink="http://www.w3.org/1999/xlink">
<g id="graph0" class="graph" transform="scale(1 1) rotate(0) translate(4 208.5)">
<title>G</title>
<polygon fill="white" stroke="none" points="-4,4 -4,-208.5 295.53,-208.5 295.53,4 -4,4"/>
<text text-anchor="middle" x="145.77" y="-187.2" font-family="Times,serif" font-size="14.00">epsilon*c*Ef**2, depth = 2</text>
<!-- 7 -->
<g id="node1" class="node">
<title>7</title>
<ellipse fill="none" stroke="black" cx="156.53" cy="-162" rx="27" ry="18"/>
<text text-anchor="middle" x="156.53" y="-156.95" font-family="Times,serif" font-size="14.00">*</text>
</g>
<!-- 3 -->
<g id="node2" class="node">
<title>3</title>
<ellipse fill="none" stroke="black" cx="120.53" cy="-90" rx="27" ry="18"/>
<text text-anchor="middle" x="120.53" y="-84.95" font-family="Times,serif" font-size="14.00">*</text>
</g>
<!-- 7&#45;&#45;3 -->
<g id="edge1" class="edge">
<title>7&#45;&#45;3</title>
<path fill="none" stroke="black" d="M148.18,-144.76C142.37,-133.46 134.64,-118.44 128.84,-107.15"/>
</g>
<!-- 6 -->
<g id="node5" class="node">
<title>6</title>
<ellipse fill="none" stroke="black" cx="192.53" cy="-90" rx="27" ry="18"/>
<text text-anchor="middle" x="192.53" y="-84.95" font-family="Times,serif" font-size="14.00">^</text>
</g>
<!-- 7&#45;&#45;6 -->
<g id="edge4" class="edge">
<title>7&#45;&#45;6</title>
<path fill="none" stroke="black" d="M164.88,-144.76C170.7,-133.46 178.42,-118.44 184.23,-107.15"/>
</g>
<!-- 1 -->
<g id="node3" class="node">
<title>1</title>
<ellipse fill="none" stroke="black" cx="37.53" cy="-18" rx="37.53" ry="18"/>
<text text-anchor="middle" x="37.53" y="-12.95" font-family="Times,serif" font-size="14.00">epsilon</text>
</g>
<!-- 3&#45;&#45;1 -->
<g id="edge2" class="edge">
<title>3&#45;&#45;1</title>
<path fill="none" stroke="black" d="M104.13,-75.17C90.15,-63.38 70.08,-46.45 55.63,-34.26"/>
</g>
<!-- 2 -->
<g id="node4" class="node">
<title>2</title>
<ellipse fill="none" stroke="black" cx="120.53" cy="-18" rx="27" ry="18"/>
<text text-anchor="middle" x="120.53" y="-12.95" font-family="Times,serif" font-size="14.00">c</text>
</g>
<!-- 3&#45;&#45;2 -->
<g id="edge3" class="edge">
<title>3&#45;&#45;2</title>
<path fill="none" stroke="black" d="M120.53,-71.7C120.53,-60.85 120.53,-46.92 120.53,-36.1"/>
</g>
<!-- 4 -->
<g id="node6" class="node">
<title>4</title>
<ellipse fill="none" stroke="black" cx="192.53" cy="-18" rx="27" ry="18"/>
<text text-anchor="middle" x="192.53" y="-12.95" font-family="Times,serif" font-size="14.00">Ef</text>
</g>
<!-- 6&#45;&#45;4 -->
<g id="edge5" class="edge">
<title>6&#45;&#45;4</title>
<path fill="none" stroke="black" d="M192.53,-71.7C192.53,-60.85 192.53,-46.92 192.53,-36.1"/>
</g>
<!-- 5 -->
<g id="node7" class="node">
<title>5</title>
<ellipse fill="none" stroke="black" cx="264.53" cy="-18" rx="27" ry="18"/>
<text text-anchor="middle" x="264.53" y="-12.95" font-family="Times,serif" font-size="14.00">2</text>
</g>
<!-- 6&#45;&#45;5 -->
<g id="edge6" class="edge">
<title>6&#45;&#45;5</title>
<path fill="none" stroke="black" d="M207.45,-74.5C219.81,-62.48 237.28,-45.49 249.63,-33.49"/>
</g>
</g>
</svg>
