<?xml version="1.0" encoding="UTF-8" standalone="no"?>
<!DOCTYPE svg PUBLIC "-//W3C//DTD SVG 1.1//EN"
 "http://www.w3.org/Graphics/SVG/1.1/DTD/svg11.dtd">
<!-- Generated by graphviz version 9.0.0 (20230911.1827)
 -->
<!-- Title: G Pages: 1 -->
<svg width="400pt" height="357pt"
 viewBox="0.00 0.00 400.00 356.50" xmlns="http://www.w3.org/2000/svg" xmlns:xlink="http://www.w3.org/1999/xlink">
<g id="graph0" class="graph" transform="scale(1 1) rotate(0) translate(4 352.5)">
<title>G</title>
<polygon fill="white" stroke="none" points="-4,4 -4,-352.5 396,-352.5 396,4 -4,4"/>
<text text-anchor="middle" x="196" y="-331.2" font-family="Times,serif" font-size="14.00">q*Ef/(m*(omega_0**2&#45;omega**2)), depth = 4</text>
<!-- 13 -->
<g id="node1" class="node">
<title>13</title>
<ellipse fill="none" stroke="black" cx="135" cy="-306" rx="27" ry="18"/>
<text text-anchor="middle" x="135" y="-300.95" font-family="Times,serif" font-size="14.00">/</text>
</g>
<!-- 3 -->
<g id="node2" class="node">
<title>3</title>
<ellipse fill="none" stroke="black" cx="99" cy="-234" rx="27" ry="18"/>
<text text-anchor="middle" x="99" y="-228.95" font-family="Times,serif" font-size="14.00">*</text>
</g>
<!-- 13&#45;&#45;3 -->
<g id="edge1" class="edge">
<title>13&#45;&#45;3</title>
<path fill="none" stroke="black" d="M126.65,-288.76C120.83,-277.46 113.11,-262.44 107.3,-251.15"/>
</g>
<!-- 12 -->
<g id="node5" class="node">
<title>12</title>
<ellipse fill="none" stroke="black" cx="171" cy="-234" rx="27" ry="18"/>
<text text-anchor="middle" x="171" y="-228.95" font-family="Times,serif" font-size="14.00">*</text>
</g>
<!-- 13&#45;&#45;12 -->
<g id="edge4" class="edge">
<title>13&#45;&#45;12</title>
<path fill="none" stroke="black" d="M143.35,-288.76C149.17,-277.46 156.89,-262.44 162.7,-251.15"/>
</g>
<!-- 1 -->
<g id="node3" class="node">
<title>1</title>
<ellipse fill="none" stroke="black" cx="27" cy="-162" rx="27" ry="18"/>
<text text-anchor="middle" x="27" y="-156.95" font-family="Times,serif" font-size="14.00">q</text>
</g>
<!-- 3&#45;&#45;1 -->
<g id="edge2" class="edge">
<title>3&#45;&#45;1</title>
<path fill="none" stroke="black" d="M84.08,-218.5C71.72,-206.48 54.25,-189.49 41.9,-177.49"/>
</g>
<!-- 2 -->
<g id="node4" class="node">
<title>2</title>
<ellipse fill="none" stroke="black" cx="99" cy="-162" rx="27" ry="18"/>
<text text-anchor="middle" x="99" y="-156.95" font-family="Times,serif" font-size="14.00">Ef</text>
</g>
<!-- 3&#45;&#45;2 -->
<g id="edge3" class="edge">
<title>3&#45;&#45;2</title>
<path fill="none" stroke="black" d="M99,-215.7C99,-204.85 99,-190.92 99,-180.1"/>
</g>
<!-- 4 -->
<g id="node6" class="node">
<title>4</title>
<ellipse fill="none" stroke="black" cx="171" cy="-162" rx="27" ry="18"/>
<text text-anchor="middle" x="171" y="-156.95" font-family="Times,serif" font-size="14.00">m</text>
</g>
<!-- 12&#45;&#45;4 -->
<g id="edge5" class="edge">
<title>12&#45;&#45;4</title>
<path fill="none" stroke="black" d="M171,-215.7C171,-204.85 171,-190.92 171,-180.1"/>
</g>
<!-- 11 -->
<g id="node7" class="node">
<title>11</title>
<ellipse fill="none" stroke="black" cx="243" cy="-162" rx="27" ry="18"/>
<text text-anchor="middle" x="243" y="-156.95" font-family="Times,serif" font-size="14.00">&#45;</text>
</g>
<!-- 12&#45;&#45;11 -->
<g id="edge6" class="edge">
<title>12&#45;&#45;11</title>
<path fill="none" stroke="black" d="M185.92,-218.5C198.28,-206.48 215.75,-189.49 228.1,-177.49"/>
</g>
<!-- 7 -->
<g id="node8" class="node">
<title>7</title>
<ellipse fill="none" stroke="black" cx="203" cy="-90" rx="27" ry="18"/>
<text text-anchor="middle" x="203" y="-84.95" font-family="Times,serif" font-size="14.00">^</text>
</g>
<!-- 11&#45;&#45;7 -->
<g id="edge7" class="edge">
<title>11&#45;&#45;7</title>
<path fill="none" stroke="black" d="M233.72,-144.76C227.26,-133.46 218.68,-118.44 212.23,-107.15"/>
</g>
<!-- 10 -->
<g id="node11" class="node">
<title>10</title>
<ellipse fill="none" stroke="black" cx="284" cy="-90" rx="27" ry="18"/>
<text text-anchor="middle" x="284" y="-84.95" font-family="Times,serif" font-size="14.00">^</text>
</g>
<!-- 11&#45;&#45;10 -->
<g id="edge10" class="edge">
<title>11&#45;&#45;10</title>
<path fill="none" stroke="black" d="M252.51,-144.76C259.13,-133.46 267.93,-118.44 274.54,-107.15"/>
</g>
<!-- 5 -->
<g id="node9" class="node">
<title>5</title>
<ellipse fill="none" stroke="black" cx="113" cy="-18" rx="45.21" ry="18"/>
<text text-anchor="middle" x="113" y="-12.95" font-family="Times,serif" font-size="14.00">omega_0</text>
</g>
<!-- 7&#45;&#45;5 -->
<g id="edge8" class="edge">
<title>7&#45;&#45;5</title>
<path fill="none" stroke="black" d="M186.07,-75.83C171,-64.11 148.93,-46.95 132.99,-34.55"/>
</g>
<!-- 6 -->
<g id="node10" class="node">
<title>6</title>
<ellipse fill="none" stroke="black" cx="203" cy="-18" rx="27" ry="18"/>
<text text-anchor="middle" x="203" y="-12.95" font-family="Times,serif" font-size="14.00">2</text>
</g>
<!-- 7&#45;&#45;6 -->
<g id="edge9" class="edge">
<title>7&#45;&#45;6</title>
<path fill="none" stroke="black" d="M203,-71.7C203,-60.85 203,-46.92 203,-36.1"/>
</g>
<!-- 8 -->
<g id="node12" class="node">
<title>8</title>
<ellipse fill="none" stroke="black" cx="284" cy="-18" rx="36" ry="18"/>
<text text-anchor="middle" x="284" y="-12.95" font-family="Times,serif" font-size="14.00">omega</text>
</g>
<!-- 10&#45;&#45;8 -->
<g id="edge11" class="edge">
<title>10&#45;&#45;8</title>
<path fill="none" stroke="black" d="M284,-71.7C284,-60.85 284,-46.92 284,-36.1"/>
</g>
<!-- 9 -->
<g id="node13" class="node">
<title>9</title>
<ellipse fill="none" stroke="black" cx="365" cy="-18" rx="27" ry="18"/>
<text text-anchor="middle" x="365" y="-12.95" font-family="Times,serif" font-size="14.00">2</text>
</g>
<!-- 10&#45;&#45;9 -->
<g id="edge12" class="edge">
<title>10&#45;&#45;9</title>
<path fill="none" stroke="black" d="M300,-75.17C314.2,-62.9 334.84,-45.06 349.03,-32.8"/>
</g>
</g>
</svg>
