<?xml version="1.0" encoding="UTF-8" standalone="no"?>
<!DOCTYPE svg PUBLIC "-//W3C//DTD SVG 1.1//EN"
 "http://www.w3.org/Graphics/SVG/1.1/DTD/svg11.dtd">
<!-- Generated by graphviz version 9.0.0 (20230911.1827)
 -->
<!-- Title: G Pages: 1 -->
<svg width="215pt" height="357pt"
 viewBox="0.00 0.00 214.93 356.50" xmlns="http://www.w3.org/2000/svg" xmlns:xlink="http://www.w3.org/1999/xlink">
<g id="graph0" class="graph" transform="scale(1 1) rotate(0) translate(4 352.5)">
<title>G</title>
<polygon fill="white" stroke="none" points="-4,4 -4,-352.5 210.93,-352.5 210.93,4 -4,4"/>
<text text-anchor="middle" x="103.46" y="-331.2" font-family="Times,serif" font-size="14.00">kappa*(T2&#45;T1)*A/d, depth = 4</text>
<!-- 9 -->
<g id="node1" class="node">
<title>9</title>
<ellipse fill="none" stroke="black" cx="143.93" cy="-306" rx="27" ry="18"/>
<text text-anchor="middle" x="143.93" y="-300.95" font-family="Times,serif" font-size="14.00">/</text>
</g>
<!-- 7 -->
<g id="node2" class="node">
<title>7</title>
<ellipse fill="none" stroke="black" cx="107.93" cy="-234" rx="27" ry="18"/>
<text text-anchor="middle" x="107.93" y="-228.95" font-family="Times,serif" font-size="14.00">*</text>
</g>
<!-- 9&#45;&#45;7 -->
<g id="edge1" class="edge">
<title>9&#45;&#45;7</title>
<path fill="none" stroke="black" d="M135.58,-288.76C129.76,-277.46 122.04,-262.44 116.23,-251.15"/>
</g>
<!-- 8 -->
<g id="node9" class="node">
<title>8</title>
<ellipse fill="none" stroke="black" cx="179.93" cy="-234" rx="27" ry="18"/>
<text text-anchor="middle" x="179.93" y="-228.95" font-family="Times,serif" font-size="14.00">d</text>
</g>
<!-- 9&#45;&#45;8 -->
<g id="edge8" class="edge">
<title>9&#45;&#45;8</title>
<path fill="none" stroke="black" d="M152.28,-288.76C158.09,-277.46 165.82,-262.44 171.62,-251.15"/>
</g>
<!-- 5 -->
<g id="node3" class="node">
<title>5</title>
<ellipse fill="none" stroke="black" cx="71.93" cy="-162" rx="27" ry="18"/>
<text text-anchor="middle" x="71.93" y="-156.95" font-family="Times,serif" font-size="14.00">*</text>
</g>
<!-- 7&#45;&#45;5 -->
<g id="edge2" class="edge">
<title>7&#45;&#45;5</title>
<path fill="none" stroke="black" d="M99.58,-216.76C93.76,-205.46 86.04,-190.44 80.23,-179.15"/>
</g>
<!-- 6 -->
<g id="node8" class="node">
<title>6</title>
<ellipse fill="none" stroke="black" cx="143.93" cy="-162" rx="27" ry="18"/>
<text text-anchor="middle" x="143.93" y="-156.95" font-family="Times,serif" font-size="14.00">A</text>
</g>
<!-- 7&#45;&#45;6 -->
<g id="edge7" class="edge">
<title>7&#45;&#45;6</title>
<path fill="none" stroke="black" d="M116.28,-216.76C122.09,-205.46 129.82,-190.44 135.62,-179.15"/>
</g>
<!-- 1 -->
<g id="node4" class="node">
<title>1</title>
<ellipse fill="none" stroke="black" cx="32.93" cy="-90" rx="32.93" ry="18"/>
<text text-anchor="middle" x="32.93" y="-84.95" font-family="Times,serif" font-size="14.00">kappa</text>
</g>
<!-- 5&#45;&#45;1 -->
<g id="edge3" class="edge">
<title>5&#45;&#45;1</title>
<path fill="none" stroke="black" d="M62.88,-144.76C56.67,-133.62 48.45,-118.87 42.19,-107.63"/>
</g>
<!-- 4 -->
<g id="node5" class="node">
<title>4</title>
<ellipse fill="none" stroke="black" cx="110.93" cy="-90" rx="27" ry="18"/>
<text text-anchor="middle" x="110.93" y="-84.95" font-family="Times,serif" font-size="14.00">&#45;</text>
</g>
<!-- 5&#45;&#45;4 -->
<g id="edge4" class="edge">
<title>5&#45;&#45;4</title>
<path fill="none" stroke="black" d="M80.97,-144.76C87.27,-133.46 95.64,-118.44 101.93,-107.15"/>
</g>
<!-- 2 -->
<g id="node6" class="node">
<title>2</title>
<ellipse fill="none" stroke="black" cx="74.93" cy="-18" rx="27" ry="18"/>
<text text-anchor="middle" x="74.93" y="-12.95" font-family="Times,serif" font-size="14.00">T2</text>
</g>
<!-- 4&#45;&#45;2 -->
<g id="edge5" class="edge">
<title>4&#45;&#45;2</title>
<path fill="none" stroke="black" d="M102.58,-72.76C96.76,-61.46 89.04,-46.44 83.23,-35.15"/>
</g>
<!-- 3 -->
<g id="node7" class="node">
<title>3</title>
<ellipse fill="none" stroke="black" cx="146.93" cy="-18" rx="27" ry="18"/>
<text text-anchor="middle" x="146.93" y="-12.95" font-family="Times,serif" font-size="14.00">T1</text>
</g>
<!-- 4&#45;&#45;3 -->
<g id="edge6" class="edge">
<title>4&#45;&#45;3</title>
<path fill="none" stroke="black" d="M119.28,-72.76C125.09,-61.46 132.82,-46.44 138.62,-35.15"/>
</g>
</g>
</svg>
