<?xml version="1.0" encoding="UTF-8" standalone="no"?>
<!DOCTYPE svg PUBLIC "-//W3C//DTD SVG 1.1//EN"
 "http://www.w3.org/Graphics/SVG/1.1/DTD/svg11.dtd">
<!-- Generated by graphviz version 9.0.0 (20230911.1827)
 -->
<!-- Title: G Pages: 1 -->
<svg width="475pt" height="573pt"
 viewBox="0.00 0.00 474.88 572.50" xmlns="http://www.w3.org/2000/svg" xmlns:xlink="http://www.w3.org/1999/xlink">
<g id="graph0" class="graph" transform="scale(1 1) rotate(0) translate(4 568.5)">
<title>G</title>
<polygon fill="white" stroke="none" points="-4,4 -4,-568.5 470.88,-568.5 470.88,4 -4,4"/>
<text text-anchor="middle" x="233.44" y="-547.2" font-family="Times,serif" font-size="14.00">I_0*(sin(alpha/2)*sin(n*delta/2)/(alpha/2*sin(delta/2)))**2, depth = 7</text>
<!-- 24 -->
<g id="node1" class="node">
<title>24</title>
<ellipse fill="none" stroke="black" cx="216.88" cy="-522" rx="27" ry="18"/>
<text text-anchor="middle" x="216.88" y="-516.95" font-family="Times,serif" font-size="14.00">*</text>
</g>
<!-- 1 -->
<g id="node2" class="node">
<title>1</title>
<ellipse fill="none" stroke="black" cx="180.88" cy="-450" rx="27" ry="18"/>
<text text-anchor="middle" x="180.88" y="-444.95" font-family="Times,serif" font-size="14.00">I_0</text>
</g>
<!-- 24&#45;&#45;1 -->
<g id="edge1" class="edge">
<title>24&#45;&#45;1</title>
<path fill="none" stroke="black" d="M208.53,-504.76C202.71,-493.46 194.99,-478.44 189.18,-467.15"/>
</g>
<!-- 23 -->
<g id="node3" class="node">
<title>23</title>
<ellipse fill="none" stroke="black" cx="252.88" cy="-450" rx="27" ry="18"/>
<text text-anchor="middle" x="252.88" y="-444.95" font-family="Times,serif" font-size="14.00">^</text>
</g>
<!-- 24&#45;&#45;23 -->
<g id="edge2" class="edge">
<title>24&#45;&#45;23</title>
<path fill="none" stroke="black" d="M225.23,-504.76C231.04,-493.46 238.77,-478.44 244.57,-467.15"/>
</g>
<!-- 21 -->
<g id="node4" class="node">
<title>21</title>
<ellipse fill="none" stroke="black" cx="216.88" cy="-378" rx="27" ry="18"/>
<text text-anchor="middle" x="216.88" y="-372.95" font-family="Times,serif" font-size="14.00">/</text>
</g>
<!-- 23&#45;&#45;21 -->
<g id="edge3" class="edge">
<title>23&#45;&#45;21</title>
<path fill="none" stroke="black" d="M244.53,-432.76C238.71,-421.46 230.99,-406.44 225.18,-395.15"/>
</g>
<!-- 22 -->
<g id="node24" class="node">
<title>22</title>
<ellipse fill="none" stroke="black" cx="288.88" cy="-378" rx="27" ry="18"/>
<text text-anchor="middle" x="288.88" y="-372.95" font-family="Times,serif" font-size="14.00">2</text>
</g>
<!-- 23&#45;&#45;22 -->
<g id="edge23" class="edge">
<title>23&#45;&#45;22</title>
<path fill="none" stroke="black" d="M261.23,-432.76C267.04,-421.46 274.77,-406.44 280.57,-395.15"/>
</g>
<!-- 12 -->
<g id="node5" class="node">
<title>12</title>
<ellipse fill="none" stroke="black" cx="178.88" cy="-306" rx="27" ry="18"/>
<text text-anchor="middle" x="178.88" y="-300.95" font-family="Times,serif" font-size="14.00">*</text>
</g>
<!-- 21&#45;&#45;12 -->
<g id="edge4" class="edge">
<title>21&#45;&#45;12</title>
<path fill="none" stroke="black" d="M208.07,-360.76C201.93,-349.46 193.77,-334.44 187.64,-323.15"/>
</g>
<!-- 20 -->
<g id="node16" class="node">
<title>20</title>
<ellipse fill="none" stroke="black" cx="273.88" cy="-306" rx="27" ry="18"/>
<text text-anchor="middle" x="273.88" y="-300.95" font-family="Times,serif" font-size="14.00">*</text>
</g>
<!-- 21&#45;&#45;20 -->
<g id="edge15" class="edge">
<title>21&#45;&#45;20</title>
<path fill="none" stroke="black" d="M229.25,-361.81C238.81,-350.07 251.98,-333.89 261.54,-322.16"/>
</g>
<!-- 5 -->
<g id="node6" class="node">
<title>5</title>
<ellipse fill="none" stroke="black" cx="106.88" cy="-234" rx="27" ry="18"/>
<text text-anchor="middle" x="106.88" y="-228.95" font-family="Times,serif" font-size="14.00">sin</text>
</g>
<!-- 12&#45;&#45;5 -->
<g id="edge5" class="edge">
<title>12&#45;&#45;5</title>
<path fill="none" stroke="black" d="M163.96,-290.5C151.6,-278.48 134.13,-261.49 121.78,-249.49"/>
</g>
<!-- 11 -->
<g id="node10" class="node">
<title>11</title>
<ellipse fill="none" stroke="black" cx="178.88" cy="-234" rx="27" ry="18"/>
<text text-anchor="middle" x="178.88" y="-228.95" font-family="Times,serif" font-size="14.00">sin</text>
</g>
<!-- 12&#45;&#45;11 -->
<g id="edge9" class="edge">
<title>12&#45;&#45;11</title>
<path fill="none" stroke="black" d="M178.88,-287.7C178.88,-276.85 178.88,-262.92 178.88,-252.1"/>
</g>
<!-- 4 -->
<g id="node7" class="node">
<title>4</title>
<ellipse fill="none" stroke="black" cx="106.88" cy="-162" rx="27" ry="18"/>
<text text-anchor="middle" x="106.88" y="-156.95" font-family="Times,serif" font-size="14.00">/</text>
</g>
<!-- 5&#45;&#45;4 -->
<g id="edge6" class="edge">
<title>5&#45;&#45;4</title>
<path fill="none" stroke="black" d="M106.88,-215.7C106.88,-204.85 106.88,-190.92 106.88,-180.1"/>
</g>
<!-- 2 -->
<g id="node8" class="node">
<title>2</title>
<ellipse fill="none" stroke="black" cx="30.88" cy="-90" rx="30.88" ry="18"/>
<text text-anchor="middle" x="30.88" y="-84.95" font-family="Times,serif" font-size="14.00">alpha</text>
</g>
<!-- 4&#45;&#45;2 -->
<g id="edge7" class="edge">
<title>4&#45;&#45;2</title>
<path fill="none" stroke="black" d="M91.5,-146.83C78.49,-134.85 59.91,-117.74 46.76,-105.63"/>
</g>
<!-- 3 -->
<g id="node9" class="node">
<title>3</title>
<ellipse fill="none" stroke="black" cx="106.88" cy="-90" rx="27" ry="18"/>
<text text-anchor="middle" x="106.88" y="-84.95" font-family="Times,serif" font-size="14.00">2</text>
</g>
<!-- 4&#45;&#45;3 -->
<g id="edge8" class="edge">
<title>4&#45;&#45;3</title>
<path fill="none" stroke="black" d="M106.88,-143.7C106.88,-132.85 106.88,-118.92 106.88,-108.1"/>
</g>
<!-- 10 -->
<g id="node11" class="node">
<title>10</title>
<ellipse fill="none" stroke="black" cx="178.88" cy="-162" rx="27" ry="18"/>
<text text-anchor="middle" x="178.88" y="-156.95" font-family="Times,serif" font-size="14.00">/</text>
</g>
<!-- 11&#45;&#45;10 -->
<g id="edge10" class="edge">
<title>11&#45;&#45;10</title>
<path fill="none" stroke="black" d="M178.88,-215.7C178.88,-204.85 178.88,-190.92 178.88,-180.1"/>
</g>
<!-- 8 -->
<g id="node12" class="node">
<title>8</title>
<ellipse fill="none" stroke="black" cx="178.88" cy="-90" rx="27" ry="18"/>
<text text-anchor="middle" x="178.88" y="-84.95" font-family="Times,serif" font-size="14.00">*</text>
</g>
<!-- 10&#45;&#45;8 -->
<g id="edge11" class="edge">
<title>10&#45;&#45;8</title>
<path fill="none" stroke="black" d="M178.88,-143.7C178.88,-132.85 178.88,-118.92 178.88,-108.1"/>
</g>
<!-- 9 -->
<g id="node15" class="node">
<title>9</title>
<ellipse fill="none" stroke="black" cx="250.88" cy="-90" rx="27" ry="18"/>
<text text-anchor="middle" x="250.88" y="-84.95" font-family="Times,serif" font-size="14.00">2</text>
</g>
<!-- 10&#45;&#45;9 -->
<g id="edge14" class="edge">
<title>10&#45;&#45;9</title>
<path fill="none" stroke="black" d="M193.8,-146.5C206.15,-134.48 223.63,-117.49 235.98,-105.49"/>
</g>
<!-- 6 -->
<g id="node13" class="node">
<title>6</title>
<ellipse fill="none" stroke="black" cx="141.88" cy="-18" rx="27" ry="18"/>
<text text-anchor="middle" x="141.88" y="-12.95" font-family="Times,serif" font-size="14.00">n</text>
</g>
<!-- 8&#45;&#45;6 -->
<g id="edge12" class="edge">
<title>8&#45;&#45;6</title>
<path fill="none" stroke="black" d="M170.3,-72.76C164.32,-61.46 156.38,-46.44 150.41,-35.15"/>
</g>
<!-- 7 -->
<g id="node14" class="node">
<title>7</title>
<ellipse fill="none" stroke="black" cx="215.88" cy="-18" rx="28.83" ry="18"/>
<text text-anchor="middle" x="215.88" y="-12.95" font-family="Times,serif" font-size="14.00">delta</text>
</g>
<!-- 8&#45;&#45;7 -->
<g id="edge13" class="edge">
<title>8&#45;&#45;7</title>
<path fill="none" stroke="black" d="M187.46,-72.76C193.35,-61.62 201.15,-46.87 207.09,-35.63"/>
</g>
<!-- 15 -->
<g id="node17" class="node">
<title>15</title>
<ellipse fill="none" stroke="black" cx="273.88" cy="-234" rx="27" ry="18"/>
<text text-anchor="middle" x="273.88" y="-228.95" font-family="Times,serif" font-size="14.00">/</text>
</g>
<!-- 20&#45;&#45;15 -->
<g id="edge16" class="edge">
<title>20&#45;&#45;15</title>
<path fill="none" stroke="black" d="M273.88,-287.7C273.88,-276.85 273.88,-262.92 273.88,-252.1"/>
</g>
<!-- 19 -->
<g id="node20" class="node">
<title>19</title>
<ellipse fill="none" stroke="black" cx="383.88" cy="-234" rx="27" ry="18"/>
<text text-anchor="middle" x="383.88" y="-228.95" font-family="Times,serif" font-size="14.00">sin</text>
</g>
<!-- 20&#45;&#45;19 -->
<g id="edge19" class="edge">
<title>20&#45;&#45;19</title>
<path fill="none" stroke="black" d="M293.04,-292.81C313.23,-279.96 344.83,-259.85 364.94,-247.05"/>
</g>
<!-- 13 -->
<g id="node18" class="node">
<title>13</title>
<ellipse fill="none" stroke="black" cx="254.88" cy="-162" rx="30.88" ry="18"/>
<text text-anchor="middle" x="254.88" y="-156.95" font-family="Times,serif" font-size="14.00">alpha</text>
</g>
<!-- 15&#45;&#45;13 -->
<g id="edge17" class="edge">
<title>15&#45;&#45;13</title>
<path fill="none" stroke="black" d="M269.28,-216.05C266.34,-205.21 262.53,-191.18 259.57,-180.28"/>
</g>
<!-- 14 -->
<g id="node19" class="node">
<title>14</title>
<ellipse fill="none" stroke="black" cx="330.88" cy="-162" rx="27" ry="18"/>
<text text-anchor="middle" x="330.88" y="-156.95" font-family="Times,serif" font-size="14.00">2</text>
</g>
<!-- 15&#45;&#45;14 -->
<g id="edge18" class="edge">
<title>15&#45;&#45;14</title>
<path fill="none" stroke="black" d="M286.25,-217.81C295.81,-206.07 308.98,-189.89 318.54,-178.16"/>
</g>
<!-- 18 -->
<g id="node21" class="node">
<title>18</title>
<ellipse fill="none" stroke="black" cx="402.88" cy="-162" rx="27" ry="18"/>
<text text-anchor="middle" x="402.88" y="-156.95" font-family="Times,serif" font-size="14.00">/</text>
</g>
<!-- 19&#45;&#45;18 -->
<g id="edge20" class="edge">
<title>19&#45;&#45;18</title>
<path fill="none" stroke="black" d="M388.48,-216.05C391.47,-205.05 395.34,-190.76 398.32,-179.79"/>
</g>
<!-- 16 -->
<g id="node22" class="node">
<title>16</title>
<ellipse fill="none" stroke="black" cx="365.88" cy="-90" rx="28.83" ry="18"/>
<text text-anchor="middle" x="365.88" y="-84.95" font-family="Times,serif" font-size="14.00">delta</text>
</g>
<!-- 18&#45;&#45;16 -->
<g id="edge21" class="edge">
<title>18&#45;&#45;16</title>
<path fill="none" stroke="black" d="M394.3,-144.76C388.41,-133.62 380.61,-118.87 374.67,-107.63"/>
</g>
<!-- 17 -->
<g id="node23" class="node">
<title>17</title>
<ellipse fill="none" stroke="black" cx="439.88" cy="-90" rx="27" ry="18"/>
<text text-anchor="middle" x="439.88" y="-84.95" font-family="Times,serif" font-size="14.00">2</text>
</g>
<!-- 18&#45;&#45;17 -->
<g id="edge22" class="edge">
<title>18&#45;&#45;17</title>
<path fill="none" stroke="black" d="M411.46,-144.76C417.44,-133.46 425.38,-118.44 431.34,-107.15"/>
</g>
</g>
</svg>
