<?xml version="1.0" encoding="UTF-8" standalone="no"?>
<!DOCTYPE svg PUBLIC "-//W3C//DTD SVG 1.1//EN"
 "http://www.w3.org/Graphics/SVG/1.1/DTD/svg11.dtd">
<!-- Generated by graphviz version 9.0.0 (20230911.1827)
 -->
<!-- Title: G Pages: 1 -->
<svg width="342pt" height="357pt"
 viewBox="0.00 0.00 342.41 356.50" xmlns="http://www.w3.org/2000/svg" xmlns:xlink="http://www.w3.org/1999/xlink">
<g id="graph0" class="graph" transform="scale(1 1) rotate(0) translate(4 352.5)">
<title>G</title>
<polygon fill="white" stroke="none" points="-4,4 -4,-352.5 338.41,-352.5 338.41,4 -4,4"/>
<text text-anchor="middle" x="167.21" y="-331.2" font-family="Times,serif" font-size="14.00">n_rho*p_d**2*(Ef/(3*kb*T)), depth = 4</text>
<!-- 13 -->
<g id="node1" class="node">
<title>13</title>
<ellipse fill="none" stroke="black" cx="145.41" cy="-306" rx="27" ry="18"/>
<text text-anchor="middle" x="145.41" y="-300.95" font-family="Times,serif" font-size="14.00">*</text>
</g>
<!-- 5 -->
<g id="node2" class="node">
<title>5</title>
<ellipse fill="none" stroke="black" cx="109.41" cy="-234" rx="27" ry="18"/>
<text text-anchor="middle" x="109.41" y="-228.95" font-family="Times,serif" font-size="14.00">*</text>
</g>
<!-- 13&#45;&#45;5 -->
<g id="edge1" class="edge">
<title>13&#45;&#45;5</title>
<path fill="none" stroke="black" d="M137.06,-288.76C131.25,-277.46 123.52,-262.44 117.72,-251.15"/>
</g>
<!-- 12 -->
<g id="node7" class="node">
<title>12</title>
<ellipse fill="none" stroke="black" cx="181.41" cy="-234" rx="27" ry="18"/>
<text text-anchor="middle" x="181.41" y="-228.95" font-family="Times,serif" font-size="14.00">/</text>
</g>
<!-- 13&#45;&#45;12 -->
<g id="edge6" class="edge">
<title>13&#45;&#45;12</title>
<path fill="none" stroke="black" d="M153.76,-288.76C159.58,-277.46 167.3,-262.44 173.11,-251.15"/>
</g>
<!-- 1 -->
<g id="node3" class="node">
<title>1</title>
<ellipse fill="none" stroke="black" cx="32.41" cy="-162" rx="32.41" ry="18"/>
<text text-anchor="middle" x="32.41" y="-156.95" font-family="Times,serif" font-size="14.00">n_rho</text>
</g>
<!-- 5&#45;&#45;1 -->
<g id="edge2" class="edge">
<title>5&#45;&#45;1</title>
<path fill="none" stroke="black" d="M93.83,-218.83C80.74,-206.93 62.08,-189.97 48.77,-177.87"/>
</g>
<!-- 4 -->
<g id="node4" class="node">
<title>4</title>
<ellipse fill="none" stroke="black" cx="109.41" cy="-162" rx="27" ry="18"/>
<text text-anchor="middle" x="109.41" y="-156.95" font-family="Times,serif" font-size="14.00">^</text>
</g>
<!-- 5&#45;&#45;4 -->
<g id="edge3" class="edge">
<title>5&#45;&#45;4</title>
<path fill="none" stroke="black" d="M109.41,-215.7C109.41,-204.85 109.41,-190.92 109.41,-180.1"/>
</g>
<!-- 2 -->
<g id="node5" class="node">
<title>2</title>
<ellipse fill="none" stroke="black" cx="55.41" cy="-90" rx="27" ry="18"/>
<text text-anchor="middle" x="55.41" y="-84.95" font-family="Times,serif" font-size="14.00">p_d</text>
</g>
<!-- 4&#45;&#45;2 -->
<g id="edge4" class="edge">
<title>4&#45;&#45;2</title>
<path fill="none" stroke="black" d="M97.43,-145.46C88.48,-133.86 76.31,-118.08 67.37,-106.49"/>
</g>
<!-- 3 -->
<g id="node6" class="node">
<title>3</title>
<ellipse fill="none" stroke="black" cx="127.41" cy="-90" rx="27" ry="18"/>
<text text-anchor="middle" x="127.41" y="-84.95" font-family="Times,serif" font-size="14.00">2</text>
</g>
<!-- 4&#45;&#45;3 -->
<g id="edge5" class="edge">
<title>4&#45;&#45;3</title>
<path fill="none" stroke="black" d="M113.77,-144.05C116.6,-133.05 120.28,-118.76 123.1,-107.79"/>
</g>
<!-- 6 -->
<g id="node8" class="node">
<title>6</title>
<ellipse fill="none" stroke="black" cx="181.41" cy="-162" rx="27" ry="18"/>
<text text-anchor="middle" x="181.41" y="-156.95" font-family="Times,serif" font-size="14.00">Ef</text>
</g>
<!-- 12&#45;&#45;6 -->
<g id="edge7" class="edge">
<title>12&#45;&#45;6</title>
<path fill="none" stroke="black" d="M181.41,-215.7C181.41,-204.85 181.41,-190.92 181.41,-180.1"/>
</g>
<!-- 11 -->
<g id="node9" class="node">
<title>11</title>
<ellipse fill="none" stroke="black" cx="253.41" cy="-162" rx="27" ry="18"/>
<text text-anchor="middle" x="253.41" y="-156.95" font-family="Times,serif" font-size="14.00">*</text>
</g>
<!-- 12&#45;&#45;11 -->
<g id="edge8" class="edge">
<title>12&#45;&#45;11</title>
<path fill="none" stroke="black" d="M196.33,-218.5C208.69,-206.48 226.16,-189.49 238.52,-177.49"/>
</g>
<!-- 9 -->
<g id="node10" class="node">
<title>9</title>
<ellipse fill="none" stroke="black" cx="235.41" cy="-90" rx="27" ry="18"/>
<text text-anchor="middle" x="235.41" y="-84.95" font-family="Times,serif" font-size="14.00">*</text>
</g>
<!-- 11&#45;&#45;9 -->
<g id="edge9" class="edge">
<title>11&#45;&#45;9</title>
<path fill="none" stroke="black" d="M249.06,-144.05C246.23,-133.05 242.55,-118.76 239.73,-107.79"/>
</g>
<!-- 10 -->
<g id="node13" class="node">
<title>10</title>
<ellipse fill="none" stroke="black" cx="307.41" cy="-90" rx="27" ry="18"/>
<text text-anchor="middle" x="307.41" y="-84.95" font-family="Times,serif" font-size="14.00">T</text>
</g>
<!-- 11&#45;&#45;10 -->
<g id="edge12" class="edge">
<title>11&#45;&#45;10</title>
<path fill="none" stroke="black" d="M265.4,-145.46C274.35,-133.86 286.52,-118.08 295.46,-106.49"/>
</g>
<!-- 7 -->
<g id="node11" class="node">
<title>7</title>
<ellipse fill="none" stroke="black" cx="199.41" cy="-18" rx="27" ry="18"/>
<text text-anchor="middle" x="199.41" y="-12.95" font-family="Times,serif" font-size="14.00">3</text>
</g>
<!-- 9&#45;&#45;7 -->
<g id="edge10" class="edge">
<title>9&#45;&#45;7</title>
<path fill="none" stroke="black" d="M227.06,-72.76C221.25,-61.46 213.52,-46.44 207.72,-35.15"/>
</g>
<!-- 8 -->
<g id="node12" class="node">
<title>8</title>
<ellipse fill="none" stroke="black" cx="271.41" cy="-18" rx="27" ry="18"/>
<text text-anchor="middle" x="271.41" y="-12.95" font-family="Times,serif" font-size="14.00">kb</text>
</g>
<!-- 9&#45;&#45;8 -->
<g id="edge11" class="edge">
<title>9&#45;&#45;8</title>
<path fill="none" stroke="black" d="M243.76,-72.76C249.58,-61.46 257.3,-46.44 263.11,-35.15"/>
</g>
</g>
</svg>
