<?xml version="1.0" encoding="UTF-8" standalone="no"?>
<!DOCTYPE svg PUBLIC "-//W3C//DTD SVG 1.1//EN"
 "http://www.w3.org/Graphics/SVG/1.1/DTD/svg11.dtd">
<!-- Generated by graphviz version 9.0.0 (20230911.1827)
 -->
<!-- Title: G Pages: 1 -->
<svg width="656pt" height="573pt"
 viewBox="0.00 0.00 656.21 572.50" xmlns="http://www.w3.org/2000/svg" xmlns:xlink="http://www.w3.org/1999/xlink">
<g id="graph0" class="graph" transform="scale(1 1) rotate(0) translate(4 568.5)">
<title>G</title>
<polygon fill="white" stroke="none" points="-4,4 -4,-568.5 652.21,-568.5 652.21,4 -4,4"/>
<text text-anchor="middle" x="324.1" y="-547.2" font-family="Times,serif" font-size="14.00">(p_d*Ef*t/(h/(2*pi)))*sin((omega&#45;omega_0)*t/2)**2/((omega&#45;omega_0)*t/2)**2, depth = 7</text>
<!-- 32 -->
<g id="node1" class="node">
<title>32</title>
<ellipse fill="none" stroke="black" cx="467" cy="-522" rx="27" ry="18"/>
<text text-anchor="middle" x="467" y="-516.95" font-family="Times,serif" font-size="14.00">/</text>
</g>
<!-- 22 -->
<g id="node2" class="node">
<title>22</title>
<ellipse fill="none" stroke="black" cx="391" cy="-450" rx="27" ry="18"/>
<text text-anchor="middle" x="391" y="-444.95" font-family="Times,serif" font-size="14.00">*</text>
</g>
<!-- 32&#45;&#45;22 -->
<g id="edge1" class="edge">
<title>32&#45;&#45;22</title>
<path fill="none" stroke="black" d="M451.62,-506.83C438.43,-494.69 419.54,-477.28 406.36,-465.14"/>
</g>
<!-- 31 -->
<g id="node24" class="node">
<title>31</title>
<ellipse fill="none" stroke="black" cx="504" cy="-450" rx="27" ry="18"/>
<text text-anchor="middle" x="504" y="-444.95" font-family="Times,serif" font-size="14.00">^</text>
</g>
<!-- 32&#45;&#45;31 -->
<g id="edge23" class="edge">
<title>32&#45;&#45;31</title>
<path fill="none" stroke="black" d="M475.58,-504.76C481.56,-493.46 489.5,-478.44 495.46,-467.15"/>
</g>
<!-- 11 -->
<g id="node3" class="node">
<title>11</title>
<ellipse fill="none" stroke="black" cx="243" cy="-378" rx="27" ry="18"/>
<text text-anchor="middle" x="243" y="-372.95" font-family="Times,serif" font-size="14.00">/</text>
</g>
<!-- 22&#45;&#45;11 -->
<g id="edge2" class="edge">
<title>22&#45;&#45;11</title>
<path fill="none" stroke="black" d="M369.48,-438.82C341.42,-425.55 292.62,-402.47 264.55,-389.19"/>
</g>
<!-- 21 -->
<g id="node14" class="node">
<title>21</title>
<ellipse fill="none" stroke="black" cx="391" cy="-378" rx="27" ry="18"/>
<text text-anchor="middle" x="391" y="-372.95" font-family="Times,serif" font-size="14.00">^</text>
</g>
<!-- 22&#45;&#45;21 -->
<g id="edge13" class="edge">
<title>22&#45;&#45;21</title>
<path fill="none" stroke="black" d="M391,-431.7C391,-420.85 391,-406.92 391,-396.1"/>
</g>
<!-- 5 -->
<g id="node4" class="node">
<title>5</title>
<ellipse fill="none" stroke="black" cx="135" cy="-306" rx="27" ry="18"/>
<text text-anchor="middle" x="135" y="-300.95" font-family="Times,serif" font-size="14.00">*</text>
</g>
<!-- 11&#45;&#45;5 -->
<g id="edge3" class="edge">
<title>11&#45;&#45;5</title>
<path fill="none" stroke="black" d="M224.19,-364.81C204.49,-352.04 173.72,-332.09 153.96,-319.29"/>
</g>
<!-- 10 -->
<g id="node9" class="node">
<title>10</title>
<ellipse fill="none" stroke="black" cx="243" cy="-306" rx="27" ry="18"/>
<text text-anchor="middle" x="243" y="-300.95" font-family="Times,serif" font-size="14.00">/</text>
</g>
<!-- 11&#45;&#45;10 -->
<g id="edge8" class="edge">
<title>11&#45;&#45;10</title>
<path fill="none" stroke="black" d="M243,-359.7C243,-348.85 243,-334.92 243,-324.1"/>
</g>
<!-- 3 -->
<g id="node5" class="node">
<title>3</title>
<ellipse fill="none" stroke="black" cx="63" cy="-234" rx="27" ry="18"/>
<text text-anchor="middle" x="63" y="-228.95" font-family="Times,serif" font-size="14.00">*</text>
</g>
<!-- 5&#45;&#45;3 -->
<g id="edge4" class="edge">
<title>5&#45;&#45;3</title>
<path fill="none" stroke="black" d="M120.08,-290.5C107.72,-278.48 90.25,-261.49 77.9,-249.49"/>
</g>
<!-- 4 -->
<g id="node8" class="node">
<title>4</title>
<ellipse fill="none" stroke="black" cx="135" cy="-234" rx="27" ry="18"/>
<text text-anchor="middle" x="135" y="-228.95" font-family="Times,serif" font-size="14.00">t</text>
</g>
<!-- 5&#45;&#45;4 -->
<g id="edge7" class="edge">
<title>5&#45;&#45;4</title>
<path fill="none" stroke="black" d="M135,-287.7C135,-276.85 135,-262.92 135,-252.1"/>
</g>
<!-- 1 -->
<g id="node6" class="node">
<title>1</title>
<ellipse fill="none" stroke="black" cx="27" cy="-162" rx="27" ry="18"/>
<text text-anchor="middle" x="27" y="-156.95" font-family="Times,serif" font-size="14.00">p_d</text>
</g>
<!-- 3&#45;&#45;1 -->
<g id="edge5" class="edge">
<title>3&#45;&#45;1</title>
<path fill="none" stroke="black" d="M54.65,-216.76C48.83,-205.46 41.11,-190.44 35.3,-179.15"/>
</g>
<!-- 2 -->
<g id="node7" class="node">
<title>2</title>
<ellipse fill="none" stroke="black" cx="99" cy="-162" rx="27" ry="18"/>
<text text-anchor="middle" x="99" y="-156.95" font-family="Times,serif" font-size="14.00">Ef</text>
</g>
<!-- 3&#45;&#45;2 -->
<g id="edge6" class="edge">
<title>3&#45;&#45;2</title>
<path fill="none" stroke="black" d="M71.35,-216.76C77.17,-205.46 84.89,-190.44 90.7,-179.15"/>
</g>
<!-- 6 -->
<g id="node10" class="node">
<title>6</title>
<ellipse fill="none" stroke="black" cx="207" cy="-234" rx="27" ry="18"/>
<text text-anchor="middle" x="207" y="-228.95" font-family="Times,serif" font-size="14.00">h</text>
</g>
<!-- 10&#45;&#45;6 -->
<g id="edge9" class="edge">
<title>10&#45;&#45;6</title>
<path fill="none" stroke="black" d="M234.65,-288.76C228.83,-277.46 221.11,-262.44 215.3,-251.15"/>
</g>
<!-- 9 -->
<g id="node11" class="node">
<title>9</title>
<ellipse fill="none" stroke="black" cx="279" cy="-234" rx="27" ry="18"/>
<text text-anchor="middle" x="279" y="-228.95" font-family="Times,serif" font-size="14.00">*</text>
</g>
<!-- 10&#45;&#45;9 -->
<g id="edge10" class="edge">
<title>10&#45;&#45;9</title>
<path fill="none" stroke="black" d="M251.35,-288.76C257.17,-277.46 264.89,-262.44 270.7,-251.15"/>
</g>
<!-- 7 -->
<g id="node12" class="node">
<title>7</title>
<ellipse fill="none" stroke="black" cx="207" cy="-162" rx="27" ry="18"/>
<text text-anchor="middle" x="207" y="-156.95" font-family="Times,serif" font-size="14.00">2</text>
</g>
<!-- 9&#45;&#45;7 -->
<g id="edge11" class="edge">
<title>9&#45;&#45;7</title>
<path fill="none" stroke="black" d="M264.08,-218.5C251.72,-206.48 234.25,-189.49 221.9,-177.49"/>
</g>
<!-- 8 -->
<g id="node13" class="node">
<title>8</title>
<ellipse fill="none" stroke="black" cx="279" cy="-162" rx="27" ry="18"/>
<text text-anchor="middle" x="279" y="-156.95" font-family="Times,serif" font-size="14.00">pi</text>
</g>
<!-- 9&#45;&#45;8 -->
<g id="edge12" class="edge">
<title>9&#45;&#45;8</title>
<path fill="none" stroke="black" d="M279,-215.7C279,-204.85 279,-190.92 279,-180.1"/>
</g>
<!-- 19 -->
<g id="node15" class="node">
<title>19</title>
<ellipse fill="none" stroke="black" cx="355" cy="-306" rx="27" ry="18"/>
<text text-anchor="middle" x="355" y="-300.95" font-family="Times,serif" font-size="14.00">sin</text>
</g>
<!-- 21&#45;&#45;19 -->
<g id="edge14" class="edge">
<title>21&#45;&#45;19</title>
<path fill="none" stroke="black" d="M382.65,-360.76C376.83,-349.46 369.11,-334.44 363.3,-323.15"/>
</g>
<!-- 20 -->
<g id="node23" class="node">
<title>20</title>
<ellipse fill="none" stroke="black" cx="427" cy="-306" rx="27" ry="18"/>
<text text-anchor="middle" x="427" y="-300.95" font-family="Times,serif" font-size="14.00">2</text>
</g>
<!-- 21&#45;&#45;20 -->
<g id="edge22" class="edge">
<title>21&#45;&#45;20</title>
<path fill="none" stroke="black" d="M399.35,-360.76C405.17,-349.46 412.89,-334.44 418.7,-323.15"/>
</g>
<!-- 18 -->
<g id="node16" class="node">
<title>18</title>
<ellipse fill="none" stroke="black" cx="355" cy="-234" rx="27" ry="18"/>
<text text-anchor="middle" x="355" y="-228.95" font-family="Times,serif" font-size="14.00">/</text>
</g>
<!-- 19&#45;&#45;18 -->
<g id="edge15" class="edge">
<title>19&#45;&#45;18</title>
<path fill="none" stroke="black" d="M355,-287.7C355,-276.85 355,-262.92 355,-252.1"/>
</g>
<!-- 16 -->
<g id="node17" class="node">
<title>16</title>
<ellipse fill="none" stroke="black" cx="351" cy="-162" rx="27" ry="18"/>
<text text-anchor="middle" x="351" y="-156.95" font-family="Times,serif" font-size="14.00">*</text>
</g>
<!-- 18&#45;&#45;16 -->
<g id="edge16" class="edge">
<title>18&#45;&#45;16</title>
<path fill="none" stroke="black" d="M354.01,-215.7C353.39,-204.85 352.6,-190.92 351.98,-180.1"/>
</g>
<!-- 17 -->
<g id="node22" class="node">
<title>17</title>
<ellipse fill="none" stroke="black" cx="423" cy="-162" rx="27" ry="18"/>
<text text-anchor="middle" x="423" y="-156.95" font-family="Times,serif" font-size="14.00">2</text>
</g>
<!-- 18&#45;&#45;17 -->
<g id="edge21" class="edge">
<title>18&#45;&#45;17</title>
<path fill="none" stroke="black" d="M369.09,-218.5C380.76,-206.48 397.26,-189.49 408.93,-177.49"/>
</g>
<!-- 14 -->
<g id="node18" class="node">
<title>14</title>
<ellipse fill="none" stroke="black" cx="315" cy="-90" rx="27" ry="18"/>
<text text-anchor="middle" x="315" y="-84.95" font-family="Times,serif" font-size="14.00">&#45;</text>
</g>
<!-- 16&#45;&#45;14 -->
<g id="edge17" class="edge">
<title>16&#45;&#45;14</title>
<path fill="none" stroke="black" d="M342.65,-144.76C336.83,-133.46 329.11,-118.44 323.3,-107.15"/>
</g>
<!-- 15 -->
<g id="node21" class="node">
<title>15</title>
<ellipse fill="none" stroke="black" cx="387" cy="-90" rx="27" ry="18"/>
<text text-anchor="middle" x="387" y="-84.95" font-family="Times,serif" font-size="14.00">t</text>
</g>
<!-- 16&#45;&#45;15 -->
<g id="edge20" class="edge">
<title>16&#45;&#45;15</title>
<path fill="none" stroke="black" d="M359.35,-144.76C365.17,-133.46 372.89,-118.44 378.7,-107.15"/>
</g>
<!-- 12 -->
<g id="node19" class="node">
<title>12</title>
<ellipse fill="none" stroke="black" cx="266" cy="-18" rx="36" ry="18"/>
<text text-anchor="middle" x="266" y="-12.95" font-family="Times,serif" font-size="14.00">omega</text>
</g>
<!-- 14&#45;&#45;12 -->
<g id="edge18" class="edge">
<title>14&#45;&#45;12</title>
<path fill="none" stroke="black" d="M303.88,-73.12C295.97,-61.82 285.39,-46.7 277.41,-35.31"/>
</g>
<!-- 13 -->
<g id="node20" class="node">
<title>13</title>
<ellipse fill="none" stroke="black" cx="365" cy="-18" rx="45.21" ry="18"/>
<text text-anchor="middle" x="365" y="-12.95" font-family="Times,serif" font-size="14.00">omega_0</text>
</g>
<!-- 14&#45;&#45;13 -->
<g id="edge19" class="edge">
<title>14&#45;&#45;13</title>
<path fill="none" stroke="black" d="M326.1,-73.46C334.15,-62.19 345.03,-46.96 353.24,-35.47"/>
</g>
<!-- 29 -->
<g id="node25" class="node">
<title>29</title>
<ellipse fill="none" stroke="black" cx="504" cy="-378" rx="27" ry="18"/>
<text text-anchor="middle" x="504" y="-372.95" font-family="Times,serif" font-size="14.00">/</text>
</g>
<!-- 31&#45;&#45;29 -->
<g id="edge24" class="edge">
<title>31&#45;&#45;29</title>
<path fill="none" stroke="black" d="M504,-431.7C504,-420.85 504,-406.92 504,-396.1"/>
</g>
<!-- 30 -->
<g id="node32" class="node">
<title>30</title>
<ellipse fill="none" stroke="black" cx="576" cy="-378" rx="27" ry="18"/>
<text text-anchor="middle" x="576" y="-372.95" font-family="Times,serif" font-size="14.00">2</text>
</g>
<!-- 31&#45;&#45;30 -->
<g id="edge31" class="edge">
<title>31&#45;&#45;30</title>
<path fill="none" stroke="black" d="M518.92,-434.5C531.28,-422.48 548.75,-405.49 561.1,-393.49"/>
</g>
<!-- 27 -->
<g id="node26" class="node">
<title>27</title>
<ellipse fill="none" stroke="black" cx="504" cy="-306" rx="27" ry="18"/>
<text text-anchor="middle" x="504" y="-300.95" font-family="Times,serif" font-size="14.00">*</text>
</g>
<!-- 29&#45;&#45;27 -->
<g id="edge25" class="edge">
<title>29&#45;&#45;27</title>
<path fill="none" stroke="black" d="M504,-359.7C504,-348.85 504,-334.92 504,-324.1"/>
</g>
<!-- 28 -->
<g id="node31" class="node">
<title>28</title>
<ellipse fill="none" stroke="black" cx="576" cy="-306" rx="27" ry="18"/>
<text text-anchor="middle" x="576" y="-300.95" font-family="Times,serif" font-size="14.00">2</text>
</g>
<!-- 29&#45;&#45;28 -->
<g id="edge30" class="edge">
<title>29&#45;&#45;28</title>
<path fill="none" stroke="black" d="M518.92,-362.5C531.28,-350.48 548.75,-333.49 561.1,-321.49"/>
</g>
<!-- 25 -->
<g id="node27" class="node">
<title>25</title>
<ellipse fill="none" stroke="black" cx="504" cy="-234" rx="27" ry="18"/>
<text text-anchor="middle" x="504" y="-228.95" font-family="Times,serif" font-size="14.00">&#45;</text>
</g>
<!-- 27&#45;&#45;25 -->
<g id="edge26" class="edge">
<title>27&#45;&#45;25</title>
<path fill="none" stroke="black" d="M504,-287.7C504,-276.85 504,-262.92 504,-252.1"/>
</g>
<!-- 26 -->
<g id="node30" class="node">
<title>26</title>
<ellipse fill="none" stroke="black" cx="576" cy="-234" rx="27" ry="18"/>
<text text-anchor="middle" x="576" y="-228.95" font-family="Times,serif" font-size="14.00">t</text>
</g>
<!-- 27&#45;&#45;26 -->
<g id="edge29" class="edge">
<title>27&#45;&#45;26</title>
<path fill="none" stroke="black" d="M518.92,-290.5C531.28,-278.48 548.75,-261.49 561.1,-249.49"/>
</g>
<!-- 23 -->
<g id="node28" class="node">
<title>23</title>
<ellipse fill="none" stroke="black" cx="504" cy="-162" rx="36" ry="18"/>
<text text-anchor="middle" x="504" y="-156.95" font-family="Times,serif" font-size="14.00">omega</text>
</g>
<!-- 25&#45;&#45;23 -->
<g id="edge27" class="edge">
<title>25&#45;&#45;23</title>
<path fill="none" stroke="black" d="M504,-215.7C504,-204.85 504,-190.92 504,-180.1"/>
</g>
<!-- 24 -->
<g id="node29" class="node">
<title>24</title>
<ellipse fill="none" stroke="black" cx="603" cy="-162" rx="45.21" ry="18"/>
<text text-anchor="middle" x="603" y="-156.95" font-family="Times,serif" font-size="14.00">omega_0</text>
</g>
<!-- 25&#45;&#45;24 -->
<g id="edge28" class="edge">
<title>25&#45;&#45;24</title>
<path fill="none" stroke="black" d="M522.16,-220.16C538.9,-208.32 563.78,-190.73 581.51,-178.19"/>
</g>
</g>
</svg>
