<?xml version="1.0" encoding="UTF-8" standalone="no"?>
<!DOCTYPE svg PUBLIC "-//W3C//DTD SVG 1.1//EN"
 "http://www.w3.org/Graphics/SVG/1.1/DTD/svg11.dtd">
<!-- Generated by graphviz version 9.0.0 (20230911.1827)
 -->
<!-- Title: G Pages: 1 -->
<svg width="242pt" height="429pt"
 viewBox="0.00 0.00 242.00 428.50" xmlns="http://www.w3.org/2000/svg" xmlns:xlink="http://www.w3.org/1999/xlink">
<g id="graph0" class="graph" transform="scale(1 1) rotate(0) translate(4 424.5)">
<title>G</title>
<polygon fill="white" stroke="none" points="-4,4 -4,-424.5 238,-424.5 238,4 -4,4"/>
<text text-anchor="middle" x="117" y="-403.2" font-family="Times,serif" font-size="14.00">1/(gamma&#45;1)*kb*v/A, depth = 5</text>
<!-- 11 -->
<g id="node1" class="node">
<title>11</title>
<ellipse fill="none" stroke="black" cx="171" cy="-378" rx="27" ry="18"/>
<text text-anchor="middle" x="171" y="-372.95" font-family="Times,serif" font-size="14.00">/</text>
</g>
<!-- 9 -->
<g id="node2" class="node">
<title>9</title>
<ellipse fill="none" stroke="black" cx="135" cy="-306" rx="27" ry="18"/>
<text text-anchor="middle" x="135" y="-300.95" font-family="Times,serif" font-size="14.00">*</text>
</g>
<!-- 11&#45;&#45;9 -->
<g id="edge1" class="edge">
<title>11&#45;&#45;9</title>
<path fill="none" stroke="black" d="M162.65,-360.76C156.83,-349.46 149.11,-334.44 143.3,-323.15"/>
</g>
<!-- 10 -->
<g id="node11" class="node">
<title>10</title>
<ellipse fill="none" stroke="black" cx="207" cy="-306" rx="27" ry="18"/>
<text text-anchor="middle" x="207" y="-300.95" font-family="Times,serif" font-size="14.00">A</text>
</g>
<!-- 11&#45;&#45;10 -->
<g id="edge10" class="edge">
<title>11&#45;&#45;10</title>
<path fill="none" stroke="black" d="M179.35,-360.76C185.17,-349.46 192.89,-334.44 198.7,-323.15"/>
</g>
<!-- 7 -->
<g id="node3" class="node">
<title>7</title>
<ellipse fill="none" stroke="black" cx="99" cy="-234" rx="27" ry="18"/>
<text text-anchor="middle" x="99" y="-228.95" font-family="Times,serif" font-size="14.00">*</text>
</g>
<!-- 9&#45;&#45;7 -->
<g id="edge2" class="edge">
<title>9&#45;&#45;7</title>
<path fill="none" stroke="black" d="M126.65,-288.76C120.83,-277.46 113.11,-262.44 107.3,-251.15"/>
</g>
<!-- 8 -->
<g id="node10" class="node">
<title>8</title>
<ellipse fill="none" stroke="black" cx="171" cy="-234" rx="27" ry="18"/>
<text text-anchor="middle" x="171" y="-228.95" font-family="Times,serif" font-size="14.00">v</text>
</g>
<!-- 9&#45;&#45;8 -->
<g id="edge9" class="edge">
<title>9&#45;&#45;8</title>
<path fill="none" stroke="black" d="M143.35,-288.76C149.17,-277.46 156.89,-262.44 162.7,-251.15"/>
</g>
<!-- 5 -->
<g id="node4" class="node">
<title>5</title>
<ellipse fill="none" stroke="black" cx="63" cy="-162" rx="27" ry="18"/>
<text text-anchor="middle" x="63" y="-156.95" font-family="Times,serif" font-size="14.00">/</text>
</g>
<!-- 7&#45;&#45;5 -->
<g id="edge3" class="edge">
<title>7&#45;&#45;5</title>
<path fill="none" stroke="black" d="M90.65,-216.76C84.83,-205.46 77.11,-190.44 71.3,-179.15"/>
</g>
<!-- 6 -->
<g id="node9" class="node">
<title>6</title>
<ellipse fill="none" stroke="black" cx="135" cy="-162" rx="27" ry="18"/>
<text text-anchor="middle" x="135" y="-156.95" font-family="Times,serif" font-size="14.00">kb</text>
</g>
<!-- 7&#45;&#45;6 -->
<g id="edge8" class="edge">
<title>7&#45;&#45;6</title>
<path fill="none" stroke="black" d="M107.35,-216.76C113.17,-205.46 120.89,-190.44 126.7,-179.15"/>
</g>
<!-- 1 -->
<g id="node5" class="node">
<title>1</title>
<ellipse fill="none" stroke="black" cx="27" cy="-90" rx="27" ry="18"/>
<text text-anchor="middle" x="27" y="-84.95" font-family="Times,serif" font-size="14.00">1</text>
</g>
<!-- 5&#45;&#45;1 -->
<g id="edge4" class="edge">
<title>5&#45;&#45;1</title>
<path fill="none" stroke="black" d="M54.65,-144.76C48.83,-133.46 41.11,-118.44 35.3,-107.15"/>
</g>
<!-- 4 -->
<g id="node6" class="node">
<title>4</title>
<ellipse fill="none" stroke="black" cx="99" cy="-90" rx="27" ry="18"/>
<text text-anchor="middle" x="99" y="-84.95" font-family="Times,serif" font-size="14.00">&#45;</text>
</g>
<!-- 5&#45;&#45;4 -->
<g id="edge5" class="edge">
<title>5&#45;&#45;4</title>
<path fill="none" stroke="black" d="M71.35,-144.76C77.17,-133.46 84.89,-118.44 90.7,-107.15"/>
</g>
<!-- 2 -->
<g id="node7" class="node">
<title>2</title>
<ellipse fill="none" stroke="black" cx="57" cy="-18" rx="39.07" ry="18"/>
<text text-anchor="middle" x="57" y="-12.95" font-family="Times,serif" font-size="14.00">gamma</text>
</g>
<!-- 4&#45;&#45;2 -->
<g id="edge6" class="edge">
<title>4&#45;&#45;2</title>
<path fill="none" stroke="black" d="M89.26,-72.76C82.57,-61.62 73.72,-46.87 66.98,-35.63"/>
</g>
<!-- 3 -->
<g id="node8" class="node">
<title>3</title>
<ellipse fill="none" stroke="black" cx="141" cy="-18" rx="27" ry="18"/>
<text text-anchor="middle" x="141" y="-12.95" font-family="Times,serif" font-size="14.00">1</text>
</g>
<!-- 4&#45;&#45;3 -->
<g id="edge7" class="edge">
<title>4&#45;&#45;3</title>
<path fill="none" stroke="black" d="M108.74,-72.76C115.53,-61.46 124.54,-46.44 131.31,-35.15"/>
</g>
</g>
</svg>
