<?xml version="1.0" encoding="UTF-8" standalone="no"?>
<!DOCTYPE svg PUBLIC "-//W3C//DTD SVG 1.1//EN"
 "http://www.w3.org/Graphics/SVG/1.1/DTD/svg11.dtd">
<!-- Generated by graphviz version 9.0.0 (20230911.1827)
 -->
<!-- Title: G Pages: 1 -->
<svg width="384pt" height="285pt"
 viewBox="0.00 0.00 384.35 284.50" xmlns="http://www.w3.org/2000/svg" xmlns:xlink="http://www.w3.org/1999/xlink">
<g id="graph0" class="graph" transform="scale(1 1) rotate(0) translate(4 280.5)">
<title>G</title>
<polygon fill="white" stroke="none" points="-4,4 -4,-280.5 380.35,-280.5 380.35,4 -4,4"/>
<text text-anchor="middle" x="188.18" y="-259.2" font-family="Times,serif" font-size="14.00">sigma_den/epsilon*(1/(1+chi)), depth = 3</text>
<!-- 9 -->
<g id="node1" class="node">
<title>9</title>
<ellipse fill="none" stroke="black" cx="199.35" cy="-234" rx="27" ry="18"/>
<text text-anchor="middle" x="199.35" y="-228.95" font-family="Times,serif" font-size="14.00">*</text>
</g>
<!-- 3 -->
<g id="node2" class="node">
<title>3</title>
<ellipse fill="none" stroke="black" cx="158.35" cy="-162" rx="27" ry="18"/>
<text text-anchor="middle" x="158.35" y="-156.95" font-family="Times,serif" font-size="14.00">/</text>
</g>
<!-- 9&#45;&#45;3 -->
<g id="edge1" class="edge">
<title>9&#45;&#45;3</title>
<path fill="none" stroke="black" d="M189.84,-216.76C183.22,-205.46 174.42,-190.44 167.81,-179.15"/>
</g>
<!-- 8 -->
<g id="node5" class="node">
<title>8</title>
<ellipse fill="none" stroke="black" cx="241.35" cy="-162" rx="27" ry="18"/>
<text text-anchor="middle" x="241.35" y="-156.95" font-family="Times,serif" font-size="14.00">/</text>
</g>
<!-- 9&#45;&#45;8 -->
<g id="edge4" class="edge">
<title>9&#45;&#45;8</title>
<path fill="none" stroke="black" d="M209.09,-216.76C215.88,-205.46 224.89,-190.44 231.66,-179.15"/>
</g>
<!-- 1 -->
<g id="node3" class="node">
<title>1</title>
<ellipse fill="none" stroke="black" cx="51.35" cy="-90" rx="51.35" ry="18"/>
<text text-anchor="middle" x="51.35" y="-84.95" font-family="Times,serif" font-size="14.00">sigma_den</text>
</g>
<!-- 3&#45;&#45;1 -->
<g id="edge2" class="edge">
<title>3&#45;&#45;1</title>
<path fill="none" stroke="black" d="M139.71,-148.81C121.63,-136.98 94.14,-118.99 74.63,-106.23"/>
</g>
<!-- 2 -->
<g id="node4" class="node">
<title>2</title>
<ellipse fill="none" stroke="black" cx="158.35" cy="-90" rx="37.53" ry="18"/>
<text text-anchor="middle" x="158.35" y="-84.95" font-family="Times,serif" font-size="14.00">epsilon</text>
</g>
<!-- 3&#45;&#45;2 -->
<g id="edge3" class="edge">
<title>3&#45;&#45;2</title>
<path fill="none" stroke="black" d="M158.35,-143.7C158.35,-132.85 158.35,-118.92 158.35,-108.1"/>
</g>
<!-- 4 -->
<g id="node6" class="node">
<title>4</title>
<ellipse fill="none" stroke="black" cx="241.35" cy="-90" rx="27" ry="18"/>
<text text-anchor="middle" x="241.35" y="-84.95" font-family="Times,serif" font-size="14.00">1</text>
</g>
<!-- 8&#45;&#45;4 -->
<g id="edge5" class="edge">
<title>8&#45;&#45;4</title>
<path fill="none" stroke="black" d="M241.35,-143.7C241.35,-132.85 241.35,-118.92 241.35,-108.1"/>
</g>
<!-- 7 -->
<g id="node7" class="node">
<title>7</title>
<ellipse fill="none" stroke="black" cx="313.35" cy="-90" rx="27" ry="18"/>
<text text-anchor="middle" x="313.35" y="-84.95" font-family="Times,serif" font-size="14.00">+</text>
</g>
<!-- 8&#45;&#45;7 -->
<g id="edge6" class="edge">
<title>8&#45;&#45;7</title>
<path fill="none" stroke="black" d="M256.27,-146.5C268.63,-134.48 286.1,-117.49 298.45,-105.49"/>
</g>
<!-- 5 -->
<g id="node8" class="node">
<title>5</title>
<ellipse fill="none" stroke="black" cx="277.35" cy="-18" rx="27" ry="18"/>
<text text-anchor="middle" x="277.35" y="-12.95" font-family="Times,serif" font-size="14.00">1</text>
</g>
<!-- 7&#45;&#45;5 -->
<g id="edge7" class="edge">
<title>7&#45;&#45;5</title>
<path fill="none" stroke="black" d="M305,-72.76C299.19,-61.46 291.46,-46.44 285.66,-35.15"/>
</g>
<!-- 6 -->
<g id="node9" class="node">
<title>6</title>
<ellipse fill="none" stroke="black" cx="349.35" cy="-18" rx="27" ry="18"/>
<text text-anchor="middle" x="349.35" y="-12.95" font-family="Times,serif" font-size="14.00">chi</text>
</g>
<!-- 7&#45;&#45;6 -->
<g id="edge8" class="edge">
<title>7&#45;&#45;6</title>
<path fill="none" stroke="black" d="M321.7,-72.76C327.52,-61.46 335.24,-46.44 341.05,-35.15"/>
</g>
</g>
</svg>
