<?xml version="1.0" encoding="UTF-8" standalone="no"?>
<!DOCTYPE svg PUBLIC "-//W3C//DTD SVG 1.1//EN"
 "http://www.w3.org/Graphics/SVG/1.1/DTD/svg11.dtd">
<!-- Generated by graphviz version 9.0.0 (20230911.1827)
 -->
<!-- Title: G Pages: 1 -->
<svg width="368pt" height="501pt"
 viewBox="0.00 0.00 368.27 500.50" xmlns="http://www.w3.org/2000/svg" xmlns:xlink="http://www.w3.org/1999/xlink">
<g id="graph0" class="graph" transform="scale(1 1) rotate(0) translate(4 496.5)">
<title>G</title>
<polygon fill="white" stroke="none" points="-4,4 -4,-496.5 364.27,-496.5 364.27,4 -4,4"/>
<text text-anchor="middle" x="180.13" y="-475.2" font-family="Times,serif" font-size="14.00">exp(~((theta/sigma)**2)/2)/(sqrt(2*pi)*sigma), depth = 6</text>
<!-- 16 -->
<g id="node1" class="node">
<title>16</title>
<ellipse fill="none" stroke="black" cx="212.83" cy="-450" rx="27" ry="18"/>
<text text-anchor="middle" x="212.83" y="-444.95" font-family="Times,serif" font-size="14.00">/</text>
</g>
<!-- 9 -->
<g id="node2" class="node">
<title>9</title>
<ellipse fill="none" stroke="black" cx="176.83" cy="-378" rx="27" ry="18"/>
<text text-anchor="middle" x="176.83" y="-372.95" font-family="Times,serif" font-size="14.00">exp</text>
</g>
<!-- 16&#45;&#45;9 -->
<g id="edge1" class="edge">
<title>16&#45;&#45;9</title>
<path fill="none" stroke="black" d="M204.48,-432.76C198.67,-421.46 190.94,-406.44 185.14,-395.15"/>
</g>
<!-- 15 -->
<g id="node11" class="node">
<title>15</title>
<ellipse fill="none" stroke="black" cx="248.83" cy="-378" rx="27" ry="18"/>
<text text-anchor="middle" x="248.83" y="-372.95" font-family="Times,serif" font-size="14.00">*</text>
</g>
<!-- 16&#45;&#45;15 -->
<g id="edge10" class="edge">
<title>16&#45;&#45;15</title>
<path fill="none" stroke="black" d="M221.18,-432.76C227,-421.46 234.72,-406.44 240.53,-395.15"/>
</g>
<!-- 8 -->
<g id="node3" class="node">
<title>8</title>
<ellipse fill="none" stroke="black" cx="176.83" cy="-306" rx="27" ry="18"/>
<text text-anchor="middle" x="176.83" y="-300.95" font-family="Times,serif" font-size="14.00">/</text>
</g>
<!-- 9&#45;&#45;8 -->
<g id="edge2" class="edge">
<title>9&#45;&#45;8</title>
<path fill="none" stroke="black" d="M176.83,-359.7C176.83,-348.85 176.83,-334.92 176.83,-324.1"/>
</g>
<!-- 6 -->
<g id="node4" class="node">
<title>6</title>
<ellipse fill="none" stroke="black" cx="104.83" cy="-234" rx="27" ry="18"/>
<text text-anchor="middle" x="104.83" y="-228.95" font-family="Times,serif" font-size="14.00">~</text>
</g>
<!-- 8&#45;&#45;6 -->
<g id="edge3" class="edge">
<title>8&#45;&#45;6</title>
<path fill="none" stroke="black" d="M161.91,-290.5C149.56,-278.48 132.08,-261.49 119.73,-249.49"/>
</g>
<!-- 7 -->
<g id="node10" class="node">
<title>7</title>
<ellipse fill="none" stroke="black" cx="176.83" cy="-234" rx="27" ry="18"/>
<text text-anchor="middle" x="176.83" y="-228.95" font-family="Times,serif" font-size="14.00">2</text>
</g>
<!-- 8&#45;&#45;7 -->
<g id="edge9" class="edge">
<title>8&#45;&#45;7</title>
<path fill="none" stroke="black" d="M176.83,-287.7C176.83,-276.85 176.83,-262.92 176.83,-252.1"/>
</g>
<!-- 5 -->
<g id="node5" class="node">
<title>5</title>
<ellipse fill="none" stroke="black" cx="104.83" cy="-162" rx="27" ry="18"/>
<text text-anchor="middle" x="104.83" y="-156.95" font-family="Times,serif" font-size="14.00">^</text>
</g>
<!-- 6&#45;&#45;5 -->
<g id="edge4" class="edge">
<title>6&#45;&#45;5</title>
<path fill="none" stroke="black" d="M104.83,-215.7C104.83,-204.85 104.83,-190.92 104.83,-180.1"/>
</g>
<!-- 3 -->
<g id="node6" class="node">
<title>3</title>
<ellipse fill="none" stroke="black" cx="68.83" cy="-90" rx="27" ry="18"/>
<text text-anchor="middle" x="68.83" y="-84.95" font-family="Times,serif" font-size="14.00">/</text>
</g>
<!-- 5&#45;&#45;3 -->
<g id="edge5" class="edge">
<title>5&#45;&#45;3</title>
<path fill="none" stroke="black" d="M96.48,-144.76C90.67,-133.46 82.94,-118.44 77.14,-107.15"/>
</g>
<!-- 4 -->
<g id="node9" class="node">
<title>4</title>
<ellipse fill="none" stroke="black" cx="140.83" cy="-90" rx="27" ry="18"/>
<text text-anchor="middle" x="140.83" y="-84.95" font-family="Times,serif" font-size="14.00">2</text>
</g>
<!-- 5&#45;&#45;4 -->
<g id="edge8" class="edge">
<title>5&#45;&#45;4</title>
<path fill="none" stroke="black" d="M113.18,-144.76C119,-133.46 126.72,-118.44 132.53,-107.15"/>
</g>
<!-- 1 -->
<g id="node7" class="node">
<title>1</title>
<ellipse fill="none" stroke="black" cx="28.83" cy="-18" rx="28.83" ry="18"/>
<text text-anchor="middle" x="28.83" y="-12.95" font-family="Times,serif" font-size="14.00">theta</text>
</g>
<!-- 3&#45;&#45;1 -->
<g id="edge6" class="edge">
<title>3&#45;&#45;1</title>
<path fill="none" stroke="black" d="M59.55,-72.76C53.09,-61.46 44.51,-46.44 38.06,-35.15"/>
</g>
<!-- 2 -->
<g id="node8" class="node">
<title>2</title>
<ellipse fill="none" stroke="black" cx="108.83" cy="-18" rx="33.44" ry="18"/>
<text text-anchor="middle" x="108.83" y="-12.95" font-family="Times,serif" font-size="14.00">sigma</text>
</g>
<!-- 3&#45;&#45;2 -->
<g id="edge7" class="edge">
<title>3&#45;&#45;2</title>
<path fill="none" stroke="black" d="M78.11,-72.76C84.48,-61.62 92.91,-46.87 99.33,-35.63"/>
</g>
<!-- 13 -->
<g id="node12" class="node">
<title>13</title>
<ellipse fill="none" stroke="black" cx="248.83" cy="-306" rx="27" ry="18"/>
<text text-anchor="middle" x="248.83" y="-300.95" font-family="Times,serif" font-size="14.00">sqrt</text>
</g>
<!-- 15&#45;&#45;13 -->
<g id="edge11" class="edge">
<title>15&#45;&#45;13</title>
<path fill="none" stroke="black" d="M248.83,-359.7C248.83,-348.85 248.83,-334.92 248.83,-324.1"/>
</g>
<!-- 14 -->
<g id="node16" class="node">
<title>14</title>
<ellipse fill="none" stroke="black" cx="326.83" cy="-306" rx="33.44" ry="18"/>
<text text-anchor="middle" x="326.83" y="-300.95" font-family="Times,serif" font-size="14.00">sigma</text>
</g>
<!-- 15&#45;&#45;14 -->
<g id="edge15" class="edge">
<title>15&#45;&#45;14</title>
<path fill="none" stroke="black" d="M264.24,-363.17C277.47,-351.3 296.5,-334.22 310.1,-322.01"/>
</g>
<!-- 12 -->
<g id="node13" class="node">
<title>12</title>
<ellipse fill="none" stroke="black" cx="248.83" cy="-234" rx="27" ry="18"/>
<text text-anchor="middle" x="248.83" y="-228.95" font-family="Times,serif" font-size="14.00">*</text>
</g>
<!-- 13&#45;&#45;12 -->
<g id="edge12" class="edge">
<title>13&#45;&#45;12</title>
<path fill="none" stroke="black" d="M248.83,-287.7C248.83,-276.85 248.83,-262.92 248.83,-252.1"/>
</g>
<!-- 10 -->
<g id="node14" class="node">
<title>10</title>
<ellipse fill="none" stroke="black" cx="212.83" cy="-162" rx="27" ry="18"/>
<text text-anchor="middle" x="212.83" y="-156.95" font-family="Times,serif" font-size="14.00">2</text>
</g>
<!-- 12&#45;&#45;10 -->
<g id="edge13" class="edge">
<title>12&#45;&#45;10</title>
<path fill="none" stroke="black" d="M240.48,-216.76C234.67,-205.46 226.94,-190.44 221.14,-179.15"/>
</g>
<!-- 11 -->
<g id="node15" class="node">
<title>11</title>
<ellipse fill="none" stroke="black" cx="284.83" cy="-162" rx="27" ry="18"/>
<text text-anchor="middle" x="284.83" y="-156.95" font-family="Times,serif" font-size="14.00">pi</text>
</g>
<!-- 12&#45;&#45;11 -->
<g id="edge14" class="edge">
<title>12&#45;&#45;11</title>
<path fill="none" stroke="black" d="M257.18,-216.76C263,-205.46 270.72,-190.44 276.53,-179.15"/>
</g>
</g>
</svg>
