<?xml version="1.0" encoding="UTF-8" standalone="no"?>
<!DOCTYPE svg PUBLIC "-//W3C//DTD SVG 1.1//EN"
 "http://www.w3.org/Graphics/SVG/1.1/DTD/svg11.dtd">
<!-- Generated by graphviz version 9.0.0 (20230911.1827)
 -->
<!-- Title: G Pages: 1 -->
<svg width="378pt" height="429pt"
 viewBox="0.00 0.00 378.12 428.50" xmlns="http://www.w3.org/2000/svg" xmlns:xlink="http://www.w3.org/1999/xlink">
<g id="graph0" class="graph" transform="scale(1 1) rotate(0) translate(4 424.5)">
<title>G</title>
<polygon fill="white" stroke="none" points="-4,4 -4,-424.5 374.12,-424.5 374.12,4 -4,4"/>
<text text-anchor="middle" x="185.06" y="-403.2" font-family="Times,serif" font-size="14.00">rho_c_0*v/sqrt(1&#45;v**2/c**2), depth = 5</text>
<!-- 14 -->
<g id="node1" class="node">
<title>14</title>
<ellipse fill="none" stroke="black" cx="163.12" cy="-378" rx="27" ry="18"/>
<text text-anchor="middle" x="163.12" y="-372.95" font-family="Times,serif" font-size="14.00">/</text>
</g>
<!-- 3 -->
<g id="node2" class="node">
<title>3</title>
<ellipse fill="none" stroke="black" cx="127.12" cy="-306" rx="27" ry="18"/>
<text text-anchor="middle" x="127.12" y="-300.95" font-family="Times,serif" font-size="14.00">*</text>
</g>
<!-- 14&#45;&#45;3 -->
<g id="edge1" class="edge">
<title>14&#45;&#45;3</title>
<path fill="none" stroke="black" d="M154.77,-360.76C148.95,-349.46 141.23,-334.44 135.42,-323.15"/>
</g>
<!-- 13 -->
<g id="node5" class="node">
<title>13</title>
<ellipse fill="none" stroke="black" cx="199.12" cy="-306" rx="27" ry="18"/>
<text text-anchor="middle" x="199.12" y="-300.95" font-family="Times,serif" font-size="14.00">sqrt</text>
</g>
<!-- 14&#45;&#45;13 -->
<g id="edge4" class="edge">
<title>14&#45;&#45;13</title>
<path fill="none" stroke="black" d="M171.46,-360.76C177.28,-349.46 185,-334.44 190.81,-323.15"/>
</g>
<!-- 1 -->
<g id="node3" class="node">
<title>1</title>
<ellipse fill="none" stroke="black" cx="41.12" cy="-234" rx="41.12" ry="18"/>
<text text-anchor="middle" x="41.12" y="-228.95" font-family="Times,serif" font-size="14.00">rho_c_0</text>
</g>
<!-- 3&#45;&#45;1 -->
<g id="edge2" class="edge">
<title>3&#45;&#45;1</title>
<path fill="none" stroke="black" d="M110.53,-291.5C96.09,-279.74 75.14,-262.7 60.04,-250.41"/>
</g>
<!-- 2 -->
<g id="node4" class="node">
<title>2</title>
<ellipse fill="none" stroke="black" cx="127.12" cy="-234" rx="27" ry="18"/>
<text text-anchor="middle" x="127.12" y="-228.95" font-family="Times,serif" font-size="14.00">v</text>
</g>
<!-- 3&#45;&#45;2 -->
<g id="edge3" class="edge">
<title>3&#45;&#45;2</title>
<path fill="none" stroke="black" d="M127.12,-287.7C127.12,-276.85 127.12,-262.92 127.12,-252.1"/>
</g>
<!-- 12 -->
<g id="node6" class="node">
<title>12</title>
<ellipse fill="none" stroke="black" cx="199.12" cy="-234" rx="27" ry="18"/>
<text text-anchor="middle" x="199.12" y="-228.95" font-family="Times,serif" font-size="14.00">&#45;</text>
</g>
<!-- 13&#45;&#45;12 -->
<g id="edge5" class="edge">
<title>13&#45;&#45;12</title>
<path fill="none" stroke="black" d="M199.12,-287.7C199.12,-276.85 199.12,-262.92 199.12,-252.1"/>
</g>
<!-- 4 -->
<g id="node7" class="node">
<title>4</title>
<ellipse fill="none" stroke="black" cx="163.12" cy="-162" rx="27" ry="18"/>
<text text-anchor="middle" x="163.12" y="-156.95" font-family="Times,serif" font-size="14.00">1</text>
</g>
<!-- 12&#45;&#45;4 -->
<g id="edge6" class="edge">
<title>12&#45;&#45;4</title>
<path fill="none" stroke="black" d="M190.77,-216.76C184.95,-205.46 177.23,-190.44 171.42,-179.15"/>
</g>
<!-- 11 -->
<g id="node8" class="node">
<title>11</title>
<ellipse fill="none" stroke="black" cx="235.12" cy="-162" rx="27" ry="18"/>
<text text-anchor="middle" x="235.12" y="-156.95" font-family="Times,serif" font-size="14.00">/</text>
</g>
<!-- 12&#45;&#45;11 -->
<g id="edge7" class="edge">
<title>12&#45;&#45;11</title>
<path fill="none" stroke="black" d="M207.46,-216.76C213.28,-205.46 221,-190.44 226.81,-179.15"/>
</g>
<!-- 7 -->
<g id="node9" class="node">
<title>7</title>
<ellipse fill="none" stroke="black" cx="199.12" cy="-90" rx="27" ry="18"/>
<text text-anchor="middle" x="199.12" y="-84.95" font-family="Times,serif" font-size="14.00">^</text>
</g>
<!-- 11&#45;&#45;7 -->
<g id="edge8" class="edge">
<title>11&#45;&#45;7</title>
<path fill="none" stroke="black" d="M226.77,-144.76C220.95,-133.46 213.23,-118.44 207.42,-107.15"/>
</g>
<!-- 10 -->
<g id="node12" class="node">
<title>10</title>
<ellipse fill="none" stroke="black" cx="271.12" cy="-90" rx="27" ry="18"/>
<text text-anchor="middle" x="271.12" y="-84.95" font-family="Times,serif" font-size="14.00">^</text>
</g>
<!-- 11&#45;&#45;10 -->
<g id="edge11" class="edge">
<title>11&#45;&#45;10</title>
<path fill="none" stroke="black" d="M243.46,-144.76C249.28,-133.46 257,-118.44 262.81,-107.15"/>
</g>
<!-- 5 -->
<g id="node10" class="node">
<title>5</title>
<ellipse fill="none" stroke="black" cx="127.12" cy="-18" rx="27" ry="18"/>
<text text-anchor="middle" x="127.12" y="-12.95" font-family="Times,serif" font-size="14.00">v</text>
</g>
<!-- 7&#45;&#45;5 -->
<g id="edge9" class="edge">
<title>7&#45;&#45;5</title>
<path fill="none" stroke="black" d="M184.2,-74.5C171.84,-62.48 154.37,-45.49 142.01,-33.49"/>
</g>
<!-- 6 -->
<g id="node11" class="node">
<title>6</title>
<ellipse fill="none" stroke="black" cx="199.12" cy="-18" rx="27" ry="18"/>
<text text-anchor="middle" x="199.12" y="-12.95" font-family="Times,serif" font-size="14.00">2</text>
</g>
<!-- 7&#45;&#45;6 -->
<g id="edge10" class="edge">
<title>7&#45;&#45;6</title>
<path fill="none" stroke="black" d="M199.12,-71.7C199.12,-60.85 199.12,-46.92 199.12,-36.1"/>
</g>
<!-- 8 -->
<g id="node13" class="node">
<title>8</title>
<ellipse fill="none" stroke="black" cx="271.12" cy="-18" rx="27" ry="18"/>
<text text-anchor="middle" x="271.12" y="-12.95" font-family="Times,serif" font-size="14.00">c</text>
</g>
<!-- 10&#45;&#45;8 -->
<g id="edge12" class="edge">
<title>10&#45;&#45;8</title>
<path fill="none" stroke="black" d="M271.12,-71.7C271.12,-60.85 271.12,-46.92 271.12,-36.1"/>
</g>
<!-- 9 -->
<g id="node14" class="node">
<title>9</title>
<ellipse fill="none" stroke="black" cx="343.12" cy="-18" rx="27" ry="18"/>
<text text-anchor="middle" x="343.12" y="-12.95" font-family="Times,serif" font-size="14.00">2</text>
</g>
<!-- 10&#45;&#45;9 -->
<g id="edge13" class="edge">
<title>10&#45;&#45;9</title>
<path fill="none" stroke="black" d="M286.03,-74.5C298.39,-62.48 315.86,-45.49 328.22,-33.49"/>
</g>
</g>
</svg>
