<?xml version="1.0" encoding="UTF-8" standalone="no"?>
<!DOCTYPE svg PUBLIC "-//W3C//DTD SVG 1.1//EN"
 "http://www.w3.org/Graphics/SVG/1.1/DTD/svg11.dtd">
<!-- Generated by graphviz version 9.0.0 (20230911.1827)
 -->
<!-- Title: G Pages: 1 -->
<svg width="178pt" height="285pt"
 viewBox="0.00 0.00 177.88 284.50" xmlns="http://www.w3.org/2000/svg" xmlns:xlink="http://www.w3.org/1999/xlink">
<g id="graph0" class="graph" transform="scale(1 1) rotate(0) translate(4 280.5)">
<title>G</title>
<polygon fill="white" stroke="none" points="-4,4 -4,-280.5 173.88,-280.5 173.88,4 -4,4"/>
<text text-anchor="middle" x="84.94" y="-259.2" font-family="Times,serif" font-size="14.00">mom*(1+chi)*B, depth = 3</text>
<!-- 7 -->
<g id="node1" class="node">
<title>7</title>
<ellipse fill="none" stroke="black" cx="104.88" cy="-234" rx="27" ry="18"/>
<text text-anchor="middle" x="104.88" y="-228.95" font-family="Times,serif" font-size="14.00">*</text>
</g>
<!-- 5 -->
<g id="node2" class="node">
<title>5</title>
<ellipse fill="none" stroke="black" cx="68.88" cy="-162" rx="27" ry="18"/>
<text text-anchor="middle" x="68.88" y="-156.95" font-family="Times,serif" font-size="14.00">*</text>
</g>
<!-- 7&#45;&#45;5 -->
<g id="edge1" class="edge">
<title>7&#45;&#45;5</title>
<path fill="none" stroke="black" d="M96.53,-216.76C90.71,-205.46 82.99,-190.44 77.18,-179.15"/>
</g>
<!-- 6 -->
<g id="node7" class="node">
<title>6</title>
<ellipse fill="none" stroke="black" cx="140.88" cy="-162" rx="27" ry="18"/>
<text text-anchor="middle" x="140.88" y="-156.95" font-family="Times,serif" font-size="14.00">B</text>
</g>
<!-- 7&#45;&#45;6 -->
<g id="edge6" class="edge">
<title>7&#45;&#45;6</title>
<path fill="none" stroke="black" d="M113.23,-216.76C119.04,-205.46 126.77,-190.44 132.57,-179.15"/>
</g>
<!-- 1 -->
<g id="node3" class="node">
<title>1</title>
<ellipse fill="none" stroke="black" cx="30.88" cy="-90" rx="30.88" ry="18"/>
<text text-anchor="middle" x="30.88" y="-84.95" font-family="Times,serif" font-size="14.00">mom</text>
</g>
<!-- 5&#45;&#45;1 -->
<g id="edge2" class="edge">
<title>5&#45;&#45;1</title>
<path fill="none" stroke="black" d="M60.07,-144.76C54.01,-133.62 46.01,-118.87 39.91,-107.63"/>
</g>
<!-- 4 -->
<g id="node4" class="node">
<title>4</title>
<ellipse fill="none" stroke="black" cx="106.88" cy="-90" rx="27" ry="18"/>
<text text-anchor="middle" x="106.88" y="-84.95" font-family="Times,serif" font-size="14.00">+</text>
</g>
<!-- 5&#45;&#45;4 -->
<g id="edge3" class="edge">
<title>5&#45;&#45;4</title>
<path fill="none" stroke="black" d="M77.69,-144.76C83.83,-133.46 91.98,-118.44 98.11,-107.15"/>
</g>
<!-- 2 -->
<g id="node5" class="node">
<title>2</title>
<ellipse fill="none" stroke="black" cx="70.88" cy="-18" rx="27" ry="18"/>
<text text-anchor="middle" x="70.88" y="-12.95" font-family="Times,serif" font-size="14.00">1</text>
</g>
<!-- 4&#45;&#45;2 -->
<g id="edge4" class="edge">
<title>4&#45;&#45;2</title>
<path fill="none" stroke="black" d="M98.53,-72.76C92.71,-61.46 84.99,-46.44 79.18,-35.15"/>
</g>
<!-- 3 -->
<g id="node6" class="node">
<title>3</title>
<ellipse fill="none" stroke="black" cx="142.88" cy="-18" rx="27" ry="18"/>
<text text-anchor="middle" x="142.88" y="-12.95" font-family="Times,serif" font-size="14.00">chi</text>
</g>
<!-- 4&#45;&#45;3 -->
<g id="edge5" class="edge">
<title>4&#45;&#45;3</title>
<path fill="none" stroke="black" d="M115.23,-72.76C121.04,-61.46 128.77,-46.44 134.57,-35.15"/>
</g>
</g>
</svg>
