<?xml version="1.0" encoding="UTF-8" standalone="no"?>
<!DOCTYPE svg PUBLIC "-//W3C//DTD SVG 1.1//EN"
 "http://www.w3.org/Graphics/SVG/1.1/DTD/svg11.dtd">
<!-- Generated by graphviz version 9.0.0 (20230911.1827)
 -->
<!-- Title: G Pages: 1 -->
<svg width="568pt" height="429pt"
 viewBox="0.00 0.00 568.44 428.50" xmlns="http://www.w3.org/2000/svg" xmlns:xlink="http://www.w3.org/1999/xlink">
<g id="graph0" class="graph" transform="scale(1 1) rotate(0) translate(4 424.5)">
<title>G</title>
<polygon fill="white" stroke="none" points="-4,4 -4,-424.5 564.44,-424.5 564.44,4 -4,4"/>
<text text-anchor="middle" x="280.22" y="-403.2" font-family="Times,serif" font-size="14.00">sqrt(x1**2+x2**2&#45;2*x1*x2*cos(theta1&#45;theta2)), depth = 5</text>
<!-- 19 -->
<g id="node1" class="node">
<title>19</title>
<ellipse fill="none" stroke="black" cx="279" cy="-378" rx="27" ry="18"/>
<text text-anchor="middle" x="279" y="-372.95" font-family="Times,serif" font-size="14.00">sqrt</text>
</g>
<!-- 18 -->
<g id="node2" class="node">
<title>18</title>
<ellipse fill="none" stroke="black" cx="279" cy="-306" rx="27" ry="18"/>
<text text-anchor="middle" x="279" y="-300.95" font-family="Times,serif" font-size="14.00">&#45;</text>
</g>
<!-- 19&#45;&#45;18 -->
<g id="edge1" class="edge">
<title>19&#45;&#45;18</title>
<path fill="none" stroke="black" d="M279,-359.7C279,-348.85 279,-334.92 279,-324.1"/>
</g>
<!-- 7 -->
<g id="node3" class="node">
<title>7</title>
<ellipse fill="none" stroke="black" cx="207" cy="-234" rx="27" ry="18"/>
<text text-anchor="middle" x="207" y="-228.95" font-family="Times,serif" font-size="14.00">+</text>
</g>
<!-- 18&#45;&#45;7 -->
<g id="edge2" class="edge">
<title>18&#45;&#45;7</title>
<path fill="none" stroke="black" d="M264.08,-290.5C251.72,-278.48 234.25,-261.49 221.9,-249.49"/>
</g>
<!-- 17 -->
<g id="node10" class="node">
<title>17</title>
<ellipse fill="none" stroke="black" cx="333" cy="-234" rx="27" ry="18"/>
<text text-anchor="middle" x="333" y="-228.95" font-family="Times,serif" font-size="14.00">*</text>
</g>
<!-- 18&#45;&#45;17 -->
<g id="edge9" class="edge">
<title>18&#45;&#45;17</title>
<path fill="none" stroke="black" d="M290.98,-289.46C299.93,-277.86 312.11,-262.08 321.05,-250.49"/>
</g>
<!-- 3 -->
<g id="node4" class="node">
<title>3</title>
<ellipse fill="none" stroke="black" cx="99" cy="-162" rx="27" ry="18"/>
<text text-anchor="middle" x="99" y="-156.95" font-family="Times,serif" font-size="14.00">^</text>
</g>
<!-- 7&#45;&#45;3 -->
<g id="edge3" class="edge">
<title>7&#45;&#45;3</title>
<path fill="none" stroke="black" d="M188.19,-220.81C168.49,-208.04 137.72,-188.09 117.96,-175.29"/>
</g>
<!-- 6 -->
<g id="node7" class="node">
<title>6</title>
<ellipse fill="none" stroke="black" cx="207" cy="-162" rx="27" ry="18"/>
<text text-anchor="middle" x="207" y="-156.95" font-family="Times,serif" font-size="14.00">^</text>
</g>
<!-- 7&#45;&#45;6 -->
<g id="edge6" class="edge">
<title>7&#45;&#45;6</title>
<path fill="none" stroke="black" d="M207,-215.7C207,-204.85 207,-190.92 207,-180.1"/>
</g>
<!-- 1 -->
<g id="node5" class="node">
<title>1</title>
<ellipse fill="none" stroke="black" cx="27" cy="-90" rx="27" ry="18"/>
<text text-anchor="middle" x="27" y="-84.95" font-family="Times,serif" font-size="14.00">x1</text>
</g>
<!-- 3&#45;&#45;1 -->
<g id="edge4" class="edge">
<title>3&#45;&#45;1</title>
<path fill="none" stroke="black" d="M84.08,-146.5C71.72,-134.48 54.25,-117.49 41.9,-105.49"/>
</g>
<!-- 2 -->
<g id="node6" class="node">
<title>2</title>
<ellipse fill="none" stroke="black" cx="99" cy="-90" rx="27" ry="18"/>
<text text-anchor="middle" x="99" y="-84.95" font-family="Times,serif" font-size="14.00">2</text>
</g>
<!-- 3&#45;&#45;2 -->
<g id="edge5" class="edge">
<title>3&#45;&#45;2</title>
<path fill="none" stroke="black" d="M99,-143.7C99,-132.85 99,-118.92 99,-108.1"/>
</g>
<!-- 4 -->
<g id="node8" class="node">
<title>4</title>
<ellipse fill="none" stroke="black" cx="171" cy="-90" rx="27" ry="18"/>
<text text-anchor="middle" x="171" y="-84.95" font-family="Times,serif" font-size="14.00">x2</text>
</g>
<!-- 6&#45;&#45;4 -->
<g id="edge7" class="edge">
<title>6&#45;&#45;4</title>
<path fill="none" stroke="black" d="M198.65,-144.76C192.83,-133.46 185.11,-118.44 179.3,-107.15"/>
</g>
<!-- 5 -->
<g id="node9" class="node">
<title>5</title>
<ellipse fill="none" stroke="black" cx="243" cy="-90" rx="27" ry="18"/>
<text text-anchor="middle" x="243" y="-84.95" font-family="Times,serif" font-size="14.00">2</text>
</g>
<!-- 6&#45;&#45;5 -->
<g id="edge8" class="edge">
<title>6&#45;&#45;5</title>
<path fill="none" stroke="black" d="M215.35,-144.76C221.17,-133.46 228.89,-118.44 234.7,-107.15"/>
</g>
<!-- 12 -->
<g id="node11" class="node">
<title>12</title>
<ellipse fill="none" stroke="black" cx="333" cy="-162" rx="27" ry="18"/>
<text text-anchor="middle" x="333" y="-156.95" font-family="Times,serif" font-size="14.00">*</text>
</g>
<!-- 17&#45;&#45;12 -->
<g id="edge10" class="edge">
<title>17&#45;&#45;12</title>
<path fill="none" stroke="black" d="M333,-215.7C333,-204.85 333,-190.92 333,-180.1"/>
</g>
<!-- 16 -->
<g id="node16" class="node">
<title>16</title>
<ellipse fill="none" stroke="black" cx="441" cy="-162" rx="27" ry="18"/>
<text text-anchor="middle" x="441" y="-156.95" font-family="Times,serif" font-size="14.00">cos</text>
</g>
<!-- 17&#45;&#45;16 -->
<g id="edge15" class="edge">
<title>17&#45;&#45;16</title>
<path fill="none" stroke="black" d="M351.81,-220.81C371.51,-208.04 402.28,-188.09 422.04,-175.29"/>
</g>
<!-- 10 -->
<g id="node12" class="node">
<title>10</title>
<ellipse fill="none" stroke="black" cx="315" cy="-90" rx="27" ry="18"/>
<text text-anchor="middle" x="315" y="-84.95" font-family="Times,serif" font-size="14.00">*</text>
</g>
<!-- 12&#45;&#45;10 -->
<g id="edge11" class="edge">
<title>12&#45;&#45;10</title>
<path fill="none" stroke="black" d="M328.64,-144.05C325.81,-133.05 322.14,-118.76 319.32,-107.79"/>
</g>
<!-- 11 -->
<g id="node15" class="node">
<title>11</title>
<ellipse fill="none" stroke="black" cx="387" cy="-90" rx="27" ry="18"/>
<text text-anchor="middle" x="387" y="-84.95" font-family="Times,serif" font-size="14.00">x2</text>
</g>
<!-- 12&#45;&#45;11 -->
<g id="edge14" class="edge">
<title>12&#45;&#45;11</title>
<path fill="none" stroke="black" d="M344.98,-145.46C353.93,-133.86 366.11,-118.08 375.05,-106.49"/>
</g>
<!-- 8 -->
<g id="node13" class="node">
<title>8</title>
<ellipse fill="none" stroke="black" cx="259" cy="-18" rx="27" ry="18"/>
<text text-anchor="middle" x="259" y="-12.95" font-family="Times,serif" font-size="14.00">2</text>
</g>
<!-- 10&#45;&#45;8 -->
<g id="edge12" class="edge">
<title>10&#45;&#45;8</title>
<path fill="none" stroke="black" d="M302.85,-73.81C293.46,-62.07 280.51,-45.89 271.13,-34.16"/>
</g>
<!-- 9 -->
<g id="node14" class="node">
<title>9</title>
<ellipse fill="none" stroke="black" cx="331" cy="-18" rx="27" ry="18"/>
<text text-anchor="middle" x="331" y="-12.95" font-family="Times,serif" font-size="14.00">x1</text>
</g>
<!-- 10&#45;&#45;9 -->
<g id="edge13" class="edge">
<title>10&#45;&#45;9</title>
<path fill="none" stroke="black" d="M318.96,-71.7C321.44,-60.85 324.62,-46.92 327.09,-36.1"/>
</g>
<!-- 15 -->
<g id="node17" class="node">
<title>15</title>
<ellipse fill="none" stroke="black" cx="459" cy="-90" rx="27" ry="18"/>
<text text-anchor="middle" x="459" y="-84.95" font-family="Times,serif" font-size="14.00">&#45;</text>
</g>
<!-- 16&#45;&#45;15 -->
<g id="edge16" class="edge">
<title>16&#45;&#45;15</title>
<path fill="none" stroke="black" d="M445.36,-144.05C448.19,-133.05 451.86,-118.76 454.68,-107.79"/>
</g>
<!-- 13 -->
<g id="node18" class="node">
<title>13</title>
<ellipse fill="none" stroke="black" cx="442" cy="-18" rx="33.44" ry="18"/>
<text text-anchor="middle" x="442" y="-12.95" font-family="Times,serif" font-size="14.00">theta1</text>
</g>
<!-- 15&#45;&#45;13 -->
<g id="edge17" class="edge">
<title>15&#45;&#45;13</title>
<path fill="none" stroke="black" d="M454.88,-72.05C452.25,-61.21 448.84,-47.18 446.2,-36.28"/>
</g>
<!-- 14 -->
<g id="node19" class="node">
<title>14</title>
<ellipse fill="none" stroke="black" cx="527" cy="-18" rx="33.44" ry="18"/>
<text text-anchor="middle" x="527" y="-12.95" font-family="Times,serif" font-size="14.00">theta2</text>
</g>
<!-- 15&#45;&#45;14 -->
<g id="edge18" class="edge">
<title>15&#45;&#45;14</title>
<path fill="none" stroke="black" d="M473.09,-74.5C484.45,-62.8 500.39,-46.4 511.99,-34.46"/>
</g>
</g>
</svg>
