<?xml version="1.0" encoding="UTF-8" standalone="no"?>
<!DOCTYPE svg PUBLIC "-//W3C//DTD SVG 1.1//EN"
 "http://www.w3.org/Graphics/SVG/1.1/DTD/svg11.dtd">
<!-- Generated by graphviz version 9.0.0 (20230911.1827)
 -->
<!-- Title: G Pages: 1 -->
<svg width="574pt" height="501pt"
 viewBox="0.00 0.00 573.88 500.50" xmlns="http://www.w3.org/2000/svg" xmlns:xlink="http://www.w3.org/1999/xlink">
<g id="graph0" class="graph" transform="scale(1 1) rotate(0) translate(4 496.5)">
<title>G</title>
<polygon fill="white" stroke="none" points="-4,4 -4,-496.5 569.88,-496.5 569.88,4 -4,4"/>
<text text-anchor="middle" x="282.94" y="-475.2" font-family="Times,serif" font-size="14.00">n_0/(exp(mom*B/(kb*T))+exp(~mom*B/(kb*T))), depth = 6</text>
<!-- 20 -->
<g id="node1" class="node">
<title>20</title>
<ellipse fill="none" stroke="black" cx="259.88" cy="-450" rx="27" ry="18"/>
<text text-anchor="middle" x="259.88" y="-444.95" font-family="Times,serif" font-size="14.00">/</text>
</g>
<!-- 1 -->
<g id="node2" class="node">
<title>1</title>
<ellipse fill="none" stroke="black" cx="223.88" cy="-378" rx="27" ry="18"/>
<text text-anchor="middle" x="223.88" y="-372.95" font-family="Times,serif" font-size="14.00">n_0</text>
</g>
<!-- 20&#45;&#45;1 -->
<g id="edge1" class="edge">
<title>20&#45;&#45;1</title>
<path fill="none" stroke="black" d="M251.53,-432.76C245.71,-421.46 237.99,-406.44 232.18,-395.15"/>
</g>
<!-- 19 -->
<g id="node3" class="node">
<title>19</title>
<ellipse fill="none" stroke="black" cx="295.88" cy="-378" rx="27" ry="18"/>
<text text-anchor="middle" x="295.88" y="-372.95" font-family="Times,serif" font-size="14.00">+</text>
</g>
<!-- 20&#45;&#45;19 -->
<g id="edge2" class="edge">
<title>20&#45;&#45;19</title>
<path fill="none" stroke="black" d="M268.23,-432.76C274.04,-421.46 281.77,-406.44 287.57,-395.15"/>
</g>
<!-- 9 -->
<g id="node4" class="node">
<title>9</title>
<ellipse fill="none" stroke="black" cx="241.88" cy="-306" rx="27" ry="18"/>
<text text-anchor="middle" x="241.88" y="-300.95" font-family="Times,serif" font-size="14.00">exp</text>
</g>
<!-- 19&#45;&#45;9 -->
<g id="edge3" class="edge">
<title>19&#45;&#45;9</title>
<path fill="none" stroke="black" d="M283.89,-361.46C274.95,-349.86 262.77,-334.08 253.83,-322.49"/>
</g>
<!-- 18 -->
<g id="node12" class="node">
<title>18</title>
<ellipse fill="none" stroke="black" cx="349.88" cy="-306" rx="27" ry="18"/>
<text text-anchor="middle" x="349.88" y="-300.95" font-family="Times,serif" font-size="14.00">exp</text>
</g>
<!-- 19&#45;&#45;18 -->
<g id="edge11" class="edge">
<title>19&#45;&#45;18</title>
<path fill="none" stroke="black" d="M307.86,-361.46C316.81,-349.86 328.99,-334.08 337.93,-322.49"/>
</g>
<!-- 8 -->
<g id="node5" class="node">
<title>8</title>
<ellipse fill="none" stroke="black" cx="196.88" cy="-234" rx="27" ry="18"/>
<text text-anchor="middle" x="196.88" y="-228.95" font-family="Times,serif" font-size="14.00">/</text>
</g>
<!-- 9&#45;&#45;8 -->
<g id="edge4" class="edge">
<title>9&#45;&#45;8</title>
<path fill="none" stroke="black" d="M231.67,-289.12C224.3,-277.66 214.41,-262.26 207.05,-250.82"/>
</g>
<!-- 4 -->
<g id="node6" class="node">
<title>4</title>
<ellipse fill="none" stroke="black" cx="106.88" cy="-162" rx="27" ry="18"/>
<text text-anchor="middle" x="106.88" y="-156.95" font-family="Times,serif" font-size="14.00">*</text>
</g>
<!-- 8&#45;&#45;4 -->
<g id="edge5" class="edge">
<title>8&#45;&#45;4</title>
<path fill="none" stroke="black" d="M179.95,-219.83C163.96,-207.4 140.1,-188.84 124.04,-176.35"/>
</g>
<!-- 7 -->
<g id="node9" class="node">
<title>7</title>
<ellipse fill="none" stroke="black" cx="196.88" cy="-162" rx="27" ry="18"/>
<text text-anchor="middle" x="196.88" y="-156.95" font-family="Times,serif" font-size="14.00">*</text>
</g>
<!-- 8&#45;&#45;7 -->
<g id="edge8" class="edge">
<title>8&#45;&#45;7</title>
<path fill="none" stroke="black" d="M196.88,-215.7C196.88,-204.85 196.88,-190.92 196.88,-180.1"/>
</g>
<!-- 2 -->
<g id="node7" class="node">
<title>2</title>
<ellipse fill="none" stroke="black" cx="30.88" cy="-90" rx="30.88" ry="18"/>
<text text-anchor="middle" x="30.88" y="-84.95" font-family="Times,serif" font-size="14.00">mom</text>
</g>
<!-- 4&#45;&#45;2 -->
<g id="edge6" class="edge">
<title>4&#45;&#45;2</title>
<path fill="none" stroke="black" d="M91.5,-146.83C78.49,-134.85 59.91,-117.74 46.76,-105.63"/>
</g>
<!-- 3 -->
<g id="node8" class="node">
<title>3</title>
<ellipse fill="none" stroke="black" cx="106.88" cy="-90" rx="27" ry="18"/>
<text text-anchor="middle" x="106.88" y="-84.95" font-family="Times,serif" font-size="14.00">B</text>
</g>
<!-- 4&#45;&#45;3 -->
<g id="edge7" class="edge">
<title>4&#45;&#45;3</title>
<path fill="none" stroke="black" d="M106.88,-143.7C106.88,-132.85 106.88,-118.92 106.88,-108.1"/>
</g>
<!-- 5 -->
<g id="node10" class="node">
<title>5</title>
<ellipse fill="none" stroke="black" cx="178.88" cy="-90" rx="27" ry="18"/>
<text text-anchor="middle" x="178.88" y="-84.95" font-family="Times,serif" font-size="14.00">kb</text>
</g>
<!-- 7&#45;&#45;5 -->
<g id="edge9" class="edge">
<title>7&#45;&#45;5</title>
<path fill="none" stroke="black" d="M192.52,-144.05C189.69,-133.05 186.02,-118.76 183.2,-107.79"/>
</g>
<!-- 6 -->
<g id="node11" class="node">
<title>6</title>
<ellipse fill="none" stroke="black" cx="250.88" cy="-90" rx="27" ry="18"/>
<text text-anchor="middle" x="250.88" y="-84.95" font-family="Times,serif" font-size="14.00">T</text>
</g>
<!-- 7&#45;&#45;6 -->
<g id="edge10" class="edge">
<title>7&#45;&#45;6</title>
<path fill="none" stroke="black" d="M208.86,-145.46C217.81,-133.86 229.99,-118.08 238.93,-106.49"/>
</g>
<!-- 17 -->
<g id="node13" class="node">
<title>17</title>
<ellipse fill="none" stroke="black" cx="358.88" cy="-234" rx="27" ry="18"/>
<text text-anchor="middle" x="358.88" y="-228.95" font-family="Times,serif" font-size="14.00">/</text>
</g>
<!-- 18&#45;&#45;17 -->
<g id="edge12" class="edge">
<title>18&#45;&#45;17</title>
<path fill="none" stroke="black" d="M352.1,-287.7C353.5,-276.85 355.29,-262.92 356.68,-252.1"/>
</g>
<!-- 13 -->
<g id="node14" class="node">
<title>13</title>
<ellipse fill="none" stroke="black" cx="358.88" cy="-162" rx="27" ry="18"/>
<text text-anchor="middle" x="358.88" y="-156.95" font-family="Times,serif" font-size="14.00">*</text>
</g>
<!-- 17&#45;&#45;13 -->
<g id="edge13" class="edge">
<title>17&#45;&#45;13</title>
<path fill="none" stroke="black" d="M358.88,-215.7C358.88,-204.85 358.88,-190.92 358.88,-180.1"/>
</g>
<!-- 16 -->
<g id="node18" class="node">
<title>16</title>
<ellipse fill="none" stroke="black" cx="466.88" cy="-162" rx="27" ry="18"/>
<text text-anchor="middle" x="466.88" y="-156.95" font-family="Times,serif" font-size="14.00">*</text>
</g>
<!-- 17&#45;&#45;16 -->
<g id="edge17" class="edge">
<title>17&#45;&#45;16</title>
<path fill="none" stroke="black" d="M377.69,-220.81C397.39,-208.04 428.16,-188.09 447.92,-175.29"/>
</g>
<!-- 11 -->
<g id="node15" class="node">
<title>11</title>
<ellipse fill="none" stroke="black" cx="322.88" cy="-90" rx="27" ry="18"/>
<text text-anchor="middle" x="322.88" y="-84.95" font-family="Times,serif" font-size="14.00">~</text>
</g>
<!-- 13&#45;&#45;11 -->
<g id="edge14" class="edge">
<title>13&#45;&#45;11</title>
<path fill="none" stroke="black" d="M350.53,-144.76C344.71,-133.46 336.99,-118.44 331.18,-107.15"/>
</g>
<!-- 12 -->
<g id="node17" class="node">
<title>12</title>
<ellipse fill="none" stroke="black" cx="394.88" cy="-90" rx="27" ry="18"/>
<text text-anchor="middle" x="394.88" y="-84.95" font-family="Times,serif" font-size="14.00">B</text>
</g>
<!-- 13&#45;&#45;12 -->
<g id="edge16" class="edge">
<title>13&#45;&#45;12</title>
<path fill="none" stroke="black" d="M367.23,-144.76C373.04,-133.46 380.77,-118.44 386.57,-107.15"/>
</g>
<!-- 10 -->
<g id="node16" class="node">
<title>10</title>
<ellipse fill="none" stroke="black" cx="322.88" cy="-18" rx="30.88" ry="18"/>
<text text-anchor="middle" x="322.88" y="-12.95" font-family="Times,serif" font-size="14.00">mom</text>
</g>
<!-- 11&#45;&#45;10 -->
<g id="edge15" class="edge">
<title>11&#45;&#45;10</title>
<path fill="none" stroke="black" d="M322.88,-71.7C322.88,-60.85 322.88,-46.92 322.88,-36.1"/>
</g>
<!-- 14 -->
<g id="node19" class="node">
<title>14</title>
<ellipse fill="none" stroke="black" cx="466.88" cy="-90" rx="27" ry="18"/>
<text text-anchor="middle" x="466.88" y="-84.95" font-family="Times,serif" font-size="14.00">kb</text>
</g>
<!-- 16&#45;&#45;14 -->
<g id="edge18" class="edge">
<title>16&#45;&#45;14</title>
<path fill="none" stroke="black" d="M466.88,-143.7C466.88,-132.85 466.88,-118.92 466.88,-108.1"/>
</g>
<!-- 15 -->
<g id="node20" class="node">
<title>15</title>
<ellipse fill="none" stroke="black" cx="538.88" cy="-90" rx="27" ry="18"/>
<text text-anchor="middle" x="538.88" y="-84.95" font-family="Times,serif" font-size="14.00">T</text>
</g>
<!-- 16&#45;&#45;15 -->
<g id="edge19" class="edge">
<title>16&#45;&#45;15</title>
<path fill="none" stroke="black" d="M481.8,-146.5C494.15,-134.48 511.63,-117.49 523.98,-105.49"/>
</g>
</g>
</svg>
