<?xml version="1.0" encoding="UTF-8" standalone="no"?>
<!DOCTYPE svg PUBLIC "-//W3C//DTD SVG 1.1//EN"
 "http://www.w3.org/Graphics/SVG/1.1/DTD/svg11.dtd">
<!-- Generated by graphviz version 9.0.0 (20230911.1827)
 -->
<!-- Title: G Pages: 1 -->
<svg width="194pt" height="285pt"
 viewBox="0.00 0.00 194.25 284.50" xmlns="http://www.w3.org/2000/svg" xmlns:xlink="http://www.w3.org/1999/xlink">
<g id="graph0" class="graph" transform="scale(1 1) rotate(0) translate(4 280.5)">
<title>G</title>
<polygon fill="white" stroke="none" points="-4,4 -4,-280.5 190.25,-280.5 190.25,4 -4,4"/>
<text text-anchor="middle" x="93.12" y="-259.2" font-family="Times,serif" font-size="14.00">sqrt(gamma*pr/rho), depth = 3</text>
<!-- 6 -->
<g id="node1" class="node">
<title>6</title>
<ellipse fill="none" stroke="black" cx="120.16" cy="-234" rx="27" ry="18"/>
<text text-anchor="middle" x="120.16" y="-228.95" font-family="Times,serif" font-size="14.00">sqrt</text>
</g>
<!-- 5 -->
<g id="node2" class="node">
<title>5</title>
<ellipse fill="none" stroke="black" cx="120.16" cy="-162" rx="27" ry="18"/>
<text text-anchor="middle" x="120.16" y="-156.95" font-family="Times,serif" font-size="14.00">/</text>
</g>
<!-- 6&#45;&#45;5 -->
<g id="edge1" class="edge">
<title>6&#45;&#45;5</title>
<path fill="none" stroke="black" d="M120.16,-215.7C120.16,-204.85 120.16,-190.92 120.16,-180.1"/>
</g>
<!-- 3 -->
<g id="node3" class="node">
<title>3</title>
<ellipse fill="none" stroke="black" cx="84.16" cy="-90" rx="27" ry="18"/>
<text text-anchor="middle" x="84.16" y="-84.95" font-family="Times,serif" font-size="14.00">*</text>
</g>
<!-- 5&#45;&#45;3 -->
<g id="edge2" class="edge">
<title>5&#45;&#45;3</title>
<path fill="none" stroke="black" d="M111.81,-144.76C105.99,-133.46 98.27,-118.44 92.46,-107.15"/>
</g>
<!-- 4 -->
<g id="node6" class="node">
<title>4</title>
<ellipse fill="none" stroke="black" cx="156.16" cy="-90" rx="27" ry="18"/>
<text text-anchor="middle" x="156.16" y="-84.95" font-family="Times,serif" font-size="14.00">rho</text>
</g>
<!-- 5&#45;&#45;4 -->
<g id="edge5" class="edge">
<title>5&#45;&#45;4</title>
<path fill="none" stroke="black" d="M128.51,-144.76C134.32,-133.46 142.05,-118.44 147.85,-107.15"/>
</g>
<!-- 1 -->
<g id="node4" class="node">
<title>1</title>
<ellipse fill="none" stroke="black" cx="42.16" cy="-18" rx="39.07" ry="18"/>
<text text-anchor="middle" x="42.16" y="-12.95" font-family="Times,serif" font-size="14.00">gamma</text>
</g>
<!-- 3&#45;&#45;1 -->
<g id="edge3" class="edge">
<title>3&#45;&#45;1</title>
<path fill="none" stroke="black" d="M74.42,-72.76C67.73,-61.62 58.88,-46.87 52.14,-35.63"/>
</g>
<!-- 2 -->
<g id="node5" class="node">
<title>2</title>
<ellipse fill="none" stroke="black" cx="126.16" cy="-18" rx="27" ry="18"/>
<text text-anchor="middle" x="126.16" y="-12.95" font-family="Times,serif" font-size="14.00">pr</text>
</g>
<!-- 3&#45;&#45;2 -->
<g id="edge4" class="edge">
<title>3&#45;&#45;2</title>
<path fill="none" stroke="black" d="M93.9,-72.76C100.69,-61.46 109.7,-46.44 116.47,-35.15"/>
</g>
</g>
</svg>
