<?xml version="1.0" encoding="UTF-8" standalone="no"?>
<!DOCTYPE svg PUBLIC "-//W3C//DTD SVG 1.1//EN"
 "http://www.w3.org/Graphics/SVG/1.1/DTD/svg11.dtd">
<!-- Generated by graphviz version 9.0.0 (20230911.1827)
 -->
<!-- Title: G Pages: 1 -->
<svg width="351pt" height="501pt"
 viewBox="0.00 0.00 351.00 500.50" xmlns="http://www.w3.org/2000/svg" xmlns:xlink="http://www.w3.org/1999/xlink">
<g id="graph0" class="graph" transform="scale(1 1) rotate(0) translate(4 496.5)">
<title>G</title>
<polygon fill="white" stroke="none" points="-4,4 -4,-496.5 347,-496.5 347,4 -4,4"/>
<text text-anchor="middle" x="171.5" y="-475.2" font-family="Times,serif" font-size="14.00">Int_0*sin(n*theta/2)**2/sin(theta/2)**2, depth = 6</text>
<!-- 17 -->
<g id="node1" class="node">
<title>17</title>
<ellipse fill="none" stroke="black" cx="208" cy="-450" rx="27" ry="18"/>
<text text-anchor="middle" x="208" y="-444.95" font-family="Times,serif" font-size="14.00">/</text>
</g>
<!-- 10 -->
<g id="node2" class="node">
<title>10</title>
<ellipse fill="none" stroke="black" cx="172" cy="-378" rx="27" ry="18"/>
<text text-anchor="middle" x="172" y="-372.95" font-family="Times,serif" font-size="14.00">*</text>
</g>
<!-- 17&#45;&#45;10 -->
<g id="edge1" class="edge">
<title>17&#45;&#45;10</title>
<path fill="none" stroke="black" d="M199.65,-432.76C193.83,-421.46 186.11,-406.44 180.3,-395.15"/>
</g>
<!-- 16 -->
<g id="node12" class="node">
<title>16</title>
<ellipse fill="none" stroke="black" cx="244" cy="-378" rx="27" ry="18"/>
<text text-anchor="middle" x="244" y="-372.95" font-family="Times,serif" font-size="14.00">^</text>
</g>
<!-- 17&#45;&#45;16 -->
<g id="edge11" class="edge">
<title>17&#45;&#45;16</title>
<path fill="none" stroke="black" d="M216.35,-432.76C222.17,-421.46 229.89,-406.44 235.7,-395.15"/>
</g>
<!-- 1 -->
<g id="node3" class="node">
<title>1</title>
<ellipse fill="none" stroke="black" cx="97" cy="-306" rx="30.37" ry="18"/>
<text text-anchor="middle" x="97" y="-300.95" font-family="Times,serif" font-size="14.00">Int_0</text>
</g>
<!-- 10&#45;&#45;1 -->
<g id="edge2" class="edge">
<title>10&#45;&#45;1</title>
<path fill="none" stroke="black" d="M156.82,-362.83C143.98,-350.85 125.65,-333.74 112.67,-321.63"/>
</g>
<!-- 9 -->
<g id="node4" class="node">
<title>9</title>
<ellipse fill="none" stroke="black" cx="172" cy="-306" rx="27" ry="18"/>
<text text-anchor="middle" x="172" y="-300.95" font-family="Times,serif" font-size="14.00">^</text>
</g>
<!-- 10&#45;&#45;9 -->
<g id="edge3" class="edge">
<title>10&#45;&#45;9</title>
<path fill="none" stroke="black" d="M172,-359.7C172,-348.85 172,-334.92 172,-324.1"/>
</g>
<!-- 7 -->
<g id="node5" class="node">
<title>7</title>
<ellipse fill="none" stroke="black" cx="100" cy="-234" rx="27" ry="18"/>
<text text-anchor="middle" x="100" y="-228.95" font-family="Times,serif" font-size="14.00">sin</text>
</g>
<!-- 9&#45;&#45;7 -->
<g id="edge4" class="edge">
<title>9&#45;&#45;7</title>
<path fill="none" stroke="black" d="M157.08,-290.5C144.72,-278.48 127.25,-261.49 114.9,-249.49"/>
</g>
<!-- 8 -->
<g id="node11" class="node">
<title>8</title>
<ellipse fill="none" stroke="black" cx="172" cy="-234" rx="27" ry="18"/>
<text text-anchor="middle" x="172" y="-228.95" font-family="Times,serif" font-size="14.00">2</text>
</g>
<!-- 9&#45;&#45;8 -->
<g id="edge10" class="edge">
<title>9&#45;&#45;8</title>
<path fill="none" stroke="black" d="M172,-287.7C172,-276.85 172,-262.92 172,-252.1"/>
</g>
<!-- 6 -->
<g id="node6" class="node">
<title>6</title>
<ellipse fill="none" stroke="black" cx="100" cy="-162" rx="27" ry="18"/>
<text text-anchor="middle" x="100" y="-156.95" font-family="Times,serif" font-size="14.00">/</text>
</g>
<!-- 7&#45;&#45;6 -->
<g id="edge5" class="edge">
<title>7&#45;&#45;6</title>
<path fill="none" stroke="black" d="M100,-215.7C100,-204.85 100,-190.92 100,-180.1"/>
</g>
<!-- 4 -->
<g id="node7" class="node">
<title>4</title>
<ellipse fill="none" stroke="black" cx="64" cy="-90" rx="27" ry="18"/>
<text text-anchor="middle" x="64" y="-84.95" font-family="Times,serif" font-size="14.00">*</text>
</g>
<!-- 6&#45;&#45;4 -->
<g id="edge6" class="edge">
<title>6&#45;&#45;4</title>
<path fill="none" stroke="black" d="M91.65,-144.76C85.83,-133.46 78.11,-118.44 72.3,-107.15"/>
</g>
<!-- 5 -->
<g id="node10" class="node">
<title>5</title>
<ellipse fill="none" stroke="black" cx="136" cy="-90" rx="27" ry="18"/>
<text text-anchor="middle" x="136" y="-84.95" font-family="Times,serif" font-size="14.00">2</text>
</g>
<!-- 6&#45;&#45;5 -->
<g id="edge9" class="edge">
<title>6&#45;&#45;5</title>
<path fill="none" stroke="black" d="M108.35,-144.76C114.17,-133.46 121.89,-118.44 127.7,-107.15"/>
</g>
<!-- 2 -->
<g id="node8" class="node">
<title>2</title>
<ellipse fill="none" stroke="black" cx="27" cy="-18" rx="27" ry="18"/>
<text text-anchor="middle" x="27" y="-12.95" font-family="Times,serif" font-size="14.00">n</text>
</g>
<!-- 4&#45;&#45;2 -->
<g id="edge7" class="edge">
<title>4&#45;&#45;2</title>
<path fill="none" stroke="black" d="M55.42,-72.76C49.44,-61.46 41.5,-46.44 35.54,-35.15"/>
</g>
<!-- 3 -->
<g id="node9" class="node">
<title>3</title>
<ellipse fill="none" stroke="black" cx="101" cy="-18" rx="28.83" ry="18"/>
<text text-anchor="middle" x="101" y="-12.95" font-family="Times,serif" font-size="14.00">theta</text>
</g>
<!-- 4&#45;&#45;3 -->
<g id="edge8" class="edge">
<title>4&#45;&#45;3</title>
<path fill="none" stroke="black" d="M72.58,-72.76C78.47,-61.62 86.27,-46.87 92.21,-35.63"/>
</g>
<!-- 14 -->
<g id="node13" class="node">
<title>14</title>
<ellipse fill="none" stroke="black" cx="244" cy="-306" rx="27" ry="18"/>
<text text-anchor="middle" x="244" y="-300.95" font-family="Times,serif" font-size="14.00">sin</text>
</g>
<!-- 16&#45;&#45;14 -->
<g id="edge12" class="edge">
<title>16&#45;&#45;14</title>
<path fill="none" stroke="black" d="M244,-359.7C244,-348.85 244,-334.92 244,-324.1"/>
</g>
<!-- 15 -->
<g id="node17" class="node">
<title>15</title>
<ellipse fill="none" stroke="black" cx="316" cy="-306" rx="27" ry="18"/>
<text text-anchor="middle" x="316" y="-300.95" font-family="Times,serif" font-size="14.00">2</text>
</g>
<!-- 16&#45;&#45;15 -->
<g id="edge16" class="edge">
<title>16&#45;&#45;15</title>
<path fill="none" stroke="black" d="M258.92,-362.5C271.28,-350.48 288.75,-333.49 301.1,-321.49"/>
</g>
<!-- 13 -->
<g id="node14" class="node">
<title>13</title>
<ellipse fill="none" stroke="black" cx="244" cy="-234" rx="27" ry="18"/>
<text text-anchor="middle" x="244" y="-228.95" font-family="Times,serif" font-size="14.00">/</text>
</g>
<!-- 14&#45;&#45;13 -->
<g id="edge13" class="edge">
<title>14&#45;&#45;13</title>
<path fill="none" stroke="black" d="M244,-287.7C244,-276.85 244,-262.92 244,-252.1"/>
</g>
<!-- 11 -->
<g id="node15" class="node">
<title>11</title>
<ellipse fill="none" stroke="black" cx="209" cy="-162" rx="28.83" ry="18"/>
<text text-anchor="middle" x="209" y="-156.95" font-family="Times,serif" font-size="14.00">theta</text>
</g>
<!-- 13&#45;&#45;11 -->
<g id="edge14" class="edge">
<title>13&#45;&#45;11</title>
<path fill="none" stroke="black" d="M235.71,-216.41C230.13,-205.25 222.8,-190.6 217.23,-179.47"/>
</g>
<!-- 12 -->
<g id="node16" class="node">
<title>12</title>
<ellipse fill="none" stroke="black" cx="283" cy="-162" rx="27" ry="18"/>
<text text-anchor="middle" x="283" y="-156.95" font-family="Times,serif" font-size="14.00">2</text>
</g>
<!-- 13&#45;&#45;12 -->
<g id="edge15" class="edge">
<title>13&#45;&#45;12</title>
<path fill="none" stroke="black" d="M253.05,-216.76C259.35,-205.46 267.71,-190.44 274,-179.15"/>
</g>
</g>
</svg>
