<?xml version="1.0" encoding="UTF-8" standalone="no"?>
<!DOCTYPE svg PUBLIC "-//W3C//DTD SVG 1.1//EN"
 "http://www.w3.org/Graphics/SVG/1.1/DTD/svg11.dtd">
<!-- Generated by graphviz version 9.0.0 (20230911.1827)
 -->
<!-- Title: G Pages: 1 -->
<svg width="332pt" height="573pt"
 viewBox="0.00 0.00 332.00 572.50" xmlns="http://www.w3.org/2000/svg" xmlns:xlink="http://www.w3.org/1999/xlink">
<g id="graph0" class="graph" transform="scale(1 1) rotate(0) translate(4 568.5)">
<title>G</title>
<polygon fill="white" stroke="none" points="-4,4 -4,-568.5 328,-568.5 328,4 -4,4"/>
<text text-anchor="middle" x="162" y="-547.2" font-family="Times,serif" font-size="14.00">1/(exp((h/(2*pi))*omega/(kb*T))&#45;1), depth = 7</text>
<!-- 16 -->
<g id="node1" class="node">
<title>16</title>
<ellipse fill="none" stroke="black" cx="184" cy="-522" rx="27" ry="18"/>
<text text-anchor="middle" x="184" y="-516.95" font-family="Times,serif" font-size="14.00">/</text>
</g>
<!-- 1 -->
<g id="node2" class="node">
<title>1</title>
<ellipse fill="none" stroke="black" cx="148" cy="-450" rx="27" ry="18"/>
<text text-anchor="middle" x="148" y="-444.95" font-family="Times,serif" font-size="14.00">1</text>
</g>
<!-- 16&#45;&#45;1 -->
<g id="edge1" class="edge">
<title>16&#45;&#45;1</title>
<path fill="none" stroke="black" d="M175.65,-504.76C169.83,-493.46 162.11,-478.44 156.3,-467.15"/>
</g>
<!-- 15 -->
<g id="node3" class="node">
<title>15</title>
<ellipse fill="none" stroke="black" cx="220" cy="-450" rx="27" ry="18"/>
<text text-anchor="middle" x="220" y="-444.95" font-family="Times,serif" font-size="14.00">&#45;</text>
</g>
<!-- 16&#45;&#45;15 -->
<g id="edge2" class="edge">
<title>16&#45;&#45;15</title>
<path fill="none" stroke="black" d="M192.35,-504.76C198.17,-493.46 205.89,-478.44 211.7,-467.15"/>
</g>
<!-- 13 -->
<g id="node4" class="node">
<title>13</title>
<ellipse fill="none" stroke="black" cx="184" cy="-378" rx="27" ry="18"/>
<text text-anchor="middle" x="184" y="-372.95" font-family="Times,serif" font-size="14.00">exp</text>
</g>
<!-- 15&#45;&#45;13 -->
<g id="edge3" class="edge">
<title>15&#45;&#45;13</title>
<path fill="none" stroke="black" d="M211.65,-432.76C205.83,-421.46 198.11,-406.44 192.3,-395.15"/>
</g>
<!-- 14 -->
<g id="node16" class="node">
<title>14</title>
<ellipse fill="none" stroke="black" cx="256" cy="-378" rx="27" ry="18"/>
<text text-anchor="middle" x="256" y="-372.95" font-family="Times,serif" font-size="14.00">1</text>
</g>
<!-- 15&#45;&#45;14 -->
<g id="edge15" class="edge">
<title>15&#45;&#45;14</title>
<path fill="none" stroke="black" d="M228.35,-432.76C234.17,-421.46 241.89,-406.44 247.7,-395.15"/>
</g>
<!-- 12 -->
<g id="node5" class="node">
<title>12</title>
<ellipse fill="none" stroke="black" cx="184" cy="-306" rx="27" ry="18"/>
<text text-anchor="middle" x="184" y="-300.95" font-family="Times,serif" font-size="14.00">/</text>
</g>
<!-- 13&#45;&#45;12 -->
<g id="edge4" class="edge">
<title>13&#45;&#45;12</title>
<path fill="none" stroke="black" d="M184,-359.7C184,-348.85 184,-334.92 184,-324.1"/>
</g>
<!-- 8 -->
<g id="node6" class="node">
<title>8</title>
<ellipse fill="none" stroke="black" cx="144" cy="-234" rx="27" ry="18"/>
<text text-anchor="middle" x="144" y="-228.95" font-family="Times,serif" font-size="14.00">*</text>
</g>
<!-- 12&#45;&#45;8 -->
<g id="edge5" class="edge">
<title>12&#45;&#45;8</title>
<path fill="none" stroke="black" d="M174.72,-288.76C168.26,-277.46 159.68,-262.44 153.23,-251.15"/>
</g>
<!-- 11 -->
<g id="node13" class="node">
<title>11</title>
<ellipse fill="none" stroke="black" cx="225" cy="-234" rx="27" ry="18"/>
<text text-anchor="middle" x="225" y="-228.95" font-family="Times,serif" font-size="14.00">*</text>
</g>
<!-- 12&#45;&#45;11 -->
<g id="edge12" class="edge">
<title>12&#45;&#45;11</title>
<path fill="none" stroke="black" d="M193.51,-288.76C200.13,-277.46 208.93,-262.44 215.54,-251.15"/>
</g>
<!-- 6 -->
<g id="node7" class="node">
<title>6</title>
<ellipse fill="none" stroke="black" cx="63" cy="-162" rx="27" ry="18"/>
<text text-anchor="middle" x="63" y="-156.95" font-family="Times,serif" font-size="14.00">/</text>
</g>
<!-- 8&#45;&#45;6 -->
<g id="edge6" class="edge">
<title>8&#45;&#45;6</title>
<path fill="none" stroke="black" d="M128,-219.17C113.8,-206.9 93.16,-189.06 78.97,-176.8"/>
</g>
<!-- 7 -->
<g id="node12" class="node">
<title>7</title>
<ellipse fill="none" stroke="black" cx="144" cy="-162" rx="36" ry="18"/>
<text text-anchor="middle" x="144" y="-156.95" font-family="Times,serif" font-size="14.00">omega</text>
</g>
<!-- 8&#45;&#45;7 -->
<g id="edge11" class="edge">
<title>8&#45;&#45;7</title>
<path fill="none" stroke="black" d="M144,-215.7C144,-204.85 144,-190.92 144,-180.1"/>
</g>
<!-- 2 -->
<g id="node8" class="node">
<title>2</title>
<ellipse fill="none" stroke="black" cx="27" cy="-90" rx="27" ry="18"/>
<text text-anchor="middle" x="27" y="-84.95" font-family="Times,serif" font-size="14.00">h</text>
</g>
<!-- 6&#45;&#45;2 -->
<g id="edge7" class="edge">
<title>6&#45;&#45;2</title>
<path fill="none" stroke="black" d="M54.65,-144.76C48.83,-133.46 41.11,-118.44 35.3,-107.15"/>
</g>
<!-- 5 -->
<g id="node9" class="node">
<title>5</title>
<ellipse fill="none" stroke="black" cx="99" cy="-90" rx="27" ry="18"/>
<text text-anchor="middle" x="99" y="-84.95" font-family="Times,serif" font-size="14.00">*</text>
</g>
<!-- 6&#45;&#45;5 -->
<g id="edge8" class="edge">
<title>6&#45;&#45;5</title>
<path fill="none" stroke="black" d="M71.35,-144.76C77.17,-133.46 84.89,-118.44 90.7,-107.15"/>
</g>
<!-- 3 -->
<g id="node10" class="node">
<title>3</title>
<ellipse fill="none" stroke="black" cx="63" cy="-18" rx="27" ry="18"/>
<text text-anchor="middle" x="63" y="-12.95" font-family="Times,serif" font-size="14.00">2</text>
</g>
<!-- 5&#45;&#45;3 -->
<g id="edge9" class="edge">
<title>5&#45;&#45;3</title>
<path fill="none" stroke="black" d="M90.65,-72.76C84.83,-61.46 77.11,-46.44 71.3,-35.15"/>
</g>
<!-- 4 -->
<g id="node11" class="node">
<title>4</title>
<ellipse fill="none" stroke="black" cx="135" cy="-18" rx="27" ry="18"/>
<text text-anchor="middle" x="135" y="-12.95" font-family="Times,serif" font-size="14.00">pi</text>
</g>
<!-- 5&#45;&#45;4 -->
<g id="edge10" class="edge">
<title>5&#45;&#45;4</title>
<path fill="none" stroke="black" d="M107.35,-72.76C113.17,-61.46 120.89,-46.44 126.7,-35.15"/>
</g>
<!-- 9 -->
<g id="node14" class="node">
<title>9</title>
<ellipse fill="none" stroke="black" cx="225" cy="-162" rx="27" ry="18"/>
<text text-anchor="middle" x="225" y="-156.95" font-family="Times,serif" font-size="14.00">kb</text>
</g>
<!-- 11&#45;&#45;9 -->
<g id="edge13" class="edge">
<title>11&#45;&#45;9</title>
<path fill="none" stroke="black" d="M225,-215.7C225,-204.85 225,-190.92 225,-180.1"/>
</g>
<!-- 10 -->
<g id="node15" class="node">
<title>10</title>
<ellipse fill="none" stroke="black" cx="297" cy="-162" rx="27" ry="18"/>
<text text-anchor="middle" x="297" y="-156.95" font-family="Times,serif" font-size="14.00">T</text>
</g>
<!-- 11&#45;&#45;10 -->
<g id="edge14" class="edge">
<title>11&#45;&#45;10</title>
<path fill="none" stroke="black" d="M239.92,-218.5C252.28,-206.48 269.75,-189.49 282.1,-177.49"/>
</g>
</g>
</svg>
