<?xml version="1.0" encoding="UTF-8" standalone="no"?>
<!DOCTYPE svg PUBLIC "-//W3C//DTD SVG 1.1//EN"
 "http://www.w3.org/Graphics/SVG/1.1/DTD/svg11.dtd">
<!-- Generated by graphviz version 9.0.0 (20230911.1827)
 -->
<!-- Title: G Pages: 1 -->
<svg width="197pt" height="285pt"
 viewBox="0.00 0.00 196.50 284.50" xmlns="http://www.w3.org/2000/svg" xmlns:xlink="http://www.w3.org/1999/xlink">
<g id="graph0" class="graph" transform="scale(1 1) rotate(0) translate(4 280.5)">
<title>G</title>
<polygon fill="white" stroke="none" points="-4,4 -4,-280.5 192.5,-280.5 192.5,4 -4,4"/>
<text text-anchor="middle" x="94.25" y="-259.2" font-family="Times,serif" font-size="14.00">arcsin(n*sin(theta2)), depth = 3</text>
<!-- 5 -->
<g id="node1" class="node">
<title>5</title>
<ellipse fill="none" stroke="black" cx="91.03" cy="-234" rx="32.93" ry="18"/>
<text text-anchor="middle" x="91.03" y="-228.95" font-family="Times,serif" font-size="14.00">arcsin</text>
</g>
<!-- 4 -->
<g id="node2" class="node">
<title>4</title>
<ellipse fill="none" stroke="black" cx="91.03" cy="-162" rx="27" ry="18"/>
<text text-anchor="middle" x="91.03" y="-156.95" font-family="Times,serif" font-size="14.00">*</text>
</g>
<!-- 5&#45;&#45;4 -->
<g id="edge1" class="edge">
<title>5&#45;&#45;4</title>
<path fill="none" stroke="black" d="M91.03,-215.7C91.03,-204.85 91.03,-190.92 91.03,-180.1"/>
</g>
<!-- 1 -->
<g id="node3" class="node">
<title>1</title>
<ellipse fill="none" stroke="black" cx="55.03" cy="-90" rx="27" ry="18"/>
<text text-anchor="middle" x="55.03" y="-84.95" font-family="Times,serif" font-size="14.00">n</text>
</g>
<!-- 4&#45;&#45;1 -->
<g id="edge2" class="edge">
<title>4&#45;&#45;1</title>
<path fill="none" stroke="black" d="M82.68,-144.76C76.87,-133.46 69.14,-118.44 63.34,-107.15"/>
</g>
<!-- 3 -->
<g id="node4" class="node">
<title>3</title>
<ellipse fill="none" stroke="black" cx="127.03" cy="-90" rx="27" ry="18"/>
<text text-anchor="middle" x="127.03" y="-84.95" font-family="Times,serif" font-size="14.00">sin</text>
</g>
<!-- 4&#45;&#45;3 -->
<g id="edge3" class="edge">
<title>4&#45;&#45;3</title>
<path fill="none" stroke="black" d="M99.38,-144.76C105.2,-133.46 112.92,-118.44 118.73,-107.15"/>
</g>
<!-- 2 -->
<g id="node5" class="node">
<title>2</title>
<ellipse fill="none" stroke="black" cx="127.03" cy="-18" rx="33.44" ry="18"/>
<text text-anchor="middle" x="127.03" y="-12.95" font-family="Times,serif" font-size="14.00">theta2</text>
</g>
<!-- 3&#45;&#45;2 -->
<g id="edge4" class="edge">
<title>3&#45;&#45;2</title>
<path fill="none" stroke="black" d="M127.03,-71.7C127.03,-60.85 127.03,-46.92 127.03,-36.1"/>
</g>
</g>
</svg>
