<?xml version="1.0" encoding="UTF-8" standalone="no"?>
<!DOCTYPE svg PUBLIC "-//W3C//DTD SVG 1.1//EN"
 "http://www.w3.org/Graphics/SVG/1.1/DTD/svg11.dtd">
<!-- Generated by graphviz version 9.0.0 (20230911.1827)
 -->
<!-- Title: G Pages: 1 -->
<svg width="352pt" height="429pt"
 viewBox="0.00 0.00 351.81 428.50" xmlns="http://www.w3.org/2000/svg" xmlns:xlink="http://www.w3.org/1999/xlink">
<g id="graph0" class="graph" transform="scale(1 1) rotate(0) translate(4 424.5)">
<title>G</title>
<polygon fill="white" stroke="none" points="-4,4 -4,-424.5 347.81,-424.5 347.81,4 -4,4"/>
<text text-anchor="middle" x="171.9" y="-403.2" font-family="Times,serif" font-size="14.00">m_0*v/sqrt(1&#45;v**2/c**2), depth = 5</text>
<!-- 14 -->
<g id="node1" class="node">
<title>14</title>
<ellipse fill="none" stroke="black" cx="136.81" cy="-378" rx="27" ry="18"/>
<text text-anchor="middle" x="136.81" y="-372.95" font-family="Times,serif" font-size="14.00">/</text>
</g>
<!-- 3 -->
<g id="node2" class="node">
<title>3</title>
<ellipse fill="none" stroke="black" cx="100.81" cy="-306" rx="27" ry="18"/>
<text text-anchor="middle" x="100.81" y="-300.95" font-family="Times,serif" font-size="14.00">*</text>
</g>
<!-- 14&#45;&#45;3 -->
<g id="edge1" class="edge">
<title>14&#45;&#45;3</title>
<path fill="none" stroke="black" d="M128.46,-360.76C122.64,-349.46 114.92,-334.44 109.11,-323.15"/>
</g>
<!-- 13 -->
<g id="node5" class="node">
<title>13</title>
<ellipse fill="none" stroke="black" cx="172.81" cy="-306" rx="27" ry="18"/>
<text text-anchor="middle" x="172.81" y="-300.95" font-family="Times,serif" font-size="14.00">sqrt</text>
</g>
<!-- 14&#45;&#45;13 -->
<g id="edge4" class="edge">
<title>14&#45;&#45;13</title>
<path fill="none" stroke="black" d="M145.16,-360.76C150.97,-349.46 158.7,-334.44 164.5,-323.15"/>
</g>
<!-- 1 -->
<g id="node3" class="node">
<title>1</title>
<ellipse fill="none" stroke="black" cx="27.81" cy="-234" rx="27.81" ry="18"/>
<text text-anchor="middle" x="27.81" y="-228.95" font-family="Times,serif" font-size="14.00">m_0</text>
</g>
<!-- 3&#45;&#45;1 -->
<g id="edge2" class="edge">
<title>3&#45;&#45;1</title>
<path fill="none" stroke="black" d="M86.04,-290.83C73.45,-278.77 55.46,-261.51 42.81,-249.38"/>
</g>
<!-- 2 -->
<g id="node4" class="node">
<title>2</title>
<ellipse fill="none" stroke="black" cx="100.81" cy="-234" rx="27" ry="18"/>
<text text-anchor="middle" x="100.81" y="-228.95" font-family="Times,serif" font-size="14.00">v</text>
</g>
<!-- 3&#45;&#45;2 -->
<g id="edge3" class="edge">
<title>3&#45;&#45;2</title>
<path fill="none" stroke="black" d="M100.81,-287.7C100.81,-276.85 100.81,-262.92 100.81,-252.1"/>
</g>
<!-- 12 -->
<g id="node6" class="node">
<title>12</title>
<ellipse fill="none" stroke="black" cx="172.81" cy="-234" rx="27" ry="18"/>
<text text-anchor="middle" x="172.81" y="-228.95" font-family="Times,serif" font-size="14.00">&#45;</text>
</g>
<!-- 13&#45;&#45;12 -->
<g id="edge5" class="edge">
<title>13&#45;&#45;12</title>
<path fill="none" stroke="black" d="M172.81,-287.7C172.81,-276.85 172.81,-262.92 172.81,-252.1"/>
</g>
<!-- 4 -->
<g id="node7" class="node">
<title>4</title>
<ellipse fill="none" stroke="black" cx="136.81" cy="-162" rx="27" ry="18"/>
<text text-anchor="middle" x="136.81" y="-156.95" font-family="Times,serif" font-size="14.00">1</text>
</g>
<!-- 12&#45;&#45;4 -->
<g id="edge6" class="edge">
<title>12&#45;&#45;4</title>
<path fill="none" stroke="black" d="M164.46,-216.76C158.64,-205.46 150.92,-190.44 145.11,-179.15"/>
</g>
<!-- 11 -->
<g id="node8" class="node">
<title>11</title>
<ellipse fill="none" stroke="black" cx="208.81" cy="-162" rx="27" ry="18"/>
<text text-anchor="middle" x="208.81" y="-156.95" font-family="Times,serif" font-size="14.00">/</text>
</g>
<!-- 12&#45;&#45;11 -->
<g id="edge7" class="edge">
<title>12&#45;&#45;11</title>
<path fill="none" stroke="black" d="M181.16,-216.76C186.97,-205.46 194.7,-190.44 200.5,-179.15"/>
</g>
<!-- 7 -->
<g id="node9" class="node">
<title>7</title>
<ellipse fill="none" stroke="black" cx="172.81" cy="-90" rx="27" ry="18"/>
<text text-anchor="middle" x="172.81" y="-84.95" font-family="Times,serif" font-size="14.00">^</text>
</g>
<!-- 11&#45;&#45;7 -->
<g id="edge8" class="edge">
<title>11&#45;&#45;7</title>
<path fill="none" stroke="black" d="M200.46,-144.76C194.64,-133.46 186.92,-118.44 181.11,-107.15"/>
</g>
<!-- 10 -->
<g id="node12" class="node">
<title>10</title>
<ellipse fill="none" stroke="black" cx="244.81" cy="-90" rx="27" ry="18"/>
<text text-anchor="middle" x="244.81" y="-84.95" font-family="Times,serif" font-size="14.00">^</text>
</g>
<!-- 11&#45;&#45;10 -->
<g id="edge11" class="edge">
<title>11&#45;&#45;10</title>
<path fill="none" stroke="black" d="M217.16,-144.76C222.97,-133.46 230.7,-118.44 236.5,-107.15"/>
</g>
<!-- 5 -->
<g id="node10" class="node">
<title>5</title>
<ellipse fill="none" stroke="black" cx="100.81" cy="-18" rx="27" ry="18"/>
<text text-anchor="middle" x="100.81" y="-12.95" font-family="Times,serif" font-size="14.00">v</text>
</g>
<!-- 7&#45;&#45;5 -->
<g id="edge9" class="edge">
<title>7&#45;&#45;5</title>
<path fill="none" stroke="black" d="M157.89,-74.5C145.53,-62.48 128.06,-45.49 115.71,-33.49"/>
</g>
<!-- 6 -->
<g id="node11" class="node">
<title>6</title>
<ellipse fill="none" stroke="black" cx="172.81" cy="-18" rx="27" ry="18"/>
<text text-anchor="middle" x="172.81" y="-12.95" font-family="Times,serif" font-size="14.00">2</text>
</g>
<!-- 7&#45;&#45;6 -->
<g id="edge10" class="edge">
<title>7&#45;&#45;6</title>
<path fill="none" stroke="black" d="M172.81,-71.7C172.81,-60.85 172.81,-46.92 172.81,-36.1"/>
</g>
<!-- 8 -->
<g id="node13" class="node">
<title>8</title>
<ellipse fill="none" stroke="black" cx="244.81" cy="-18" rx="27" ry="18"/>
<text text-anchor="middle" x="244.81" y="-12.95" font-family="Times,serif" font-size="14.00">c</text>
</g>
<!-- 10&#45;&#45;8 -->
<g id="edge12" class="edge">
<title>10&#45;&#45;8</title>
<path fill="none" stroke="black" d="M244.81,-71.7C244.81,-60.85 244.81,-46.92 244.81,-36.1"/>
</g>
<!-- 9 -->
<g id="node14" class="node">
<title>9</title>
<ellipse fill="none" stroke="black" cx="316.81" cy="-18" rx="27" ry="18"/>
<text text-anchor="middle" x="316.81" y="-12.95" font-family="Times,serif" font-size="14.00">2</text>
</g>
<!-- 10&#45;&#45;9 -->
<g id="edge13" class="edge">
<title>10&#45;&#45;9</title>
<path fill="none" stroke="black" d="M259.73,-74.5C272.08,-62.48 289.56,-45.49 301.91,-33.49"/>
</g>
</g>
</svg>
