<?xml version="1.0" encoding="UTF-8" standalone="no"?>
<!DOCTYPE svg PUBLIC "-//W3C//DTD SVG 1.1//EN"
 "http://www.w3.org/Graphics/SVG/1.1/DTD/svg11.dtd">
<!-- Generated by graphviz version 9.0.0 (20230911.1827)
 -->
<!-- Title: G Pages: 1 -->
<svg width="444pt" height="357pt"
 viewBox="0.00 0.00 444.00 356.50" xmlns="http://www.w3.org/2000/svg" xmlns:xlink="http://www.w3.org/1999/xlink">
<g id="graph0" class="graph" transform="scale(1 1) rotate(0) translate(4 352.5)">
<title>G</title>
<polygon fill="white" stroke="none" points="-4,4 -4,-352.5 440,-352.5 440,4 -4,4"/>
<text text-anchor="middle" x="218" y="-331.2" font-family="Times,serif" font-size="14.00">q1*q2*r/(4*pi*epsilon*r**3), depth = 4</text>
<!-- 15 -->
<g id="node1" class="node">
<title>15</title>
<ellipse fill="none" stroke="black" cx="215" cy="-306" rx="27" ry="18"/>
<text text-anchor="middle" x="215" y="-300.95" font-family="Times,serif" font-size="14.00">/</text>
</g>
<!-- 5 -->
<g id="node2" class="node">
<title>5</title>
<ellipse fill="none" stroke="black" cx="174" cy="-234" rx="27" ry="18"/>
<text text-anchor="middle" x="174" y="-228.95" font-family="Times,serif" font-size="14.00">*</text>
</g>
<!-- 15&#45;&#45;5 -->
<g id="edge1" class="edge">
<title>15&#45;&#45;5</title>
<path fill="none" stroke="black" d="M205.49,-288.76C198.87,-277.46 190.07,-262.44 183.46,-251.15"/>
</g>
<!-- 14 -->
<g id="node7" class="node">
<title>14</title>
<ellipse fill="none" stroke="black" cx="249" cy="-234" rx="27" ry="18"/>
<text text-anchor="middle" x="249" y="-228.95" font-family="Times,serif" font-size="14.00">*</text>
</g>
<!-- 15&#45;&#45;14 -->
<g id="edge6" class="edge">
<title>15&#45;&#45;14</title>
<path fill="none" stroke="black" d="M223.06,-288.41C228.48,-277.25 235.59,-262.6 241,-251.47"/>
</g>
<!-- 3 -->
<g id="node3" class="node">
<title>3</title>
<ellipse fill="none" stroke="black" cx="99" cy="-162" rx="27" ry="18"/>
<text text-anchor="middle" x="99" y="-156.95" font-family="Times,serif" font-size="14.00">*</text>
</g>
<!-- 5&#45;&#45;3 -->
<g id="edge2" class="edge">
<title>5&#45;&#45;3</title>
<path fill="none" stroke="black" d="M158.82,-218.83C145.81,-206.69 127.16,-189.28 114.15,-177.14"/>
</g>
<!-- 4 -->
<g id="node6" class="node">
<title>4</title>
<ellipse fill="none" stroke="black" cx="174" cy="-162" rx="27" ry="18"/>
<text text-anchor="middle" x="174" y="-156.95" font-family="Times,serif" font-size="14.00">r</text>
</g>
<!-- 5&#45;&#45;4 -->
<g id="edge5" class="edge">
<title>5&#45;&#45;4</title>
<path fill="none" stroke="black" d="M174,-215.7C174,-204.85 174,-190.92 174,-180.1"/>
</g>
<!-- 1 -->
<g id="node4" class="node">
<title>1</title>
<ellipse fill="none" stroke="black" cx="27" cy="-90" rx="27" ry="18"/>
<text text-anchor="middle" x="27" y="-84.95" font-family="Times,serif" font-size="14.00">q1</text>
</g>
<!-- 3&#45;&#45;1 -->
<g id="edge3" class="edge">
<title>3&#45;&#45;1</title>
<path fill="none" stroke="black" d="M84.08,-146.5C71.72,-134.48 54.25,-117.49 41.9,-105.49"/>
</g>
<!-- 2 -->
<g id="node5" class="node">
<title>2</title>
<ellipse fill="none" stroke="black" cx="99" cy="-90" rx="27" ry="18"/>
<text text-anchor="middle" x="99" y="-84.95" font-family="Times,serif" font-size="14.00">q2</text>
</g>
<!-- 3&#45;&#45;2 -->
<g id="edge4" class="edge">
<title>3&#45;&#45;2</title>
<path fill="none" stroke="black" d="M99,-143.7C99,-132.85 99,-118.92 99,-108.1"/>
</g>
<!-- 10 -->
<g id="node8" class="node">
<title>10</title>
<ellipse fill="none" stroke="black" cx="249" cy="-162" rx="27" ry="18"/>
<text text-anchor="middle" x="249" y="-156.95" font-family="Times,serif" font-size="14.00">*</text>
</g>
<!-- 14&#45;&#45;10 -->
<g id="edge7" class="edge">
<title>14&#45;&#45;10</title>
<path fill="none" stroke="black" d="M249,-215.7C249,-204.85 249,-190.92 249,-180.1"/>
</g>
<!-- 13 -->
<g id="node13" class="node">
<title>13</title>
<ellipse fill="none" stroke="black" cx="337" cy="-162" rx="27" ry="18"/>
<text text-anchor="middle" x="337" y="-156.95" font-family="Times,serif" font-size="14.00">^</text>
</g>
<!-- 14&#45;&#45;13 -->
<g id="edge12" class="edge">
<title>14&#45;&#45;13</title>
<path fill="none" stroke="black" d="M265.97,-219.5C281.55,-207.11 304.52,-188.84 320.08,-176.46"/>
</g>
<!-- 8 -->
<g id="node9" class="node">
<title>8</title>
<ellipse fill="none" stroke="black" cx="171" cy="-90" rx="27" ry="18"/>
<text text-anchor="middle" x="171" y="-84.95" font-family="Times,serif" font-size="14.00">*</text>
</g>
<!-- 10&#45;&#45;8 -->
<g id="edge8" class="edge">
<title>10&#45;&#45;8</title>
<path fill="none" stroke="black" d="M233.59,-147.17C220,-134.98 200.3,-117.3 186.65,-105.04"/>
</g>
<!-- 9 -->
<g id="node12" class="node">
<title>9</title>
<ellipse fill="none" stroke="black" cx="254" cy="-90" rx="37.53" ry="18"/>
<text text-anchor="middle" x="254" y="-84.95" font-family="Times,serif" font-size="14.00">epsilon</text>
</g>
<!-- 10&#45;&#45;9 -->
<g id="edge11" class="edge">
<title>10&#45;&#45;9</title>
<path fill="none" stroke="black" d="M250.24,-143.7C251.01,-132.85 252.01,-118.92 252.78,-108.1"/>
</g>
<!-- 6 -->
<g id="node10" class="node">
<title>6</title>
<ellipse fill="none" stroke="black" cx="135" cy="-18" rx="27" ry="18"/>
<text text-anchor="middle" x="135" y="-12.95" font-family="Times,serif" font-size="14.00">4</text>
</g>
<!-- 8&#45;&#45;6 -->
<g id="edge9" class="edge">
<title>8&#45;&#45;6</title>
<path fill="none" stroke="black" d="M162.65,-72.76C156.83,-61.46 149.11,-46.44 143.3,-35.15"/>
</g>
<!-- 7 -->
<g id="node11" class="node">
<title>7</title>
<ellipse fill="none" stroke="black" cx="207" cy="-18" rx="27" ry="18"/>
<text text-anchor="middle" x="207" y="-12.95" font-family="Times,serif" font-size="14.00">pi</text>
</g>
<!-- 8&#45;&#45;7 -->
<g id="edge10" class="edge">
<title>8&#45;&#45;7</title>
<path fill="none" stroke="black" d="M179.35,-72.76C185.17,-61.46 192.89,-46.44 198.7,-35.15"/>
</g>
<!-- 11 -->
<g id="node14" class="node">
<title>11</title>
<ellipse fill="none" stroke="black" cx="337" cy="-90" rx="27" ry="18"/>
<text text-anchor="middle" x="337" y="-84.95" font-family="Times,serif" font-size="14.00">r</text>
</g>
<!-- 13&#45;&#45;11 -->
<g id="edge13" class="edge">
<title>13&#45;&#45;11</title>
<path fill="none" stroke="black" d="M337,-143.7C337,-132.85 337,-118.92 337,-108.1"/>
</g>
<!-- 12 -->
<g id="node15" class="node">
<title>12</title>
<ellipse fill="none" stroke="black" cx="409" cy="-90" rx="27" ry="18"/>
<text text-anchor="middle" x="409" y="-84.95" font-family="Times,serif" font-size="14.00">3</text>
</g>
<!-- 13&#45;&#45;12 -->
<g id="edge14" class="edge">
<title>13&#45;&#45;12</title>
<path fill="none" stroke="black" d="M351.92,-146.5C364.28,-134.48 381.75,-117.49 394.1,-105.49"/>
</g>
</g>
</svg>
