<?xml version="1.0" encoding="UTF-8" standalone="no"?>
<!DOCTYPE svg PUBLIC "-//W3C//DTD SVG 1.1//EN"
 "http://www.w3.org/Graphics/SVG/1.1/DTD/svg11.dtd">
<!-- Generated by graphviz version 9.0.0 (20230911.1827)
 -->
<!-- Title: G Pages: 1 -->
<svg width="469pt" height="429pt"
 viewBox="0.00 0.00 469.00 428.50" xmlns="http://www.w3.org/2000/svg" xmlns:xlink="http://www.w3.org/1999/xlink">
<g id="graph0" class="graph" transform="scale(1 1) rotate(0) translate(4 424.5)">
<title>G</title>
<polygon fill="white" stroke="none" points="-4,4 -4,-424.5 465,-424.5 465,4 -4,4"/>
<text text-anchor="middle" x="230.5" y="-403.2" font-family="Times,serif" font-size="14.00">4*pi*epsilon*(h/(2*pi))**2/(m*q**2), depth = 5</text>
<!-- 19 -->
<g id="node1" class="node">
<title>19</title>
<ellipse fill="none" stroke="black" cx="254" cy="-378" rx="27" ry="18"/>
<text text-anchor="middle" x="254" y="-372.95" font-family="Times,serif" font-size="14.00">/</text>
</g>
<!-- 13 -->
<g id="node2" class="node">
<title>13</title>
<ellipse fill="none" stroke="black" cx="218" cy="-306" rx="27" ry="18"/>
<text text-anchor="middle" x="218" y="-300.95" font-family="Times,serif" font-size="14.00">*</text>
</g>
<!-- 19&#45;&#45;13 -->
<g id="edge1" class="edge">
<title>19&#45;&#45;13</title>
<path fill="none" stroke="black" d="M245.65,-360.76C239.83,-349.46 232.11,-334.44 226.3,-323.15"/>
</g>
<!-- 18 -->
<g id="node15" class="node">
<title>18</title>
<ellipse fill="none" stroke="black" cx="290" cy="-306" rx="27" ry="18"/>
<text text-anchor="middle" x="290" y="-300.95" font-family="Times,serif" font-size="14.00">*</text>
</g>
<!-- 19&#45;&#45;18 -->
<g id="edge14" class="edge">
<title>19&#45;&#45;18</title>
<path fill="none" stroke="black" d="M262.35,-360.76C268.17,-349.46 275.89,-334.44 281.7,-323.15"/>
</g>
<!-- 5 -->
<g id="node3" class="node">
<title>5</title>
<ellipse fill="none" stroke="black" cx="135" cy="-234" rx="27" ry="18"/>
<text text-anchor="middle" x="135" y="-228.95" font-family="Times,serif" font-size="14.00">*</text>
</g>
<!-- 13&#45;&#45;5 -->
<g id="edge2" class="edge">
<title>13&#45;&#45;5</title>
<path fill="none" stroke="black" d="M201.6,-291.17C187.05,-278.9 165.9,-261.06 151.36,-248.8"/>
</g>
<!-- 12 -->
<g id="node8" class="node">
<title>12</title>
<ellipse fill="none" stroke="black" cx="218" cy="-234" rx="27" ry="18"/>
<text text-anchor="middle" x="218" y="-228.95" font-family="Times,serif" font-size="14.00">^</text>
</g>
<!-- 13&#45;&#45;12 -->
<g id="edge7" class="edge">
<title>13&#45;&#45;12</title>
<path fill="none" stroke="black" d="M218,-287.7C218,-276.85 218,-262.92 218,-252.1"/>
</g>
<!-- 3 -->
<g id="node4" class="node">
<title>3</title>
<ellipse fill="none" stroke="black" cx="52" cy="-162" rx="27" ry="18"/>
<text text-anchor="middle" x="52" y="-156.95" font-family="Times,serif" font-size="14.00">*</text>
</g>
<!-- 5&#45;&#45;3 -->
<g id="edge3" class="edge">
<title>5&#45;&#45;3</title>
<path fill="none" stroke="black" d="M118.6,-219.17C104.05,-206.9 82.9,-189.06 68.36,-176.8"/>
</g>
<!-- 4 -->
<g id="node7" class="node">
<title>4</title>
<ellipse fill="none" stroke="black" cx="135" cy="-162" rx="37.53" ry="18"/>
<text text-anchor="middle" x="135" y="-156.95" font-family="Times,serif" font-size="14.00">epsilon</text>
</g>
<!-- 5&#45;&#45;4 -->
<g id="edge6" class="edge">
<title>5&#45;&#45;4</title>
<path fill="none" stroke="black" d="M135,-215.7C135,-204.85 135,-190.92 135,-180.1"/>
</g>
<!-- 1 -->
<g id="node5" class="node">
<title>1</title>
<ellipse fill="none" stroke="black" cx="27" cy="-90" rx="27" ry="18"/>
<text text-anchor="middle" x="27" y="-84.95" font-family="Times,serif" font-size="14.00">4</text>
</g>
<!-- 3&#45;&#45;1 -->
<g id="edge4" class="edge">
<title>3&#45;&#45;1</title>
<path fill="none" stroke="black" d="M45.95,-144.05C42.02,-133.05 36.92,-118.76 33,-107.79"/>
</g>
<!-- 2 -->
<g id="node6" class="node">
<title>2</title>
<ellipse fill="none" stroke="black" cx="99" cy="-90" rx="27" ry="18"/>
<text text-anchor="middle" x="99" y="-84.95" font-family="Times,serif" font-size="14.00">pi</text>
</g>
<!-- 3&#45;&#45;2 -->
<g id="edge5" class="edge">
<title>3&#45;&#45;2</title>
<path fill="none" stroke="black" d="M62.67,-145.12C70.36,-133.66 80.7,-118.26 88.38,-106.82"/>
</g>
<!-- 10 -->
<g id="node9" class="node">
<title>10</title>
<ellipse fill="none" stroke="black" cx="218" cy="-162" rx="27" ry="18"/>
<text text-anchor="middle" x="218" y="-156.95" font-family="Times,serif" font-size="14.00">/</text>
</g>
<!-- 12&#45;&#45;10 -->
<g id="edge8" class="edge">
<title>12&#45;&#45;10</title>
<path fill="none" stroke="black" d="M218,-215.7C218,-204.85 218,-190.92 218,-180.1"/>
</g>
<!-- 11 -->
<g id="node14" class="node">
<title>11</title>
<ellipse fill="none" stroke="black" cx="290" cy="-162" rx="27" ry="18"/>
<text text-anchor="middle" x="290" y="-156.95" font-family="Times,serif" font-size="14.00">2</text>
</g>
<!-- 12&#45;&#45;11 -->
<g id="edge13" class="edge">
<title>12&#45;&#45;11</title>
<path fill="none" stroke="black" d="M232.92,-218.5C245.28,-206.48 262.75,-189.49 275.1,-177.49"/>
</g>
<!-- 6 -->
<g id="node10" class="node">
<title>6</title>
<ellipse fill="none" stroke="black" cx="194" cy="-90" rx="27" ry="18"/>
<text text-anchor="middle" x="194" y="-84.95" font-family="Times,serif" font-size="14.00">h</text>
</g>
<!-- 10&#45;&#45;6 -->
<g id="edge9" class="edge">
<title>10&#45;&#45;6</title>
<path fill="none" stroke="black" d="M212.19,-144.05C208.42,-133.05 203.52,-118.76 199.76,-107.79"/>
</g>
<!-- 9 -->
<g id="node11" class="node">
<title>9</title>
<ellipse fill="none" stroke="black" cx="266" cy="-90" rx="27" ry="18"/>
<text text-anchor="middle" x="266" y="-84.95" font-family="Times,serif" font-size="14.00">*</text>
</g>
<!-- 10&#45;&#45;9 -->
<g id="edge10" class="edge">
<title>10&#45;&#45;9</title>
<path fill="none" stroke="black" d="M228.89,-145.12C236.75,-133.66 247.31,-118.26 255.15,-106.82"/>
</g>
<!-- 7 -->
<g id="node12" class="node">
<title>7</title>
<ellipse fill="none" stroke="black" cx="230" cy="-18" rx="27" ry="18"/>
<text text-anchor="middle" x="230" y="-12.95" font-family="Times,serif" font-size="14.00">2</text>
</g>
<!-- 9&#45;&#45;7 -->
<g id="edge11" class="edge">
<title>9&#45;&#45;7</title>
<path fill="none" stroke="black" d="M257.65,-72.76C251.83,-61.46 244.11,-46.44 238.3,-35.15"/>
</g>
<!-- 8 -->
<g id="node13" class="node">
<title>8</title>
<ellipse fill="none" stroke="black" cx="302" cy="-18" rx="27" ry="18"/>
<text text-anchor="middle" x="302" y="-12.95" font-family="Times,serif" font-size="14.00">pi</text>
</g>
<!-- 9&#45;&#45;8 -->
<g id="edge12" class="edge">
<title>9&#45;&#45;8</title>
<path fill="none" stroke="black" d="M274.35,-72.76C280.17,-61.46 287.89,-46.44 293.7,-35.15"/>
</g>
<!-- 14 -->
<g id="node16" class="node">
<title>14</title>
<ellipse fill="none" stroke="black" cx="290" cy="-234" rx="27" ry="18"/>
<text text-anchor="middle" x="290" y="-228.95" font-family="Times,serif" font-size="14.00">m</text>
</g>
<!-- 18&#45;&#45;14 -->
<g id="edge15" class="edge">
<title>18&#45;&#45;14</title>
<path fill="none" stroke="black" d="M290,-287.7C290,-276.85 290,-262.92 290,-252.1"/>
</g>
<!-- 17 -->
<g id="node17" class="node">
<title>17</title>
<ellipse fill="none" stroke="black" cx="362" cy="-234" rx="27" ry="18"/>
<text text-anchor="middle" x="362" y="-228.95" font-family="Times,serif" font-size="14.00">^</text>
</g>
<!-- 18&#45;&#45;17 -->
<g id="edge16" class="edge">
<title>18&#45;&#45;17</title>
<path fill="none" stroke="black" d="M304.92,-290.5C317.28,-278.48 334.75,-261.49 347.1,-249.49"/>
</g>
<!-- 15 -->
<g id="node18" class="node">
<title>15</title>
<ellipse fill="none" stroke="black" cx="362" cy="-162" rx="27" ry="18"/>
<text text-anchor="middle" x="362" y="-156.95" font-family="Times,serif" font-size="14.00">q</text>
</g>
<!-- 17&#45;&#45;15 -->
<g id="edge17" class="edge">
<title>17&#45;&#45;15</title>
<path fill="none" stroke="black" d="M362,-215.7C362,-204.85 362,-190.92 362,-180.1"/>
</g>
<!-- 16 -->
<g id="node19" class="node">
<title>16</title>
<ellipse fill="none" stroke="black" cx="434" cy="-162" rx="27" ry="18"/>
<text text-anchor="middle" x="434" y="-156.95" font-family="Times,serif" font-size="14.00">2</text>
</g>
<!-- 17&#45;&#45;16 -->
<g id="edge18" class="edge">
<title>17&#45;&#45;16</title>
<path fill="none" stroke="black" d="M376.92,-218.5C389.28,-206.48 406.75,-189.49 419.1,-177.49"/>
</g>
</g>
</svg>
