<?xml version="1.0" encoding="UTF-8" standalone="no"?>
<!DOCTYPE svg PUBLIC "-//W3C//DTD SVG 1.1//EN"
 "http://www.w3.org/Graphics/SVG/1.1/DTD/svg11.dtd">
<!-- Generated by graphviz version 9.0.0 (20230911.1827)
 -->
<!-- Title: G Pages: 1 -->
<svg width="281pt" height="429pt"
 viewBox="0.00 0.00 280.83 428.50" xmlns="http://www.w3.org/2000/svg" xmlns:xlink="http://www.w3.org/1999/xlink">
<g id="graph0" class="graph" transform="scale(1 1) rotate(0) translate(4 424.5)">
<title>G</title>
<polygon fill="white" stroke="none" points="-4,4 -4,-424.5 276.83,-424.5 276.83,4 -4,4"/>
<text text-anchor="middle" x="136.42" y="-403.2" font-family="Times,serif" font-size="14.00">exp(~(theta**2/2))/sqrt(2*pi), depth = 5</text>
<!-- 12 -->
<g id="node1" class="node">
<title>12</title>
<ellipse fill="none" stroke="black" cx="137.83" cy="-378" rx="27" ry="18"/>
<text text-anchor="middle" x="137.83" y="-372.95" font-family="Times,serif" font-size="14.00">/</text>
</g>
<!-- 7 -->
<g id="node2" class="node">
<title>7</title>
<ellipse fill="none" stroke="black" cx="101.83" cy="-306" rx="27" ry="18"/>
<text text-anchor="middle" x="101.83" y="-300.95" font-family="Times,serif" font-size="14.00">exp</text>
</g>
<!-- 12&#45;&#45;7 -->
<g id="edge1" class="edge">
<title>12&#45;&#45;7</title>
<path fill="none" stroke="black" d="M129.48,-360.76C123.67,-349.46 115.94,-334.44 110.14,-323.15"/>
</g>
<!-- 11 -->
<g id="node9" class="node">
<title>11</title>
<ellipse fill="none" stroke="black" cx="173.83" cy="-306" rx="27" ry="18"/>
<text text-anchor="middle" x="173.83" y="-300.95" font-family="Times,serif" font-size="14.00">sqrt</text>
</g>
<!-- 12&#45;&#45;11 -->
<g id="edge8" class="edge">
<title>12&#45;&#45;11</title>
<path fill="none" stroke="black" d="M146.18,-360.76C152,-349.46 159.72,-334.44 165.53,-323.15"/>
</g>
<!-- 6 -->
<g id="node3" class="node">
<title>6</title>
<ellipse fill="none" stroke="black" cx="101.83" cy="-234" rx="27" ry="18"/>
<text text-anchor="middle" x="101.83" y="-228.95" font-family="Times,serif" font-size="14.00">~</text>
</g>
<!-- 7&#45;&#45;6 -->
<g id="edge2" class="edge">
<title>7&#45;&#45;6</title>
<path fill="none" stroke="black" d="M101.83,-287.7C101.83,-276.85 101.83,-262.92 101.83,-252.1"/>
</g>
<!-- 5 -->
<g id="node4" class="node">
<title>5</title>
<ellipse fill="none" stroke="black" cx="101.83" cy="-162" rx="27" ry="18"/>
<text text-anchor="middle" x="101.83" y="-156.95" font-family="Times,serif" font-size="14.00">/</text>
</g>
<!-- 6&#45;&#45;5 -->
<g id="edge3" class="edge">
<title>6&#45;&#45;5</title>
<path fill="none" stroke="black" d="M101.83,-215.7C101.83,-204.85 101.83,-190.92 101.83,-180.1"/>
</g>
<!-- 3 -->
<g id="node5" class="node">
<title>3</title>
<ellipse fill="none" stroke="black" cx="65.83" cy="-90" rx="27" ry="18"/>
<text text-anchor="middle" x="65.83" y="-84.95" font-family="Times,serif" font-size="14.00">^</text>
</g>
<!-- 5&#45;&#45;3 -->
<g id="edge4" class="edge">
<title>5&#45;&#45;3</title>
<path fill="none" stroke="black" d="M93.48,-144.76C87.67,-133.46 79.94,-118.44 74.14,-107.15"/>
</g>
<!-- 4 -->
<g id="node8" class="node">
<title>4</title>
<ellipse fill="none" stroke="black" cx="137.83" cy="-90" rx="27" ry="18"/>
<text text-anchor="middle" x="137.83" y="-84.95" font-family="Times,serif" font-size="14.00">2</text>
</g>
<!-- 5&#45;&#45;4 -->
<g id="edge7" class="edge">
<title>5&#45;&#45;4</title>
<path fill="none" stroke="black" d="M110.18,-144.76C116,-133.46 123.72,-118.44 129.53,-107.15"/>
</g>
<!-- 1 -->
<g id="node6" class="node">
<title>1</title>
<ellipse fill="none" stroke="black" cx="28.83" cy="-18" rx="28.83" ry="18"/>
<text text-anchor="middle" x="28.83" y="-12.95" font-family="Times,serif" font-size="14.00">theta</text>
</g>
<!-- 3&#45;&#45;1 -->
<g id="edge5" class="edge">
<title>3&#45;&#45;1</title>
<path fill="none" stroke="black" d="M57.25,-72.76C51.36,-61.62 43.56,-46.87 37.62,-35.63"/>
</g>
<!-- 2 -->
<g id="node7" class="node">
<title>2</title>
<ellipse fill="none" stroke="black" cx="102.83" cy="-18" rx="27" ry="18"/>
<text text-anchor="middle" x="102.83" y="-12.95" font-family="Times,serif" font-size="14.00">2</text>
</g>
<!-- 3&#45;&#45;2 -->
<g id="edge6" class="edge">
<title>3&#45;&#45;2</title>
<path fill="none" stroke="black" d="M74.41,-72.76C80.39,-61.46 88.33,-46.44 94.3,-35.15"/>
</g>
<!-- 10 -->
<g id="node10" class="node">
<title>10</title>
<ellipse fill="none" stroke="black" cx="173.83" cy="-234" rx="27" ry="18"/>
<text text-anchor="middle" x="173.83" y="-228.95" font-family="Times,serif" font-size="14.00">*</text>
</g>
<!-- 11&#45;&#45;10 -->
<g id="edge9" class="edge">
<title>11&#45;&#45;10</title>
<path fill="none" stroke="black" d="M173.83,-287.7C173.83,-276.85 173.83,-262.92 173.83,-252.1"/>
</g>
<!-- 8 -->
<g id="node11" class="node">
<title>8</title>
<ellipse fill="none" stroke="black" cx="173.83" cy="-162" rx="27" ry="18"/>
<text text-anchor="middle" x="173.83" y="-156.95" font-family="Times,serif" font-size="14.00">2</text>
</g>
<!-- 10&#45;&#45;8 -->
<g id="edge10" class="edge">
<title>10&#45;&#45;8</title>
<path fill="none" stroke="black" d="M173.83,-215.7C173.83,-204.85 173.83,-190.92 173.83,-180.1"/>
</g>
<!-- 9 -->
<g id="node12" class="node">
<title>9</title>
<ellipse fill="none" stroke="black" cx="245.83" cy="-162" rx="27" ry="18"/>
<text text-anchor="middle" x="245.83" y="-156.95" font-family="Times,serif" font-size="14.00">pi</text>
</g>
<!-- 10&#45;&#45;9 -->
<g id="edge11" class="edge">
<title>10&#45;&#45;9</title>
<path fill="none" stroke="black" d="M188.75,-218.5C201.11,-206.48 218.58,-189.49 230.93,-177.49"/>
</g>
</g>
</svg>
