<?xml version="1.0" encoding="UTF-8" standalone="no"?>
<!DOCTYPE svg PUBLIC "-//W3C//DTD SVG 1.1//EN"
 "http://www.w3.org/Graphics/SVG/1.1/DTD/svg11.dtd">
<!-- Generated by graphviz version 9.0.0 (20230911.1827)
 -->
<!-- Title: G Pages: 1 -->
<svg width="199pt" height="285pt"
 viewBox="0.00 0.00 198.75 284.50" xmlns="http://www.w3.org/2000/svg" xmlns:xlink="http://www.w3.org/1999/xlink">
<g id="graph0" class="graph" transform="scale(1 1) rotate(0) translate(4 280.5)">
<title>G</title>
<polygon fill="white" stroke="none" points="-4,4 -4,-280.5 194.75,-280.5 194.75,4 -4,4"/>
<text text-anchor="middle" x="95.37" y="-259.2" font-family="Times,serif" font-size="14.00">arcsin(lambda/(n*d)), depth = 3</text>
<!-- 6 -->
<g id="node1" class="node">
<title>6</title>
<ellipse fill="none" stroke="black" cx="83.15" cy="-234" rx="32.93" ry="18"/>
<text text-anchor="middle" x="83.15" y="-228.95" font-family="Times,serif" font-size="14.00">arcsin</text>
</g>
<!-- 5 -->
<g id="node2" class="node">
<title>5</title>
<ellipse fill="none" stroke="black" cx="83.15" cy="-162" rx="27" ry="18"/>
<text text-anchor="middle" x="83.15" y="-156.95" font-family="Times,serif" font-size="14.00">/</text>
</g>
<!-- 6&#45;&#45;5 -->
<g id="edge1" class="edge">
<title>6&#45;&#45;5</title>
<path fill="none" stroke="black" d="M83.15,-215.7C83.15,-204.85 83.15,-190.92 83.15,-180.1"/>
</g>
<!-- 1 -->
<g id="node3" class="node">
<title>1</title>
<ellipse fill="none" stroke="black" cx="41.15" cy="-90" rx="38.56" ry="18"/>
<text text-anchor="middle" x="41.15" y="-84.95" font-family="Times,serif" font-size="14.00">lambda</text>
</g>
<!-- 5&#45;&#45;1 -->
<g id="edge2" class="edge">
<title>5&#45;&#45;1</title>
<path fill="none" stroke="black" d="M73.41,-144.76C66.72,-133.62 57.87,-118.87 51.13,-107.63"/>
</g>
<!-- 4 -->
<g id="node4" class="node">
<title>4</title>
<ellipse fill="none" stroke="black" cx="125.15" cy="-90" rx="27" ry="18"/>
<text text-anchor="middle" x="125.15" y="-84.95" font-family="Times,serif" font-size="14.00">*</text>
</g>
<!-- 5&#45;&#45;4 -->
<g id="edge3" class="edge">
<title>5&#45;&#45;4</title>
<path fill="none" stroke="black" d="M92.89,-144.76C99.68,-133.46 108.69,-118.44 115.46,-107.15"/>
</g>
<!-- 2 -->
<g id="node5" class="node">
<title>2</title>
<ellipse fill="none" stroke="black" cx="89.15" cy="-18" rx="27" ry="18"/>
<text text-anchor="middle" x="89.15" y="-12.95" font-family="Times,serif" font-size="14.00">n</text>
</g>
<!-- 4&#45;&#45;2 -->
<g id="edge4" class="edge">
<title>4&#45;&#45;2</title>
<path fill="none" stroke="black" d="M116.8,-72.76C110.99,-61.46 103.26,-46.44 97.46,-35.15"/>
</g>
<!-- 3 -->
<g id="node6" class="node">
<title>3</title>
<ellipse fill="none" stroke="black" cx="161.15" cy="-18" rx="27" ry="18"/>
<text text-anchor="middle" x="161.15" y="-12.95" font-family="Times,serif" font-size="14.00">d</text>
</g>
<!-- 4&#45;&#45;3 -->
<g id="edge5" class="edge">
<title>4&#45;&#45;3</title>
<path fill="none" stroke="black" d="M133.5,-72.76C139.32,-61.46 147.04,-46.44 152.85,-35.15"/>
</g>
</g>
</svg>
