<?xml version="1.0" encoding="UTF-8" standalone="no"?>
<!DOCTYPE svg PUBLIC "-//W3C//DTD SVG 1.1//EN"
 "http://www.w3.org/Graphics/SVG/1.1/DTD/svg11.dtd">
<!-- Generated by graphviz version 9.0.0 (20230911.1827)
 -->
<!-- Title: G Pages: 1 -->
<svg width="508pt" height="573pt"
 viewBox="0.00 0.00 508.00 572.50" xmlns="http://www.w3.org/2000/svg" xmlns:xlink="http://www.w3.org/1999/xlink">
<g id="graph0" class="graph" transform="scale(1 1) rotate(0) translate(4 568.5)">
<title>G</title>
<polygon fill="white" stroke="none" points="-4,4 -4,-568.5 504,-568.5 504,4 -4,4"/>
<text text-anchor="middle" x="250" y="-547.2" font-family="Times,serif" font-size="14.00">sqrt(1+2*epsilon**2*E_n*L**2/(m*(Z_1*Z_2*q**2)**2)), depth = 7</text>
<!-- 26 -->
<g id="node1" class="node">
<title>26</title>
<ellipse fill="none" stroke="black" cx="225" cy="-522" rx="27" ry="18"/>
<text text-anchor="middle" x="225" y="-516.95" font-family="Times,serif" font-size="14.00">sqrt</text>
</g>
<!-- 25 -->
<g id="node2" class="node">
<title>25</title>
<ellipse fill="none" stroke="black" cx="225" cy="-450" rx="27" ry="18"/>
<text text-anchor="middle" x="225" y="-444.95" font-family="Times,serif" font-size="14.00">+</text>
</g>
<!-- 26&#45;&#45;25 -->
<g id="edge1" class="edge">
<title>26&#45;&#45;25</title>
<path fill="none" stroke="black" d="M225,-503.7C225,-492.85 225,-478.92 225,-468.1"/>
</g>
<!-- 1 -->
<g id="node3" class="node">
<title>1</title>
<ellipse fill="none" stroke="black" cx="189" cy="-378" rx="27" ry="18"/>
<text text-anchor="middle" x="189" y="-372.95" font-family="Times,serif" font-size="14.00">1</text>
</g>
<!-- 25&#45;&#45;1 -->
<g id="edge2" class="edge">
<title>25&#45;&#45;1</title>
<path fill="none" stroke="black" d="M216.65,-432.76C210.83,-421.46 203.11,-406.44 197.3,-395.15"/>
</g>
<!-- 24 -->
<g id="node4" class="node">
<title>24</title>
<ellipse fill="none" stroke="black" cx="261" cy="-378" rx="27" ry="18"/>
<text text-anchor="middle" x="261" y="-372.95" font-family="Times,serif" font-size="14.00">/</text>
</g>
<!-- 25&#45;&#45;24 -->
<g id="edge3" class="edge">
<title>25&#45;&#45;24</title>
<path fill="none" stroke="black" d="M233.35,-432.76C239.17,-421.46 246.89,-406.44 252.7,-395.15"/>
</g>
<!-- 12 -->
<g id="node5" class="node">
<title>12</title>
<ellipse fill="none" stroke="black" cx="225" cy="-306" rx="27" ry="18"/>
<text text-anchor="middle" x="225" y="-300.95" font-family="Times,serif" font-size="14.00">*</text>
</g>
<!-- 24&#45;&#45;12 -->
<g id="edge4" class="edge">
<title>24&#45;&#45;12</title>
<path fill="none" stroke="black" d="M252.65,-360.76C246.83,-349.46 239.11,-334.44 233.3,-323.15"/>
</g>
<!-- 23 -->
<g id="node16" class="node">
<title>23</title>
<ellipse fill="none" stroke="black" cx="297" cy="-306" rx="27" ry="18"/>
<text text-anchor="middle" x="297" y="-300.95" font-family="Times,serif" font-size="14.00">*</text>
</g>
<!-- 24&#45;&#45;23 -->
<g id="edge15" class="edge">
<title>24&#45;&#45;23</title>
<path fill="none" stroke="black" d="M269.35,-360.76C275.17,-349.46 282.89,-334.44 288.7,-323.15"/>
</g>
<!-- 8 -->
<g id="node6" class="node">
<title>8</title>
<ellipse fill="none" stroke="black" cx="153" cy="-234" rx="27" ry="18"/>
<text text-anchor="middle" x="153" y="-228.95" font-family="Times,serif" font-size="14.00">*</text>
</g>
<!-- 12&#45;&#45;8 -->
<g id="edge5" class="edge">
<title>12&#45;&#45;8</title>
<path fill="none" stroke="black" d="M210.08,-290.5C197.72,-278.48 180.25,-261.49 167.9,-249.49"/>
</g>
<!-- 11 -->
<g id="node13" class="node">
<title>11</title>
<ellipse fill="none" stroke="black" cx="225" cy="-234" rx="27" ry="18"/>
<text text-anchor="middle" x="225" y="-228.95" font-family="Times,serif" font-size="14.00">^</text>
</g>
<!-- 12&#45;&#45;11 -->
<g id="edge12" class="edge">
<title>12&#45;&#45;11</title>
<path fill="none" stroke="black" d="M225,-287.7C225,-276.85 225,-262.92 225,-252.1"/>
</g>
<!-- 6 -->
<g id="node7" class="node">
<title>6</title>
<ellipse fill="none" stroke="black" cx="81" cy="-162" rx="27" ry="18"/>
<text text-anchor="middle" x="81" y="-156.95" font-family="Times,serif" font-size="14.00">*</text>
</g>
<!-- 8&#45;&#45;6 -->
<g id="edge6" class="edge">
<title>8&#45;&#45;6</title>
<path fill="none" stroke="black" d="M138.08,-218.5C125.72,-206.48 108.25,-189.49 95.9,-177.49"/>
</g>
<!-- 7 -->
<g id="node12" class="node">
<title>7</title>
<ellipse fill="none" stroke="black" cx="153" cy="-162" rx="27" ry="18"/>
<text text-anchor="middle" x="153" y="-156.95" font-family="Times,serif" font-size="14.00">E_n</text>
</g>
<!-- 8&#45;&#45;7 -->
<g id="edge11" class="edge">
<title>8&#45;&#45;7</title>
<path fill="none" stroke="black" d="M153,-215.7C153,-204.85 153,-190.92 153,-180.1"/>
</g>
<!-- 2 -->
<g id="node8" class="node">
<title>2</title>
<ellipse fill="none" stroke="black" cx="27" cy="-90" rx="27" ry="18"/>
<text text-anchor="middle" x="27" y="-84.95" font-family="Times,serif" font-size="14.00">2</text>
</g>
<!-- 6&#45;&#45;2 -->
<g id="edge7" class="edge">
<title>6&#45;&#45;2</title>
<path fill="none" stroke="black" d="M69.02,-145.46C60.07,-133.86 47.89,-118.08 38.95,-106.49"/>
</g>
<!-- 5 -->
<g id="node9" class="node">
<title>5</title>
<ellipse fill="none" stroke="black" cx="99" cy="-90" rx="27" ry="18"/>
<text text-anchor="middle" x="99" y="-84.95" font-family="Times,serif" font-size="14.00">^</text>
</g>
<!-- 6&#45;&#45;5 -->
<g id="edge8" class="edge">
<title>6&#45;&#45;5</title>
<path fill="none" stroke="black" d="M85.36,-144.05C88.19,-133.05 91.86,-118.76 94.68,-107.79"/>
</g>
<!-- 3 -->
<g id="node10" class="node">
<title>3</title>
<ellipse fill="none" stroke="black" cx="66" cy="-18" rx="37.53" ry="18"/>
<text text-anchor="middle" x="66" y="-12.95" font-family="Times,serif" font-size="14.00">epsilon</text>
</g>
<!-- 5&#45;&#45;3 -->
<g id="edge9" class="edge">
<title>5&#45;&#45;3</title>
<path fill="none" stroke="black" d="M91.18,-72.41C86,-61.41 79.21,-47.03 73.99,-35.96"/>
</g>
<!-- 4 -->
<g id="node11" class="node">
<title>4</title>
<ellipse fill="none" stroke="black" cx="149" cy="-18" rx="27" ry="18"/>
<text text-anchor="middle" x="149" y="-12.95" font-family="Times,serif" font-size="14.00">2</text>
</g>
<!-- 5&#45;&#45;4 -->
<g id="edge10" class="edge">
<title>5&#45;&#45;4</title>
<path fill="none" stroke="black" d="M110.1,-73.46C118.38,-61.86 129.66,-46.08 137.93,-34.49"/>
</g>
<!-- 9 -->
<g id="node14" class="node">
<title>9</title>
<ellipse fill="none" stroke="black" cx="225" cy="-162" rx="27" ry="18"/>
<text text-anchor="middle" x="225" y="-156.95" font-family="Times,serif" font-size="14.00">L</text>
</g>
<!-- 11&#45;&#45;9 -->
<g id="edge13" class="edge">
<title>11&#45;&#45;9</title>
<path fill="none" stroke="black" d="M225,-215.7C225,-204.85 225,-190.92 225,-180.1"/>
</g>
<!-- 10 -->
<g id="node15" class="node">
<title>10</title>
<ellipse fill="none" stroke="black" cx="297" cy="-162" rx="27" ry="18"/>
<text text-anchor="middle" x="297" y="-156.95" font-family="Times,serif" font-size="14.00">2</text>
</g>
<!-- 11&#45;&#45;10 -->
<g id="edge14" class="edge">
<title>11&#45;&#45;10</title>
<path fill="none" stroke="black" d="M239.92,-218.5C252.28,-206.48 269.75,-189.49 282.1,-177.49"/>
</g>
<!-- 13 -->
<g id="node17" class="node">
<title>13</title>
<ellipse fill="none" stroke="black" cx="297" cy="-234" rx="27" ry="18"/>
<text text-anchor="middle" x="297" y="-228.95" font-family="Times,serif" font-size="14.00">m</text>
</g>
<!-- 23&#45;&#45;13 -->
<g id="edge16" class="edge">
<title>23&#45;&#45;13</title>
<path fill="none" stroke="black" d="M297,-287.7C297,-276.85 297,-262.92 297,-252.1"/>
</g>
<!-- 22 -->
<g id="node18" class="node">
<title>22</title>
<ellipse fill="none" stroke="black" cx="369" cy="-234" rx="27" ry="18"/>
<text text-anchor="middle" x="369" y="-228.95" font-family="Times,serif" font-size="14.00">^</text>
</g>
<!-- 23&#45;&#45;22 -->
<g id="edge17" class="edge">
<title>23&#45;&#45;22</title>
<path fill="none" stroke="black" d="M311.92,-290.5C324.28,-278.48 341.75,-261.49 354.1,-249.49"/>
</g>
<!-- 20 -->
<g id="node19" class="node">
<title>20</title>
<ellipse fill="none" stroke="black" cx="369" cy="-162" rx="27" ry="18"/>
<text text-anchor="middle" x="369" y="-156.95" font-family="Times,serif" font-size="14.00">*</text>
</g>
<!-- 22&#45;&#45;20 -->
<g id="edge18" class="edge">
<title>22&#45;&#45;20</title>
<path fill="none" stroke="black" d="M369,-215.7C369,-204.85 369,-190.92 369,-180.1"/>
</g>
<!-- 21 -->
<g id="node26" class="node">
<title>21</title>
<ellipse fill="none" stroke="black" cx="441" cy="-162" rx="27" ry="18"/>
<text text-anchor="middle" x="441" y="-156.95" font-family="Times,serif" font-size="14.00">2</text>
</g>
<!-- 22&#45;&#45;21 -->
<g id="edge25" class="edge">
<title>22&#45;&#45;21</title>
<path fill="none" stroke="black" d="M383.92,-218.5C396.28,-206.48 413.75,-189.49 426.1,-177.49"/>
</g>
<!-- 16 -->
<g id="node20" class="node">
<title>16</title>
<ellipse fill="none" stroke="black" cx="329" cy="-90" rx="27" ry="18"/>
<text text-anchor="middle" x="329" y="-84.95" font-family="Times,serif" font-size="14.00">*</text>
</g>
<!-- 20&#45;&#45;16 -->
<g id="edge19" class="edge">
<title>20&#45;&#45;16</title>
<path fill="none" stroke="black" d="M359.72,-144.76C353.26,-133.46 344.68,-118.44 338.23,-107.15"/>
</g>
<!-- 19 -->
<g id="node23" class="node">
<title>19</title>
<ellipse fill="none" stroke="black" cx="401" cy="-90" rx="27" ry="18"/>
<text text-anchor="middle" x="401" y="-84.95" font-family="Times,serif" font-size="14.00">^</text>
</g>
<!-- 20&#45;&#45;19 -->
<g id="edge22" class="edge">
<title>20&#45;&#45;19</title>
<path fill="none" stroke="black" d="M376.58,-144.41C381.68,-133.25 388.38,-118.6 393.47,-107.47"/>
</g>
<!-- 14 -->
<g id="node21" class="node">
<title>14</title>
<ellipse fill="none" stroke="black" cx="257" cy="-18" rx="27" ry="18"/>
<text text-anchor="middle" x="257" y="-12.95" font-family="Times,serif" font-size="14.00">Z_1</text>
</g>
<!-- 16&#45;&#45;14 -->
<g id="edge20" class="edge">
<title>16&#45;&#45;14</title>
<path fill="none" stroke="black" d="M314.08,-74.5C301.72,-62.48 284.25,-45.49 271.9,-33.49"/>
</g>
<!-- 15 -->
<g id="node22" class="node">
<title>15</title>
<ellipse fill="none" stroke="black" cx="329" cy="-18" rx="27" ry="18"/>
<text text-anchor="middle" x="329" y="-12.95" font-family="Times,serif" font-size="14.00">Z_2</text>
</g>
<!-- 16&#45;&#45;15 -->
<g id="edge21" class="edge">
<title>16&#45;&#45;15</title>
<path fill="none" stroke="black" d="M329,-71.7C329,-60.85 329,-46.92 329,-36.1"/>
</g>
<!-- 17 -->
<g id="node24" class="node">
<title>17</title>
<ellipse fill="none" stroke="black" cx="401" cy="-18" rx="27" ry="18"/>
<text text-anchor="middle" x="401" y="-12.95" font-family="Times,serif" font-size="14.00">q</text>
</g>
<!-- 19&#45;&#45;17 -->
<g id="edge23" class="edge">
<title>19&#45;&#45;17</title>
<path fill="none" stroke="black" d="M401,-71.7C401,-60.85 401,-46.92 401,-36.1"/>
</g>
<!-- 18 -->
<g id="node25" class="node">
<title>18</title>
<ellipse fill="none" stroke="black" cx="473" cy="-18" rx="27" ry="18"/>
<text text-anchor="middle" x="473" y="-12.95" font-family="Times,serif" font-size="14.00">2</text>
</g>
<!-- 19&#45;&#45;18 -->
<g id="edge24" class="edge">
<title>19&#45;&#45;18</title>
<path fill="none" stroke="black" d="M415.92,-74.5C428.28,-62.48 445.75,-45.49 458.1,-33.49"/>
</g>
</g>
</svg>
