<?xml version="1.0" encoding="UTF-8" standalone="no"?>
<!DOCTYPE svg PUBLIC "-//W3C//DTD SVG 1.1//EN"
 "http://www.w3.org/Graphics/SVG/1.1/DTD/svg11.dtd">
<!-- Generated by graphviz version 9.0.0 (20230911.1827)
 -->
<!-- Title: G Pages: 1 -->
<svg width="923pt" height="501pt"
 viewBox="0.00 0.00 923.00 500.50" xmlns="http://www.w3.org/2000/svg" xmlns:xlink="http://www.w3.org/1999/xlink">
<g id="graph0" class="graph" transform="scale(1 1) rotate(0) translate(4 496.5)">
<title>G</title>
<polygon fill="white" stroke="none" points="-4,4 -4,-496.5 919,-496.5 919,4 -4,4"/>
<text text-anchor="middle" x="457.5" y="-475.2" font-family="Times,serif" font-size="14.00">q/(4*pi*epsilon*y**2)*(4*pi*epsilon*Volt*d&#45;q*d*y**3/(y**2&#45;d**2)**2), depth = 6</text>
<!-- 39 -->
<g id="node1" class="node">
<title>39</title>
<ellipse fill="none" stroke="black" cx="337" cy="-450" rx="27" ry="18"/>
<text text-anchor="middle" x="337" y="-444.95" font-family="Times,serif" font-size="14.00">*</text>
</g>
<!-- 11 -->
<g id="node2" class="node">
<title>11</title>
<ellipse fill="none" stroke="black" cx="265" cy="-378" rx="27" ry="18"/>
<text text-anchor="middle" x="265" y="-372.95" font-family="Times,serif" font-size="14.00">/</text>
</g>
<!-- 39&#45;&#45;11 -->
<g id="edge1" class="edge">
<title>39&#45;&#45;11</title>
<path fill="none" stroke="black" d="M322.08,-434.5C309.72,-422.48 292.25,-405.49 279.9,-393.49"/>
</g>
<!-- 38 -->
<g id="node13" class="node">
<title>38</title>
<ellipse fill="none" stroke="black" cx="414" cy="-378" rx="27" ry="18"/>
<text text-anchor="middle" x="414" y="-372.95" font-family="Times,serif" font-size="14.00">&#45;</text>
</g>
<!-- 39&#45;&#45;38 -->
<g id="edge12" class="edge">
<title>39&#45;&#45;38</title>
<path fill="none" stroke="black" d="M352.58,-434.83C365.94,-422.69 385.09,-405.28 398.44,-393.14"/>
</g>
<!-- 1 -->
<g id="node3" class="node">
<title>1</title>
<ellipse fill="none" stroke="black" cx="193" cy="-306" rx="27" ry="18"/>
<text text-anchor="middle" x="193" y="-300.95" font-family="Times,serif" font-size="14.00">q</text>
</g>
<!-- 11&#45;&#45;1 -->
<g id="edge2" class="edge">
<title>11&#45;&#45;1</title>
<path fill="none" stroke="black" d="M250.08,-362.5C237.72,-350.48 220.25,-333.49 207.9,-321.49"/>
</g>
<!-- 10 -->
<g id="node4" class="node">
<title>10</title>
<ellipse fill="none" stroke="black" cx="265" cy="-306" rx="27" ry="18"/>
<text text-anchor="middle" x="265" y="-300.95" font-family="Times,serif" font-size="14.00">*</text>
</g>
<!-- 11&#45;&#45;10 -->
<g id="edge3" class="edge">
<title>11&#45;&#45;10</title>
<path fill="none" stroke="black" d="M265,-359.7C265,-348.85 265,-334.92 265,-324.1"/>
</g>
<!-- 6 -->
<g id="node5" class="node">
<title>6</title>
<ellipse fill="none" stroke="black" cx="146" cy="-234" rx="27" ry="18"/>
<text text-anchor="middle" x="146" y="-228.95" font-family="Times,serif" font-size="14.00">*</text>
</g>
<!-- 10&#45;&#45;6 -->
<g id="edge4" class="edge">
<title>10&#45;&#45;6</title>
<path fill="none" stroke="black" d="M245.08,-293.28C222.98,-280.28 187.55,-259.44 165.59,-246.52"/>
</g>
<!-- 9 -->
<g id="node10" class="node">
<title>9</title>
<ellipse fill="none" stroke="black" cx="265" cy="-234" rx="27" ry="18"/>
<text text-anchor="middle" x="265" y="-228.95" font-family="Times,serif" font-size="14.00">^</text>
</g>
<!-- 10&#45;&#45;9 -->
<g id="edge9" class="edge">
<title>10&#45;&#45;9</title>
<path fill="none" stroke="black" d="M265,-287.7C265,-276.85 265,-262.92 265,-252.1"/>
</g>
<!-- 4 -->
<g id="node6" class="node">
<title>4</title>
<ellipse fill="none" stroke="black" cx="63" cy="-162" rx="27" ry="18"/>
<text text-anchor="middle" x="63" y="-156.95" font-family="Times,serif" font-size="14.00">*</text>
</g>
<!-- 6&#45;&#45;4 -->
<g id="edge5" class="edge">
<title>6&#45;&#45;4</title>
<path fill="none" stroke="black" d="M129.6,-219.17C115.05,-206.9 93.9,-189.06 79.36,-176.8"/>
</g>
<!-- 5 -->
<g id="node9" class="node">
<title>5</title>
<ellipse fill="none" stroke="black" cx="146" cy="-162" rx="37.53" ry="18"/>
<text text-anchor="middle" x="146" y="-156.95" font-family="Times,serif" font-size="14.00">epsilon</text>
</g>
<!-- 6&#45;&#45;5 -->
<g id="edge8" class="edge">
<title>6&#45;&#45;5</title>
<path fill="none" stroke="black" d="M146,-215.7C146,-204.85 146,-190.92 146,-180.1"/>
</g>
<!-- 2 -->
<g id="node7" class="node">
<title>2</title>
<ellipse fill="none" stroke="black" cx="27" cy="-90" rx="27" ry="18"/>
<text text-anchor="middle" x="27" y="-84.95" font-family="Times,serif" font-size="14.00">4</text>
</g>
<!-- 4&#45;&#45;2 -->
<g id="edge6" class="edge">
<title>4&#45;&#45;2</title>
<path fill="none" stroke="black" d="M54.65,-144.76C48.83,-133.46 41.11,-118.44 35.3,-107.15"/>
</g>
<!-- 3 -->
<g id="node8" class="node">
<title>3</title>
<ellipse fill="none" stroke="black" cx="99" cy="-90" rx="27" ry="18"/>
<text text-anchor="middle" x="99" y="-84.95" font-family="Times,serif" font-size="14.00">pi</text>
</g>
<!-- 4&#45;&#45;3 -->
<g id="edge7" class="edge">
<title>4&#45;&#45;3</title>
<path fill="none" stroke="black" d="M71.35,-144.76C77.17,-133.46 84.89,-118.44 90.7,-107.15"/>
</g>
<!-- 7 -->
<g id="node11" class="node">
<title>7</title>
<ellipse fill="none" stroke="black" cx="229" cy="-162" rx="27" ry="18"/>
<text text-anchor="middle" x="229" y="-156.95" font-family="Times,serif" font-size="14.00">y</text>
</g>
<!-- 9&#45;&#45;7 -->
<g id="edge10" class="edge">
<title>9&#45;&#45;7</title>
<path fill="none" stroke="black" d="M256.65,-216.76C250.83,-205.46 243.11,-190.44 237.3,-179.15"/>
</g>
<!-- 8 -->
<g id="node12" class="node">
<title>8</title>
<ellipse fill="none" stroke="black" cx="301" cy="-162" rx="27" ry="18"/>
<text text-anchor="middle" x="301" y="-156.95" font-family="Times,serif" font-size="14.00">2</text>
</g>
<!-- 9&#45;&#45;8 -->
<g id="edge11" class="edge">
<title>9&#45;&#45;8</title>
<path fill="none" stroke="black" d="M273.35,-216.76C279.17,-205.46 286.89,-190.44 292.7,-179.15"/>
</g>
<!-- 20 -->
<g id="node14" class="node">
<title>20</title>
<ellipse fill="none" stroke="black" cx="414" cy="-306" rx="27" ry="18"/>
<text text-anchor="middle" x="414" y="-300.95" font-family="Times,serif" font-size="14.00">*</text>
</g>
<!-- 38&#45;&#45;20 -->
<g id="edge13" class="edge">
<title>38&#45;&#45;20</title>
<path fill="none" stroke="black" d="M414,-359.7C414,-348.85 414,-334.92 414,-324.1"/>
</g>
<!-- 37 -->
<g id="node23" class="node">
<title>37</title>
<ellipse fill="none" stroke="black" cx="564" cy="-306" rx="27" ry="18"/>
<text text-anchor="middle" x="564" y="-300.95" font-family="Times,serif" font-size="14.00">/</text>
</g>
<!-- 38&#45;&#45;37 -->
<g id="edge22" class="edge">
<title>38&#45;&#45;37</title>
<path fill="none" stroke="black" d="M435.81,-366.82C464.25,-353.55 513.71,-330.47 542.16,-317.19"/>
</g>
<!-- 18 -->
<g id="node15" class="node">
<title>18</title>
<ellipse fill="none" stroke="black" cx="378" cy="-234" rx="27" ry="18"/>
<text text-anchor="middle" x="378" y="-228.95" font-family="Times,serif" font-size="14.00">*</text>
</g>
<!-- 20&#45;&#45;18 -->
<g id="edge14" class="edge">
<title>20&#45;&#45;18</title>
<path fill="none" stroke="black" d="M405.65,-288.76C399.83,-277.46 392.11,-262.44 386.3,-251.15"/>
</g>
<!-- 19 -->
<g id="node22" class="node">
<title>19</title>
<ellipse fill="none" stroke="black" cx="450" cy="-234" rx="27" ry="18"/>
<text text-anchor="middle" x="450" y="-228.95" font-family="Times,serif" font-size="14.00">d</text>
</g>
<!-- 20&#45;&#45;19 -->
<g id="edge21" class="edge">
<title>20&#45;&#45;19</title>
<path fill="none" stroke="black" d="M422.35,-288.76C428.17,-277.46 435.89,-262.44 441.7,-251.15"/>
</g>
<!-- 16 -->
<g id="node16" class="node">
<title>16</title>
<ellipse fill="none" stroke="black" cx="373" cy="-162" rx="27" ry="18"/>
<text text-anchor="middle" x="373" y="-156.95" font-family="Times,serif" font-size="14.00">*</text>
</g>
<!-- 18&#45;&#45;16 -->
<g id="edge15" class="edge">
<title>18&#45;&#45;16</title>
<path fill="none" stroke="black" d="M376.76,-215.7C375.99,-204.85 374.99,-190.92 374.22,-180.1"/>
</g>
<!-- 17 -->
<g id="node21" class="node">
<title>17</title>
<ellipse fill="none" stroke="black" cx="445" cy="-162" rx="27" ry="18"/>
<text text-anchor="middle" x="445" y="-156.95" font-family="Times,serif" font-size="14.00">Volt</text>
</g>
<!-- 18&#45;&#45;17 -->
<g id="edge20" class="edge">
<title>18&#45;&#45;17</title>
<path fill="none" stroke="black" d="M391.88,-218.5C403.38,-206.48 419.64,-189.49 431.14,-177.49"/>
</g>
<!-- 14 -->
<g id="node17" class="node">
<title>14</title>
<ellipse fill="none" stroke="black" cx="290" cy="-90" rx="27" ry="18"/>
<text text-anchor="middle" x="290" y="-84.95" font-family="Times,serif" font-size="14.00">*</text>
</g>
<!-- 16&#45;&#45;14 -->
<g id="edge16" class="edge">
<title>16&#45;&#45;14</title>
<path fill="none" stroke="black" d="M356.6,-147.17C342.05,-134.9 320.9,-117.06 306.36,-104.8"/>
</g>
<!-- 15 -->
<g id="node20" class="node">
<title>15</title>
<ellipse fill="none" stroke="black" cx="373" cy="-90" rx="37.53" ry="18"/>
<text text-anchor="middle" x="373" y="-84.95" font-family="Times,serif" font-size="14.00">epsilon</text>
</g>
<!-- 16&#45;&#45;15 -->
<g id="edge19" class="edge">
<title>16&#45;&#45;15</title>
<path fill="none" stroke="black" d="M373,-143.7C373,-132.85 373,-118.92 373,-108.1"/>
</g>
<!-- 12 -->
<g id="node18" class="node">
<title>12</title>
<ellipse fill="none" stroke="black" cx="254" cy="-18" rx="27" ry="18"/>
<text text-anchor="middle" x="254" y="-12.95" font-family="Times,serif" font-size="14.00">4</text>
</g>
<!-- 14&#45;&#45;12 -->
<g id="edge17" class="edge">
<title>14&#45;&#45;12</title>
<path fill="none" stroke="black" d="M281.65,-72.76C275.83,-61.46 268.11,-46.44 262.3,-35.15"/>
</g>
<!-- 13 -->
<g id="node19" class="node">
<title>13</title>
<ellipse fill="none" stroke="black" cx="326" cy="-18" rx="27" ry="18"/>
<text text-anchor="middle" x="326" y="-12.95" font-family="Times,serif" font-size="14.00">pi</text>
</g>
<!-- 14&#45;&#45;13 -->
<g id="edge18" class="edge">
<title>14&#45;&#45;13</title>
<path fill="none" stroke="black" d="M298.35,-72.76C304.17,-61.46 311.89,-46.44 317.7,-35.15"/>
</g>
<!-- 27 -->
<g id="node24" class="node">
<title>27</title>
<ellipse fill="none" stroke="black" cx="564" cy="-234" rx="27" ry="18"/>
<text text-anchor="middle" x="564" y="-228.95" font-family="Times,serif" font-size="14.00">*</text>
</g>
<!-- 37&#45;&#45;27 -->
<g id="edge23" class="edge">
<title>37&#45;&#45;27</title>
<path fill="none" stroke="black" d="M564,-287.7C564,-276.85 564,-262.92 564,-252.1"/>
</g>
<!-- 36 -->
<g id="node31" class="node">
<title>36</title>
<ellipse fill="none" stroke="black" cx="744" cy="-234" rx="27" ry="18"/>
<text text-anchor="middle" x="744" y="-228.95" font-family="Times,serif" font-size="14.00">^</text>
</g>
<!-- 37&#45;&#45;36 -->
<g id="edge30" class="edge">
<title>37&#45;&#45;36</title>
<path fill="none" stroke="black" d="M586.8,-296.13C621.33,-282.71 686.52,-257.35 721.1,-243.9"/>
</g>
<!-- 23 -->
<g id="node25" class="node">
<title>23</title>
<ellipse fill="none" stroke="black" cx="528" cy="-162" rx="27" ry="18"/>
<text text-anchor="middle" x="528" y="-156.95" font-family="Times,serif" font-size="14.00">*</text>
</g>
<!-- 27&#45;&#45;23 -->
<g id="edge24" class="edge">
<title>27&#45;&#45;23</title>
<path fill="none" stroke="black" d="M555.65,-216.76C549.83,-205.46 542.11,-190.44 536.3,-179.15"/>
</g>
<!-- 26 -->
<g id="node28" class="node">
<title>26</title>
<ellipse fill="none" stroke="black" cx="600" cy="-162" rx="27" ry="18"/>
<text text-anchor="middle" x="600" y="-156.95" font-family="Times,serif" font-size="14.00">^</text>
</g>
<!-- 27&#45;&#45;26 -->
<g id="edge27" class="edge">
<title>27&#45;&#45;26</title>
<path fill="none" stroke="black" d="M572.35,-216.76C578.17,-205.46 585.89,-190.44 591.7,-179.15"/>
</g>
<!-- 21 -->
<g id="node26" class="node">
<title>21</title>
<ellipse fill="none" stroke="black" cx="456" cy="-90" rx="27" ry="18"/>
<text text-anchor="middle" x="456" y="-84.95" font-family="Times,serif" font-size="14.00">q</text>
</g>
<!-- 23&#45;&#45;21 -->
<g id="edge25" class="edge">
<title>23&#45;&#45;21</title>
<path fill="none" stroke="black" d="M513.08,-146.5C500.72,-134.48 483.25,-117.49 470.9,-105.49"/>
</g>
<!-- 22 -->
<g id="node27" class="node">
<title>22</title>
<ellipse fill="none" stroke="black" cx="528" cy="-90" rx="27" ry="18"/>
<text text-anchor="middle" x="528" y="-84.95" font-family="Times,serif" font-size="14.00">d</text>
</g>
<!-- 23&#45;&#45;22 -->
<g id="edge26" class="edge">
<title>23&#45;&#45;22</title>
<path fill="none" stroke="black" d="M528,-143.7C528,-132.85 528,-118.92 528,-108.1"/>
</g>
<!-- 24 -->
<g id="node29" class="node">
<title>24</title>
<ellipse fill="none" stroke="black" cx="600" cy="-90" rx="27" ry="18"/>
<text text-anchor="middle" x="600" y="-84.95" font-family="Times,serif" font-size="14.00">y</text>
</g>
<!-- 26&#45;&#45;24 -->
<g id="edge28" class="edge">
<title>26&#45;&#45;24</title>
<path fill="none" stroke="black" d="M600,-143.7C600,-132.85 600,-118.92 600,-108.1"/>
</g>
<!-- 25 -->
<g id="node30" class="node">
<title>25</title>
<ellipse fill="none" stroke="black" cx="672" cy="-90" rx="27" ry="18"/>
<text text-anchor="middle" x="672" y="-84.95" font-family="Times,serif" font-size="14.00">3</text>
</g>
<!-- 26&#45;&#45;25 -->
<g id="edge29" class="edge">
<title>26&#45;&#45;25</title>
<path fill="none" stroke="black" d="M614.92,-146.5C627.28,-134.48 644.75,-117.49 657.1,-105.49"/>
</g>
<!-- 34 -->
<g id="node32" class="node">
<title>34</title>
<ellipse fill="none" stroke="black" cx="744" cy="-162" rx="27" ry="18"/>
<text text-anchor="middle" x="744" y="-156.95" font-family="Times,serif" font-size="14.00">&#45;</text>
</g>
<!-- 36&#45;&#45;34 -->
<g id="edge31" class="edge">
<title>36&#45;&#45;34</title>
<path fill="none" stroke="black" d="M744,-215.7C744,-204.85 744,-190.92 744,-180.1"/>
</g>
<!-- 35 -->
<g id="node39" class="node">
<title>35</title>
<ellipse fill="none" stroke="black" cx="816" cy="-162" rx="27" ry="18"/>
<text text-anchor="middle" x="816" y="-156.95" font-family="Times,serif" font-size="14.00">2</text>
</g>
<!-- 36&#45;&#45;35 -->
<g id="edge38" class="edge">
<title>36&#45;&#45;35</title>
<path fill="none" stroke="black" d="M758.92,-218.5C771.28,-206.48 788.75,-189.49 801.1,-177.49"/>
</g>
<!-- 30 -->
<g id="node33" class="node">
<title>30</title>
<ellipse fill="none" stroke="black" cx="744" cy="-90" rx="27" ry="18"/>
<text text-anchor="middle" x="744" y="-84.95" font-family="Times,serif" font-size="14.00">^</text>
</g>
<!-- 34&#45;&#45;30 -->
<g id="edge32" class="edge">
<title>34&#45;&#45;30</title>
<path fill="none" stroke="black" d="M744,-143.7C744,-132.85 744,-118.92 744,-108.1"/>
</g>
<!-- 33 -->
<g id="node36" class="node">
<title>33</title>
<ellipse fill="none" stroke="black" cx="816" cy="-90" rx="27" ry="18"/>
<text text-anchor="middle" x="816" y="-84.95" font-family="Times,serif" font-size="14.00">^</text>
</g>
<!-- 34&#45;&#45;33 -->
<g id="edge35" class="edge">
<title>34&#45;&#45;33</title>
<path fill="none" stroke="black" d="M758.92,-146.5C771.28,-134.48 788.75,-117.49 801.1,-105.49"/>
</g>
<!-- 28 -->
<g id="node34" class="node">
<title>28</title>
<ellipse fill="none" stroke="black" cx="672" cy="-18" rx="27" ry="18"/>
<text text-anchor="middle" x="672" y="-12.95" font-family="Times,serif" font-size="14.00">y</text>
</g>
<!-- 30&#45;&#45;28 -->
<g id="edge33" class="edge">
<title>30&#45;&#45;28</title>
<path fill="none" stroke="black" d="M729.08,-74.5C716.72,-62.48 699.25,-45.49 686.9,-33.49"/>
</g>
<!-- 29 -->
<g id="node35" class="node">
<title>29</title>
<ellipse fill="none" stroke="black" cx="744" cy="-18" rx="27" ry="18"/>
<text text-anchor="middle" x="744" y="-12.95" font-family="Times,serif" font-size="14.00">2</text>
</g>
<!-- 30&#45;&#45;29 -->
<g id="edge34" class="edge">
<title>30&#45;&#45;29</title>
<path fill="none" stroke="black" d="M744,-71.7C744,-60.85 744,-46.92 744,-36.1"/>
</g>
<!-- 31 -->
<g id="node37" class="node">
<title>31</title>
<ellipse fill="none" stroke="black" cx="816" cy="-18" rx="27" ry="18"/>
<text text-anchor="middle" x="816" y="-12.95" font-family="Times,serif" font-size="14.00">d</text>
</g>
<!-- 33&#45;&#45;31 -->
<g id="edge36" class="edge">
<title>33&#45;&#45;31</title>
<path fill="none" stroke="black" d="M816,-71.7C816,-60.85 816,-46.92 816,-36.1"/>
</g>
<!-- 32 -->
<g id="node38" class="node">
<title>32</title>
<ellipse fill="none" stroke="black" cx="888" cy="-18" rx="27" ry="18"/>
<text text-anchor="middle" x="888" y="-12.95" font-family="Times,serif" font-size="14.00">2</text>
</g>
<!-- 33&#45;&#45;32 -->
<g id="edge37" class="edge">
<title>33&#45;&#45;32</title>
<path fill="none" stroke="black" d="M830.92,-74.5C843.28,-62.48 860.75,-45.49 873.1,-33.49"/>
</g>
</g>
</svg>
