<?xml version="1.0" encoding="UTF-8" standalone="no"?>
<!DOCTYPE svg PUBLIC "-//W3C//DTD SVG 1.1//EN"
 "http://www.w3.org/Graphics/SVG/1.1/DTD/svg11.dtd">
<!-- Generated by graphviz version 9.0.0 (20230911.1827)
 -->
<!-- Title: G Pages: 1 -->
<svg width="210pt" height="357pt"
 viewBox="0.00 0.00 209.83 356.50" xmlns="http://www.w3.org/2000/svg" xmlns:xlink="http://www.w3.org/1999/xlink">
<g id="graph0" class="graph" transform="scale(1 1) rotate(0) translate(4 352.5)">
<title>G</title>
<polygon fill="white" stroke="none" points="-4,4 -4,-352.5 205.83,-352.5 205.83,4 -4,4"/>
<text text-anchor="middle" x="100.92" y="-331.2" font-family="Times,serif" font-size="14.00">q*(Ef+B*v*sin(theta)), depth = 4</text>
<!-- 10 -->
<g id="node1" class="node">
<title>10</title>
<ellipse fill="none" stroke="black" cx="64" cy="-306" rx="27" ry="18"/>
<text text-anchor="middle" x="64" y="-300.95" font-family="Times,serif" font-size="14.00">*</text>
</g>
<!-- 1 -->
<g id="node2" class="node">
<title>1</title>
<ellipse fill="none" stroke="black" cx="28" cy="-234" rx="27" ry="18"/>
<text text-anchor="middle" x="28" y="-228.95" font-family="Times,serif" font-size="14.00">q</text>
</g>
<!-- 10&#45;&#45;1 -->
<g id="edge1" class="edge">
<title>10&#45;&#45;1</title>
<path fill="none" stroke="black" d="M55.65,-288.76C49.83,-277.46 42.11,-262.44 36.3,-251.15"/>
</g>
<!-- 9 -->
<g id="node3" class="node">
<title>9</title>
<ellipse fill="none" stroke="black" cx="100" cy="-234" rx="27" ry="18"/>
<text text-anchor="middle" x="100" y="-228.95" font-family="Times,serif" font-size="14.00">+</text>
</g>
<!-- 10&#45;&#45;9 -->
<g id="edge2" class="edge">
<title>10&#45;&#45;9</title>
<path fill="none" stroke="black" d="M72.35,-288.76C78.17,-277.46 85.89,-262.44 91.7,-251.15"/>
</g>
<!-- 2 -->
<g id="node4" class="node">
<title>2</title>
<ellipse fill="none" stroke="black" cx="64" cy="-162" rx="27" ry="18"/>
<text text-anchor="middle" x="64" y="-156.95" font-family="Times,serif" font-size="14.00">Ef</text>
</g>
<!-- 9&#45;&#45;2 -->
<g id="edge3" class="edge">
<title>9&#45;&#45;2</title>
<path fill="none" stroke="black" d="M91.65,-216.76C85.83,-205.46 78.11,-190.44 72.3,-179.15"/>
</g>
<!-- 8 -->
<g id="node5" class="node">
<title>8</title>
<ellipse fill="none" stroke="black" cx="136" cy="-162" rx="27" ry="18"/>
<text text-anchor="middle" x="136" y="-156.95" font-family="Times,serif" font-size="14.00">*</text>
</g>
<!-- 9&#45;&#45;8 -->
<g id="edge4" class="edge">
<title>9&#45;&#45;8</title>
<path fill="none" stroke="black" d="M108.35,-216.76C114.17,-205.46 121.89,-190.44 127.7,-179.15"/>
</g>
<!-- 5 -->
<g id="node6" class="node">
<title>5</title>
<ellipse fill="none" stroke="black" cx="99" cy="-90" rx="27" ry="18"/>
<text text-anchor="middle" x="99" y="-84.95" font-family="Times,serif" font-size="14.00">*</text>
</g>
<!-- 8&#45;&#45;5 -->
<g id="edge5" class="edge">
<title>8&#45;&#45;5</title>
<path fill="none" stroke="black" d="M127.42,-144.76C121.44,-133.46 113.5,-118.44 107.54,-107.15"/>
</g>
<!-- 7 -->
<g id="node9" class="node">
<title>7</title>
<ellipse fill="none" stroke="black" cx="172" cy="-90" rx="27" ry="18"/>
<text text-anchor="middle" x="172" y="-84.95" font-family="Times,serif" font-size="14.00">sin</text>
</g>
<!-- 8&#45;&#45;7 -->
<g id="edge8" class="edge">
<title>8&#45;&#45;7</title>
<path fill="none" stroke="black" d="M144.35,-144.76C150.17,-133.46 157.89,-118.44 163.7,-107.15"/>
</g>
<!-- 3 -->
<g id="node7" class="node">
<title>3</title>
<ellipse fill="none" stroke="black" cx="27" cy="-18" rx="27" ry="18"/>
<text text-anchor="middle" x="27" y="-12.95" font-family="Times,serif" font-size="14.00">B</text>
</g>
<!-- 5&#45;&#45;3 -->
<g id="edge6" class="edge">
<title>5&#45;&#45;3</title>
<path fill="none" stroke="black" d="M84.08,-74.5C71.72,-62.48 54.25,-45.49 41.9,-33.49"/>
</g>
<!-- 4 -->
<g id="node8" class="node">
<title>4</title>
<ellipse fill="none" stroke="black" cx="99" cy="-18" rx="27" ry="18"/>
<text text-anchor="middle" x="99" y="-12.95" font-family="Times,serif" font-size="14.00">v</text>
</g>
<!-- 5&#45;&#45;4 -->
<g id="edge7" class="edge">
<title>5&#45;&#45;4</title>
<path fill="none" stroke="black" d="M99,-71.7C99,-60.85 99,-46.92 99,-36.1"/>
</g>
<!-- 6 -->
<g id="node10" class="node">
<title>6</title>
<ellipse fill="none" stroke="black" cx="173" cy="-18" rx="28.83" ry="18"/>
<text text-anchor="middle" x="173" y="-12.95" font-family="Times,serif" font-size="14.00">theta</text>
</g>
<!-- 7&#45;&#45;6 -->
<g id="edge9" class="edge">
<title>7&#45;&#45;6</title>
<path fill="none" stroke="black" d="M172.25,-71.7C172.4,-60.85 172.6,-46.92 172.76,-36.1"/>
</g>
</g>
</svg>
