<?xml version="1.0" encoding="UTF-8" standalone="no"?>
<!DOCTYPE svg PUBLIC "-//W3C//DTD SVG 1.1//EN"
 "http://www.w3.org/Graphics/SVG/1.1/DTD/svg11.dtd">
<!-- Generated by graphviz version 9.0.0 (20230911.1827)
 -->
<!-- Title: G Pages: 1 -->
<svg width="375pt" height="429pt"
 viewBox="0.00 0.00 374.88 428.50" xmlns="http://www.w3.org/2000/svg" xmlns:xlink="http://www.w3.org/1999/xlink">
<g id="graph0" class="graph" transform="scale(1 1) rotate(0) translate(4 424.5)">
<title>G</title>
<polygon fill="white" stroke="none" points="-4,4 -4,-424.5 370.88,-424.5 370.88,4 -4,4"/>
<text text-anchor="middle" x="183.44" y="-403.2" font-family="Times,serif" font-size="14.00">arccos((cos(theta2)&#45;v/c)/(1&#45;v/c*cos(theta2))), depth = 5</text>
<!-- 16 -->
<g id="node1" class="node">
<title>16</title>
<ellipse fill="none" stroke="black" cx="147.44" cy="-378" rx="34.46" ry="18"/>
<text text-anchor="middle" x="147.44" y="-372.95" font-family="Times,serif" font-size="14.00">arccos</text>
</g>
<!-- 15 -->
<g id="node2" class="node">
<title>15</title>
<ellipse fill="none" stroke="black" cx="147.44" cy="-306" rx="27" ry="18"/>
<text text-anchor="middle" x="147.44" y="-300.95" font-family="Times,serif" font-size="14.00">/</text>
</g>
<!-- 16&#45;&#45;15 -->
<g id="edge1" class="edge">
<title>16&#45;&#45;15</title>
<path fill="none" stroke="black" d="M147.44,-359.7C147.44,-348.85 147.44,-334.92 147.44,-324.1"/>
</g>
<!-- 6 -->
<g id="node3" class="node">
<title>6</title>
<ellipse fill="none" stroke="black" cx="111.44" cy="-234" rx="27" ry="18"/>
<text text-anchor="middle" x="111.44" y="-228.95" font-family="Times,serif" font-size="14.00">&#45;</text>
</g>
<!-- 15&#45;&#45;6 -->
<g id="edge2" class="edge">
<title>15&#45;&#45;6</title>
<path fill="none" stroke="black" d="M139.09,-288.76C133.27,-277.46 125.55,-262.44 119.74,-251.15"/>
</g>
<!-- 14 -->
<g id="node9" class="node">
<title>14</title>
<ellipse fill="none" stroke="black" cx="183.44" cy="-234" rx="27" ry="18"/>
<text text-anchor="middle" x="183.44" y="-228.95" font-family="Times,serif" font-size="14.00">&#45;</text>
</g>
<!-- 15&#45;&#45;14 -->
<g id="edge8" class="edge">
<title>15&#45;&#45;14</title>
<path fill="none" stroke="black" d="M155.79,-288.76C161.6,-277.46 169.33,-262.44 175.13,-251.15"/>
</g>
<!-- 2 -->
<g id="node4" class="node">
<title>2</title>
<ellipse fill="none" stroke="black" cx="36.44" cy="-162" rx="27" ry="18"/>
<text text-anchor="middle" x="36.44" y="-156.95" font-family="Times,serif" font-size="14.00">cos</text>
</g>
<!-- 6&#45;&#45;2 -->
<g id="edge3" class="edge">
<title>6&#45;&#45;2</title>
<path fill="none" stroke="black" d="M96.26,-218.83C83.25,-206.69 64.6,-189.28 51.59,-177.14"/>
</g>
<!-- 5 -->
<g id="node6" class="node">
<title>5</title>
<ellipse fill="none" stroke="black" cx="111.44" cy="-162" rx="27" ry="18"/>
<text text-anchor="middle" x="111.44" y="-156.95" font-family="Times,serif" font-size="14.00">/</text>
</g>
<!-- 6&#45;&#45;5 -->
<g id="edge5" class="edge">
<title>6&#45;&#45;5</title>
<path fill="none" stroke="black" d="M111.44,-215.7C111.44,-204.85 111.44,-190.92 111.44,-180.1"/>
</g>
<!-- 1 -->
<g id="node5" class="node">
<title>1</title>
<ellipse fill="none" stroke="black" cx="33.44" cy="-90" rx="33.44" ry="18"/>
<text text-anchor="middle" x="33.44" y="-84.95" font-family="Times,serif" font-size="14.00">theta2</text>
</g>
<!-- 2&#45;&#45;1 -->
<g id="edge4" class="edge">
<title>2&#45;&#45;1</title>
<path fill="none" stroke="black" d="M35.7,-143.7C35.23,-132.85 34.63,-118.92 34.17,-108.1"/>
</g>
<!-- 3 -->
<g id="node7" class="node">
<title>3</title>
<ellipse fill="none" stroke="black" cx="111.44" cy="-90" rx="27" ry="18"/>
<text text-anchor="middle" x="111.44" y="-84.95" font-family="Times,serif" font-size="14.00">v</text>
</g>
<!-- 5&#45;&#45;3 -->
<g id="edge6" class="edge">
<title>5&#45;&#45;3</title>
<path fill="none" stroke="black" d="M111.44,-143.7C111.44,-132.85 111.44,-118.92 111.44,-108.1"/>
</g>
<!-- 4 -->
<g id="node8" class="node">
<title>4</title>
<ellipse fill="none" stroke="black" cx="183.44" cy="-90" rx="27" ry="18"/>
<text text-anchor="middle" x="183.44" y="-84.95" font-family="Times,serif" font-size="14.00">c</text>
</g>
<!-- 5&#45;&#45;4 -->
<g id="edge7" class="edge">
<title>5&#45;&#45;4</title>
<path fill="none" stroke="black" d="M126.36,-146.5C138.71,-134.48 156.19,-117.49 168.54,-105.49"/>
</g>
<!-- 7 -->
<g id="node10" class="node">
<title>7</title>
<ellipse fill="none" stroke="black" cx="183.44" cy="-162" rx="27" ry="18"/>
<text text-anchor="middle" x="183.44" y="-156.95" font-family="Times,serif" font-size="14.00">1</text>
</g>
<!-- 14&#45;&#45;7 -->
<g id="edge9" class="edge">
<title>14&#45;&#45;7</title>
<path fill="none" stroke="black" d="M183.44,-215.7C183.44,-204.85 183.44,-190.92 183.44,-180.1"/>
</g>
<!-- 13 -->
<g id="node11" class="node">
<title>13</title>
<ellipse fill="none" stroke="black" cx="255.44" cy="-162" rx="27" ry="18"/>
<text text-anchor="middle" x="255.44" y="-156.95" font-family="Times,serif" font-size="14.00">*</text>
</g>
<!-- 14&#45;&#45;13 -->
<g id="edge10" class="edge">
<title>14&#45;&#45;13</title>
<path fill="none" stroke="black" d="M198.36,-218.5C210.71,-206.48 228.19,-189.49 240.54,-177.49"/>
</g>
<!-- 10 -->
<g id="node12" class="node">
<title>10</title>
<ellipse fill="none" stroke="black" cx="255.44" cy="-90" rx="27" ry="18"/>
<text text-anchor="middle" x="255.44" y="-84.95" font-family="Times,serif" font-size="14.00">/</text>
</g>
<!-- 13&#45;&#45;10 -->
<g id="edge11" class="edge">
<title>13&#45;&#45;10</title>
<path fill="none" stroke="black" d="M255.44,-143.7C255.44,-132.85 255.44,-118.92 255.44,-108.1"/>
</g>
<!-- 12 -->
<g id="node15" class="node">
<title>12</title>
<ellipse fill="none" stroke="black" cx="330.44" cy="-90" rx="27" ry="18"/>
<text text-anchor="middle" x="330.44" y="-84.95" font-family="Times,serif" font-size="14.00">cos</text>
</g>
<!-- 13&#45;&#45;12 -->
<g id="edge14" class="edge">
<title>13&#45;&#45;12</title>
<path fill="none" stroke="black" d="M270.62,-146.83C283.63,-134.69 302.28,-117.28 315.28,-105.14"/>
</g>
<!-- 8 -->
<g id="node13" class="node">
<title>8</title>
<ellipse fill="none" stroke="black" cx="183.44" cy="-18" rx="27" ry="18"/>
<text text-anchor="middle" x="183.44" y="-12.95" font-family="Times,serif" font-size="14.00">v</text>
</g>
<!-- 10&#45;&#45;8 -->
<g id="edge12" class="edge">
<title>10&#45;&#45;8</title>
<path fill="none" stroke="black" d="M240.52,-74.5C228.16,-62.48 210.69,-45.49 198.34,-33.49"/>
</g>
<!-- 9 -->
<g id="node14" class="node">
<title>9</title>
<ellipse fill="none" stroke="black" cx="255.44" cy="-18" rx="27" ry="18"/>
<text text-anchor="middle" x="255.44" y="-12.95" font-family="Times,serif" font-size="14.00">c</text>
</g>
<!-- 10&#45;&#45;9 -->
<g id="edge13" class="edge">
<title>10&#45;&#45;9</title>
<path fill="none" stroke="black" d="M255.44,-71.7C255.44,-60.85 255.44,-46.92 255.44,-36.1"/>
</g>
<!-- 11 -->
<g id="node16" class="node">
<title>11</title>
<ellipse fill="none" stroke="black" cx="333.44" cy="-18" rx="33.44" ry="18"/>
<text text-anchor="middle" x="333.44" y="-12.95" font-family="Times,serif" font-size="14.00">theta2</text>
</g>
<!-- 12&#45;&#45;11 -->
<g id="edge15" class="edge">
<title>12&#45;&#45;11</title>
<path fill="none" stroke="black" d="M331.18,-71.7C331.64,-60.85 332.24,-46.92 332.71,-36.1"/>
</g>
</g>
</svg>
