<?xml version="1.0" encoding="UTF-8" standalone="no"?>
<!DOCTYPE svg PUBLIC "-//W3C//DTD SVG 1.1//EN"
 "http://www.w3.org/Graphics/SVG/1.1/DTD/svg11.dtd">
<!-- Generated by graphviz version 9.0.0 (20230911.1827)
 -->
<!-- Title: G Pages: 1 -->
<svg width="399pt" height="501pt"
 viewBox="0.00 0.00 398.83 500.50" xmlns="http://www.w3.org/2000/svg" xmlns:xlink="http://www.w3.org/1999/xlink">
<g id="graph0" class="graph" transform="scale(1 1) rotate(0) translate(4 496.5)">
<title>G</title>
<polygon fill="white" stroke="none" points="-4,4 -4,-496.5 394.83,-496.5 394.83,4 -4,4"/>
<text text-anchor="middle" x="195.42" y="-475.2" font-family="Times,serif" font-size="14.00">sqrt(1&#45;v**2/c**2)*omega/(1+v/c*cos(theta)), depth = 6</text>
<!-- 21 -->
<g id="node1" class="node">
<title>21</title>
<ellipse fill="none" stroke="black" cx="216" cy="-450" rx="27" ry="18"/>
<text text-anchor="middle" x="216" y="-444.95" font-family="Times,serif" font-size="14.00">/</text>
</g>
<!-- 12 -->
<g id="node2" class="node">
<title>12</title>
<ellipse fill="none" stroke="black" cx="176" cy="-378" rx="27" ry="18"/>
<text text-anchor="middle" x="176" y="-372.95" font-family="Times,serif" font-size="14.00">*</text>
</g>
<!-- 21&#45;&#45;12 -->
<g id="edge1" class="edge">
<title>21&#45;&#45;12</title>
<path fill="none" stroke="black" d="M206.72,-432.76C200.26,-421.46 191.68,-406.44 185.23,-395.15"/>
</g>
<!-- 20 -->
<g id="node14" class="node">
<title>20</title>
<ellipse fill="none" stroke="black" cx="257" cy="-378" rx="27" ry="18"/>
<text text-anchor="middle" x="257" y="-372.95" font-family="Times,serif" font-size="14.00">+</text>
</g>
<!-- 21&#45;&#45;20 -->
<g id="edge13" class="edge">
<title>21&#45;&#45;20</title>
<path fill="none" stroke="black" d="M225.51,-432.76C232.13,-421.46 240.93,-406.44 247.54,-395.15"/>
</g>
<!-- 10 -->
<g id="node3" class="node">
<title>10</title>
<ellipse fill="none" stroke="black" cx="95" cy="-306" rx="27" ry="18"/>
<text text-anchor="middle" x="95" y="-300.95" font-family="Times,serif" font-size="14.00">sqrt</text>
</g>
<!-- 12&#45;&#45;10 -->
<g id="edge2" class="edge">
<title>12&#45;&#45;10</title>
<path fill="none" stroke="black" d="M160,-363.17C145.8,-350.9 125.16,-333.06 110.97,-320.8"/>
</g>
<!-- 11 -->
<g id="node13" class="node">
<title>11</title>
<ellipse fill="none" stroke="black" cx="176" cy="-306" rx="36" ry="18"/>
<text text-anchor="middle" x="176" y="-300.95" font-family="Times,serif" font-size="14.00">omega</text>
</g>
<!-- 12&#45;&#45;11 -->
<g id="edge12" class="edge">
<title>12&#45;&#45;11</title>
<path fill="none" stroke="black" d="M176,-359.7C176,-348.85 176,-334.92 176,-324.1"/>
</g>
<!-- 9 -->
<g id="node4" class="node">
<title>9</title>
<ellipse fill="none" stroke="black" cx="95" cy="-234" rx="27" ry="18"/>
<text text-anchor="middle" x="95" y="-228.95" font-family="Times,serif" font-size="14.00">&#45;</text>
</g>
<!-- 10&#45;&#45;9 -->
<g id="edge3" class="edge">
<title>10&#45;&#45;9</title>
<path fill="none" stroke="black" d="M95,-287.7C95,-276.85 95,-262.92 95,-252.1"/>
</g>
<!-- 1 -->
<g id="node5" class="node">
<title>1</title>
<ellipse fill="none" stroke="black" cx="63" cy="-162" rx="27" ry="18"/>
<text text-anchor="middle" x="63" y="-156.95" font-family="Times,serif" font-size="14.00">1</text>
</g>
<!-- 9&#45;&#45;1 -->
<g id="edge4" class="edge">
<title>9&#45;&#45;1</title>
<path fill="none" stroke="black" d="M87.42,-216.41C82.32,-205.25 75.62,-190.6 70.53,-179.47"/>
</g>
<!-- 8 -->
<g id="node6" class="node">
<title>8</title>
<ellipse fill="none" stroke="black" cx="135" cy="-162" rx="27" ry="18"/>
<text text-anchor="middle" x="135" y="-156.95" font-family="Times,serif" font-size="14.00">/</text>
</g>
<!-- 9&#45;&#45;8 -->
<g id="edge5" class="edge">
<title>9&#45;&#45;8</title>
<path fill="none" stroke="black" d="M104.28,-216.76C110.74,-205.46 119.32,-190.44 125.77,-179.15"/>
</g>
<!-- 4 -->
<g id="node7" class="node">
<title>4</title>
<ellipse fill="none" stroke="black" cx="99" cy="-90" rx="27" ry="18"/>
<text text-anchor="middle" x="99" y="-84.95" font-family="Times,serif" font-size="14.00">^</text>
</g>
<!-- 8&#45;&#45;4 -->
<g id="edge6" class="edge">
<title>8&#45;&#45;4</title>
<path fill="none" stroke="black" d="M126.65,-144.76C120.83,-133.46 113.11,-118.44 107.3,-107.15"/>
</g>
<!-- 7 -->
<g id="node10" class="node">
<title>7</title>
<ellipse fill="none" stroke="black" cx="171" cy="-90" rx="27" ry="18"/>
<text text-anchor="middle" x="171" y="-84.95" font-family="Times,serif" font-size="14.00">^</text>
</g>
<!-- 8&#45;&#45;7 -->
<g id="edge9" class="edge">
<title>8&#45;&#45;7</title>
<path fill="none" stroke="black" d="M143.35,-144.76C149.17,-133.46 156.89,-118.44 162.7,-107.15"/>
</g>
<!-- 2 -->
<g id="node8" class="node">
<title>2</title>
<ellipse fill="none" stroke="black" cx="27" cy="-18" rx="27" ry="18"/>
<text text-anchor="middle" x="27" y="-12.95" font-family="Times,serif" font-size="14.00">v</text>
</g>
<!-- 4&#45;&#45;2 -->
<g id="edge7" class="edge">
<title>4&#45;&#45;2</title>
<path fill="none" stroke="black" d="M84.08,-74.5C71.72,-62.48 54.25,-45.49 41.9,-33.49"/>
</g>
<!-- 3 -->
<g id="node9" class="node">
<title>3</title>
<ellipse fill="none" stroke="black" cx="99" cy="-18" rx="27" ry="18"/>
<text text-anchor="middle" x="99" y="-12.95" font-family="Times,serif" font-size="14.00">2</text>
</g>
<!-- 4&#45;&#45;3 -->
<g id="edge8" class="edge">
<title>4&#45;&#45;3</title>
<path fill="none" stroke="black" d="M99,-71.7C99,-60.85 99,-46.92 99,-36.1"/>
</g>
<!-- 5 -->
<g id="node11" class="node">
<title>5</title>
<ellipse fill="none" stroke="black" cx="171" cy="-18" rx="27" ry="18"/>
<text text-anchor="middle" x="171" y="-12.95" font-family="Times,serif" font-size="14.00">c</text>
</g>
<!-- 7&#45;&#45;5 -->
<g id="edge10" class="edge">
<title>7&#45;&#45;5</title>
<path fill="none" stroke="black" d="M171,-71.7C171,-60.85 171,-46.92 171,-36.1"/>
</g>
<!-- 6 -->
<g id="node12" class="node">
<title>6</title>
<ellipse fill="none" stroke="black" cx="243" cy="-18" rx="27" ry="18"/>
<text text-anchor="middle" x="243" y="-12.95" font-family="Times,serif" font-size="14.00">2</text>
</g>
<!-- 7&#45;&#45;6 -->
<g id="edge11" class="edge">
<title>7&#45;&#45;6</title>
<path fill="none" stroke="black" d="M185.92,-74.5C198.28,-62.48 215.75,-45.49 228.1,-33.49"/>
</g>
<!-- 13 -->
<g id="node15" class="node">
<title>13</title>
<ellipse fill="none" stroke="black" cx="257" cy="-306" rx="27" ry="18"/>
<text text-anchor="middle" x="257" y="-300.95" font-family="Times,serif" font-size="14.00">1</text>
</g>
<!-- 20&#45;&#45;13 -->
<g id="edge14" class="edge">
<title>20&#45;&#45;13</title>
<path fill="none" stroke="black" d="M257,-359.7C257,-348.85 257,-334.92 257,-324.1"/>
</g>
<!-- 19 -->
<g id="node16" class="node">
<title>19</title>
<ellipse fill="none" stroke="black" cx="329" cy="-306" rx="27" ry="18"/>
<text text-anchor="middle" x="329" y="-300.95" font-family="Times,serif" font-size="14.00">*</text>
</g>
<!-- 20&#45;&#45;19 -->
<g id="edge15" class="edge">
<title>20&#45;&#45;19</title>
<path fill="none" stroke="black" d="M271.92,-362.5C284.28,-350.48 301.75,-333.49 314.1,-321.49"/>
</g>
<!-- 16 -->
<g id="node17" class="node">
<title>16</title>
<ellipse fill="none" stroke="black" cx="288" cy="-234" rx="27" ry="18"/>
<text text-anchor="middle" x="288" y="-228.95" font-family="Times,serif" font-size="14.00">/</text>
</g>
<!-- 19&#45;&#45;16 -->
<g id="edge16" class="edge">
<title>19&#45;&#45;16</title>
<path fill="none" stroke="black" d="M319.49,-288.76C312.87,-277.46 304.07,-262.44 297.46,-251.15"/>
</g>
<!-- 18 -->
<g id="node20" class="node">
<title>18</title>
<ellipse fill="none" stroke="black" cx="361" cy="-234" rx="27" ry="18"/>
<text text-anchor="middle" x="361" y="-228.95" font-family="Times,serif" font-size="14.00">cos</text>
</g>
<!-- 19&#45;&#45;18 -->
<g id="edge19" class="edge">
<title>19&#45;&#45;18</title>
<path fill="none" stroke="black" d="M336.58,-288.41C341.68,-277.25 348.38,-262.6 353.47,-251.47"/>
</g>
<!-- 14 -->
<g id="node18" class="node">
<title>14</title>
<ellipse fill="none" stroke="black" cx="216" cy="-162" rx="27" ry="18"/>
<text text-anchor="middle" x="216" y="-156.95" font-family="Times,serif" font-size="14.00">v</text>
</g>
<!-- 16&#45;&#45;14 -->
<g id="edge17" class="edge">
<title>16&#45;&#45;14</title>
<path fill="none" stroke="black" d="M273.08,-218.5C260.72,-206.48 243.25,-189.49 230.9,-177.49"/>
</g>
<!-- 15 -->
<g id="node19" class="node">
<title>15</title>
<ellipse fill="none" stroke="black" cx="288" cy="-162" rx="27" ry="18"/>
<text text-anchor="middle" x="288" y="-156.95" font-family="Times,serif" font-size="14.00">c</text>
</g>
<!-- 16&#45;&#45;15 -->
<g id="edge18" class="edge">
<title>16&#45;&#45;15</title>
<path fill="none" stroke="black" d="M288,-215.7C288,-204.85 288,-190.92 288,-180.1"/>
</g>
<!-- 17 -->
<g id="node21" class="node">
<title>17</title>
<ellipse fill="none" stroke="black" cx="362" cy="-162" rx="28.83" ry="18"/>
<text text-anchor="middle" x="362" y="-156.95" font-family="Times,serif" font-size="14.00">theta</text>
</g>
<!-- 18&#45;&#45;17 -->
<g id="edge20" class="edge">
<title>18&#45;&#45;17</title>
<path fill="none" stroke="black" d="M361.25,-215.7C361.4,-204.85 361.6,-190.92 361.76,-180.1"/>
</g>
</g>
</svg>
