<?xml version="1.0" encoding="UTF-8" standalone="no"?>
<!DOCTYPE svg PUBLIC "-//W3C//DTD SVG 1.1//EN"
 "http://www.w3.org/Graphics/SVG/1.1/DTD/svg11.dtd">
<!-- Generated by graphviz version 9.0.0 (20230911.1827)
 -->
<!-- Title: G Pages: 1 -->
<svg width="697pt" height="645pt"
 viewBox="0.00 0.00 697.00 644.50" xmlns="http://www.w3.org/2000/svg" xmlns:xlink="http://www.w3.org/1999/xlink">
<g id="graph0" class="graph" transform="scale(1 1) rotate(0) translate(4 640.5)">
<title>G</title>
<polygon fill="white" stroke="none" points="-4,4 -4,-640.5 693,-640.5 693,4 -4,4"/>
<text text-anchor="middle" x="344.5" y="-619.2" font-family="Times,serif" font-size="14.00">h/(2*pi)*omega**3/(pi**2*c**2*(exp((h/(2*pi))*omega/(kb*T))&#45;1)), depth = 8</text>
<!-- 32 -->
<g id="node1" class="node">
<title>32</title>
<ellipse fill="none" stroke="black" cx="294" cy="-594" rx="27" ry="18"/>
<text text-anchor="middle" x="294" y="-588.95" font-family="Times,serif" font-size="14.00">/</text>
</g>
<!-- 9 -->
<g id="node2" class="node">
<title>9</title>
<ellipse fill="none" stroke="black" cx="218" cy="-522" rx="27" ry="18"/>
<text text-anchor="middle" x="218" y="-516.95" font-family="Times,serif" font-size="14.00">*</text>
</g>
<!-- 32&#45;&#45;9 -->
<g id="edge1" class="edge">
<title>32&#45;&#45;9</title>
<path fill="none" stroke="black" d="M278.62,-578.83C265.43,-566.69 246.54,-549.28 233.36,-537.14"/>
</g>
<!-- 31 -->
<g id="node11" class="node">
<title>31</title>
<ellipse fill="none" stroke="black" cx="369" cy="-522" rx="27" ry="18"/>
<text text-anchor="middle" x="369" y="-516.95" font-family="Times,serif" font-size="14.00">*</text>
</g>
<!-- 32&#45;&#45;31 -->
<g id="edge10" class="edge">
<title>32&#45;&#45;31</title>
<path fill="none" stroke="black" d="M309.18,-578.83C322.19,-566.69 340.84,-549.28 353.85,-537.14"/>
</g>
<!-- 5 -->
<g id="node3" class="node">
<title>5</title>
<ellipse fill="none" stroke="black" cx="99" cy="-450" rx="27" ry="18"/>
<text text-anchor="middle" x="99" y="-444.95" font-family="Times,serif" font-size="14.00">/</text>
</g>
<!-- 9&#45;&#45;5 -->
<g id="edge2" class="edge">
<title>9&#45;&#45;5</title>
<path fill="none" stroke="black" d="M198.08,-509.28C175.98,-496.28 140.55,-475.44 118.59,-462.52"/>
</g>
<!-- 8 -->
<g id="node8" class="node">
<title>8</title>
<ellipse fill="none" stroke="black" cx="218" cy="-450" rx="27" ry="18"/>
<text text-anchor="middle" x="218" y="-444.95" font-family="Times,serif" font-size="14.00">^</text>
</g>
<!-- 9&#45;&#45;8 -->
<g id="edge7" class="edge">
<title>9&#45;&#45;8</title>
<path fill="none" stroke="black" d="M218,-503.7C218,-492.85 218,-478.92 218,-468.1"/>
</g>
<!-- 1 -->
<g id="node4" class="node">
<title>1</title>
<ellipse fill="none" stroke="black" cx="27" cy="-378" rx="27" ry="18"/>
<text text-anchor="middle" x="27" y="-372.95" font-family="Times,serif" font-size="14.00">h</text>
</g>
<!-- 5&#45;&#45;1 -->
<g id="edge3" class="edge">
<title>5&#45;&#45;1</title>
<path fill="none" stroke="black" d="M84.08,-434.5C71.72,-422.48 54.25,-405.49 41.9,-393.49"/>
</g>
<!-- 4 -->
<g id="node5" class="node">
<title>4</title>
<ellipse fill="none" stroke="black" cx="99" cy="-378" rx="27" ry="18"/>
<text text-anchor="middle" x="99" y="-372.95" font-family="Times,serif" font-size="14.00">*</text>
</g>
<!-- 5&#45;&#45;4 -->
<g id="edge4" class="edge">
<title>5&#45;&#45;4</title>
<path fill="none" stroke="black" d="M99,-431.7C99,-420.85 99,-406.92 99,-396.1"/>
</g>
<!-- 2 -->
<g id="node6" class="node">
<title>2</title>
<ellipse fill="none" stroke="black" cx="63" cy="-306" rx="27" ry="18"/>
<text text-anchor="middle" x="63" y="-300.95" font-family="Times,serif" font-size="14.00">2</text>
</g>
<!-- 4&#45;&#45;2 -->
<g id="edge5" class="edge">
<title>4&#45;&#45;2</title>
<path fill="none" stroke="black" d="M90.65,-360.76C84.83,-349.46 77.11,-334.44 71.3,-323.15"/>
</g>
<!-- 3 -->
<g id="node7" class="node">
<title>3</title>
<ellipse fill="none" stroke="black" cx="135" cy="-306" rx="27" ry="18"/>
<text text-anchor="middle" x="135" y="-300.95" font-family="Times,serif" font-size="14.00">pi</text>
</g>
<!-- 4&#45;&#45;3 -->
<g id="edge6" class="edge">
<title>4&#45;&#45;3</title>
<path fill="none" stroke="black" d="M107.35,-360.76C113.17,-349.46 120.89,-334.44 126.7,-323.15"/>
</g>
<!-- 6 -->
<g id="node9" class="node">
<title>6</title>
<ellipse fill="none" stroke="black" cx="180" cy="-378" rx="36" ry="18"/>
<text text-anchor="middle" x="180" y="-372.95" font-family="Times,serif" font-size="14.00">omega</text>
</g>
<!-- 8&#45;&#45;6 -->
<g id="edge8" class="edge">
<title>8&#45;&#45;6</title>
<path fill="none" stroke="black" d="M209.19,-432.76C203.14,-421.62 195.13,-406.87 189.03,-395.63"/>
</g>
<!-- 7 -->
<g id="node10" class="node">
<title>7</title>
<ellipse fill="none" stroke="black" cx="261" cy="-378" rx="27" ry="18"/>
<text text-anchor="middle" x="261" y="-372.95" font-family="Times,serif" font-size="14.00">3</text>
</g>
<!-- 8&#45;&#45;7 -->
<g id="edge9" class="edge">
<title>8&#45;&#45;7</title>
<path fill="none" stroke="black" d="M227.97,-432.76C234.92,-421.46 244.15,-406.44 251.08,-395.15"/>
</g>
<!-- 16 -->
<g id="node12" class="node">
<title>16</title>
<ellipse fill="none" stroke="black" cx="369" cy="-450" rx="27" ry="18"/>
<text text-anchor="middle" x="369" y="-444.95" font-family="Times,serif" font-size="14.00">*</text>
</g>
<!-- 31&#45;&#45;16 -->
<g id="edge11" class="edge">
<title>31&#45;&#45;16</title>
<path fill="none" stroke="black" d="M369,-503.7C369,-492.85 369,-478.92 369,-468.1"/>
</g>
<!-- 30 -->
<g id="node19" class="node">
<title>30</title>
<ellipse fill="none" stroke="black" cx="513" cy="-450" rx="27" ry="18"/>
<text text-anchor="middle" x="513" y="-444.95" font-family="Times,serif" font-size="14.00">&#45;</text>
</g>
<!-- 31&#45;&#45;30 -->
<g id="edge18" class="edge">
<title>31&#45;&#45;30</title>
<path fill="none" stroke="black" d="M390.56,-510.52C417.86,-497.25 464.61,-474.52 491.76,-461.32"/>
</g>
<!-- 12 -->
<g id="node13" class="node">
<title>12</title>
<ellipse fill="none" stroke="black" cx="333" cy="-378" rx="27" ry="18"/>
<text text-anchor="middle" x="333" y="-372.95" font-family="Times,serif" font-size="14.00">^</text>
</g>
<!-- 16&#45;&#45;12 -->
<g id="edge12" class="edge">
<title>16&#45;&#45;12</title>
<path fill="none" stroke="black" d="M360.65,-432.76C354.83,-421.46 347.11,-406.44 341.3,-395.15"/>
</g>
<!-- 15 -->
<g id="node16" class="node">
<title>15</title>
<ellipse fill="none" stroke="black" cx="405" cy="-378" rx="27" ry="18"/>
<text text-anchor="middle" x="405" y="-372.95" font-family="Times,serif" font-size="14.00">^</text>
</g>
<!-- 16&#45;&#45;15 -->
<g id="edge15" class="edge">
<title>16&#45;&#45;15</title>
<path fill="none" stroke="black" d="M377.35,-432.76C383.17,-421.46 390.89,-406.44 396.7,-395.15"/>
</g>
<!-- 10 -->
<g id="node14" class="node">
<title>10</title>
<ellipse fill="none" stroke="black" cx="261" cy="-306" rx="27" ry="18"/>
<text text-anchor="middle" x="261" y="-300.95" font-family="Times,serif" font-size="14.00">pi</text>
</g>
<!-- 12&#45;&#45;10 -->
<g id="edge13" class="edge">
<title>12&#45;&#45;10</title>
<path fill="none" stroke="black" d="M318.08,-362.5C305.72,-350.48 288.25,-333.49 275.9,-321.49"/>
</g>
<!-- 11 -->
<g id="node15" class="node">
<title>11</title>
<ellipse fill="none" stroke="black" cx="333" cy="-306" rx="27" ry="18"/>
<text text-anchor="middle" x="333" y="-300.95" font-family="Times,serif" font-size="14.00">2</text>
</g>
<!-- 12&#45;&#45;11 -->
<g id="edge14" class="edge">
<title>12&#45;&#45;11</title>
<path fill="none" stroke="black" d="M333,-359.7C333,-348.85 333,-334.92 333,-324.1"/>
</g>
<!-- 13 -->
<g id="node17" class="node">
<title>13</title>
<ellipse fill="none" stroke="black" cx="405" cy="-306" rx="27" ry="18"/>
<text text-anchor="middle" x="405" y="-300.95" font-family="Times,serif" font-size="14.00">c</text>
</g>
<!-- 15&#45;&#45;13 -->
<g id="edge16" class="edge">
<title>15&#45;&#45;13</title>
<path fill="none" stroke="black" d="M405,-359.7C405,-348.85 405,-334.92 405,-324.1"/>
</g>
<!-- 14 -->
<g id="node18" class="node">
<title>14</title>
<ellipse fill="none" stroke="black" cx="477" cy="-306" rx="27" ry="18"/>
<text text-anchor="middle" x="477" y="-300.95" font-family="Times,serif" font-size="14.00">2</text>
</g>
<!-- 15&#45;&#45;14 -->
<g id="edge17" class="edge">
<title>15&#45;&#45;14</title>
<path fill="none" stroke="black" d="M419.92,-362.5C432.28,-350.48 449.75,-333.49 462.1,-321.49"/>
</g>
<!-- 28 -->
<g id="node20" class="node">
<title>28</title>
<ellipse fill="none" stroke="black" cx="513" cy="-378" rx="27" ry="18"/>
<text text-anchor="middle" x="513" y="-372.95" font-family="Times,serif" font-size="14.00">exp</text>
</g>
<!-- 30&#45;&#45;28 -->
<g id="edge19" class="edge">
<title>30&#45;&#45;28</title>
<path fill="none" stroke="black" d="M513,-431.7C513,-420.85 513,-406.92 513,-396.1"/>
</g>
<!-- 29 -->
<g id="node32" class="node">
<title>29</title>
<ellipse fill="none" stroke="black" cx="585" cy="-378" rx="27" ry="18"/>
<text text-anchor="middle" x="585" y="-372.95" font-family="Times,serif" font-size="14.00">1</text>
</g>
<!-- 30&#45;&#45;29 -->
<g id="edge31" class="edge">
<title>30&#45;&#45;29</title>
<path fill="none" stroke="black" d="M527.92,-434.5C540.28,-422.48 557.75,-405.49 570.1,-393.49"/>
</g>
<!-- 27 -->
<g id="node21" class="node">
<title>27</title>
<ellipse fill="none" stroke="black" cx="549" cy="-306" rx="27" ry="18"/>
<text text-anchor="middle" x="549" y="-300.95" font-family="Times,serif" font-size="14.00">/</text>
</g>
<!-- 28&#45;&#45;27 -->
<g id="edge20" class="edge">
<title>28&#45;&#45;27</title>
<path fill="none" stroke="black" d="M521.35,-360.76C527.17,-349.46 534.89,-334.44 540.7,-323.15"/>
</g>
<!-- 23 -->
<g id="node22" class="node">
<title>23</title>
<ellipse fill="none" stroke="black" cx="509" cy="-234" rx="27" ry="18"/>
<text text-anchor="middle" x="509" y="-228.95" font-family="Times,serif" font-size="14.00">*</text>
</g>
<!-- 27&#45;&#45;23 -->
<g id="edge21" class="edge">
<title>27&#45;&#45;23</title>
<path fill="none" stroke="black" d="M539.72,-288.76C533.26,-277.46 524.68,-262.44 518.23,-251.15"/>
</g>
<!-- 26 -->
<g id="node29" class="node">
<title>26</title>
<ellipse fill="none" stroke="black" cx="590" cy="-234" rx="27" ry="18"/>
<text text-anchor="middle" x="590" y="-228.95" font-family="Times,serif" font-size="14.00">*</text>
</g>
<!-- 27&#45;&#45;26 -->
<g id="edge28" class="edge">
<title>27&#45;&#45;26</title>
<path fill="none" stroke="black" d="M558.51,-288.76C565.13,-277.46 573.93,-262.44 580.54,-251.15"/>
</g>
<!-- 21 -->
<g id="node23" class="node">
<title>21</title>
<ellipse fill="none" stroke="black" cx="428" cy="-162" rx="27" ry="18"/>
<text text-anchor="middle" x="428" y="-156.95" font-family="Times,serif" font-size="14.00">/</text>
</g>
<!-- 23&#45;&#45;21 -->
<g id="edge22" class="edge">
<title>23&#45;&#45;21</title>
<path fill="none" stroke="black" d="M493,-219.17C478.8,-206.9 458.16,-189.06 443.97,-176.8"/>
</g>
<!-- 22 -->
<g id="node28" class="node">
<title>22</title>
<ellipse fill="none" stroke="black" cx="509" cy="-162" rx="36" ry="18"/>
<text text-anchor="middle" x="509" y="-156.95" font-family="Times,serif" font-size="14.00">omega</text>
</g>
<!-- 23&#45;&#45;22 -->
<g id="edge27" class="edge">
<title>23&#45;&#45;22</title>
<path fill="none" stroke="black" d="M509,-215.7C509,-204.85 509,-190.92 509,-180.1"/>
</g>
<!-- 17 -->
<g id="node24" class="node">
<title>17</title>
<ellipse fill="none" stroke="black" cx="392" cy="-90" rx="27" ry="18"/>
<text text-anchor="middle" x="392" y="-84.95" font-family="Times,serif" font-size="14.00">h</text>
</g>
<!-- 21&#45;&#45;17 -->
<g id="edge23" class="edge">
<title>21&#45;&#45;17</title>
<path fill="none" stroke="black" d="M419.65,-144.76C413.83,-133.46 406.11,-118.44 400.3,-107.15"/>
</g>
<!-- 20 -->
<g id="node25" class="node">
<title>20</title>
<ellipse fill="none" stroke="black" cx="464" cy="-90" rx="27" ry="18"/>
<text text-anchor="middle" x="464" y="-84.95" font-family="Times,serif" font-size="14.00">*</text>
</g>
<!-- 21&#45;&#45;20 -->
<g id="edge24" class="edge">
<title>21&#45;&#45;20</title>
<path fill="none" stroke="black" d="M436.35,-144.76C442.17,-133.46 449.89,-118.44 455.7,-107.15"/>
</g>
<!-- 18 -->
<g id="node26" class="node">
<title>18</title>
<ellipse fill="none" stroke="black" cx="428" cy="-18" rx="27" ry="18"/>
<text text-anchor="middle" x="428" y="-12.95" font-family="Times,serif" font-size="14.00">2</text>
</g>
<!-- 20&#45;&#45;18 -->
<g id="edge25" class="edge">
<title>20&#45;&#45;18</title>
<path fill="none" stroke="black" d="M455.65,-72.76C449.83,-61.46 442.11,-46.44 436.3,-35.15"/>
</g>
<!-- 19 -->
<g id="node27" class="node">
<title>19</title>
<ellipse fill="none" stroke="black" cx="500" cy="-18" rx="27" ry="18"/>
<text text-anchor="middle" x="500" y="-12.95" font-family="Times,serif" font-size="14.00">pi</text>
</g>
<!-- 20&#45;&#45;19 -->
<g id="edge26" class="edge">
<title>20&#45;&#45;19</title>
<path fill="none" stroke="black" d="M472.35,-72.76C478.17,-61.46 485.89,-46.44 491.7,-35.15"/>
</g>
<!-- 24 -->
<g id="node30" class="node">
<title>24</title>
<ellipse fill="none" stroke="black" cx="590" cy="-162" rx="27" ry="18"/>
<text text-anchor="middle" x="590" y="-156.95" font-family="Times,serif" font-size="14.00">kb</text>
</g>
<!-- 26&#45;&#45;24 -->
<g id="edge29" class="edge">
<title>26&#45;&#45;24</title>
<path fill="none" stroke="black" d="M590,-215.7C590,-204.85 590,-190.92 590,-180.1"/>
</g>
<!-- 25 -->
<g id="node31" class="node">
<title>25</title>
<ellipse fill="none" stroke="black" cx="662" cy="-162" rx="27" ry="18"/>
<text text-anchor="middle" x="662" y="-156.95" font-family="Times,serif" font-size="14.00">T</text>
</g>
<!-- 26&#45;&#45;25 -->
<g id="edge30" class="edge">
<title>26&#45;&#45;25</title>
<path fill="none" stroke="black" d="M604.92,-218.5C617.28,-206.48 634.75,-189.49 647.1,-177.49"/>
</g>
</g>
</svg>
