<?xml version="1.0" encoding="UTF-8" standalone="no"?>
<!DOCTYPE svg PUBLIC "-//W3C//DTD SVG 1.1//EN"
 "http://www.w3.org/Graphics/SVG/1.1/DTD/svg11.dtd">
<!-- Generated by graphviz version 9.0.0 (20230911.1827)
 -->
<!-- Title: G Pages: 1 -->
<svg width="498pt" height="429pt"
 viewBox="0.00 0.00 498.00 428.50" xmlns="http://www.w3.org/2000/svg" xmlns:xlink="http://www.w3.org/1999/xlink">
<g id="graph0" class="graph" transform="scale(1 1) rotate(0) translate(4 424.5)">
<title>G</title>
<polygon fill="white" stroke="none" points="-4,4 -4,-424.5 494,-424.5 494,4 -4,4"/>
<text text-anchor="middle" x="245" y="-403.2" font-family="Times,serif" font-size="14.00">3/(8*pi*G)*(c**2*k_f/r**2+H_G**2), depth = 5</text>
<!-- 21 -->
<g id="node1" class="node">
<title>21</title>
<ellipse fill="none" stroke="black" cx="207" cy="-378" rx="27" ry="18"/>
<text text-anchor="middle" x="207" y="-372.95" font-family="Times,serif" font-size="14.00">*</text>
</g>
<!-- 7 -->
<g id="node2" class="node">
<title>7</title>
<ellipse fill="none" stroke="black" cx="171" cy="-306" rx="27" ry="18"/>
<text text-anchor="middle" x="171" y="-300.95" font-family="Times,serif" font-size="14.00">/</text>
</g>
<!-- 21&#45;&#45;7 -->
<g id="edge1" class="edge">
<title>21&#45;&#45;7</title>
<path fill="none" stroke="black" d="M198.65,-360.76C192.83,-349.46 185.11,-334.44 179.3,-323.15"/>
</g>
<!-- 20 -->
<g id="node9" class="node">
<title>20</title>
<ellipse fill="none" stroke="black" cx="279" cy="-306" rx="27" ry="18"/>
<text text-anchor="middle" x="279" y="-300.95" font-family="Times,serif" font-size="14.00">+</text>
</g>
<!-- 21&#45;&#45;20 -->
<g id="edge8" class="edge">
<title>21&#45;&#45;20</title>
<path fill="none" stroke="black" d="M221.92,-362.5C234.28,-350.48 251.75,-333.49 264.1,-321.49"/>
</g>
<!-- 1 -->
<g id="node3" class="node">
<title>1</title>
<ellipse fill="none" stroke="black" cx="99" cy="-234" rx="27" ry="18"/>
<text text-anchor="middle" x="99" y="-228.95" font-family="Times,serif" font-size="14.00">3</text>
</g>
<!-- 7&#45;&#45;1 -->
<g id="edge2" class="edge">
<title>7&#45;&#45;1</title>
<path fill="none" stroke="black" d="M156.08,-290.5C143.72,-278.48 126.25,-261.49 113.9,-249.49"/>
</g>
<!-- 6 -->
<g id="node4" class="node">
<title>6</title>
<ellipse fill="none" stroke="black" cx="171" cy="-234" rx="27" ry="18"/>
<text text-anchor="middle" x="171" y="-228.95" font-family="Times,serif" font-size="14.00">*</text>
</g>
<!-- 7&#45;&#45;6 -->
<g id="edge3" class="edge">
<title>7&#45;&#45;6</title>
<path fill="none" stroke="black" d="M171,-287.7C171,-276.85 171,-262.92 171,-252.1"/>
</g>
<!-- 4 -->
<g id="node5" class="node">
<title>4</title>
<ellipse fill="none" stroke="black" cx="99" cy="-162" rx="27" ry="18"/>
<text text-anchor="middle" x="99" y="-156.95" font-family="Times,serif" font-size="14.00">*</text>
</g>
<!-- 6&#45;&#45;4 -->
<g id="edge4" class="edge">
<title>6&#45;&#45;4</title>
<path fill="none" stroke="black" d="M156.08,-218.5C143.72,-206.48 126.25,-189.49 113.9,-177.49"/>
</g>
<!-- 5 -->
<g id="node8" class="node">
<title>5</title>
<ellipse fill="none" stroke="black" cx="171" cy="-162" rx="27" ry="18"/>
<text text-anchor="middle" x="171" y="-156.95" font-family="Times,serif" font-size="14.00">G</text>
</g>
<!-- 6&#45;&#45;5 -->
<g id="edge7" class="edge">
<title>6&#45;&#45;5</title>
<path fill="none" stroke="black" d="M171,-215.7C171,-204.85 171,-190.92 171,-180.1"/>
</g>
<!-- 2 -->
<g id="node6" class="node">
<title>2</title>
<ellipse fill="none" stroke="black" cx="27" cy="-90" rx="27" ry="18"/>
<text text-anchor="middle" x="27" y="-84.95" font-family="Times,serif" font-size="14.00">8</text>
</g>
<!-- 4&#45;&#45;2 -->
<g id="edge5" class="edge">
<title>4&#45;&#45;2</title>
<path fill="none" stroke="black" d="M84.08,-146.5C71.72,-134.48 54.25,-117.49 41.9,-105.49"/>
</g>
<!-- 3 -->
<g id="node7" class="node">
<title>3</title>
<ellipse fill="none" stroke="black" cx="99" cy="-90" rx="27" ry="18"/>
<text text-anchor="middle" x="99" y="-84.95" font-family="Times,serif" font-size="14.00">pi</text>
</g>
<!-- 4&#45;&#45;3 -->
<g id="edge6" class="edge">
<title>4&#45;&#45;3</title>
<path fill="none" stroke="black" d="M99,-143.7C99,-132.85 99,-118.92 99,-108.1"/>
</g>
<!-- 16 -->
<g id="node10" class="node">
<title>16</title>
<ellipse fill="none" stroke="black" cx="279" cy="-234" rx="27" ry="18"/>
<text text-anchor="middle" x="279" y="-228.95" font-family="Times,serif" font-size="14.00">/</text>
</g>
<!-- 20&#45;&#45;16 -->
<g id="edge9" class="edge">
<title>20&#45;&#45;16</title>
<path fill="none" stroke="black" d="M279,-287.7C279,-276.85 279,-262.92 279,-252.1"/>
</g>
<!-- 19 -->
<g id="node19" class="node">
<title>19</title>
<ellipse fill="none" stroke="black" cx="389" cy="-234" rx="27" ry="18"/>
<text text-anchor="middle" x="389" y="-228.95" font-family="Times,serif" font-size="14.00">^</text>
</g>
<!-- 20&#45;&#45;19 -->
<g id="edge18" class="edge">
<title>20&#45;&#45;19</title>
<path fill="none" stroke="black" d="M298.16,-292.81C318.35,-279.96 349.95,-259.85 370.06,-247.05"/>
</g>
<!-- 12 -->
<g id="node11" class="node">
<title>12</title>
<ellipse fill="none" stroke="black" cx="243" cy="-162" rx="27" ry="18"/>
<text text-anchor="middle" x="243" y="-156.95" font-family="Times,serif" font-size="14.00">*</text>
</g>
<!-- 16&#45;&#45;12 -->
<g id="edge10" class="edge">
<title>16&#45;&#45;12</title>
<path fill="none" stroke="black" d="M270.65,-216.76C264.83,-205.46 257.11,-190.44 251.3,-179.15"/>
</g>
<!-- 15 -->
<g id="node16" class="node">
<title>15</title>
<ellipse fill="none" stroke="black" cx="315" cy="-162" rx="27" ry="18"/>
<text text-anchor="middle" x="315" y="-156.95" font-family="Times,serif" font-size="14.00">^</text>
</g>
<!-- 16&#45;&#45;15 -->
<g id="edge15" class="edge">
<title>16&#45;&#45;15</title>
<path fill="none" stroke="black" d="M287.35,-216.76C293.17,-205.46 300.89,-190.44 306.7,-179.15"/>
</g>
<!-- 10 -->
<g id="node12" class="node">
<title>10</title>
<ellipse fill="none" stroke="black" cx="171" cy="-90" rx="27" ry="18"/>
<text text-anchor="middle" x="171" y="-84.95" font-family="Times,serif" font-size="14.00">^</text>
</g>
<!-- 12&#45;&#45;10 -->
<g id="edge11" class="edge">
<title>12&#45;&#45;10</title>
<path fill="none" stroke="black" d="M228.08,-146.5C215.72,-134.48 198.25,-117.49 185.9,-105.49"/>
</g>
<!-- 11 -->
<g id="node15" class="node">
<title>11</title>
<ellipse fill="none" stroke="black" cx="243" cy="-90" rx="27" ry="18"/>
<text text-anchor="middle" x="243" y="-84.95" font-family="Times,serif" font-size="14.00">k_f</text>
</g>
<!-- 12&#45;&#45;11 -->
<g id="edge14" class="edge">
<title>12&#45;&#45;11</title>
<path fill="none" stroke="black" d="M243,-143.7C243,-132.85 243,-118.92 243,-108.1"/>
</g>
<!-- 8 -->
<g id="node13" class="node">
<title>8</title>
<ellipse fill="none" stroke="black" cx="135" cy="-18" rx="27" ry="18"/>
<text text-anchor="middle" x="135" y="-12.95" font-family="Times,serif" font-size="14.00">c</text>
</g>
<!-- 10&#45;&#45;8 -->
<g id="edge12" class="edge">
<title>10&#45;&#45;8</title>
<path fill="none" stroke="black" d="M162.65,-72.76C156.83,-61.46 149.11,-46.44 143.3,-35.15"/>
</g>
<!-- 9 -->
<g id="node14" class="node">
<title>9</title>
<ellipse fill="none" stroke="black" cx="207" cy="-18" rx="27" ry="18"/>
<text text-anchor="middle" x="207" y="-12.95" font-family="Times,serif" font-size="14.00">2</text>
</g>
<!-- 10&#45;&#45;9 -->
<g id="edge13" class="edge">
<title>10&#45;&#45;9</title>
<path fill="none" stroke="black" d="M179.35,-72.76C185.17,-61.46 192.89,-46.44 198.7,-35.15"/>
</g>
<!-- 13 -->
<g id="node17" class="node">
<title>13</title>
<ellipse fill="none" stroke="black" cx="315" cy="-90" rx="27" ry="18"/>
<text text-anchor="middle" x="315" y="-84.95" font-family="Times,serif" font-size="14.00">r</text>
</g>
<!-- 15&#45;&#45;13 -->
<g id="edge16" class="edge">
<title>15&#45;&#45;13</title>
<path fill="none" stroke="black" d="M315,-143.7C315,-132.85 315,-118.92 315,-108.1"/>
</g>
<!-- 14 -->
<g id="node18" class="node">
<title>14</title>
<ellipse fill="none" stroke="black" cx="387" cy="-90" rx="27" ry="18"/>
<text text-anchor="middle" x="387" y="-84.95" font-family="Times,serif" font-size="14.00">2</text>
</g>
<!-- 15&#45;&#45;14 -->
<g id="edge17" class="edge">
<title>15&#45;&#45;14</title>
<path fill="none" stroke="black" d="M329.92,-146.5C342.28,-134.48 359.75,-117.49 372.1,-105.49"/>
</g>
<!-- 17 -->
<g id="node20" class="node">
<title>17</title>
<ellipse fill="none" stroke="black" cx="389" cy="-162" rx="28.83" ry="18"/>
<text text-anchor="middle" x="389" y="-156.95" font-family="Times,serif" font-size="14.00">H_G</text>
</g>
<!-- 19&#45;&#45;17 -->
<g id="edge19" class="edge">
<title>19&#45;&#45;17</title>
<path fill="none" stroke="black" d="M389,-215.7C389,-204.85 389,-190.92 389,-180.1"/>
</g>
<!-- 18 -->
<g id="node21" class="node">
<title>18</title>
<ellipse fill="none" stroke="black" cx="463" cy="-162" rx="27" ry="18"/>
<text text-anchor="middle" x="463" y="-156.95" font-family="Times,serif" font-size="14.00">2</text>
</g>
<!-- 19&#45;&#45;18 -->
<g id="edge20" class="edge">
<title>19&#45;&#45;18</title>
<path fill="none" stroke="black" d="M403.98,-218.83C416.73,-206.77 434.97,-189.51 447.79,-177.38"/>
</g>
</g>
</svg>
