<?xml version="1.0" encoding="UTF-8" standalone="no"?>
<!DOCTYPE svg PUBLIC "-//W3C//DTD SVG 1.1//EN"
 "http://www.w3.org/Graphics/SVG/1.1/DTD/svg11.dtd">
<!-- Generated by graphviz version 9.0.0 (20230911.1827)
 -->
<!-- Title: G Pages: 1 -->
<svg width="790pt" height="429pt"
 viewBox="0.00 0.00 789.88 428.50" xmlns="http://www.w3.org/2000/svg" xmlns:xlink="http://www.w3.org/1999/xlink">
<g id="graph0" class="graph" transform="scale(1 1) rotate(0) translate(4 424.5)">
<title>G</title>
<polygon fill="white" stroke="none" points="-4,4 -4,-424.5 785.88,-424.5 785.88,4 -4,4"/>
<text text-anchor="middle" x="390.94" y="-403.2" font-family="Times,serif" font-size="14.00">~1/(8*pi*G)*(c**4*k_f/r**2+H_G**2*c**2*(1&#45;2*alpha)), depth = 5</text>
<!-- 32 -->
<g id="node1" class="node">
<title>32</title>
<ellipse fill="none" stroke="black" cx="189" cy="-378" rx="27" ry="18"/>
<text text-anchor="middle" x="189" y="-372.95" font-family="Times,serif" font-size="14.00">*</text>
</g>
<!-- 8 -->
<g id="node2" class="node">
<title>8</title>
<ellipse fill="none" stroke="black" cx="153" cy="-306" rx="27" ry="18"/>
<text text-anchor="middle" x="153" y="-300.95" font-family="Times,serif" font-size="14.00">/</text>
</g>
<!-- 32&#45;&#45;8 -->
<g id="edge1" class="edge">
<title>32&#45;&#45;8</title>
<path fill="none" stroke="black" d="M180.65,-360.76C174.83,-349.46 167.11,-334.44 161.3,-323.15"/>
</g>
<!-- 31 -->
<g id="node10" class="node">
<title>31</title>
<ellipse fill="none" stroke="black" cx="261" cy="-306" rx="27" ry="18"/>
<text text-anchor="middle" x="261" y="-300.95" font-family="Times,serif" font-size="14.00">+</text>
</g>
<!-- 32&#45;&#45;31 -->
<g id="edge9" class="edge">
<title>32&#45;&#45;31</title>
<path fill="none" stroke="black" d="M203.92,-362.5C216.28,-350.48 233.75,-333.49 246.1,-321.49"/>
</g>
<!-- 2 -->
<g id="node3" class="node">
<title>2</title>
<ellipse fill="none" stroke="black" cx="63" cy="-234" rx="27" ry="18"/>
<text text-anchor="middle" x="63" y="-228.95" font-family="Times,serif" font-size="14.00">~</text>
</g>
<!-- 8&#45;&#45;2 -->
<g id="edge2" class="edge">
<title>8&#45;&#45;2</title>
<path fill="none" stroke="black" d="M136.07,-291.83C120.08,-279.4 96.22,-260.84 80.16,-248.35"/>
</g>
<!-- 7 -->
<g id="node5" class="node">
<title>7</title>
<ellipse fill="none" stroke="black" cx="153" cy="-234" rx="27" ry="18"/>
<text text-anchor="middle" x="153" y="-228.95" font-family="Times,serif" font-size="14.00">*</text>
</g>
<!-- 8&#45;&#45;7 -->
<g id="edge4" class="edge">
<title>8&#45;&#45;7</title>
<path fill="none" stroke="black" d="M153,-287.7C153,-276.85 153,-262.92 153,-252.1"/>
</g>
<!-- 1 -->
<g id="node4" class="node">
<title>1</title>
<ellipse fill="none" stroke="black" cx="27" cy="-162" rx="27" ry="18"/>
<text text-anchor="middle" x="27" y="-156.95" font-family="Times,serif" font-size="14.00">1</text>
</g>
<!-- 2&#45;&#45;1 -->
<g id="edge3" class="edge">
<title>2&#45;&#45;1</title>
<path fill="none" stroke="black" d="M54.65,-216.76C48.83,-205.46 41.11,-190.44 35.3,-179.15"/>
</g>
<!-- 5 -->
<g id="node6" class="node">
<title>5</title>
<ellipse fill="none" stroke="black" cx="99" cy="-162" rx="27" ry="18"/>
<text text-anchor="middle" x="99" y="-156.95" font-family="Times,serif" font-size="14.00">*</text>
</g>
<!-- 7&#45;&#45;5 -->
<g id="edge5" class="edge">
<title>7&#45;&#45;5</title>
<path fill="none" stroke="black" d="M141.02,-217.46C132.07,-205.86 119.89,-190.08 110.95,-178.49"/>
</g>
<!-- 6 -->
<g id="node9" class="node">
<title>6</title>
<ellipse fill="none" stroke="black" cx="171" cy="-162" rx="27" ry="18"/>
<text text-anchor="middle" x="171" y="-156.95" font-family="Times,serif" font-size="14.00">G</text>
</g>
<!-- 7&#45;&#45;6 -->
<g id="edge8" class="edge">
<title>7&#45;&#45;6</title>
<path fill="none" stroke="black" d="M157.36,-216.05C160.19,-205.05 163.86,-190.76 166.68,-179.79"/>
</g>
<!-- 3 -->
<g id="node7" class="node">
<title>3</title>
<ellipse fill="none" stroke="black" cx="27" cy="-90" rx="27" ry="18"/>
<text text-anchor="middle" x="27" y="-84.95" font-family="Times,serif" font-size="14.00">8</text>
</g>
<!-- 5&#45;&#45;3 -->
<g id="edge6" class="edge">
<title>5&#45;&#45;3</title>
<path fill="none" stroke="black" d="M84.08,-146.5C71.72,-134.48 54.25,-117.49 41.9,-105.49"/>
</g>
<!-- 4 -->
<g id="node8" class="node">
<title>4</title>
<ellipse fill="none" stroke="black" cx="99" cy="-90" rx="27" ry="18"/>
<text text-anchor="middle" x="99" y="-84.95" font-family="Times,serif" font-size="14.00">pi</text>
</g>
<!-- 5&#45;&#45;4 -->
<g id="edge7" class="edge">
<title>5&#45;&#45;4</title>
<path fill="none" stroke="black" d="M99,-143.7C99,-132.85 99,-118.92 99,-108.1"/>
</g>
<!-- 17 -->
<g id="node11" class="node">
<title>17</title>
<ellipse fill="none" stroke="black" cx="261" cy="-234" rx="27" ry="18"/>
<text text-anchor="middle" x="261" y="-228.95" font-family="Times,serif" font-size="14.00">/</text>
</g>
<!-- 31&#45;&#45;17 -->
<g id="edge10" class="edge">
<title>31&#45;&#45;17</title>
<path fill="none" stroke="black" d="M261,-287.7C261,-276.85 261,-262.92 261,-252.1"/>
</g>
<!-- 30 -->
<g id="node20" class="node">
<title>30</title>
<ellipse fill="none" stroke="black" cx="495" cy="-234" rx="27" ry="18"/>
<text text-anchor="middle" x="495" y="-228.95" font-family="Times,serif" font-size="14.00">*</text>
</g>
<!-- 31&#45;&#45;30 -->
<g id="edge19" class="edge">
<title>31&#45;&#45;30</title>
<path fill="none" stroke="black" d="M285.16,-297.77C330,-284.36 425.62,-255.76 470.62,-242.29"/>
</g>
<!-- 13 -->
<g id="node12" class="node">
<title>13</title>
<ellipse fill="none" stroke="black" cx="243" cy="-162" rx="27" ry="18"/>
<text text-anchor="middle" x="243" y="-156.95" font-family="Times,serif" font-size="14.00">*</text>
</g>
<!-- 17&#45;&#45;13 -->
<g id="edge11" class="edge">
<title>17&#45;&#45;13</title>
<path fill="none" stroke="black" d="M256.64,-216.05C253.81,-205.05 250.14,-190.76 247.32,-179.79"/>
</g>
<!-- 16 -->
<g id="node17" class="node">
<title>16</title>
<ellipse fill="none" stroke="black" cx="315" cy="-162" rx="27" ry="18"/>
<text text-anchor="middle" x="315" y="-156.95" font-family="Times,serif" font-size="14.00">^</text>
</g>
<!-- 17&#45;&#45;16 -->
<g id="edge16" class="edge">
<title>17&#45;&#45;16</title>
<path fill="none" stroke="black" d="M272.98,-217.46C281.93,-205.86 294.11,-190.08 303.05,-178.49"/>
</g>
<!-- 11 -->
<g id="node13" class="node">
<title>11</title>
<ellipse fill="none" stroke="black" cx="171" cy="-90" rx="27" ry="18"/>
<text text-anchor="middle" x="171" y="-84.95" font-family="Times,serif" font-size="14.00">^</text>
</g>
<!-- 13&#45;&#45;11 -->
<g id="edge12" class="edge">
<title>13&#45;&#45;11</title>
<path fill="none" stroke="black" d="M228.08,-146.5C215.72,-134.48 198.25,-117.49 185.9,-105.49"/>
</g>
<!-- 12 -->
<g id="node16" class="node">
<title>12</title>
<ellipse fill="none" stroke="black" cx="243" cy="-90" rx="27" ry="18"/>
<text text-anchor="middle" x="243" y="-84.95" font-family="Times,serif" font-size="14.00">k_f</text>
</g>
<!-- 13&#45;&#45;12 -->
<g id="edge15" class="edge">
<title>13&#45;&#45;12</title>
<path fill="none" stroke="black" d="M243,-143.7C243,-132.85 243,-118.92 243,-108.1"/>
</g>
<!-- 9 -->
<g id="node14" class="node">
<title>9</title>
<ellipse fill="none" stroke="black" cx="135" cy="-18" rx="27" ry="18"/>
<text text-anchor="middle" x="135" y="-12.95" font-family="Times,serif" font-size="14.00">c</text>
</g>
<!-- 11&#45;&#45;9 -->
<g id="edge13" class="edge">
<title>11&#45;&#45;9</title>
<path fill="none" stroke="black" d="M162.65,-72.76C156.83,-61.46 149.11,-46.44 143.3,-35.15"/>
</g>
<!-- 10 -->
<g id="node15" class="node">
<title>10</title>
<ellipse fill="none" stroke="black" cx="207" cy="-18" rx="27" ry="18"/>
<text text-anchor="middle" x="207" y="-12.95" font-family="Times,serif" font-size="14.00">4</text>
</g>
<!-- 11&#45;&#45;10 -->
<g id="edge14" class="edge">
<title>11&#45;&#45;10</title>
<path fill="none" stroke="black" d="M179.35,-72.76C185.17,-61.46 192.89,-46.44 198.7,-35.15"/>
</g>
<!-- 14 -->
<g id="node18" class="node">
<title>14</title>
<ellipse fill="none" stroke="black" cx="315" cy="-90" rx="27" ry="18"/>
<text text-anchor="middle" x="315" y="-84.95" font-family="Times,serif" font-size="14.00">r</text>
</g>
<!-- 16&#45;&#45;14 -->
<g id="edge17" class="edge">
<title>16&#45;&#45;14</title>
<path fill="none" stroke="black" d="M315,-143.7C315,-132.85 315,-118.92 315,-108.1"/>
</g>
<!-- 15 -->
<g id="node19" class="node">
<title>15</title>
<ellipse fill="none" stroke="black" cx="387" cy="-90" rx="27" ry="18"/>
<text text-anchor="middle" x="387" y="-84.95" font-family="Times,serif" font-size="14.00">2</text>
</g>
<!-- 16&#45;&#45;15 -->
<g id="edge18" class="edge">
<title>16&#45;&#45;15</title>
<path fill="none" stroke="black" d="M329.92,-146.5C342.28,-134.48 359.75,-117.49 372.1,-105.49"/>
</g>
<!-- 24 -->
<g id="node21" class="node">
<title>24</title>
<ellipse fill="none" stroke="black" cx="495" cy="-162" rx="27" ry="18"/>
<text text-anchor="middle" x="495" y="-156.95" font-family="Times,serif" font-size="14.00">*</text>
</g>
<!-- 30&#45;&#45;24 -->
<g id="edge20" class="edge">
<title>30&#45;&#45;24</title>
<path fill="none" stroke="black" d="M495,-215.7C495,-204.85 495,-190.92 495,-180.1"/>
</g>
<!-- 29 -->
<g id="node28" class="node">
<title>29</title>
<ellipse fill="none" stroke="black" cx="603" cy="-162" rx="27" ry="18"/>
<text text-anchor="middle" x="603" y="-156.95" font-family="Times,serif" font-size="14.00">&#45;</text>
</g>
<!-- 30&#45;&#45;29 -->
<g id="edge27" class="edge">
<title>30&#45;&#45;29</title>
<path fill="none" stroke="black" d="M513.81,-220.81C533.51,-208.04 564.28,-188.09 584.04,-175.29"/>
</g>
<!-- 20 -->
<g id="node22" class="node">
<title>20</title>
<ellipse fill="none" stroke="black" cx="459" cy="-90" rx="27" ry="18"/>
<text text-anchor="middle" x="459" y="-84.95" font-family="Times,serif" font-size="14.00">^</text>
</g>
<!-- 24&#45;&#45;20 -->
<g id="edge21" class="edge">
<title>24&#45;&#45;20</title>
<path fill="none" stroke="black" d="M486.65,-144.76C480.83,-133.46 473.11,-118.44 467.3,-107.15"/>
</g>
<!-- 23 -->
<g id="node25" class="node">
<title>23</title>
<ellipse fill="none" stroke="black" cx="531" cy="-90" rx="27" ry="18"/>
<text text-anchor="middle" x="531" y="-84.95" font-family="Times,serif" font-size="14.00">^</text>
</g>
<!-- 24&#45;&#45;23 -->
<g id="edge24" class="edge">
<title>24&#45;&#45;23</title>
<path fill="none" stroke="black" d="M503.35,-144.76C509.17,-133.46 516.89,-118.44 522.7,-107.15"/>
</g>
<!-- 18 -->
<g id="node23" class="node">
<title>18</title>
<ellipse fill="none" stroke="black" cx="385" cy="-18" rx="28.83" ry="18"/>
<text text-anchor="middle" x="385" y="-12.95" font-family="Times,serif" font-size="14.00">H_G</text>
</g>
<!-- 20&#45;&#45;18 -->
<g id="edge22" class="edge">
<title>20&#45;&#45;18</title>
<path fill="none" stroke="black" d="M444.02,-74.83C431.36,-62.85 413.27,-45.74 400.46,-33.63"/>
</g>
<!-- 19 -->
<g id="node24" class="node">
<title>19</title>
<ellipse fill="none" stroke="black" cx="459" cy="-18" rx="27" ry="18"/>
<text text-anchor="middle" x="459" y="-12.95" font-family="Times,serif" font-size="14.00">2</text>
</g>
<!-- 20&#45;&#45;19 -->
<g id="edge23" class="edge">
<title>20&#45;&#45;19</title>
<path fill="none" stroke="black" d="M459,-71.7C459,-60.85 459,-46.92 459,-36.1"/>
</g>
<!-- 21 -->
<g id="node26" class="node">
<title>21</title>
<ellipse fill="none" stroke="black" cx="531" cy="-18" rx="27" ry="18"/>
<text text-anchor="middle" x="531" y="-12.95" font-family="Times,serif" font-size="14.00">c</text>
</g>
<!-- 23&#45;&#45;21 -->
<g id="edge25" class="edge">
<title>23&#45;&#45;21</title>
<path fill="none" stroke="black" d="M531,-71.7C531,-60.85 531,-46.92 531,-36.1"/>
</g>
<!-- 22 -->
<g id="node27" class="node">
<title>22</title>
<ellipse fill="none" stroke="black" cx="603" cy="-18" rx="27" ry="18"/>
<text text-anchor="middle" x="603" y="-12.95" font-family="Times,serif" font-size="14.00">2</text>
</g>
<!-- 23&#45;&#45;22 -->
<g id="edge26" class="edge">
<title>23&#45;&#45;22</title>
<path fill="none" stroke="black" d="M545.92,-74.5C558.28,-62.48 575.75,-45.49 588.1,-33.49"/>
</g>
<!-- 25 -->
<g id="node29" class="node">
<title>25</title>
<ellipse fill="none" stroke="black" cx="603" cy="-90" rx="27" ry="18"/>
<text text-anchor="middle" x="603" y="-84.95" font-family="Times,serif" font-size="14.00">1</text>
</g>
<!-- 29&#45;&#45;25 -->
<g id="edge28" class="edge">
<title>29&#45;&#45;25</title>
<path fill="none" stroke="black" d="M603,-143.7C603,-132.85 603,-118.92 603,-108.1"/>
</g>
<!-- 28 -->
<g id="node30" class="node">
<title>28</title>
<ellipse fill="none" stroke="black" cx="675" cy="-90" rx="27" ry="18"/>
<text text-anchor="middle" x="675" y="-84.95" font-family="Times,serif" font-size="14.00">*</text>
</g>
<!-- 29&#45;&#45;28 -->
<g id="edge29" class="edge">
<title>29&#45;&#45;28</title>
<path fill="none" stroke="black" d="M617.92,-146.5C630.28,-134.48 647.75,-117.49 660.1,-105.49"/>
</g>
<!-- 26 -->
<g id="node31" class="node">
<title>26</title>
<ellipse fill="none" stroke="black" cx="675" cy="-18" rx="27" ry="18"/>
<text text-anchor="middle" x="675" y="-12.95" font-family="Times,serif" font-size="14.00">2</text>
</g>
<!-- 28&#45;&#45;26 -->
<g id="edge30" class="edge">
<title>28&#45;&#45;26</title>
<path fill="none" stroke="black" d="M675,-71.7C675,-60.85 675,-46.92 675,-36.1"/>
</g>
<!-- 27 -->
<g id="node32" class="node">
<title>27</title>
<ellipse fill="none" stroke="black" cx="751" cy="-18" rx="30.88" ry="18"/>
<text text-anchor="middle" x="751" y="-12.95" font-family="Times,serif" font-size="14.00">alpha</text>
</g>
<!-- 28&#45;&#45;27 -->
<g id="edge31" class="edge">
<title>28&#45;&#45;27</title>
<path fill="none" stroke="black" d="M690.38,-74.83C703.39,-62.85 721.97,-45.74 735.12,-33.63"/>
</g>
</g>
</svg>
