<?xml version="1.0" encoding="UTF-8" standalone="no"?>
<!DOCTYPE svg PUBLIC "-//W3C//DTD SVG 1.1//EN"
 "http://www.w3.org/Graphics/SVG/1.1/DTD/svg11.dtd">
<!-- Generated by graphviz version 9.0.0 (20230911.1827)
 -->
<!-- Title: G Pages: 1 -->
<svg width="280pt" height="429pt"
 viewBox="0.00 0.00 279.81 428.50" xmlns="http://www.w3.org/2000/svg" xmlns:xlink="http://www.w3.org/1999/xlink">
<g id="graph0" class="graph" transform="scale(1 1) rotate(0) translate(4 424.5)">
<title>G</title>
<polygon fill="white" stroke="none" points="-4,4 -4,-424.5 275.81,-424.5 275.81,4 -4,4"/>
<text text-anchor="middle" x="135.9" y="-403.2" font-family="Times,serif" font-size="14.00">m_0/sqrt(1&#45;v**2/c**2), depth = 5</text>
<!-- 12 -->
<g id="node1" class="node">
<title>12</title>
<ellipse fill="none" stroke="black" cx="63.81" cy="-378" rx="27" ry="18"/>
<text text-anchor="middle" x="63.81" y="-372.95" font-family="Times,serif" font-size="14.00">/</text>
</g>
<!-- 1 -->
<g id="node2" class="node">
<title>1</title>
<ellipse fill="none" stroke="black" cx="27.81" cy="-306" rx="27.81" ry="18"/>
<text text-anchor="middle" x="27.81" y="-300.95" font-family="Times,serif" font-size="14.00">m_0</text>
</g>
<!-- 12&#45;&#45;1 -->
<g id="edge1" class="edge">
<title>12&#45;&#45;1</title>
<path fill="none" stroke="black" d="M55.46,-360.76C49.73,-349.62 42.14,-334.87 36.36,-323.63"/>
</g>
<!-- 11 -->
<g id="node3" class="node">
<title>11</title>
<ellipse fill="none" stroke="black" cx="100.81" cy="-306" rx="27" ry="18"/>
<text text-anchor="middle" x="100.81" y="-300.95" font-family="Times,serif" font-size="14.00">sqrt</text>
</g>
<!-- 12&#45;&#45;11 -->
<g id="edge2" class="edge">
<title>12&#45;&#45;11</title>
<path fill="none" stroke="black" d="M72.39,-360.76C78.37,-349.46 86.31,-334.44 92.27,-323.15"/>
</g>
<!-- 10 -->
<g id="node4" class="node">
<title>10</title>
<ellipse fill="none" stroke="black" cx="100.81" cy="-234" rx="27" ry="18"/>
<text text-anchor="middle" x="100.81" y="-228.95" font-family="Times,serif" font-size="14.00">&#45;</text>
</g>
<!-- 11&#45;&#45;10 -->
<g id="edge3" class="edge">
<title>11&#45;&#45;10</title>
<path fill="none" stroke="black" d="M100.81,-287.7C100.81,-276.85 100.81,-262.92 100.81,-252.1"/>
</g>
<!-- 2 -->
<g id="node5" class="node">
<title>2</title>
<ellipse fill="none" stroke="black" cx="64.81" cy="-162" rx="27" ry="18"/>
<text text-anchor="middle" x="64.81" y="-156.95" font-family="Times,serif" font-size="14.00">1</text>
</g>
<!-- 10&#45;&#45;2 -->
<g id="edge4" class="edge">
<title>10&#45;&#45;2</title>
<path fill="none" stroke="black" d="M92.46,-216.76C86.64,-205.46 78.92,-190.44 73.11,-179.15"/>
</g>
<!-- 9 -->
<g id="node6" class="node">
<title>9</title>
<ellipse fill="none" stroke="black" cx="136.81" cy="-162" rx="27" ry="18"/>
<text text-anchor="middle" x="136.81" y="-156.95" font-family="Times,serif" font-size="14.00">/</text>
</g>
<!-- 10&#45;&#45;9 -->
<g id="edge5" class="edge">
<title>10&#45;&#45;9</title>
<path fill="none" stroke="black" d="M109.16,-216.76C114.97,-205.46 122.7,-190.44 128.5,-179.15"/>
</g>
<!-- 5 -->
<g id="node7" class="node">
<title>5</title>
<ellipse fill="none" stroke="black" cx="100.81" cy="-90" rx="27" ry="18"/>
<text text-anchor="middle" x="100.81" y="-84.95" font-family="Times,serif" font-size="14.00">^</text>
</g>
<!-- 9&#45;&#45;5 -->
<g id="edge6" class="edge">
<title>9&#45;&#45;5</title>
<path fill="none" stroke="black" d="M128.46,-144.76C122.64,-133.46 114.92,-118.44 109.11,-107.15"/>
</g>
<!-- 8 -->
<g id="node10" class="node">
<title>8</title>
<ellipse fill="none" stroke="black" cx="172.81" cy="-90" rx="27" ry="18"/>
<text text-anchor="middle" x="172.81" y="-84.95" font-family="Times,serif" font-size="14.00">^</text>
</g>
<!-- 9&#45;&#45;8 -->
<g id="edge9" class="edge">
<title>9&#45;&#45;8</title>
<path fill="none" stroke="black" d="M145.16,-144.76C150.97,-133.46 158.7,-118.44 164.5,-107.15"/>
</g>
<!-- 3 -->
<g id="node8" class="node">
<title>3</title>
<ellipse fill="none" stroke="black" cx="28.81" cy="-18" rx="27" ry="18"/>
<text text-anchor="middle" x="28.81" y="-12.95" font-family="Times,serif" font-size="14.00">v</text>
</g>
<!-- 5&#45;&#45;3 -->
<g id="edge7" class="edge">
<title>5&#45;&#45;3</title>
<path fill="none" stroke="black" d="M85.89,-74.5C73.53,-62.48 56.06,-45.49 43.71,-33.49"/>
</g>
<!-- 4 -->
<g id="node9" class="node">
<title>4</title>
<ellipse fill="none" stroke="black" cx="100.81" cy="-18" rx="27" ry="18"/>
<text text-anchor="middle" x="100.81" y="-12.95" font-family="Times,serif" font-size="14.00">2</text>
</g>
<!-- 5&#45;&#45;4 -->
<g id="edge8" class="edge">
<title>5&#45;&#45;4</title>
<path fill="none" stroke="black" d="M100.81,-71.7C100.81,-60.85 100.81,-46.92 100.81,-36.1"/>
</g>
<!-- 6 -->
<g id="node11" class="node">
<title>6</title>
<ellipse fill="none" stroke="black" cx="172.81" cy="-18" rx="27" ry="18"/>
<text text-anchor="middle" x="172.81" y="-12.95" font-family="Times,serif" font-size="14.00">c</text>
</g>
<!-- 8&#45;&#45;6 -->
<g id="edge10" class="edge">
<title>8&#45;&#45;6</title>
<path fill="none" stroke="black" d="M172.81,-71.7C172.81,-60.85 172.81,-46.92 172.81,-36.1"/>
</g>
<!-- 7 -->
<g id="node12" class="node">
<title>7</title>
<ellipse fill="none" stroke="black" cx="244.81" cy="-18" rx="27" ry="18"/>
<text text-anchor="middle" x="244.81" y="-12.95" font-family="Times,serif" font-size="14.00">2</text>
</g>
<!-- 8&#45;&#45;7 -->
<g id="edge11" class="edge">
<title>8&#45;&#45;7</title>
<path fill="none" stroke="black" d="M187.73,-74.5C200.08,-62.48 217.56,-45.49 229.91,-33.49"/>
</g>
</g>
</svg>
