<?xml version="1.0" encoding="UTF-8" standalone="no"?>
<!DOCTYPE svg PUBLIC "-//W3C//DTD SVG 1.1//EN"
 "http://www.w3.org/Graphics/SVG/1.1/DTD/svg11.dtd">
<!-- Generated by graphviz version 9.0.0 (20230911.1827)
 -->
<!-- Title: G Pages: 1 -->
<svg width="366pt" height="429pt"
 viewBox="0.00 0.00 366.00 428.50" xmlns="http://www.w3.org/2000/svg" xmlns:xlink="http://www.w3.org/1999/xlink">
<g id="graph0" class="graph" transform="scale(1 1) rotate(0) translate(4 424.5)">
<title>G</title>
<polygon fill="white" stroke="none" points="-4,4 -4,-424.5 362,-424.5 362,4 -4,4"/>
<text text-anchor="middle" x="179" y="-403.2" font-family="Times,serif" font-size="14.00">q/(4*pi*epsilon*r*(1&#45;v/c)), depth = 5</text>
<!-- 15 -->
<g id="node1" class="node">
<title>15</title>
<ellipse fill="none" stroke="black" cx="146" cy="-378" rx="27" ry="18"/>
<text text-anchor="middle" x="146" y="-372.95" font-family="Times,serif" font-size="14.00">/</text>
</g>
<!-- 1 -->
<g id="node2" class="node">
<title>1</title>
<ellipse fill="none" stroke="black" cx="110" cy="-306" rx="27" ry="18"/>
<text text-anchor="middle" x="110" y="-300.95" font-family="Times,serif" font-size="14.00">q</text>
</g>
<!-- 15&#45;&#45;1 -->
<g id="edge1" class="edge">
<title>15&#45;&#45;1</title>
<path fill="none" stroke="black" d="M137.65,-360.76C131.83,-349.46 124.11,-334.44 118.3,-323.15"/>
</g>
<!-- 14 -->
<g id="node3" class="node">
<title>14</title>
<ellipse fill="none" stroke="black" cx="182" cy="-306" rx="27" ry="18"/>
<text text-anchor="middle" x="182" y="-300.95" font-family="Times,serif" font-size="14.00">*</text>
</g>
<!-- 15&#45;&#45;14 -->
<g id="edge2" class="edge">
<title>15&#45;&#45;14</title>
<path fill="none" stroke="black" d="M154.35,-360.76C160.17,-349.46 167.89,-334.44 173.7,-323.15"/>
</g>
<!-- 8 -->
<g id="node4" class="node">
<title>8</title>
<ellipse fill="none" stroke="black" cx="146" cy="-234" rx="27" ry="18"/>
<text text-anchor="middle" x="146" y="-228.95" font-family="Times,serif" font-size="14.00">*</text>
</g>
<!-- 14&#45;&#45;8 -->
<g id="edge3" class="edge">
<title>14&#45;&#45;8</title>
<path fill="none" stroke="black" d="M173.65,-288.76C167.83,-277.46 160.11,-262.44 154.3,-251.15"/>
</g>
<!-- 13 -->
<g id="node11" class="node">
<title>13</title>
<ellipse fill="none" stroke="black" cx="218" cy="-234" rx="27" ry="18"/>
<text text-anchor="middle" x="218" y="-228.95" font-family="Times,serif" font-size="14.00">&#45;</text>
</g>
<!-- 14&#45;&#45;13 -->
<g id="edge10" class="edge">
<title>14&#45;&#45;13</title>
<path fill="none" stroke="black" d="M190.35,-288.76C196.17,-277.46 203.89,-262.44 209.7,-251.15"/>
</g>
<!-- 6 -->
<g id="node5" class="node">
<title>6</title>
<ellipse fill="none" stroke="black" cx="74" cy="-162" rx="27" ry="18"/>
<text text-anchor="middle" x="74" y="-156.95" font-family="Times,serif" font-size="14.00">*</text>
</g>
<!-- 8&#45;&#45;6 -->
<g id="edge4" class="edge">
<title>8&#45;&#45;6</title>
<path fill="none" stroke="black" d="M131.08,-218.5C118.72,-206.48 101.25,-189.49 88.9,-177.49"/>
</g>
<!-- 7 -->
<g id="node10" class="node">
<title>7</title>
<ellipse fill="none" stroke="black" cx="146" cy="-162" rx="27" ry="18"/>
<text text-anchor="middle" x="146" y="-156.95" font-family="Times,serif" font-size="14.00">r</text>
</g>
<!-- 8&#45;&#45;7 -->
<g id="edge9" class="edge">
<title>8&#45;&#45;7</title>
<path fill="none" stroke="black" d="M146,-215.7C146,-204.85 146,-190.92 146,-180.1"/>
</g>
<!-- 4 -->
<g id="node6" class="node">
<title>4</title>
<ellipse fill="none" stroke="black" cx="63" cy="-90" rx="27" ry="18"/>
<text text-anchor="middle" x="63" y="-84.95" font-family="Times,serif" font-size="14.00">*</text>
</g>
<!-- 6&#45;&#45;4 -->
<g id="edge5" class="edge">
<title>6&#45;&#45;4</title>
<path fill="none" stroke="black" d="M71.28,-143.7C69.58,-132.85 67.39,-118.92 65.69,-108.1"/>
</g>
<!-- 5 -->
<g id="node9" class="node">
<title>5</title>
<ellipse fill="none" stroke="black" cx="146" cy="-90" rx="37.53" ry="18"/>
<text text-anchor="middle" x="146" y="-84.95" font-family="Times,serif" font-size="14.00">epsilon</text>
</g>
<!-- 6&#45;&#45;5 -->
<g id="edge8" class="edge">
<title>6&#45;&#45;5</title>
<path fill="none" stroke="black" d="M88.92,-146.5C100.86,-134.88 117.59,-118.62 129.85,-106.7"/>
</g>
<!-- 2 -->
<g id="node7" class="node">
<title>2</title>
<ellipse fill="none" stroke="black" cx="27" cy="-18" rx="27" ry="18"/>
<text text-anchor="middle" x="27" y="-12.95" font-family="Times,serif" font-size="14.00">4</text>
</g>
<!-- 4&#45;&#45;2 -->
<g id="edge6" class="edge">
<title>4&#45;&#45;2</title>
<path fill="none" stroke="black" d="M54.65,-72.76C48.83,-61.46 41.11,-46.44 35.3,-35.15"/>
</g>
<!-- 3 -->
<g id="node8" class="node">
<title>3</title>
<ellipse fill="none" stroke="black" cx="99" cy="-18" rx="27" ry="18"/>
<text text-anchor="middle" x="99" y="-12.95" font-family="Times,serif" font-size="14.00">pi</text>
</g>
<!-- 4&#45;&#45;3 -->
<g id="edge7" class="edge">
<title>4&#45;&#45;3</title>
<path fill="none" stroke="black" d="M71.35,-72.76C77.17,-61.46 84.89,-46.44 90.7,-35.15"/>
</g>
<!-- 9 -->
<g id="node12" class="node">
<title>9</title>
<ellipse fill="none" stroke="black" cx="218" cy="-162" rx="27" ry="18"/>
<text text-anchor="middle" x="218" y="-156.95" font-family="Times,serif" font-size="14.00">1</text>
</g>
<!-- 13&#45;&#45;9 -->
<g id="edge11" class="edge">
<title>13&#45;&#45;9</title>
<path fill="none" stroke="black" d="M218,-215.7C218,-204.85 218,-190.92 218,-180.1"/>
</g>
<!-- 12 -->
<g id="node13" class="node">
<title>12</title>
<ellipse fill="none" stroke="black" cx="290" cy="-162" rx="27" ry="18"/>
<text text-anchor="middle" x="290" y="-156.95" font-family="Times,serif" font-size="14.00">/</text>
</g>
<!-- 13&#45;&#45;12 -->
<g id="edge12" class="edge">
<title>13&#45;&#45;12</title>
<path fill="none" stroke="black" d="M232.92,-218.5C245.28,-206.48 262.75,-189.49 275.1,-177.49"/>
</g>
<!-- 10 -->
<g id="node14" class="node">
<title>10</title>
<ellipse fill="none" stroke="black" cx="259" cy="-90" rx="27" ry="18"/>
<text text-anchor="middle" x="259" y="-84.95" font-family="Times,serif" font-size="14.00">v</text>
</g>
<!-- 12&#45;&#45;10 -->
<g id="edge13" class="edge">
<title>12&#45;&#45;10</title>
<path fill="none" stroke="black" d="M282.65,-144.41C277.71,-133.25 271.22,-118.6 266.29,-107.47"/>
</g>
<!-- 11 -->
<g id="node15" class="node">
<title>11</title>
<ellipse fill="none" stroke="black" cx="331" cy="-90" rx="27" ry="18"/>
<text text-anchor="middle" x="331" y="-84.95" font-family="Times,serif" font-size="14.00">c</text>
</g>
<!-- 12&#45;&#45;11 -->
<g id="edge14" class="edge">
<title>12&#45;&#45;11</title>
<path fill="none" stroke="black" d="M299.51,-144.76C306.13,-133.46 314.93,-118.44 321.54,-107.15"/>
</g>
</g>
</svg>
