<?xml version="1.0" encoding="UTF-8" standalone="no"?>
<!DOCTYPE svg PUBLIC "-//W3C//DTD SVG 1.1//EN"
 "http://www.w3.org/Graphics/SVG/1.1/DTD/svg11.dtd">
<!-- Generated by graphviz version 9.0.0 (20230911.1827)
 -->
<!-- Title: G Pages: 1 -->
<svg width="171pt" height="213pt"
 viewBox="0.00 0.00 170.81 212.50" xmlns="http://www.w3.org/2000/svg" xmlns:xlink="http://www.w3.org/1999/xlink">
<g id="graph0" class="graph" transform="scale(1 1) rotate(0) translate(4 208.5)">
<title>G</title>
<polygon fill="white" stroke="none" points="-4,4 -4,-208.5 166.81,-208.5 166.81,4 -4,4"/>
<text text-anchor="middle" x="81.4" y="-187.2" font-family="Times,serif" font-size="14.00">mob*kb*T, depth = 2</text>
<!-- 5 -->
<g id="node1" class="node">
<title>5</title>
<ellipse fill="none" stroke="black" cx="99.81" cy="-162" rx="27" ry="18"/>
<text text-anchor="middle" x="99.81" y="-156.95" font-family="Times,serif" font-size="14.00">*</text>
</g>
<!-- 3 -->
<g id="node2" class="node">
<title>3</title>
<ellipse fill="none" stroke="black" cx="63.81" cy="-90" rx="27" ry="18"/>
<text text-anchor="middle" x="63.81" y="-84.95" font-family="Times,serif" font-size="14.00">*</text>
</g>
<!-- 5&#45;&#45;3 -->
<g id="edge1" class="edge">
<title>5&#45;&#45;3</title>
<path fill="none" stroke="black" d="M91.46,-144.76C85.64,-133.46 77.92,-118.44 72.11,-107.15"/>
</g>
<!-- 4 -->
<g id="node5" class="node">
<title>4</title>
<ellipse fill="none" stroke="black" cx="135.81" cy="-90" rx="27" ry="18"/>
<text text-anchor="middle" x="135.81" y="-84.95" font-family="Times,serif" font-size="14.00">T</text>
</g>
<!-- 5&#45;&#45;4 -->
<g id="edge4" class="edge">
<title>5&#45;&#45;4</title>
<path fill="none" stroke="black" d="M108.16,-144.76C113.97,-133.46 121.7,-118.44 127.5,-107.15"/>
</g>
<!-- 1 -->
<g id="node3" class="node">
<title>1</title>
<ellipse fill="none" stroke="black" cx="27.81" cy="-18" rx="27.81" ry="18"/>
<text text-anchor="middle" x="27.81" y="-12.95" font-family="Times,serif" font-size="14.00">mob</text>
</g>
<!-- 3&#45;&#45;1 -->
<g id="edge2" class="edge">
<title>3&#45;&#45;1</title>
<path fill="none" stroke="black" d="M55.46,-72.76C49.73,-61.62 42.14,-46.87 36.36,-35.63"/>
</g>
<!-- 2 -->
<g id="node4" class="node">
<title>2</title>
<ellipse fill="none" stroke="black" cx="100.81" cy="-18" rx="27" ry="18"/>
<text text-anchor="middle" x="100.81" y="-12.95" font-family="Times,serif" font-size="14.00">kb</text>
</g>
<!-- 3&#45;&#45;2 -->
<g id="edge3" class="edge">
<title>3&#45;&#45;2</title>
<path fill="none" stroke="black" d="M72.39,-72.76C78.37,-61.46 86.31,-46.44 92.27,-35.15"/>
</g>
</g>
</svg>
