<?xml version="1.0" encoding="UTF-8" standalone="no"?>
<!DOCTYPE svg PUBLIC "-//W3C//DTD SVG 1.1//EN"
 "http://www.w3.org/Graphics/SVG/1.1/DTD/svg11.dtd">
<!-- Generated by graphviz version 9.0.0 (20230911.1827)
 -->
<!-- Title: G Pages: 1 -->
<svg width="350pt" height="429pt"
 viewBox="0.00 0.00 350.00 428.50" xmlns="http://www.w3.org/2000/svg" xmlns:xlink="http://www.w3.org/1999/xlink">
<g id="graph0" class="graph" transform="scale(1 1) rotate(0) translate(4 424.5)">
<title>G</title>
<polygon fill="white" stroke="none" points="-4,4 -4,-424.5 346,-424.5 346,4 -4,4"/>
<text text-anchor="middle" x="171" y="-403.2" font-family="Times,serif" font-size="14.00">mom*sqrt(Bx**2+By**2+Bz**2), depth = 5</text>
<!-- 14 -->
<g id="node1" class="node">
<title>14</title>
<ellipse fill="none" stroke="black" cx="169" cy="-378" rx="27" ry="18"/>
<text text-anchor="middle" x="169" y="-372.95" font-family="Times,serif" font-size="14.00">*</text>
</g>
<!-- 1 -->
<g id="node2" class="node">
<title>1</title>
<ellipse fill="none" stroke="black" cx="131" cy="-306" rx="30.88" ry="18"/>
<text text-anchor="middle" x="131" y="-300.95" font-family="Times,serif" font-size="14.00">mom</text>
</g>
<!-- 14&#45;&#45;1 -->
<g id="edge1" class="edge">
<title>14&#45;&#45;1</title>
<path fill="none" stroke="black" d="M160.19,-360.76C154.14,-349.62 146.13,-334.87 140.03,-323.63"/>
</g>
<!-- 13 -->
<g id="node3" class="node">
<title>13</title>
<ellipse fill="none" stroke="black" cx="207" cy="-306" rx="27" ry="18"/>
<text text-anchor="middle" x="207" y="-300.95" font-family="Times,serif" font-size="14.00">sqrt</text>
</g>
<!-- 14&#45;&#45;13 -->
<g id="edge2" class="edge">
<title>14&#45;&#45;13</title>
<path fill="none" stroke="black" d="M177.81,-360.76C183.95,-349.46 192.11,-334.44 198.23,-323.15"/>
</g>
<!-- 12 -->
<g id="node4" class="node">
<title>12</title>
<ellipse fill="none" stroke="black" cx="207" cy="-234" rx="27" ry="18"/>
<text text-anchor="middle" x="207" y="-228.95" font-family="Times,serif" font-size="14.00">+</text>
</g>
<!-- 13&#45;&#45;12 -->
<g id="edge3" class="edge">
<title>13&#45;&#45;12</title>
<path fill="none" stroke="black" d="M207,-287.7C207,-276.85 207,-262.92 207,-252.1"/>
</g>
<!-- 8 -->
<g id="node5" class="node">
<title>8</title>
<ellipse fill="none" stroke="black" cx="171" cy="-162" rx="27" ry="18"/>
<text text-anchor="middle" x="171" y="-156.95" font-family="Times,serif" font-size="14.00">+</text>
</g>
<!-- 12&#45;&#45;8 -->
<g id="edge4" class="edge">
<title>12&#45;&#45;8</title>
<path fill="none" stroke="black" d="M198.65,-216.76C192.83,-205.46 185.11,-190.44 179.3,-179.15"/>
</g>
<!-- 11 -->
<g id="node12" class="node">
<title>11</title>
<ellipse fill="none" stroke="black" cx="243" cy="-162" rx="27" ry="18"/>
<text text-anchor="middle" x="243" y="-156.95" font-family="Times,serif" font-size="14.00">^</text>
</g>
<!-- 12&#45;&#45;11 -->
<g id="edge11" class="edge">
<title>12&#45;&#45;11</title>
<path fill="none" stroke="black" d="M215.35,-216.76C221.17,-205.46 228.89,-190.44 234.7,-179.15"/>
</g>
<!-- 4 -->
<g id="node6" class="node">
<title>4</title>
<ellipse fill="none" stroke="black" cx="99" cy="-90" rx="27" ry="18"/>
<text text-anchor="middle" x="99" y="-84.95" font-family="Times,serif" font-size="14.00">^</text>
</g>
<!-- 8&#45;&#45;4 -->
<g id="edge5" class="edge">
<title>8&#45;&#45;4</title>
<path fill="none" stroke="black" d="M156.08,-146.5C143.72,-134.48 126.25,-117.49 113.9,-105.49"/>
</g>
<!-- 7 -->
<g id="node9" class="node">
<title>7</title>
<ellipse fill="none" stroke="black" cx="171" cy="-90" rx="27" ry="18"/>
<text text-anchor="middle" x="171" y="-84.95" font-family="Times,serif" font-size="14.00">^</text>
</g>
<!-- 8&#45;&#45;7 -->
<g id="edge8" class="edge">
<title>8&#45;&#45;7</title>
<path fill="none" stroke="black" d="M171,-143.7C171,-132.85 171,-118.92 171,-108.1"/>
</g>
<!-- 2 -->
<g id="node7" class="node">
<title>2</title>
<ellipse fill="none" stroke="black" cx="27" cy="-18" rx="27" ry="18"/>
<text text-anchor="middle" x="27" y="-12.95" font-family="Times,serif" font-size="14.00">Bx</text>
</g>
<!-- 4&#45;&#45;2 -->
<g id="edge6" class="edge">
<title>4&#45;&#45;2</title>
<path fill="none" stroke="black" d="M84.08,-74.5C71.72,-62.48 54.25,-45.49 41.9,-33.49"/>
</g>
<!-- 3 -->
<g id="node8" class="node">
<title>3</title>
<ellipse fill="none" stroke="black" cx="99" cy="-18" rx="27" ry="18"/>
<text text-anchor="middle" x="99" y="-12.95" font-family="Times,serif" font-size="14.00">2</text>
</g>
<!-- 4&#45;&#45;3 -->
<g id="edge7" class="edge">
<title>4&#45;&#45;3</title>
<path fill="none" stroke="black" d="M99,-71.7C99,-60.85 99,-46.92 99,-36.1"/>
</g>
<!-- 5 -->
<g id="node10" class="node">
<title>5</title>
<ellipse fill="none" stroke="black" cx="171" cy="-18" rx="27" ry="18"/>
<text text-anchor="middle" x="171" y="-12.95" font-family="Times,serif" font-size="14.00">By</text>
</g>
<!-- 7&#45;&#45;5 -->
<g id="edge9" class="edge">
<title>7&#45;&#45;5</title>
<path fill="none" stroke="black" d="M171,-71.7C171,-60.85 171,-46.92 171,-36.1"/>
</g>
<!-- 6 -->
<g id="node11" class="node">
<title>6</title>
<ellipse fill="none" stroke="black" cx="243" cy="-18" rx="27" ry="18"/>
<text text-anchor="middle" x="243" y="-12.95" font-family="Times,serif" font-size="14.00">2</text>
</g>
<!-- 7&#45;&#45;6 -->
<g id="edge10" class="edge">
<title>7&#45;&#45;6</title>
<path fill="none" stroke="black" d="M185.92,-74.5C198.28,-62.48 215.75,-45.49 228.1,-33.49"/>
</g>
<!-- 9 -->
<g id="node13" class="node">
<title>9</title>
<ellipse fill="none" stroke="black" cx="243" cy="-90" rx="27" ry="18"/>
<text text-anchor="middle" x="243" y="-84.95" font-family="Times,serif" font-size="14.00">Bz</text>
</g>
<!-- 11&#45;&#45;9 -->
<g id="edge12" class="edge">
<title>11&#45;&#45;9</title>
<path fill="none" stroke="black" d="M243,-143.7C243,-132.85 243,-118.92 243,-108.1"/>
</g>
<!-- 10 -->
<g id="node14" class="node">
<title>10</title>
<ellipse fill="none" stroke="black" cx="315" cy="-90" rx="27" ry="18"/>
<text text-anchor="middle" x="315" y="-84.95" font-family="Times,serif" font-size="14.00">2</text>
</g>
<!-- 11&#45;&#45;10 -->
<g id="edge13" class="edge">
<title>11&#45;&#45;10</title>
<path fill="none" stroke="black" d="M257.92,-146.5C270.28,-134.48 287.75,-117.49 300.1,-105.49"/>
</g>
</g>
</svg>
