<?xml version="1.0" encoding="UTF-8" standalone="no"?>
<!DOCTYPE svg PUBLIC "-//W3C//DTD SVG 1.1//EN"
 "http://www.w3.org/Graphics/SVG/1.1/DTD/svg11.dtd">
<!-- Generated by graphviz version 9.0.0 (20230911.1827)
 -->
<!-- Title: G Pages: 1 -->
<svg width="352pt" height="357pt"
 viewBox="0.00 0.00 352.00 356.50" xmlns="http://www.w3.org/2000/svg" xmlns:xlink="http://www.w3.org/1999/xlink">
<g id="graph0" class="graph" transform="scale(1 1) rotate(0) translate(4 352.5)">
<title>G</title>
<polygon fill="white" stroke="none" points="-4,4 -4,-352.5 348,-352.5 348,4 -4,4"/>
<text text-anchor="middle" x="172" y="-331.2" font-family="Times,serif" font-size="14.00">g_*mom*B*Jz/(h/(2*pi)), depth = 4</text>
<!-- 13 -->
<g id="node1" class="node">
<title>13</title>
<ellipse fill="none" stroke="black" cx="173" cy="-306" rx="27" ry="18"/>
<text text-anchor="middle" x="173" y="-300.95" font-family="Times,serif" font-size="14.00">/</text>
</g>
<!-- 7 -->
<g id="node2" class="node">
<title>7</title>
<ellipse fill="none" stroke="black" cx="137" cy="-234" rx="27" ry="18"/>
<text text-anchor="middle" x="137" y="-228.95" font-family="Times,serif" font-size="14.00">*</text>
</g>
<!-- 13&#45;&#45;7 -->
<g id="edge1" class="edge">
<title>13&#45;&#45;7</title>
<path fill="none" stroke="black" d="M164.65,-288.76C158.83,-277.46 151.11,-262.44 145.3,-251.15"/>
</g>
<!-- 12 -->
<g id="node9" class="node">
<title>12</title>
<ellipse fill="none" stroke="black" cx="209" cy="-234" rx="27" ry="18"/>
<text text-anchor="middle" x="209" y="-228.95" font-family="Times,serif" font-size="14.00">/</text>
</g>
<!-- 13&#45;&#45;12 -->
<g id="edge8" class="edge">
<title>13&#45;&#45;12</title>
<path fill="none" stroke="black" d="M181.35,-288.76C187.17,-277.46 194.89,-262.44 200.7,-251.15"/>
</g>
<!-- 5 -->
<g id="node3" class="node">
<title>5</title>
<ellipse fill="none" stroke="black" cx="65" cy="-162" rx="27" ry="18"/>
<text text-anchor="middle" x="65" y="-156.95" font-family="Times,serif" font-size="14.00">*</text>
</g>
<!-- 7&#45;&#45;5 -->
<g id="edge2" class="edge">
<title>7&#45;&#45;5</title>
<path fill="none" stroke="black" d="M122.08,-218.5C109.72,-206.48 92.25,-189.49 79.9,-177.49"/>
</g>
<!-- 6 -->
<g id="node8" class="node">
<title>6</title>
<ellipse fill="none" stroke="black" cx="137" cy="-162" rx="27" ry="18"/>
<text text-anchor="middle" x="137" y="-156.95" font-family="Times,serif" font-size="14.00">Jz</text>
</g>
<!-- 7&#45;&#45;6 -->
<g id="edge7" class="edge">
<title>7&#45;&#45;6</title>
<path fill="none" stroke="black" d="M137,-215.7C137,-204.85 137,-190.92 137,-180.1"/>
</g>
<!-- 3 -->
<g id="node4" class="node">
<title>3</title>
<ellipse fill="none" stroke="black" cx="65" cy="-90" rx="27" ry="18"/>
<text text-anchor="middle" x="65" y="-84.95" font-family="Times,serif" font-size="14.00">*</text>
</g>
<!-- 5&#45;&#45;3 -->
<g id="edge3" class="edge">
<title>5&#45;&#45;3</title>
<path fill="none" stroke="black" d="M65,-143.7C65,-132.85 65,-118.92 65,-108.1"/>
</g>
<!-- 4 -->
<g id="node7" class="node">
<title>4</title>
<ellipse fill="none" stroke="black" cx="137" cy="-90" rx="27" ry="18"/>
<text text-anchor="middle" x="137" y="-84.95" font-family="Times,serif" font-size="14.00">B</text>
</g>
<!-- 5&#45;&#45;4 -->
<g id="edge6" class="edge">
<title>5&#45;&#45;4</title>
<path fill="none" stroke="black" d="M79.92,-146.5C92.28,-134.48 109.75,-117.49 122.1,-105.49"/>
</g>
<!-- 1 -->
<g id="node5" class="node">
<title>1</title>
<ellipse fill="none" stroke="black" cx="27" cy="-18" rx="27" ry="18"/>
<text text-anchor="middle" x="27" y="-12.95" font-family="Times,serif" font-size="14.00">g_</text>
</g>
<!-- 3&#45;&#45;1 -->
<g id="edge4" class="edge">
<title>3&#45;&#45;1</title>
<path fill="none" stroke="black" d="M56.19,-72.76C50.05,-61.46 41.89,-46.44 35.77,-35.15"/>
</g>
<!-- 2 -->
<g id="node6" class="node">
<title>2</title>
<ellipse fill="none" stroke="black" cx="103" cy="-18" rx="30.88" ry="18"/>
<text text-anchor="middle" x="103" y="-12.95" font-family="Times,serif" font-size="14.00">mom</text>
</g>
<!-- 3&#45;&#45;2 -->
<g id="edge5" class="edge">
<title>3&#45;&#45;2</title>
<path fill="none" stroke="black" d="M73.81,-72.76C79.86,-61.62 87.87,-46.87 93.97,-35.63"/>
</g>
<!-- 8 -->
<g id="node10" class="node">
<title>8</title>
<ellipse fill="none" stroke="black" cx="209" cy="-162" rx="27" ry="18"/>
<text text-anchor="middle" x="209" y="-156.95" font-family="Times,serif" font-size="14.00">h</text>
</g>
<!-- 12&#45;&#45;8 -->
<g id="edge9" class="edge">
<title>12&#45;&#45;8</title>
<path fill="none" stroke="black" d="M209,-215.7C209,-204.85 209,-190.92 209,-180.1"/>
</g>
<!-- 11 -->
<g id="node11" class="node">
<title>11</title>
<ellipse fill="none" stroke="black" cx="281" cy="-162" rx="27" ry="18"/>
<text text-anchor="middle" x="281" y="-156.95" font-family="Times,serif" font-size="14.00">*</text>
</g>
<!-- 12&#45;&#45;11 -->
<g id="edge10" class="edge">
<title>12&#45;&#45;11</title>
<path fill="none" stroke="black" d="M223.92,-218.5C236.28,-206.48 253.75,-189.49 266.1,-177.49"/>
</g>
<!-- 9 -->
<g id="node12" class="node">
<title>9</title>
<ellipse fill="none" stroke="black" cx="245" cy="-90" rx="27" ry="18"/>
<text text-anchor="middle" x="245" y="-84.95" font-family="Times,serif" font-size="14.00">2</text>
</g>
<!-- 11&#45;&#45;9 -->
<g id="edge11" class="edge">
<title>11&#45;&#45;9</title>
<path fill="none" stroke="black" d="M272.65,-144.76C266.83,-133.46 259.11,-118.44 253.3,-107.15"/>
</g>
<!-- 10 -->
<g id="node13" class="node">
<title>10</title>
<ellipse fill="none" stroke="black" cx="317" cy="-90" rx="27" ry="18"/>
<text text-anchor="middle" x="317" y="-84.95" font-family="Times,serif" font-size="14.00">pi</text>
</g>
<!-- 11&#45;&#45;10 -->
<g id="edge12" class="edge">
<title>11&#45;&#45;10</title>
<path fill="none" stroke="black" d="M289.35,-144.76C295.17,-133.46 302.89,-118.44 308.7,-107.15"/>
</g>
</g>
</svg>
