<?xml version="1.0" encoding="UTF-8" standalone="no"?>
<!DOCTYPE svg PUBLIC "-//W3C//DTD SVG 1.1//EN"
 "http://www.w3.org/Graphics/SVG/1.1/DTD/svg11.dtd">
<!-- Generated by graphviz version 9.0.0 (20230911.1827)
 -->
<!-- Title: G Pages: 1 -->
<svg width="496pt" height="501pt"
 viewBox="0.00 0.00 496.00 500.50" xmlns="http://www.w3.org/2000/svg" xmlns:xlink="http://www.w3.org/1999/xlink">
<g id="graph0" class="graph" transform="scale(1 1) rotate(0) translate(4 496.5)">
<title>G</title>
<polygon fill="white" stroke="none" points="-4,4 -4,-496.5 492,-496.5 492,4 -4,4"/>
<text text-anchor="middle" x="244" y="-475.2" font-family="Times,serif" font-size="14.00">(Z_1*Z_2*alpha*hbar*c/(4*E_n*sin(theta/2)**2))**2, depth = 6</text>
<!-- 22 -->
<g id="node1" class="node">
<title>22</title>
<ellipse fill="none" stroke="black" cx="317" cy="-450" rx="27" ry="18"/>
<text text-anchor="middle" x="317" y="-444.95" font-family="Times,serif" font-size="14.00">^</text>
</g>
<!-- 20 -->
<g id="node2" class="node">
<title>20</title>
<ellipse fill="none" stroke="black" cx="281" cy="-378" rx="27" ry="18"/>
<text text-anchor="middle" x="281" y="-372.95" font-family="Times,serif" font-size="14.00">/</text>
</g>
<!-- 22&#45;&#45;20 -->
<g id="edge1" class="edge">
<title>22&#45;&#45;20</title>
<path fill="none" stroke="black" d="M308.65,-432.76C302.83,-421.46 295.11,-406.44 289.3,-395.15"/>
</g>
<!-- 21 -->
<g id="node22" class="node">
<title>21</title>
<ellipse fill="none" stroke="black" cx="353" cy="-378" rx="27" ry="18"/>
<text text-anchor="middle" x="353" y="-372.95" font-family="Times,serif" font-size="14.00">2</text>
</g>
<!-- 22&#45;&#45;21 -->
<g id="edge21" class="edge">
<title>22&#45;&#45;21</title>
<path fill="none" stroke="black" d="M325.35,-432.76C331.17,-421.46 338.89,-406.44 344.7,-395.15"/>
</g>
<!-- 9 -->
<g id="node3" class="node">
<title>9</title>
<ellipse fill="none" stroke="black" cx="245" cy="-306" rx="27" ry="18"/>
<text text-anchor="middle" x="245" y="-300.95" font-family="Times,serif" font-size="14.00">*</text>
</g>
<!-- 20&#45;&#45;9 -->
<g id="edge2" class="edge">
<title>20&#45;&#45;9</title>
<path fill="none" stroke="black" d="M272.65,-360.76C266.83,-349.46 259.11,-334.44 253.3,-323.15"/>
</g>
<!-- 19 -->
<g id="node12" class="node">
<title>19</title>
<ellipse fill="none" stroke="black" cx="317" cy="-306" rx="27" ry="18"/>
<text text-anchor="middle" x="317" y="-300.95" font-family="Times,serif" font-size="14.00">*</text>
</g>
<!-- 20&#45;&#45;19 -->
<g id="edge11" class="edge">
<title>20&#45;&#45;19</title>
<path fill="none" stroke="black" d="M289.35,-360.76C295.17,-349.46 302.89,-334.44 308.7,-323.15"/>
</g>
<!-- 7 -->
<g id="node4" class="node">
<title>7</title>
<ellipse fill="none" stroke="black" cx="173" cy="-234" rx="27" ry="18"/>
<text text-anchor="middle" x="173" y="-228.95" font-family="Times,serif" font-size="14.00">*</text>
</g>
<!-- 9&#45;&#45;7 -->
<g id="edge3" class="edge">
<title>9&#45;&#45;7</title>
<path fill="none" stroke="black" d="M230.08,-290.5C217.72,-278.48 200.25,-261.49 187.9,-249.49"/>
</g>
<!-- 8 -->
<g id="node11" class="node">
<title>8</title>
<ellipse fill="none" stroke="black" cx="245" cy="-234" rx="27" ry="18"/>
<text text-anchor="middle" x="245" y="-228.95" font-family="Times,serif" font-size="14.00">c</text>
</g>
<!-- 9&#45;&#45;8 -->
<g id="edge10" class="edge">
<title>9&#45;&#45;8</title>
<path fill="none" stroke="black" d="M245,-287.7C245,-276.85 245,-262.92 245,-252.1"/>
</g>
<!-- 5 -->
<g id="node5" class="node">
<title>5</title>
<ellipse fill="none" stroke="black" cx="101" cy="-162" rx="27" ry="18"/>
<text text-anchor="middle" x="101" y="-156.95" font-family="Times,serif" font-size="14.00">*</text>
</g>
<!-- 7&#45;&#45;5 -->
<g id="edge4" class="edge">
<title>7&#45;&#45;5</title>
<path fill="none" stroke="black" d="M158.08,-218.5C145.72,-206.48 128.25,-189.49 115.9,-177.49"/>
</g>
<!-- 6 -->
<g id="node10" class="node">
<title>6</title>
<ellipse fill="none" stroke="black" cx="173" cy="-162" rx="27.3" ry="18"/>
<text text-anchor="middle" x="173" y="-156.95" font-family="Times,serif" font-size="14.00">hbar</text>
</g>
<!-- 7&#45;&#45;6 -->
<g id="edge9" class="edge">
<title>7&#45;&#45;6</title>
<path fill="none" stroke="black" d="M173,-215.7C173,-204.85 173,-190.92 173,-180.1"/>
</g>
<!-- 3 -->
<g id="node6" class="node">
<title>3</title>
<ellipse fill="none" stroke="black" cx="63" cy="-90" rx="27" ry="18"/>
<text text-anchor="middle" x="63" y="-84.95" font-family="Times,serif" font-size="14.00">*</text>
</g>
<!-- 5&#45;&#45;3 -->
<g id="edge5" class="edge">
<title>5&#45;&#45;3</title>
<path fill="none" stroke="black" d="M92.19,-144.76C86.05,-133.46 77.89,-118.44 71.77,-107.15"/>
</g>
<!-- 4 -->
<g id="node9" class="node">
<title>4</title>
<ellipse fill="none" stroke="black" cx="139" cy="-90" rx="30.88" ry="18"/>
<text text-anchor="middle" x="139" y="-84.95" font-family="Times,serif" font-size="14.00">alpha</text>
</g>
<!-- 5&#45;&#45;4 -->
<g id="edge8" class="edge">
<title>5&#45;&#45;4</title>
<path fill="none" stroke="black" d="M109.81,-144.76C115.86,-133.62 123.87,-118.87 129.97,-107.63"/>
</g>
<!-- 1 -->
<g id="node7" class="node">
<title>1</title>
<ellipse fill="none" stroke="black" cx="27" cy="-18" rx="27" ry="18"/>
<text text-anchor="middle" x="27" y="-12.95" font-family="Times,serif" font-size="14.00">Z_1</text>
</g>
<!-- 3&#45;&#45;1 -->
<g id="edge6" class="edge">
<title>3&#45;&#45;1</title>
<path fill="none" stroke="black" d="M54.65,-72.76C48.83,-61.46 41.11,-46.44 35.3,-35.15"/>
</g>
<!-- 2 -->
<g id="node8" class="node">
<title>2</title>
<ellipse fill="none" stroke="black" cx="99" cy="-18" rx="27" ry="18"/>
<text text-anchor="middle" x="99" y="-12.95" font-family="Times,serif" font-size="14.00">Z_2</text>
</g>
<!-- 3&#45;&#45;2 -->
<g id="edge7" class="edge">
<title>3&#45;&#45;2</title>
<path fill="none" stroke="black" d="M71.35,-72.76C77.17,-61.46 84.89,-46.44 90.7,-35.15"/>
</g>
<!-- 12 -->
<g id="node13" class="node">
<title>12</title>
<ellipse fill="none" stroke="black" cx="317" cy="-234" rx="27" ry="18"/>
<text text-anchor="middle" x="317" y="-228.95" font-family="Times,serif" font-size="14.00">*</text>
</g>
<!-- 19&#45;&#45;12 -->
<g id="edge12" class="edge">
<title>19&#45;&#45;12</title>
<path fill="none" stroke="black" d="M317,-287.7C317,-276.85 317,-262.92 317,-252.1"/>
</g>
<!-- 18 -->
<g id="node16" class="node">
<title>18</title>
<ellipse fill="none" stroke="black" cx="389" cy="-234" rx="27" ry="18"/>
<text text-anchor="middle" x="389" y="-228.95" font-family="Times,serif" font-size="14.00">^</text>
</g>
<!-- 19&#45;&#45;18 -->
<g id="edge15" class="edge">
<title>19&#45;&#45;18</title>
<path fill="none" stroke="black" d="M331.92,-290.5C344.28,-278.48 361.75,-261.49 374.1,-249.49"/>
</g>
<!-- 10 -->
<g id="node14" class="node">
<title>10</title>
<ellipse fill="none" stroke="black" cx="245" cy="-162" rx="27" ry="18"/>
<text text-anchor="middle" x="245" y="-156.95" font-family="Times,serif" font-size="14.00">4</text>
</g>
<!-- 12&#45;&#45;10 -->
<g id="edge13" class="edge">
<title>12&#45;&#45;10</title>
<path fill="none" stroke="black" d="M302.08,-218.5C289.72,-206.48 272.25,-189.49 259.9,-177.49"/>
</g>
<!-- 11 -->
<g id="node15" class="node">
<title>11</title>
<ellipse fill="none" stroke="black" cx="317" cy="-162" rx="27" ry="18"/>
<text text-anchor="middle" x="317" y="-156.95" font-family="Times,serif" font-size="14.00">E_n</text>
</g>
<!-- 12&#45;&#45;11 -->
<g id="edge14" class="edge">
<title>12&#45;&#45;11</title>
<path fill="none" stroke="black" d="M317,-215.7C317,-204.85 317,-190.92 317,-180.1"/>
</g>
<!-- 16 -->
<g id="node17" class="node">
<title>16</title>
<ellipse fill="none" stroke="black" cx="389" cy="-162" rx="27" ry="18"/>
<text text-anchor="middle" x="389" y="-156.95" font-family="Times,serif" font-size="14.00">sin</text>
</g>
<!-- 18&#45;&#45;16 -->
<g id="edge16" class="edge">
<title>18&#45;&#45;16</title>
<path fill="none" stroke="black" d="M389,-215.7C389,-204.85 389,-190.92 389,-180.1"/>
</g>
<!-- 17 -->
<g id="node21" class="node">
<title>17</title>
<ellipse fill="none" stroke="black" cx="461" cy="-162" rx="27" ry="18"/>
<text text-anchor="middle" x="461" y="-156.95" font-family="Times,serif" font-size="14.00">2</text>
</g>
<!-- 18&#45;&#45;17 -->
<g id="edge20" class="edge">
<title>18&#45;&#45;17</title>
<path fill="none" stroke="black" d="M403.92,-218.5C416.28,-206.48 433.75,-189.49 446.1,-177.49"/>
</g>
<!-- 15 -->
<g id="node18" class="node">
<title>15</title>
<ellipse fill="none" stroke="black" cx="389" cy="-90" rx="27" ry="18"/>
<text text-anchor="middle" x="389" y="-84.95" font-family="Times,serif" font-size="14.00">/</text>
</g>
<!-- 16&#45;&#45;15 -->
<g id="edge17" class="edge">
<title>16&#45;&#45;15</title>
<path fill="none" stroke="black" d="M389,-143.7C389,-132.85 389,-118.92 389,-108.1"/>
</g>
<!-- 13 -->
<g id="node19" class="node">
<title>13</title>
<ellipse fill="none" stroke="black" cx="352" cy="-18" rx="28.83" ry="18"/>
<text text-anchor="middle" x="352" y="-12.95" font-family="Times,serif" font-size="14.00">theta</text>
</g>
<!-- 15&#45;&#45;13 -->
<g id="edge18" class="edge">
<title>15&#45;&#45;13</title>
<path fill="none" stroke="black" d="M380.42,-72.76C374.53,-61.62 366.73,-46.87 360.79,-35.63"/>
</g>
<!-- 14 -->
<g id="node20" class="node">
<title>14</title>
<ellipse fill="none" stroke="black" cx="426" cy="-18" rx="27" ry="18"/>
<text text-anchor="middle" x="426" y="-12.95" font-family="Times,serif" font-size="14.00">2</text>
</g>
<!-- 15&#45;&#45;14 -->
<g id="edge19" class="edge">
<title>15&#45;&#45;14</title>
<path fill="none" stroke="black" d="M397.58,-72.76C403.56,-61.46 411.5,-46.44 417.46,-35.15"/>
</g>
</g>
</svg>
