<?xml version="1.0" encoding="UTF-8" standalone="no"?>
<!DOCTYPE svg PUBLIC "-//W3C//DTD SVG 1.1//EN"
 "http://www.w3.org/Graphics/SVG/1.1/DTD/svg11.dtd">
<!-- Generated by graphviz version 9.0.0 (20230911.1827)
 -->
<!-- Title: G Pages: 1 -->
<svg width="985pt" height="501pt"
 viewBox="0.00 0.00 985.00 500.50" xmlns="http://www.w3.org/2000/svg" xmlns:xlink="http://www.w3.org/1999/xlink">
<g id="graph0" class="graph" transform="scale(1 1) rotate(0) translate(4 496.5)">
<title>G</title>
<polygon fill="white" stroke="none" points="-4,4 -4,-496.5 981,-496.5 981,4 -4,4"/>
<text text-anchor="middle" x="488.5" y="-475.2" font-family="Times,serif" font-size="14.00">(1/2*epsilon*c*Ef**2)*(8*pi*r**(2/3))*(omega**4/(omega**2&#45;omega_0**2)**2), depth = 6</text>
<!-- 35 -->
<g id="node1" class="node">
<title>35</title>
<ellipse fill="none" stroke="black" cx="576" cy="-450" rx="27" ry="18"/>
<text text-anchor="middle" x="576" y="-444.95" font-family="Times,serif" font-size="14.00">*</text>
</g>
<!-- 21 -->
<g id="node2" class="node">
<title>21</title>
<ellipse fill="none" stroke="black" cx="500" cy="-378" rx="27" ry="18"/>
<text text-anchor="middle" x="500" y="-372.95" font-family="Times,serif" font-size="14.00">*</text>
</g>
<!-- 35&#45;&#45;21 -->
<g id="edge1" class="edge">
<title>35&#45;&#45;21</title>
<path fill="none" stroke="black" d="M560.62,-434.83C547.43,-422.69 528.54,-405.28 515.36,-393.14"/>
</g>
<!-- 34 -->
<g id="node23" class="node">
<title>34</title>
<ellipse fill="none" stroke="black" cx="657" cy="-378" rx="27" ry="18"/>
<text text-anchor="middle" x="657" y="-372.95" font-family="Times,serif" font-size="14.00">/</text>
</g>
<!-- 35&#45;&#45;34 -->
<g id="edge22" class="edge">
<title>35&#45;&#45;34</title>
<path fill="none" stroke="black" d="M592,-435.17C606.2,-422.9 626.84,-405.06 641.03,-392.8"/>
</g>
<!-- 11 -->
<g id="node3" class="node">
<title>11</title>
<ellipse fill="none" stroke="black" cx="284" cy="-306" rx="27" ry="18"/>
<text text-anchor="middle" x="284" y="-300.95" font-family="Times,serif" font-size="14.00">*</text>
</g>
<!-- 21&#45;&#45;11 -->
<g id="edge2" class="edge">
<title>21&#45;&#45;11</title>
<path fill="none" stroke="black" d="M476.06,-369.24C434.54,-355.79 349.64,-328.27 308.05,-314.79"/>
</g>
<!-- 20 -->
<g id="node14" class="node">
<title>20</title>
<ellipse fill="none" stroke="black" cx="500" cy="-306" rx="27" ry="18"/>
<text text-anchor="middle" x="500" y="-300.95" font-family="Times,serif" font-size="14.00">*</text>
</g>
<!-- 21&#45;&#45;20 -->
<g id="edge13" class="edge">
<title>21&#45;&#45;20</title>
<path fill="none" stroke="black" d="M500,-359.7C500,-348.85 500,-334.92 500,-324.1"/>
</g>
<!-- 7 -->
<g id="node4" class="node">
<title>7</title>
<ellipse fill="none" stroke="black" cx="176" cy="-234" rx="27" ry="18"/>
<text text-anchor="middle" x="176" y="-228.95" font-family="Times,serif" font-size="14.00">*</text>
</g>
<!-- 11&#45;&#45;7 -->
<g id="edge3" class="edge">
<title>11&#45;&#45;7</title>
<path fill="none" stroke="black" d="M265.19,-292.81C245.49,-280.04 214.72,-260.09 194.96,-247.29"/>
</g>
<!-- 10 -->
<g id="node11" class="node">
<title>10</title>
<ellipse fill="none" stroke="black" cx="284" cy="-234" rx="27" ry="18"/>
<text text-anchor="middle" x="284" y="-228.95" font-family="Times,serif" font-size="14.00">^</text>
</g>
<!-- 11&#45;&#45;10 -->
<g id="edge10" class="edge">
<title>11&#45;&#45;10</title>
<path fill="none" stroke="black" d="M284,-287.7C284,-276.85 284,-262.92 284,-252.1"/>
</g>
<!-- 5 -->
<g id="node5" class="node">
<title>5</title>
<ellipse fill="none" stroke="black" cx="104" cy="-162" rx="27" ry="18"/>
<text text-anchor="middle" x="104" y="-156.95" font-family="Times,serif" font-size="14.00">*</text>
</g>
<!-- 7&#45;&#45;5 -->
<g id="edge4" class="edge">
<title>7&#45;&#45;5</title>
<path fill="none" stroke="black" d="M161.08,-218.5C148.72,-206.48 131.25,-189.49 118.9,-177.49"/>
</g>
<!-- 6 -->
<g id="node10" class="node">
<title>6</title>
<ellipse fill="none" stroke="black" cx="176" cy="-162" rx="27" ry="18"/>
<text text-anchor="middle" x="176" y="-156.95" font-family="Times,serif" font-size="14.00">c</text>
</g>
<!-- 7&#45;&#45;6 -->
<g id="edge9" class="edge">
<title>7&#45;&#45;6</title>
<path fill="none" stroke="black" d="M176,-215.7C176,-204.85 176,-190.92 176,-180.1"/>
</g>
<!-- 3 -->
<g id="node6" class="node">
<title>3</title>
<ellipse fill="none" stroke="black" cx="63" cy="-90" rx="27" ry="18"/>
<text text-anchor="middle" x="63" y="-84.95" font-family="Times,serif" font-size="14.00">/</text>
</g>
<!-- 5&#45;&#45;3 -->
<g id="edge5" class="edge">
<title>5&#45;&#45;3</title>
<path fill="none" stroke="black" d="M94.49,-144.76C87.87,-133.46 79.07,-118.44 72.46,-107.15"/>
</g>
<!-- 4 -->
<g id="node9" class="node">
<title>4</title>
<ellipse fill="none" stroke="black" cx="146" cy="-90" rx="37.53" ry="18"/>
<text text-anchor="middle" x="146" y="-84.95" font-family="Times,serif" font-size="14.00">epsilon</text>
</g>
<!-- 5&#45;&#45;4 -->
<g id="edge8" class="edge">
<title>5&#45;&#45;4</title>
<path fill="none" stroke="black" d="M113.74,-144.76C120.43,-133.62 129.28,-118.87 136.02,-107.63"/>
</g>
<!-- 1 -->
<g id="node7" class="node">
<title>1</title>
<ellipse fill="none" stroke="black" cx="27" cy="-18" rx="27" ry="18"/>
<text text-anchor="middle" x="27" y="-12.95" font-family="Times,serif" font-size="14.00">1</text>
</g>
<!-- 3&#45;&#45;1 -->
<g id="edge6" class="edge">
<title>3&#45;&#45;1</title>
<path fill="none" stroke="black" d="M54.65,-72.76C48.83,-61.46 41.11,-46.44 35.3,-35.15"/>
</g>
<!-- 2 -->
<g id="node8" class="node">
<title>2</title>
<ellipse fill="none" stroke="black" cx="99" cy="-18" rx="27" ry="18"/>
<text text-anchor="middle" x="99" y="-12.95" font-family="Times,serif" font-size="14.00">2</text>
</g>
<!-- 3&#45;&#45;2 -->
<g id="edge7" class="edge">
<title>3&#45;&#45;2</title>
<path fill="none" stroke="black" d="M71.35,-72.76C77.17,-61.46 84.89,-46.44 90.7,-35.15"/>
</g>
<!-- 8 -->
<g id="node12" class="node">
<title>8</title>
<ellipse fill="none" stroke="black" cx="248" cy="-162" rx="27" ry="18"/>
<text text-anchor="middle" x="248" y="-156.95" font-family="Times,serif" font-size="14.00">Ef</text>
</g>
<!-- 10&#45;&#45;8 -->
<g id="edge11" class="edge">
<title>10&#45;&#45;8</title>
<path fill="none" stroke="black" d="M275.65,-216.76C269.83,-205.46 262.11,-190.44 256.3,-179.15"/>
</g>
<!-- 9 -->
<g id="node13" class="node">
<title>9</title>
<ellipse fill="none" stroke="black" cx="320" cy="-162" rx="27" ry="18"/>
<text text-anchor="middle" x="320" y="-156.95" font-family="Times,serif" font-size="14.00">2</text>
</g>
<!-- 10&#45;&#45;9 -->
<g id="edge12" class="edge">
<title>10&#45;&#45;9</title>
<path fill="none" stroke="black" d="M292.35,-216.76C298.17,-205.46 305.89,-190.44 311.7,-179.15"/>
</g>
<!-- 14 -->
<g id="node15" class="node">
<title>14</title>
<ellipse fill="none" stroke="black" cx="464" cy="-234" rx="27" ry="18"/>
<text text-anchor="middle" x="464" y="-228.95" font-family="Times,serif" font-size="14.00">*</text>
</g>
<!-- 20&#45;&#45;14 -->
<g id="edge14" class="edge">
<title>20&#45;&#45;14</title>
<path fill="none" stroke="black" d="M491.65,-288.76C485.83,-277.46 478.11,-262.44 472.3,-251.15"/>
</g>
<!-- 19 -->
<g id="node18" class="node">
<title>19</title>
<ellipse fill="none" stroke="black" cx="536" cy="-234" rx="27" ry="18"/>
<text text-anchor="middle" x="536" y="-228.95" font-family="Times,serif" font-size="14.00">^</text>
</g>
<!-- 20&#45;&#45;19 -->
<g id="edge17" class="edge">
<title>20&#45;&#45;19</title>
<path fill="none" stroke="black" d="M508.35,-288.76C514.17,-277.46 521.89,-262.44 527.7,-251.15"/>
</g>
<!-- 12 -->
<g id="node16" class="node">
<title>12</title>
<ellipse fill="none" stroke="black" cx="392" cy="-162" rx="27" ry="18"/>
<text text-anchor="middle" x="392" y="-156.95" font-family="Times,serif" font-size="14.00">8</text>
</g>
<!-- 14&#45;&#45;12 -->
<g id="edge15" class="edge">
<title>14&#45;&#45;12</title>
<path fill="none" stroke="black" d="M449.08,-218.5C436.72,-206.48 419.25,-189.49 406.9,-177.49"/>
</g>
<!-- 13 -->
<g id="node17" class="node">
<title>13</title>
<ellipse fill="none" stroke="black" cx="464" cy="-162" rx="27" ry="18"/>
<text text-anchor="middle" x="464" y="-156.95" font-family="Times,serif" font-size="14.00">pi</text>
</g>
<!-- 14&#45;&#45;13 -->
<g id="edge16" class="edge">
<title>14&#45;&#45;13</title>
<path fill="none" stroke="black" d="M464,-215.7C464,-204.85 464,-190.92 464,-180.1"/>
</g>
<!-- 15 -->
<g id="node19" class="node">
<title>15</title>
<ellipse fill="none" stroke="black" cx="536" cy="-162" rx="27" ry="18"/>
<text text-anchor="middle" x="536" y="-156.95" font-family="Times,serif" font-size="14.00">r</text>
</g>
<!-- 19&#45;&#45;15 -->
<g id="edge18" class="edge">
<title>19&#45;&#45;15</title>
<path fill="none" stroke="black" d="M536,-215.7C536,-204.85 536,-190.92 536,-180.1"/>
</g>
<!-- 18 -->
<g id="node20" class="node">
<title>18</title>
<ellipse fill="none" stroke="black" cx="608" cy="-162" rx="27" ry="18"/>
<text text-anchor="middle" x="608" y="-156.95" font-family="Times,serif" font-size="14.00">/</text>
</g>
<!-- 19&#45;&#45;18 -->
<g id="edge19" class="edge">
<title>19&#45;&#45;18</title>
<path fill="none" stroke="black" d="M550.92,-218.5C563.28,-206.48 580.75,-189.49 593.1,-177.49"/>
</g>
<!-- 16 -->
<g id="node21" class="node">
<title>16</title>
<ellipse fill="none" stroke="black" cx="536" cy="-90" rx="27" ry="18"/>
<text text-anchor="middle" x="536" y="-84.95" font-family="Times,serif" font-size="14.00">2</text>
</g>
<!-- 18&#45;&#45;16 -->
<g id="edge20" class="edge">
<title>18&#45;&#45;16</title>
<path fill="none" stroke="black" d="M593.08,-146.5C580.72,-134.48 563.25,-117.49 550.9,-105.49"/>
</g>
<!-- 17 -->
<g id="node22" class="node">
<title>17</title>
<ellipse fill="none" stroke="black" cx="608" cy="-90" rx="27" ry="18"/>
<text text-anchor="middle" x="608" y="-84.95" font-family="Times,serif" font-size="14.00">3</text>
</g>
<!-- 18&#45;&#45;17 -->
<g id="edge21" class="edge">
<title>18&#45;&#45;17</title>
<path fill="none" stroke="black" d="M608,-143.7C608,-132.85 608,-118.92 608,-108.1"/>
</g>
<!-- 24 -->
<g id="node24" class="node">
<title>24</title>
<ellipse fill="none" stroke="black" cx="657" cy="-306" rx="27" ry="18"/>
<text text-anchor="middle" x="657" y="-300.95" font-family="Times,serif" font-size="14.00">^</text>
</g>
<!-- 34&#45;&#45;24 -->
<g id="edge23" class="edge">
<title>34&#45;&#45;24</title>
<path fill="none" stroke="black" d="M657,-359.7C657,-348.85 657,-334.92 657,-324.1"/>
</g>
<!-- 33 -->
<g id="node27" class="node">
<title>33</title>
<ellipse fill="none" stroke="black" cx="770" cy="-306" rx="27" ry="18"/>
<text text-anchor="middle" x="770" y="-300.95" font-family="Times,serif" font-size="14.00">^</text>
</g>
<!-- 34&#45;&#45;33 -->
<g id="edge26" class="edge">
<title>34&#45;&#45;33</title>
<path fill="none" stroke="black" d="M676.43,-364.97C697.25,-352.07 730.1,-331.72 750.83,-318.88"/>
</g>
<!-- 22 -->
<g id="node25" class="node">
<title>22</title>
<ellipse fill="none" stroke="black" cx="617" cy="-234" rx="36" ry="18"/>
<text text-anchor="middle" x="617" y="-228.95" font-family="Times,serif" font-size="14.00">omega</text>
</g>
<!-- 24&#45;&#45;22 -->
<g id="edge24" class="edge">
<title>24&#45;&#45;22</title>
<path fill="none" stroke="black" d="M647.72,-288.76C641.35,-277.62 632.92,-262.87 626.5,-251.63"/>
</g>
<!-- 23 -->
<g id="node26" class="node">
<title>23</title>
<ellipse fill="none" stroke="black" cx="698" cy="-234" rx="27" ry="18"/>
<text text-anchor="middle" x="698" y="-228.95" font-family="Times,serif" font-size="14.00">4</text>
</g>
<!-- 24&#45;&#45;23 -->
<g id="edge25" class="edge">
<title>24&#45;&#45;23</title>
<path fill="none" stroke="black" d="M666.51,-288.76C673.13,-277.46 681.93,-262.44 688.54,-251.15"/>
</g>
<!-- 31 -->
<g id="node28" class="node">
<title>31</title>
<ellipse fill="none" stroke="black" cx="770" cy="-234" rx="27" ry="18"/>
<text text-anchor="middle" x="770" y="-228.95" font-family="Times,serif" font-size="14.00">&#45;</text>
</g>
<!-- 33&#45;&#45;31 -->
<g id="edge27" class="edge">
<title>33&#45;&#45;31</title>
<path fill="none" stroke="black" d="M770,-287.7C770,-276.85 770,-262.92 770,-252.1"/>
</g>
<!-- 32 -->
<g id="node35" class="node">
<title>32</title>
<ellipse fill="none" stroke="black" cx="842" cy="-234" rx="27" ry="18"/>
<text text-anchor="middle" x="842" y="-228.95" font-family="Times,serif" font-size="14.00">2</text>
</g>
<!-- 33&#45;&#45;32 -->
<g id="edge34" class="edge">
<title>33&#45;&#45;32</title>
<path fill="none" stroke="black" d="M784.92,-290.5C797.28,-278.48 814.75,-261.49 827.1,-249.49"/>
</g>
<!-- 27 -->
<g id="node29" class="node">
<title>27</title>
<ellipse fill="none" stroke="black" cx="770" cy="-162" rx="27" ry="18"/>
<text text-anchor="middle" x="770" y="-156.95" font-family="Times,serif" font-size="14.00">^</text>
</g>
<!-- 31&#45;&#45;27 -->
<g id="edge28" class="edge">
<title>31&#45;&#45;27</title>
<path fill="none" stroke="black" d="M770,-215.7C770,-204.85 770,-190.92 770,-180.1"/>
</g>
<!-- 30 -->
<g id="node32" class="node">
<title>30</title>
<ellipse fill="none" stroke="black" cx="860" cy="-162" rx="27" ry="18"/>
<text text-anchor="middle" x="860" y="-156.95" font-family="Times,serif" font-size="14.00">^</text>
</g>
<!-- 31&#45;&#45;30 -->
<g id="edge31" class="edge">
<title>31&#45;&#45;30</title>
<path fill="none" stroke="black" d="M786.93,-219.83C802.92,-207.4 826.78,-188.84 842.84,-176.35"/>
</g>
<!-- 25 -->
<g id="node30" class="node">
<title>25</title>
<ellipse fill="none" stroke="black" cx="689" cy="-90" rx="36" ry="18"/>
<text text-anchor="middle" x="689" y="-84.95" font-family="Times,serif" font-size="14.00">omega</text>
</g>
<!-- 27&#45;&#45;25 -->
<g id="edge29" class="edge">
<title>27&#45;&#45;25</title>
<path fill="none" stroke="black" d="M754,-147.17C740.26,-135.3 720.49,-118.22 706.37,-106.01"/>
</g>
<!-- 26 -->
<g id="node31" class="node">
<title>26</title>
<ellipse fill="none" stroke="black" cx="770" cy="-90" rx="27" ry="18"/>
<text text-anchor="middle" x="770" y="-84.95" font-family="Times,serif" font-size="14.00">2</text>
</g>
<!-- 27&#45;&#45;26 -->
<g id="edge30" class="edge">
<title>27&#45;&#45;26</title>
<path fill="none" stroke="black" d="M770,-143.7C770,-132.85 770,-118.92 770,-108.1"/>
</g>
<!-- 28 -->
<g id="node33" class="node">
<title>28</title>
<ellipse fill="none" stroke="black" cx="860" cy="-90" rx="45.21" ry="18"/>
<text text-anchor="middle" x="860" y="-84.95" font-family="Times,serif" font-size="14.00">omega_0</text>
</g>
<!-- 30&#45;&#45;28 -->
<g id="edge32" class="edge">
<title>30&#45;&#45;28</title>
<path fill="none" stroke="black" d="M860,-143.7C860,-132.85 860,-118.92 860,-108.1"/>
</g>
<!-- 29 -->
<g id="node34" class="node">
<title>29</title>
<ellipse fill="none" stroke="black" cx="950" cy="-90" rx="27" ry="18"/>
<text text-anchor="middle" x="950" y="-84.95" font-family="Times,serif" font-size="14.00">2</text>
</g>
<!-- 30&#45;&#45;29 -->
<g id="edge33" class="edge">
<title>30&#45;&#45;29</title>
<path fill="none" stroke="black" d="M876.93,-147.83C892.92,-135.4 916.78,-116.84 932.84,-104.35"/>
</g>
</g>
</svg>
