<?xml version="1.0" encoding="UTF-8" standalone="no"?>
<!DOCTYPE svg PUBLIC "-//W3C//DTD SVG 1.1//EN"
 "http://www.w3.org/Graphics/SVG/1.1/DTD/svg11.dtd">
<!-- Generated by graphviz version 9.0.0 (20230911.1827)
 -->
<!-- Title: G Pages: 1 -->
<svg width="409pt" height="573pt"
 viewBox="0.00 0.00 409.00 572.50" xmlns="http://www.w3.org/2000/svg" xmlns:xlink="http://www.w3.org/1999/xlink">
<g id="graph0" class="graph" transform="scale(1 1) rotate(0) translate(4 568.5)">
<title>G</title>
<polygon fill="white" stroke="none" points="-4,4 -4,-568.5 405,-568.5 405,4 -4,4"/>
<text text-anchor="middle" x="200.5" y="-547.2" font-family="Times,serif" font-size="14.00">(h/(2*pi))*omega/(exp((h/(2*pi))*omega/(kb*T))&#45;1), depth = 7</text>
<!-- 22 -->
<g id="node1" class="node">
<title>22</title>
<ellipse fill="none" stroke="black" cx="200" cy="-522" rx="27" ry="18"/>
<text text-anchor="middle" x="200" y="-516.95" font-family="Times,serif" font-size="14.00">/</text>
</g>
<!-- 7 -->
<g id="node2" class="node">
<title>7</title>
<ellipse fill="none" stroke="black" cx="160" cy="-450" rx="27" ry="18"/>
<text text-anchor="middle" x="160" y="-444.95" font-family="Times,serif" font-size="14.00">*</text>
</g>
<!-- 22&#45;&#45;7 -->
<g id="edge1" class="edge">
<title>22&#45;&#45;7</title>
<path fill="none" stroke="black" d="M190.72,-504.76C184.26,-493.46 175.68,-478.44 169.23,-467.15"/>
</g>
<!-- 21 -->
<g id="node9" class="node">
<title>21</title>
<ellipse fill="none" stroke="black" cx="241" cy="-450" rx="27" ry="18"/>
<text text-anchor="middle" x="241" y="-444.95" font-family="Times,serif" font-size="14.00">&#45;</text>
</g>
<!-- 22&#45;&#45;21 -->
<g id="edge8" class="edge">
<title>22&#45;&#45;21</title>
<path fill="none" stroke="black" d="M209.51,-504.76C216.13,-493.46 224.93,-478.44 231.54,-467.15"/>
</g>
<!-- 5 -->
<g id="node3" class="node">
<title>5</title>
<ellipse fill="none" stroke="black" cx="79" cy="-378" rx="27" ry="18"/>
<text text-anchor="middle" x="79" y="-372.95" font-family="Times,serif" font-size="14.00">/</text>
</g>
<!-- 7&#45;&#45;5 -->
<g id="edge2" class="edge">
<title>7&#45;&#45;5</title>
<path fill="none" stroke="black" d="M144,-435.17C129.8,-422.9 109.16,-405.06 94.97,-392.8"/>
</g>
<!-- 6 -->
<g id="node8" class="node">
<title>6</title>
<ellipse fill="none" stroke="black" cx="160" cy="-378" rx="36" ry="18"/>
<text text-anchor="middle" x="160" y="-372.95" font-family="Times,serif" font-size="14.00">omega</text>
</g>
<!-- 7&#45;&#45;6 -->
<g id="edge7" class="edge">
<title>7&#45;&#45;6</title>
<path fill="none" stroke="black" d="M160,-431.7C160,-420.85 160,-406.92 160,-396.1"/>
</g>
<!-- 1 -->
<g id="node4" class="node">
<title>1</title>
<ellipse fill="none" stroke="black" cx="27" cy="-306" rx="27" ry="18"/>
<text text-anchor="middle" x="27" y="-300.95" font-family="Times,serif" font-size="14.00">h</text>
</g>
<!-- 5&#45;&#45;1 -->
<g id="edge3" class="edge">
<title>5&#45;&#45;1</title>
<path fill="none" stroke="black" d="M67.46,-361.46C58.84,-349.86 47.12,-334.08 38.51,-322.49"/>
</g>
<!-- 4 -->
<g id="node5" class="node">
<title>4</title>
<ellipse fill="none" stroke="black" cx="99" cy="-306" rx="27" ry="18"/>
<text text-anchor="middle" x="99" y="-300.95" font-family="Times,serif" font-size="14.00">*</text>
</g>
<!-- 5&#45;&#45;4 -->
<g id="edge4" class="edge">
<title>5&#45;&#45;4</title>
<path fill="none" stroke="black" d="M83.84,-360.05C86.99,-349.05 91.07,-334.76 94.2,-323.79"/>
</g>
<!-- 2 -->
<g id="node6" class="node">
<title>2</title>
<ellipse fill="none" stroke="black" cx="68" cy="-234" rx="27" ry="18"/>
<text text-anchor="middle" x="68" y="-228.95" font-family="Times,serif" font-size="14.00">2</text>
</g>
<!-- 4&#45;&#45;2 -->
<g id="edge5" class="edge">
<title>4&#45;&#45;2</title>
<path fill="none" stroke="black" d="M91.65,-288.41C86.71,-277.25 80.22,-262.6 75.29,-251.47"/>
</g>
<!-- 3 -->
<g id="node7" class="node">
<title>3</title>
<ellipse fill="none" stroke="black" cx="140" cy="-234" rx="27" ry="18"/>
<text text-anchor="middle" x="140" y="-228.95" font-family="Times,serif" font-size="14.00">pi</text>
</g>
<!-- 4&#45;&#45;3 -->
<g id="edge6" class="edge">
<title>4&#45;&#45;3</title>
<path fill="none" stroke="black" d="M108.51,-288.76C115.13,-277.46 123.93,-262.44 130.54,-251.15"/>
</g>
<!-- 19 -->
<g id="node10" class="node">
<title>19</title>
<ellipse fill="none" stroke="black" cx="241" cy="-378" rx="27" ry="18"/>
<text text-anchor="middle" x="241" y="-372.95" font-family="Times,serif" font-size="14.00">exp</text>
</g>
<!-- 21&#45;&#45;19 -->
<g id="edge9" class="edge">
<title>21&#45;&#45;19</title>
<path fill="none" stroke="black" d="M241,-431.7C241,-420.85 241,-406.92 241,-396.1"/>
</g>
<!-- 20 -->
<g id="node22" class="node">
<title>20</title>
<ellipse fill="none" stroke="black" cx="313" cy="-378" rx="27" ry="18"/>
<text text-anchor="middle" x="313" y="-372.95" font-family="Times,serif" font-size="14.00">1</text>
</g>
<!-- 21&#45;&#45;20 -->
<g id="edge21" class="edge">
<title>21&#45;&#45;20</title>
<path fill="none" stroke="black" d="M255.92,-434.5C268.28,-422.48 285.75,-405.49 298.1,-393.49"/>
</g>
<!-- 18 -->
<g id="node11" class="node">
<title>18</title>
<ellipse fill="none" stroke="black" cx="241" cy="-306" rx="27" ry="18"/>
<text text-anchor="middle" x="241" y="-300.95" font-family="Times,serif" font-size="14.00">/</text>
</g>
<!-- 19&#45;&#45;18 -->
<g id="edge10" class="edge">
<title>19&#45;&#45;18</title>
<path fill="none" stroke="black" d="M241,-359.7C241,-348.85 241,-334.92 241,-324.1"/>
</g>
<!-- 14 -->
<g id="node12" class="node">
<title>14</title>
<ellipse fill="none" stroke="black" cx="221" cy="-234" rx="27" ry="18"/>
<text text-anchor="middle" x="221" y="-228.95" font-family="Times,serif" font-size="14.00">*</text>
</g>
<!-- 18&#45;&#45;14 -->
<g id="edge11" class="edge">
<title>18&#45;&#45;14</title>
<path fill="none" stroke="black" d="M236.16,-288.05C233.01,-277.05 228.93,-262.76 225.8,-251.79"/>
</g>
<!-- 17 -->
<g id="node19" class="node">
<title>17</title>
<ellipse fill="none" stroke="black" cx="302" cy="-234" rx="27" ry="18"/>
<text text-anchor="middle" x="302" y="-228.95" font-family="Times,serif" font-size="14.00">*</text>
</g>
<!-- 18&#45;&#45;17 -->
<g id="edge18" class="edge">
<title>18&#45;&#45;17</title>
<path fill="none" stroke="black" d="M254.24,-289.81C264.47,-278.07 278.56,-261.89 288.79,-250.16"/>
</g>
<!-- 12 -->
<g id="node13" class="node">
<title>12</title>
<ellipse fill="none" stroke="black" cx="140" cy="-162" rx="27" ry="18"/>
<text text-anchor="middle" x="140" y="-156.95" font-family="Times,serif" font-size="14.00">/</text>
</g>
<!-- 14&#45;&#45;12 -->
<g id="edge12" class="edge">
<title>14&#45;&#45;12</title>
<path fill="none" stroke="black" d="M205,-219.17C190.8,-206.9 170.16,-189.06 155.97,-176.8"/>
</g>
<!-- 13 -->
<g id="node18" class="node">
<title>13</title>
<ellipse fill="none" stroke="black" cx="221" cy="-162" rx="36" ry="18"/>
<text text-anchor="middle" x="221" y="-156.95" font-family="Times,serif" font-size="14.00">omega</text>
</g>
<!-- 14&#45;&#45;13 -->
<g id="edge17" class="edge">
<title>14&#45;&#45;13</title>
<path fill="none" stroke="black" d="M221,-215.7C221,-204.85 221,-190.92 221,-180.1"/>
</g>
<!-- 8 -->
<g id="node14" class="node">
<title>8</title>
<ellipse fill="none" stroke="black" cx="104" cy="-90" rx="27" ry="18"/>
<text text-anchor="middle" x="104" y="-84.95" font-family="Times,serif" font-size="14.00">h</text>
</g>
<!-- 12&#45;&#45;8 -->
<g id="edge13" class="edge">
<title>12&#45;&#45;8</title>
<path fill="none" stroke="black" d="M131.65,-144.76C125.83,-133.46 118.11,-118.44 112.3,-107.15"/>
</g>
<!-- 11 -->
<g id="node15" class="node">
<title>11</title>
<ellipse fill="none" stroke="black" cx="176" cy="-90" rx="27" ry="18"/>
<text text-anchor="middle" x="176" y="-84.95" font-family="Times,serif" font-size="14.00">*</text>
</g>
<!-- 12&#45;&#45;11 -->
<g id="edge14" class="edge">
<title>12&#45;&#45;11</title>
<path fill="none" stroke="black" d="M148.35,-144.76C154.17,-133.46 161.89,-118.44 167.7,-107.15"/>
</g>
<!-- 9 -->
<g id="node16" class="node">
<title>9</title>
<ellipse fill="none" stroke="black" cx="140" cy="-18" rx="27" ry="18"/>
<text text-anchor="middle" x="140" y="-12.95" font-family="Times,serif" font-size="14.00">2</text>
</g>
<!-- 11&#45;&#45;9 -->
<g id="edge15" class="edge">
<title>11&#45;&#45;9</title>
<path fill="none" stroke="black" d="M167.65,-72.76C161.83,-61.46 154.11,-46.44 148.3,-35.15"/>
</g>
<!-- 10 -->
<g id="node17" class="node">
<title>10</title>
<ellipse fill="none" stroke="black" cx="212" cy="-18" rx="27" ry="18"/>
<text text-anchor="middle" x="212" y="-12.95" font-family="Times,serif" font-size="14.00">pi</text>
</g>
<!-- 11&#45;&#45;10 -->
<g id="edge16" class="edge">
<title>11&#45;&#45;10</title>
<path fill="none" stroke="black" d="M184.35,-72.76C190.17,-61.46 197.89,-46.44 203.7,-35.15"/>
</g>
<!-- 15 -->
<g id="node20" class="node">
<title>15</title>
<ellipse fill="none" stroke="black" cx="302" cy="-162" rx="27" ry="18"/>
<text text-anchor="middle" x="302" y="-156.95" font-family="Times,serif" font-size="14.00">kb</text>
</g>
<!-- 17&#45;&#45;15 -->
<g id="edge19" class="edge">
<title>17&#45;&#45;15</title>
<path fill="none" stroke="black" d="M302,-215.7C302,-204.85 302,-190.92 302,-180.1"/>
</g>
<!-- 16 -->
<g id="node21" class="node">
<title>16</title>
<ellipse fill="none" stroke="black" cx="374" cy="-162" rx="27" ry="18"/>
<text text-anchor="middle" x="374" y="-156.95" font-family="Times,serif" font-size="14.00">T</text>
</g>
<!-- 17&#45;&#45;16 -->
<g id="edge20" class="edge">
<title>17&#45;&#45;16</title>
<path fill="none" stroke="black" d="M316.92,-218.5C329.28,-206.48 346.75,-189.49 359.1,-177.49"/>
</g>
</g>
</svg>
