<?xml version="1.0" encoding="UTF-8" standalone="no"?>
<!DOCTYPE svg PUBLIC "-//W3C//DTD SVG 1.1//EN"
 "http://www.w3.org/Graphics/SVG/1.1/DTD/svg11.dtd">
<!-- Generated by graphviz version 9.0.0 (20230911.1827)
 -->
<!-- Title: G Pages: 1 -->
<svg width="1249pt" height="573pt"
 viewBox="0.00 0.00 1249.00 572.50" xmlns="http://www.w3.org/2000/svg" xmlns:xlink="http://www.w3.org/1999/xlink">
<g id="graph0" class="graph" transform="scale(1 1) rotate(0) translate(4 568.5)">
<title>G</title>
<polygon fill="white" stroke="none" points="-4,4 -4,-568.5 1245,-568.5 1245,4 -4,4"/>
<text text-anchor="middle" x="620.5" y="-547.2" font-family="Times,serif" font-size="14.00">1/(4*pi)*alpha**2*h**2/(m**2*c**2)*(omega_0/omega)**2*(omega_0/omega+omega/omega_0&#45;sin(beta)**2), depth = 7</text>
<!-- 40 -->
<g id="node1" class="node">
<title>40</title>
<ellipse fill="none" stroke="black" cx="810" cy="-522" rx="27" ry="18"/>
<text text-anchor="middle" x="810" y="-516.95" font-family="Times,serif" font-size="14.00">*</text>
</g>
<!-- 27 -->
<g id="node2" class="node">
<title>27</title>
<ellipse fill="none" stroke="black" cx="711" cy="-450" rx="27" ry="18"/>
<text text-anchor="middle" x="711" y="-444.95" font-family="Times,serif" font-size="14.00">*</text>
</g>
<!-- 40&#45;&#45;27 -->
<g id="edge1" class="edge">
<title>40&#45;&#45;27</title>
<path fill="none" stroke="black" d="M791.84,-508.16C773.98,-495.53 746.87,-476.36 729.04,-463.76"/>
</g>
<!-- 39 -->
<g id="node29" class="node">
<title>39</title>
<ellipse fill="none" stroke="black" cx="967" cy="-450" rx="27" ry="18"/>
<text text-anchor="middle" x="967" y="-444.95" font-family="Times,serif" font-size="14.00">&#45;</text>
</g>
<!-- 40&#45;&#45;39 -->
<g id="edge28" class="edge">
<title>40&#45;&#45;39</title>
<path fill="none" stroke="black" d="M832.16,-511.12C862.08,-497.78 915.09,-474.15 944.95,-460.83"/>
</g>
<!-- 21 -->
<g id="node3" class="node">
<title>21</title>
<ellipse fill="none" stroke="black" cx="499" cy="-378" rx="27" ry="18"/>
<text text-anchor="middle" x="499" y="-372.95" font-family="Times,serif" font-size="14.00">/</text>
</g>
<!-- 27&#45;&#45;21 -->
<g id="edge2" class="edge">
<title>27&#45;&#45;21</title>
<path fill="none" stroke="black" d="M687.09,-441.11C646.27,-427.63 563.58,-400.33 522.82,-386.86"/>
</g>
<!-- 26 -->
<g id="node24" class="node">
<title>26</title>
<ellipse fill="none" stroke="black" cx="711" cy="-378" rx="27" ry="18"/>
<text text-anchor="middle" x="711" y="-372.95" font-family="Times,serif" font-size="14.00">^</text>
</g>
<!-- 27&#45;&#45;26 -->
<g id="edge23" class="edge">
<title>27&#45;&#45;26</title>
<path fill="none" stroke="black" d="M711,-431.7C711,-420.85 711,-406.92 711,-396.1"/>
</g>
<!-- 13 -->
<g id="node4" class="node">
<title>13</title>
<ellipse fill="none" stroke="black" cx="283" cy="-306" rx="27" ry="18"/>
<text text-anchor="middle" x="283" y="-300.95" font-family="Times,serif" font-size="14.00">*</text>
</g>
<!-- 21&#45;&#45;13 -->
<g id="edge3" class="edge">
<title>21&#45;&#45;13</title>
<path fill="none" stroke="black" d="M475.06,-369.24C433.54,-355.79 348.64,-328.27 307.05,-314.79"/>
</g>
<!-- 20 -->
<g id="node17" class="node">
<title>20</title>
<ellipse fill="none" stroke="black" cx="499" cy="-306" rx="27" ry="18"/>
<text text-anchor="middle" x="499" y="-300.95" font-family="Times,serif" font-size="14.00">*</text>
</g>
<!-- 21&#45;&#45;20 -->
<g id="edge16" class="edge">
<title>21&#45;&#45;20</title>
<path fill="none" stroke="black" d="M499,-359.7C499,-348.85 499,-334.92 499,-324.1"/>
</g>
<!-- 9 -->
<g id="node5" class="node">
<title>9</title>
<ellipse fill="none" stroke="black" cx="175" cy="-234" rx="27" ry="18"/>
<text text-anchor="middle" x="175" y="-228.95" font-family="Times,serif" font-size="14.00">*</text>
</g>
<!-- 13&#45;&#45;9 -->
<g id="edge4" class="edge">
<title>13&#45;&#45;9</title>
<path fill="none" stroke="black" d="M264.19,-292.81C244.49,-280.04 213.72,-260.09 193.96,-247.29"/>
</g>
<!-- 12 -->
<g id="node14" class="node">
<title>12</title>
<ellipse fill="none" stroke="black" cx="283" cy="-234" rx="27" ry="18"/>
<text text-anchor="middle" x="283" y="-228.95" font-family="Times,serif" font-size="14.00">^</text>
</g>
<!-- 13&#45;&#45;12 -->
<g id="edge13" class="edge">
<title>13&#45;&#45;12</title>
<path fill="none" stroke="black" d="M283,-287.7C283,-276.85 283,-262.92 283,-252.1"/>
</g>
<!-- 5 -->
<g id="node6" class="node">
<title>5</title>
<ellipse fill="none" stroke="black" cx="99" cy="-162" rx="27" ry="18"/>
<text text-anchor="middle" x="99" y="-156.95" font-family="Times,serif" font-size="14.00">/</text>
</g>
<!-- 9&#45;&#45;5 -->
<g id="edge5" class="edge">
<title>9&#45;&#45;5</title>
<path fill="none" stroke="black" d="M159.62,-218.83C146.43,-206.69 127.54,-189.28 114.36,-177.14"/>
</g>
<!-- 8 -->
<g id="node11" class="node">
<title>8</title>
<ellipse fill="none" stroke="black" cx="175" cy="-162" rx="27" ry="18"/>
<text text-anchor="middle" x="175" y="-156.95" font-family="Times,serif" font-size="14.00">^</text>
</g>
<!-- 9&#45;&#45;8 -->
<g id="edge10" class="edge">
<title>9&#45;&#45;8</title>
<path fill="none" stroke="black" d="M175,-215.7C175,-204.85 175,-190.92 175,-180.1"/>
</g>
<!-- 1 -->
<g id="node7" class="node">
<title>1</title>
<ellipse fill="none" stroke="black" cx="27" cy="-90" rx="27" ry="18"/>
<text text-anchor="middle" x="27" y="-84.95" font-family="Times,serif" font-size="14.00">1</text>
</g>
<!-- 5&#45;&#45;1 -->
<g id="edge6" class="edge">
<title>5&#45;&#45;1</title>
<path fill="none" stroke="black" d="M84.08,-146.5C71.72,-134.48 54.25,-117.49 41.9,-105.49"/>
</g>
<!-- 4 -->
<g id="node8" class="node">
<title>4</title>
<ellipse fill="none" stroke="black" cx="99" cy="-90" rx="27" ry="18"/>
<text text-anchor="middle" x="99" y="-84.95" font-family="Times,serif" font-size="14.00">*</text>
</g>
<!-- 5&#45;&#45;4 -->
<g id="edge7" class="edge">
<title>5&#45;&#45;4</title>
<path fill="none" stroke="black" d="M99,-143.7C99,-132.85 99,-118.92 99,-108.1"/>
</g>
<!-- 2 -->
<g id="node9" class="node">
<title>2</title>
<ellipse fill="none" stroke="black" cx="63" cy="-18" rx="27" ry="18"/>
<text text-anchor="middle" x="63" y="-12.95" font-family="Times,serif" font-size="14.00">4</text>
</g>
<!-- 4&#45;&#45;2 -->
<g id="edge8" class="edge">
<title>4&#45;&#45;2</title>
<path fill="none" stroke="black" d="M90.65,-72.76C84.83,-61.46 77.11,-46.44 71.3,-35.15"/>
</g>
<!-- 3 -->
<g id="node10" class="node">
<title>3</title>
<ellipse fill="none" stroke="black" cx="135" cy="-18" rx="27" ry="18"/>
<text text-anchor="middle" x="135" y="-12.95" font-family="Times,serif" font-size="14.00">pi</text>
</g>
<!-- 4&#45;&#45;3 -->
<g id="edge9" class="edge">
<title>4&#45;&#45;3</title>
<path fill="none" stroke="black" d="M107.35,-72.76C113.17,-61.46 120.89,-46.44 126.7,-35.15"/>
</g>
<!-- 6 -->
<g id="node12" class="node">
<title>6</title>
<ellipse fill="none" stroke="black" cx="175" cy="-90" rx="30.88" ry="18"/>
<text text-anchor="middle" x="175" y="-84.95" font-family="Times,serif" font-size="14.00">alpha</text>
</g>
<!-- 8&#45;&#45;6 -->
<g id="edge11" class="edge">
<title>8&#45;&#45;6</title>
<path fill="none" stroke="black" d="M175,-143.7C175,-132.85 175,-118.92 175,-108.1"/>
</g>
<!-- 7 -->
<g id="node13" class="node">
<title>7</title>
<ellipse fill="none" stroke="black" cx="251" cy="-90" rx="27" ry="18"/>
<text text-anchor="middle" x="251" y="-84.95" font-family="Times,serif" font-size="14.00">2</text>
</g>
<!-- 8&#45;&#45;7 -->
<g id="edge12" class="edge">
<title>8&#45;&#45;7</title>
<path fill="none" stroke="black" d="M190.38,-146.83C203.57,-134.69 222.46,-117.28 235.64,-105.14"/>
</g>
<!-- 10 -->
<g id="node15" class="node">
<title>10</title>
<ellipse fill="none" stroke="black" cx="247" cy="-162" rx="27" ry="18"/>
<text text-anchor="middle" x="247" y="-156.95" font-family="Times,serif" font-size="14.00">h</text>
</g>
<!-- 12&#45;&#45;10 -->
<g id="edge14" class="edge">
<title>12&#45;&#45;10</title>
<path fill="none" stroke="black" d="M274.65,-216.76C268.83,-205.46 261.11,-190.44 255.3,-179.15"/>
</g>
<!-- 11 -->
<g id="node16" class="node">
<title>11</title>
<ellipse fill="none" stroke="black" cx="319" cy="-162" rx="27" ry="18"/>
<text text-anchor="middle" x="319" y="-156.95" font-family="Times,serif" font-size="14.00">2</text>
</g>
<!-- 12&#45;&#45;11 -->
<g id="edge15" class="edge">
<title>12&#45;&#45;11</title>
<path fill="none" stroke="black" d="M291.35,-216.76C297.17,-205.46 304.89,-190.44 310.7,-179.15"/>
</g>
<!-- 16 -->
<g id="node18" class="node">
<title>16</title>
<ellipse fill="none" stroke="black" cx="463" cy="-234" rx="27" ry="18"/>
<text text-anchor="middle" x="463" y="-228.95" font-family="Times,serif" font-size="14.00">^</text>
</g>
<!-- 20&#45;&#45;16 -->
<g id="edge17" class="edge">
<title>20&#45;&#45;16</title>
<path fill="none" stroke="black" d="M490.65,-288.76C484.83,-277.46 477.11,-262.44 471.3,-251.15"/>
</g>
<!-- 19 -->
<g id="node21" class="node">
<title>19</title>
<ellipse fill="none" stroke="black" cx="535" cy="-234" rx="27" ry="18"/>
<text text-anchor="middle" x="535" y="-228.95" font-family="Times,serif" font-size="14.00">^</text>
</g>
<!-- 20&#45;&#45;19 -->
<g id="edge20" class="edge">
<title>20&#45;&#45;19</title>
<path fill="none" stroke="black" d="M507.35,-288.76C513.17,-277.46 520.89,-262.44 526.7,-251.15"/>
</g>
<!-- 14 -->
<g id="node19" class="node">
<title>14</title>
<ellipse fill="none" stroke="black" cx="391" cy="-162" rx="27" ry="18"/>
<text text-anchor="middle" x="391" y="-156.95" font-family="Times,serif" font-size="14.00">m</text>
</g>
<!-- 16&#45;&#45;14 -->
<g id="edge18" class="edge">
<title>16&#45;&#45;14</title>
<path fill="none" stroke="black" d="M448.08,-218.5C435.72,-206.48 418.25,-189.49 405.9,-177.49"/>
</g>
<!-- 15 -->
<g id="node20" class="node">
<title>15</title>
<ellipse fill="none" stroke="black" cx="463" cy="-162" rx="27" ry="18"/>
<text text-anchor="middle" x="463" y="-156.95" font-family="Times,serif" font-size="14.00">2</text>
</g>
<!-- 16&#45;&#45;15 -->
<g id="edge19" class="edge">
<title>16&#45;&#45;15</title>
<path fill="none" stroke="black" d="M463,-215.7C463,-204.85 463,-190.92 463,-180.1"/>
</g>
<!-- 17 -->
<g id="node22" class="node">
<title>17</title>
<ellipse fill="none" stroke="black" cx="535" cy="-162" rx="27" ry="18"/>
<text text-anchor="middle" x="535" y="-156.95" font-family="Times,serif" font-size="14.00">c</text>
</g>
<!-- 19&#45;&#45;17 -->
<g id="edge21" class="edge">
<title>19&#45;&#45;17</title>
<path fill="none" stroke="black" d="M535,-215.7C535,-204.85 535,-190.92 535,-180.1"/>
</g>
<!-- 18 -->
<g id="node23" class="node">
<title>18</title>
<ellipse fill="none" stroke="black" cx="607" cy="-162" rx="27" ry="18"/>
<text text-anchor="middle" x="607" y="-156.95" font-family="Times,serif" font-size="14.00">2</text>
</g>
<!-- 19&#45;&#45;18 -->
<g id="edge22" class="edge">
<title>19&#45;&#45;18</title>
<path fill="none" stroke="black" d="M549.92,-218.5C562.28,-206.48 579.75,-189.49 592.1,-177.49"/>
</g>
<!-- 24 -->
<g id="node25" class="node">
<title>24</title>
<ellipse fill="none" stroke="black" cx="675" cy="-306" rx="27" ry="18"/>
<text text-anchor="middle" x="675" y="-300.95" font-family="Times,serif" font-size="14.00">/</text>
</g>
<!-- 26&#45;&#45;24 -->
<g id="edge24" class="edge">
<title>26&#45;&#45;24</title>
<path fill="none" stroke="black" d="M702.65,-360.76C696.83,-349.46 689.11,-334.44 683.3,-323.15"/>
</g>
<!-- 25 -->
<g id="node28" class="node">
<title>25</title>
<ellipse fill="none" stroke="black" cx="747" cy="-306" rx="27" ry="18"/>
<text text-anchor="middle" x="747" y="-300.95" font-family="Times,serif" font-size="14.00">2</text>
</g>
<!-- 26&#45;&#45;25 -->
<g id="edge27" class="edge">
<title>26&#45;&#45;25</title>
<path fill="none" stroke="black" d="M719.35,-360.76C725.17,-349.46 732.89,-334.44 738.7,-323.15"/>
</g>
<!-- 22 -->
<g id="node26" class="node">
<title>22</title>
<ellipse fill="none" stroke="black" cx="625" cy="-234" rx="45.21" ry="18"/>
<text text-anchor="middle" x="625" y="-228.95" font-family="Times,serif" font-size="14.00">omega_0</text>
</g>
<!-- 24&#45;&#45;22 -->
<g id="edge25" class="edge">
<title>24&#45;&#45;22</title>
<path fill="none" stroke="black" d="M663.9,-289.46C655.85,-278.19 644.97,-262.96 636.76,-251.47"/>
</g>
<!-- 23 -->
<g id="node27" class="node">
<title>23</title>
<ellipse fill="none" stroke="black" cx="724" cy="-234" rx="36" ry="18"/>
<text text-anchor="middle" x="724" y="-228.95" font-family="Times,serif" font-size="14.00">omega</text>
</g>
<!-- 24&#45;&#45;23 -->
<g id="edge26" class="edge">
<title>24&#45;&#45;23</title>
<path fill="none" stroke="black" d="M686.12,-289.12C694.03,-277.82 704.61,-262.7 712.59,-251.31"/>
</g>
<!-- 34 -->
<g id="node30" class="node">
<title>34</title>
<ellipse fill="none" stroke="black" cx="967" cy="-378" rx="27" ry="18"/>
<text text-anchor="middle" x="967" y="-372.95" font-family="Times,serif" font-size="14.00">+</text>
</g>
<!-- 39&#45;&#45;34 -->
<g id="edge29" class="edge">
<title>39&#45;&#45;34</title>
<path fill="none" stroke="black" d="M967,-431.7C967,-420.85 967,-406.92 967,-396.1"/>
</g>
<!-- 38 -->
<g id="node37" class="node">
<title>38</title>
<ellipse fill="none" stroke="black" cx="1142" cy="-378" rx="27" ry="18"/>
<text text-anchor="middle" x="1142" y="-372.95" font-family="Times,serif" font-size="14.00">^</text>
</g>
<!-- 39&#45;&#45;38 -->
<g id="edge36" class="edge">
<title>39&#45;&#45;38</title>
<path fill="none" stroke="black" d="M989.88,-439.85C1023.42,-426.43 1085.57,-401.57 1119.12,-388.15"/>
</g>
<!-- 30 -->
<g id="node31" class="node">
<title>30</title>
<ellipse fill="none" stroke="black" cx="922" cy="-306" rx="27" ry="18"/>
<text text-anchor="middle" x="922" y="-300.95" font-family="Times,serif" font-size="14.00">/</text>
</g>
<!-- 34&#45;&#45;30 -->
<g id="edge30" class="edge">
<title>34&#45;&#45;30</title>
<path fill="none" stroke="black" d="M956.79,-361.12C949.42,-349.66 939.53,-334.26 932.17,-322.82"/>
</g>
<!-- 33 -->
<g id="node34" class="node">
<title>33</title>
<ellipse fill="none" stroke="black" cx="1012" cy="-306" rx="27" ry="18"/>
<text text-anchor="middle" x="1012" y="-300.95" font-family="Times,serif" font-size="14.00">/</text>
</g>
<!-- 34&#45;&#45;33 -->
<g id="edge33" class="edge">
<title>34&#45;&#45;33</title>
<path fill="none" stroke="black" d="M977.21,-361.12C984.58,-349.66 994.47,-334.26 1001.83,-322.82"/>
</g>
<!-- 28 -->
<g id="node32" class="node">
<title>28</title>
<ellipse fill="none" stroke="black" cx="823" cy="-234" rx="45.21" ry="18"/>
<text text-anchor="middle" x="823" y="-228.95" font-family="Times,serif" font-size="14.00">omega_0</text>
</g>
<!-- 30&#45;&#45;28 -->
<g id="edge31" class="edge">
<title>30&#45;&#45;28</title>
<path fill="none" stroke="black" d="M903.84,-292.16C887.1,-280.32 862.22,-262.73 844.49,-250.19"/>
</g>
<!-- 29 -->
<g id="node33" class="node">
<title>29</title>
<ellipse fill="none" stroke="black" cx="922" cy="-234" rx="36" ry="18"/>
<text text-anchor="middle" x="922" y="-228.95" font-family="Times,serif" font-size="14.00">omega</text>
</g>
<!-- 30&#45;&#45;29 -->
<g id="edge32" class="edge">
<title>30&#45;&#45;29</title>
<path fill="none" stroke="black" d="M922,-287.7C922,-276.85 922,-262.92 922,-252.1"/>
</g>
<!-- 31 -->
<g id="node35" class="node">
<title>31</title>
<ellipse fill="none" stroke="black" cx="1012" cy="-234" rx="36" ry="18"/>
<text text-anchor="middle" x="1012" y="-228.95" font-family="Times,serif" font-size="14.00">omega</text>
</g>
<!-- 33&#45;&#45;31 -->
<g id="edge34" class="edge">
<title>33&#45;&#45;31</title>
<path fill="none" stroke="black" d="M1012,-287.7C1012,-276.85 1012,-262.92 1012,-252.1"/>
</g>
<!-- 32 -->
<g id="node36" class="node">
<title>32</title>
<ellipse fill="none" stroke="black" cx="1111" cy="-234" rx="45.21" ry="18"/>
<text text-anchor="middle" x="1111" y="-228.95" font-family="Times,serif" font-size="14.00">omega_0</text>
</g>
<!-- 33&#45;&#45;32 -->
<g id="edge35" class="edge">
<title>33&#45;&#45;32</title>
<path fill="none" stroke="black" d="M1030.16,-292.16C1046.9,-280.32 1071.78,-262.73 1089.51,-250.19"/>
</g>
<!-- 36 -->
<g id="node38" class="node">
<title>36</title>
<ellipse fill="none" stroke="black" cx="1142" cy="-306" rx="27" ry="18"/>
<text text-anchor="middle" x="1142" y="-300.95" font-family="Times,serif" font-size="14.00">sin</text>
</g>
<!-- 38&#45;&#45;36 -->
<g id="edge37" class="edge">
<title>38&#45;&#45;36</title>
<path fill="none" stroke="black" d="M1142,-359.7C1142,-348.85 1142,-334.92 1142,-324.1"/>
</g>
<!-- 37 -->
<g id="node40" class="node">
<title>37</title>
<ellipse fill="none" stroke="black" cx="1214" cy="-306" rx="27" ry="18"/>
<text text-anchor="middle" x="1214" y="-300.95" font-family="Times,serif" font-size="14.00">2</text>
</g>
<!-- 38&#45;&#45;37 -->
<g id="edge39" class="edge">
<title>38&#45;&#45;37</title>
<path fill="none" stroke="black" d="M1156.92,-362.5C1169.28,-350.48 1186.75,-333.49 1199.1,-321.49"/>
</g>
<!-- 35 -->
<g id="node39" class="node">
<title>35</title>
<ellipse fill="none" stroke="black" cx="1201" cy="-234" rx="27" ry="18"/>
<text text-anchor="middle" x="1201" y="-228.95" font-family="Times,serif" font-size="14.00">beta</text>
</g>
<!-- 36&#45;&#45;35 -->
<g id="edge38" class="edge">
<title>36&#45;&#45;35</title>
<path fill="none" stroke="black" d="M1154.8,-289.81C1164.7,-278.07 1178.33,-261.89 1188.22,-250.16"/>
</g>
</g>
</svg>
