<?xml version="1.0" encoding="UTF-8" standalone="no"?>
<!DOCTYPE svg PUBLIC "-//W3C//DTD SVG 1.1//EN"
 "http://www.w3.org/Graphics/SVG/1.1/DTD/svg11.dtd">
<!-- Generated by graphviz version 9.0.0 (20230911.1827)
 -->
<!-- Title: G Pages: 1 -->
<svg width="527pt" height="645pt"
 viewBox="0.00 0.00 527.00 644.50" xmlns="http://www.w3.org/2000/svg" xmlns:xlink="http://www.w3.org/1999/xlink">
<g id="graph0" class="graph" transform="scale(1 1) rotate(0) translate(4 640.5)">
<title>G</title>
<polygon fill="white" stroke="none" points="-4,4 -4,-640.5 523,-640.5 523,4 -4,4"/>
<text text-anchor="middle" x="259.5" y="-619.2" font-family="Times,serif" font-size="14.00">m*k_G/L**2*(1+sqrt(1+2*E_n*L**2/(m*k_G**2))*cos(theta1&#45;theta2)), depth = 8</text>
<!-- 31 -->
<g id="node1" class="node">
<title>31</title>
<ellipse fill="none" stroke="black" cx="207" cy="-594" rx="27" ry="18"/>
<text text-anchor="middle" x="207" y="-588.95" font-family="Times,serif" font-size="14.00">*</text>
</g>
<!-- 7 -->
<g id="node2" class="node">
<title>7</title>
<ellipse fill="none" stroke="black" cx="171" cy="-522" rx="27" ry="18"/>
<text text-anchor="middle" x="171" y="-516.95" font-family="Times,serif" font-size="14.00">/</text>
</g>
<!-- 31&#45;&#45;7 -->
<g id="edge1" class="edge">
<title>31&#45;&#45;7</title>
<path fill="none" stroke="black" d="M198.65,-576.76C192.83,-565.46 185.11,-550.44 179.3,-539.15"/>
</g>
<!-- 30 -->
<g id="node9" class="node">
<title>30</title>
<ellipse fill="none" stroke="black" cx="243" cy="-522" rx="27" ry="18"/>
<text text-anchor="middle" x="243" y="-516.95" font-family="Times,serif" font-size="14.00">+</text>
</g>
<!-- 31&#45;&#45;30 -->
<g id="edge8" class="edge">
<title>31&#45;&#45;30</title>
<path fill="none" stroke="black" d="M215.35,-576.76C221.17,-565.46 228.89,-550.44 234.7,-539.15"/>
</g>
<!-- 3 -->
<g id="node3" class="node">
<title>3</title>
<ellipse fill="none" stroke="black" cx="99" cy="-450" rx="27" ry="18"/>
<text text-anchor="middle" x="99" y="-444.95" font-family="Times,serif" font-size="14.00">*</text>
</g>
<!-- 7&#45;&#45;3 -->
<g id="edge2" class="edge">
<title>7&#45;&#45;3</title>
<path fill="none" stroke="black" d="M156.08,-506.5C143.72,-494.48 126.25,-477.49 113.9,-465.49"/>
</g>
<!-- 6 -->
<g id="node6" class="node">
<title>6</title>
<ellipse fill="none" stroke="black" cx="171" cy="-450" rx="27" ry="18"/>
<text text-anchor="middle" x="171" y="-444.95" font-family="Times,serif" font-size="14.00">^</text>
</g>
<!-- 7&#45;&#45;6 -->
<g id="edge5" class="edge">
<title>7&#45;&#45;6</title>
<path fill="none" stroke="black" d="M171,-503.7C171,-492.85 171,-478.92 171,-468.1"/>
</g>
<!-- 1 -->
<g id="node4" class="node">
<title>1</title>
<ellipse fill="none" stroke="black" cx="27" cy="-378" rx="27" ry="18"/>
<text text-anchor="middle" x="27" y="-372.95" font-family="Times,serif" font-size="14.00">m</text>
</g>
<!-- 3&#45;&#45;1 -->
<g id="edge3" class="edge">
<title>3&#45;&#45;1</title>
<path fill="none" stroke="black" d="M84.08,-434.5C71.72,-422.48 54.25,-405.49 41.9,-393.49"/>
</g>
<!-- 2 -->
<g id="node5" class="node">
<title>2</title>
<ellipse fill="none" stroke="black" cx="99" cy="-378" rx="27" ry="18"/>
<text text-anchor="middle" x="99" y="-372.95" font-family="Times,serif" font-size="14.00">k_G</text>
</g>
<!-- 3&#45;&#45;2 -->
<g id="edge4" class="edge">
<title>3&#45;&#45;2</title>
<path fill="none" stroke="black" d="M99,-431.7C99,-420.85 99,-406.92 99,-396.1"/>
</g>
<!-- 4 -->
<g id="node7" class="node">
<title>4</title>
<ellipse fill="none" stroke="black" cx="171" cy="-378" rx="27" ry="18"/>
<text text-anchor="middle" x="171" y="-372.95" font-family="Times,serif" font-size="14.00">L</text>
</g>
<!-- 6&#45;&#45;4 -->
<g id="edge6" class="edge">
<title>6&#45;&#45;4</title>
<path fill="none" stroke="black" d="M171,-431.7C171,-420.85 171,-406.92 171,-396.1"/>
</g>
<!-- 5 -->
<g id="node8" class="node">
<title>5</title>
<ellipse fill="none" stroke="black" cx="243" cy="-378" rx="27" ry="18"/>
<text text-anchor="middle" x="243" y="-372.95" font-family="Times,serif" font-size="14.00">2</text>
</g>
<!-- 6&#45;&#45;5 -->
<g id="edge7" class="edge">
<title>6&#45;&#45;5</title>
<path fill="none" stroke="black" d="M185.92,-434.5C198.28,-422.48 215.75,-405.49 228.1,-393.49"/>
</g>
<!-- 8 -->
<g id="node10" class="node">
<title>8</title>
<ellipse fill="none" stroke="black" cx="243" cy="-450" rx="27" ry="18"/>
<text text-anchor="middle" x="243" y="-444.95" font-family="Times,serif" font-size="14.00">1</text>
</g>
<!-- 30&#45;&#45;8 -->
<g id="edge9" class="edge">
<title>30&#45;&#45;8</title>
<path fill="none" stroke="black" d="M243,-503.7C243,-492.85 243,-478.92 243,-468.1"/>
</g>
<!-- 29 -->
<g id="node11" class="node">
<title>29</title>
<ellipse fill="none" stroke="black" cx="315" cy="-450" rx="27" ry="18"/>
<text text-anchor="middle" x="315" y="-444.95" font-family="Times,serif" font-size="14.00">*</text>
</g>
<!-- 30&#45;&#45;29 -->
<g id="edge10" class="edge">
<title>30&#45;&#45;29</title>
<path fill="none" stroke="black" d="M257.92,-506.5C270.28,-494.48 287.75,-477.49 300.1,-465.49"/>
</g>
<!-- 24 -->
<g id="node12" class="node">
<title>24</title>
<ellipse fill="none" stroke="black" cx="315" cy="-378" rx="27" ry="18"/>
<text text-anchor="middle" x="315" y="-372.95" font-family="Times,serif" font-size="14.00">sqrt</text>
</g>
<!-- 29&#45;&#45;24 -->
<g id="edge11" class="edge">
<title>29&#45;&#45;24</title>
<path fill="none" stroke="black" d="M315,-431.7C315,-420.85 315,-406.92 315,-396.1"/>
</g>
<!-- 28 -->
<g id="node28" class="node">
<title>28</title>
<ellipse fill="none" stroke="black" cx="389" cy="-378" rx="27" ry="18"/>
<text text-anchor="middle" x="389" y="-372.95" font-family="Times,serif" font-size="14.00">cos</text>
</g>
<!-- 29&#45;&#45;28 -->
<g id="edge27" class="edge">
<title>29&#45;&#45;28</title>
<path fill="none" stroke="black" d="M329.98,-434.83C342.73,-422.77 360.97,-405.51 373.79,-393.38"/>
</g>
<!-- 23 -->
<g id="node13" class="node">
<title>23</title>
<ellipse fill="none" stroke="black" cx="312" cy="-306" rx="27" ry="18"/>
<text text-anchor="middle" x="312" y="-300.95" font-family="Times,serif" font-size="14.00">+</text>
</g>
<!-- 24&#45;&#45;23 -->
<g id="edge12" class="edge">
<title>24&#45;&#45;23</title>
<path fill="none" stroke="black" d="M314.26,-359.7C313.79,-348.85 313.2,-334.92 312.73,-324.1"/>
</g>
<!-- 9 -->
<g id="node14" class="node">
<title>9</title>
<ellipse fill="none" stroke="black" cx="240" cy="-234" rx="27" ry="18"/>
<text text-anchor="middle" x="240" y="-228.95" font-family="Times,serif" font-size="14.00">1</text>
</g>
<!-- 23&#45;&#45;9 -->
<g id="edge13" class="edge">
<title>23&#45;&#45;9</title>
<path fill="none" stroke="black" d="M297.08,-290.5C284.72,-278.48 267.25,-261.49 254.9,-249.49"/>
</g>
<!-- 22 -->
<g id="node15" class="node">
<title>22</title>
<ellipse fill="none" stroke="black" cx="312" cy="-234" rx="27" ry="18"/>
<text text-anchor="middle" x="312" y="-228.95" font-family="Times,serif" font-size="14.00">/</text>
</g>
<!-- 23&#45;&#45;22 -->
<g id="edge14" class="edge">
<title>23&#45;&#45;22</title>
<path fill="none" stroke="black" d="M312,-287.7C312,-276.85 312,-262.92 312,-252.1"/>
</g>
<!-- 16 -->
<g id="node16" class="node">
<title>16</title>
<ellipse fill="none" stroke="black" cx="276" cy="-162" rx="27" ry="18"/>
<text text-anchor="middle" x="276" y="-156.95" font-family="Times,serif" font-size="14.00">*</text>
</g>
<!-- 22&#45;&#45;16 -->
<g id="edge15" class="edge">
<title>22&#45;&#45;16</title>
<path fill="none" stroke="black" d="M303.65,-216.76C297.83,-205.46 290.11,-190.44 284.3,-179.15"/>
</g>
<!-- 21 -->
<g id="node23" class="node">
<title>21</title>
<ellipse fill="none" stroke="black" cx="348" cy="-162" rx="27" ry="18"/>
<text text-anchor="middle" x="348" y="-156.95" font-family="Times,serif" font-size="14.00">*</text>
</g>
<!-- 22&#45;&#45;21 -->
<g id="edge22" class="edge">
<title>22&#45;&#45;21</title>
<path fill="none" stroke="black" d="M320.35,-216.76C326.17,-205.46 333.89,-190.44 339.7,-179.15"/>
</g>
<!-- 12 -->
<g id="node17" class="node">
<title>12</title>
<ellipse fill="none" stroke="black" cx="204" cy="-90" rx="27" ry="18"/>
<text text-anchor="middle" x="204" y="-84.95" font-family="Times,serif" font-size="14.00">*</text>
</g>
<!-- 16&#45;&#45;12 -->
<g id="edge16" class="edge">
<title>16&#45;&#45;12</title>
<path fill="none" stroke="black" d="M261.08,-146.5C248.72,-134.48 231.25,-117.49 218.9,-105.49"/>
</g>
<!-- 15 -->
<g id="node20" class="node">
<title>15</title>
<ellipse fill="none" stroke="black" cx="276" cy="-90" rx="27" ry="18"/>
<text text-anchor="middle" x="276" y="-84.95" font-family="Times,serif" font-size="14.00">^</text>
</g>
<!-- 16&#45;&#45;15 -->
<g id="edge19" class="edge">
<title>16&#45;&#45;15</title>
<path fill="none" stroke="black" d="M276,-143.7C276,-132.85 276,-118.92 276,-108.1"/>
</g>
<!-- 10 -->
<g id="node18" class="node">
<title>10</title>
<ellipse fill="none" stroke="black" cx="132" cy="-18" rx="27" ry="18"/>
<text text-anchor="middle" x="132" y="-12.95" font-family="Times,serif" font-size="14.00">2</text>
</g>
<!-- 12&#45;&#45;10 -->
<g id="edge17" class="edge">
<title>12&#45;&#45;10</title>
<path fill="none" stroke="black" d="M189.08,-74.5C176.72,-62.48 159.25,-45.49 146.9,-33.49"/>
</g>
<!-- 11 -->
<g id="node19" class="node">
<title>11</title>
<ellipse fill="none" stroke="black" cx="204" cy="-18" rx="27" ry="18"/>
<text text-anchor="middle" x="204" y="-12.95" font-family="Times,serif" font-size="14.00">E_n</text>
</g>
<!-- 12&#45;&#45;11 -->
<g id="edge18" class="edge">
<title>12&#45;&#45;11</title>
<path fill="none" stroke="black" d="M204,-71.7C204,-60.85 204,-46.92 204,-36.1"/>
</g>
<!-- 13 -->
<g id="node21" class="node">
<title>13</title>
<ellipse fill="none" stroke="black" cx="276" cy="-18" rx="27" ry="18"/>
<text text-anchor="middle" x="276" y="-12.95" font-family="Times,serif" font-size="14.00">L</text>
</g>
<!-- 15&#45;&#45;13 -->
<g id="edge20" class="edge">
<title>15&#45;&#45;13</title>
<path fill="none" stroke="black" d="M276,-71.7C276,-60.85 276,-46.92 276,-36.1"/>
</g>
<!-- 14 -->
<g id="node22" class="node">
<title>14</title>
<ellipse fill="none" stroke="black" cx="348" cy="-18" rx="27" ry="18"/>
<text text-anchor="middle" x="348" y="-12.95" font-family="Times,serif" font-size="14.00">2</text>
</g>
<!-- 15&#45;&#45;14 -->
<g id="edge21" class="edge">
<title>15&#45;&#45;14</title>
<path fill="none" stroke="black" d="M290.92,-74.5C303.28,-62.48 320.75,-45.49 333.1,-33.49"/>
</g>
<!-- 17 -->
<g id="node24" class="node">
<title>17</title>
<ellipse fill="none" stroke="black" cx="348" cy="-90" rx="27" ry="18"/>
<text text-anchor="middle" x="348" y="-84.95" font-family="Times,serif" font-size="14.00">m</text>
</g>
<!-- 21&#45;&#45;17 -->
<g id="edge23" class="edge">
<title>21&#45;&#45;17</title>
<path fill="none" stroke="black" d="M348,-143.7C348,-132.85 348,-118.92 348,-108.1"/>
</g>
<!-- 20 -->
<g id="node25" class="node">
<title>20</title>
<ellipse fill="none" stroke="black" cx="420" cy="-90" rx="27" ry="18"/>
<text text-anchor="middle" x="420" y="-84.95" font-family="Times,serif" font-size="14.00">^</text>
</g>
<!-- 21&#45;&#45;20 -->
<g id="edge24" class="edge">
<title>21&#45;&#45;20</title>
<path fill="none" stroke="black" d="M362.92,-146.5C375.28,-134.48 392.75,-117.49 405.1,-105.49"/>
</g>
<!-- 18 -->
<g id="node26" class="node">
<title>18</title>
<ellipse fill="none" stroke="black" cx="420" cy="-18" rx="27" ry="18"/>
<text text-anchor="middle" x="420" y="-12.95" font-family="Times,serif" font-size="14.00">k_G</text>
</g>
<!-- 20&#45;&#45;18 -->
<g id="edge25" class="edge">
<title>20&#45;&#45;18</title>
<path fill="none" stroke="black" d="M420,-71.7C420,-60.85 420,-46.92 420,-36.1"/>
</g>
<!-- 19 -->
<g id="node27" class="node">
<title>19</title>
<ellipse fill="none" stroke="black" cx="492" cy="-18" rx="27" ry="18"/>
<text text-anchor="middle" x="492" y="-12.95" font-family="Times,serif" font-size="14.00">2</text>
</g>
<!-- 20&#45;&#45;19 -->
<g id="edge26" class="edge">
<title>20&#45;&#45;19</title>
<path fill="none" stroke="black" d="M434.92,-74.5C447.28,-62.48 464.75,-45.49 477.1,-33.49"/>
</g>
<!-- 27 -->
<g id="node29" class="node">
<title>27</title>
<ellipse fill="none" stroke="black" cx="390" cy="-306" rx="27" ry="18"/>
<text text-anchor="middle" x="390" y="-300.95" font-family="Times,serif" font-size="14.00">&#45;</text>
</g>
<!-- 28&#45;&#45;27 -->
<g id="edge28" class="edge">
<title>28&#45;&#45;27</title>
<path fill="none" stroke="black" d="M389.25,-359.7C389.4,-348.85 389.6,-334.92 389.76,-324.1"/>
</g>
<!-- 25 -->
<g id="node30" class="node">
<title>25</title>
<ellipse fill="none" stroke="black" cx="390" cy="-234" rx="33.44" ry="18"/>
<text text-anchor="middle" x="390" y="-228.95" font-family="Times,serif" font-size="14.00">theta1</text>
</g>
<!-- 27&#45;&#45;25 -->
<g id="edge29" class="edge">
<title>27&#45;&#45;25</title>
<path fill="none" stroke="black" d="M390,-287.7C390,-276.85 390,-262.92 390,-252.1"/>
</g>
<!-- 26 -->
<g id="node31" class="node">
<title>26</title>
<ellipse fill="none" stroke="black" cx="475" cy="-234" rx="33.44" ry="18"/>
<text text-anchor="middle" x="475" y="-228.95" font-family="Times,serif" font-size="14.00">theta2</text>
</g>
<!-- 27&#45;&#45;26 -->
<g id="edge30" class="edge">
<title>27&#45;&#45;26</title>
<path fill="none" stroke="black" d="M406.39,-291.5C420.96,-279.51 442.21,-262 457.19,-249.66"/>
</g>
</g>
</svg>
