<?xml version="1.0" encoding="UTF-8" standalone="no"?>
<!DOCTYPE svg PUBLIC "-//W3C//DTD SVG 1.1//EN"
 "http://www.w3.org/Graphics/SVG/1.1/DTD/svg11.dtd">
<!-- Generated by graphviz version 9.0.0 (20230911.1827)
 -->
<!-- Title: G Pages: 1 -->
<svg width="502pt" height="501pt"
 viewBox="0.00 0.00 502.00 500.50" xmlns="http://www.w3.org/2000/svg" xmlns:xlink="http://www.w3.org/1999/xlink">
<g id="graph0" class="graph" transform="scale(1 1) rotate(0) translate(4 496.5)">
<title>G</title>
<polygon fill="white" stroke="none" points="-4,4 -4,-496.5 498,-496.5 498,4 -4,4"/>
<text text-anchor="middle" x="247" y="-475.2" font-family="Times,serif" font-size="14.00">sqrt(8*pi*G*rho/3&#45;alpha*c**2/d**2), depth = 6</text>
<!-- 20 -->
<g id="node1" class="node">
<title>20</title>
<ellipse fill="none" stroke="black" cx="285" cy="-450" rx="27" ry="18"/>
<text text-anchor="middle" x="285" y="-444.95" font-family="Times,serif" font-size="14.00">sqrt</text>
</g>
<!-- 19 -->
<g id="node2" class="node">
<title>19</title>
<ellipse fill="none" stroke="black" cx="285" cy="-378" rx="27" ry="18"/>
<text text-anchor="middle" x="285" y="-372.95" font-family="Times,serif" font-size="14.00">&#45;</text>
</g>
<!-- 20&#45;&#45;19 -->
<g id="edge1" class="edge">
<title>20&#45;&#45;19</title>
<path fill="none" stroke="black" d="M285,-431.7C285,-420.85 285,-406.92 285,-396.1"/>
</g>
<!-- 9 -->
<g id="node3" class="node">
<title>9</title>
<ellipse fill="none" stroke="black" cx="245" cy="-306" rx="27" ry="18"/>
<text text-anchor="middle" x="245" y="-300.95" font-family="Times,serif" font-size="14.00">/</text>
</g>
<!-- 19&#45;&#45;9 -->
<g id="edge2" class="edge">
<title>19&#45;&#45;9</title>
<path fill="none" stroke="black" d="M275.72,-360.76C269.26,-349.46 260.68,-334.44 254.23,-323.15"/>
</g>
<!-- 18 -->
<g id="node12" class="node">
<title>18</title>
<ellipse fill="none" stroke="black" cx="319" cy="-306" rx="27" ry="18"/>
<text text-anchor="middle" x="319" y="-300.95" font-family="Times,serif" font-size="14.00">/</text>
</g>
<!-- 19&#45;&#45;18 -->
<g id="edge11" class="edge">
<title>19&#45;&#45;18</title>
<path fill="none" stroke="black" d="M293.06,-360.41C298.48,-349.25 305.59,-334.6 311,-323.47"/>
</g>
<!-- 7 -->
<g id="node4" class="node">
<title>7</title>
<ellipse fill="none" stroke="black" cx="171" cy="-234" rx="27" ry="18"/>
<text text-anchor="middle" x="171" y="-228.95" font-family="Times,serif" font-size="14.00">*</text>
</g>
<!-- 9&#45;&#45;7 -->
<g id="edge3" class="edge">
<title>9&#45;&#45;7</title>
<path fill="none" stroke="black" d="M230.02,-290.83C217.27,-278.77 199.03,-261.51 186.21,-249.38"/>
</g>
<!-- 8 -->
<g id="node11" class="node">
<title>8</title>
<ellipse fill="none" stroke="black" cx="245" cy="-234" rx="27" ry="18"/>
<text text-anchor="middle" x="245" y="-228.95" font-family="Times,serif" font-size="14.00">3</text>
</g>
<!-- 9&#45;&#45;8 -->
<g id="edge10" class="edge">
<title>9&#45;&#45;8</title>
<path fill="none" stroke="black" d="M245,-287.7C245,-276.85 245,-262.92 245,-252.1"/>
</g>
<!-- 5 -->
<g id="node5" class="node">
<title>5</title>
<ellipse fill="none" stroke="black" cx="99" cy="-162" rx="27" ry="18"/>
<text text-anchor="middle" x="99" y="-156.95" font-family="Times,serif" font-size="14.00">*</text>
</g>
<!-- 7&#45;&#45;5 -->
<g id="edge4" class="edge">
<title>7&#45;&#45;5</title>
<path fill="none" stroke="black" d="M156.08,-218.5C143.72,-206.48 126.25,-189.49 113.9,-177.49"/>
</g>
<!-- 6 -->
<g id="node10" class="node">
<title>6</title>
<ellipse fill="none" stroke="black" cx="171" cy="-162" rx="27" ry="18"/>
<text text-anchor="middle" x="171" y="-156.95" font-family="Times,serif" font-size="14.00">rho</text>
</g>
<!-- 7&#45;&#45;6 -->
<g id="edge9" class="edge">
<title>7&#45;&#45;6</title>
<path fill="none" stroke="black" d="M171,-215.7C171,-204.85 171,-190.92 171,-180.1"/>
</g>
<!-- 3 -->
<g id="node6" class="node">
<title>3</title>
<ellipse fill="none" stroke="black" cx="63" cy="-90" rx="27" ry="18"/>
<text text-anchor="middle" x="63" y="-84.95" font-family="Times,serif" font-size="14.00">*</text>
</g>
<!-- 5&#45;&#45;3 -->
<g id="edge5" class="edge">
<title>5&#45;&#45;3</title>
<path fill="none" stroke="black" d="M90.65,-144.76C84.83,-133.46 77.11,-118.44 71.3,-107.15"/>
</g>
<!-- 4 -->
<g id="node9" class="node">
<title>4</title>
<ellipse fill="none" stroke="black" cx="135" cy="-90" rx="27" ry="18"/>
<text text-anchor="middle" x="135" y="-84.95" font-family="Times,serif" font-size="14.00">G</text>
</g>
<!-- 5&#45;&#45;4 -->
<g id="edge8" class="edge">
<title>5&#45;&#45;4</title>
<path fill="none" stroke="black" d="M107.35,-144.76C113.17,-133.46 120.89,-118.44 126.7,-107.15"/>
</g>
<!-- 1 -->
<g id="node7" class="node">
<title>1</title>
<ellipse fill="none" stroke="black" cx="27" cy="-18" rx="27" ry="18"/>
<text text-anchor="middle" x="27" y="-12.95" font-family="Times,serif" font-size="14.00">8</text>
</g>
<!-- 3&#45;&#45;1 -->
<g id="edge6" class="edge">
<title>3&#45;&#45;1</title>
<path fill="none" stroke="black" d="M54.65,-72.76C48.83,-61.46 41.11,-46.44 35.3,-35.15"/>
</g>
<!-- 2 -->
<g id="node8" class="node">
<title>2</title>
<ellipse fill="none" stroke="black" cx="99" cy="-18" rx="27" ry="18"/>
<text text-anchor="middle" x="99" y="-12.95" font-family="Times,serif" font-size="14.00">pi</text>
</g>
<!-- 3&#45;&#45;2 -->
<g id="edge7" class="edge">
<title>3&#45;&#45;2</title>
<path fill="none" stroke="black" d="M71.35,-72.76C77.17,-61.46 84.89,-46.44 90.7,-35.15"/>
</g>
<!-- 14 -->
<g id="node13" class="node">
<title>14</title>
<ellipse fill="none" stroke="black" cx="319" cy="-234" rx="27" ry="18"/>
<text text-anchor="middle" x="319" y="-228.95" font-family="Times,serif" font-size="14.00">*</text>
</g>
<!-- 18&#45;&#45;14 -->
<g id="edge12" class="edge">
<title>18&#45;&#45;14</title>
<path fill="none" stroke="black" d="M319,-287.7C319,-276.85 319,-262.92 319,-252.1"/>
</g>
<!-- 17 -->
<g id="node18" class="node">
<title>17</title>
<ellipse fill="none" stroke="black" cx="395" cy="-234" rx="27" ry="18"/>
<text text-anchor="middle" x="395" y="-228.95" font-family="Times,serif" font-size="14.00">^</text>
</g>
<!-- 18&#45;&#45;17 -->
<g id="edge17" class="edge">
<title>18&#45;&#45;17</title>
<path fill="none" stroke="black" d="M334.38,-290.83C347.57,-278.69 366.46,-261.28 379.64,-249.14"/>
</g>
<!-- 10 -->
<g id="node14" class="node">
<title>10</title>
<ellipse fill="none" stroke="black" cx="247" cy="-162" rx="30.88" ry="18"/>
<text text-anchor="middle" x="247" y="-156.95" font-family="Times,serif" font-size="14.00">alpha</text>
</g>
<!-- 14&#45;&#45;10 -->
<g id="edge13" class="edge">
<title>14&#45;&#45;10</title>
<path fill="none" stroke="black" d="M304.08,-218.5C291.89,-206.64 274.72,-189.95 262.4,-177.97"/>
</g>
<!-- 13 -->
<g id="node15" class="node">
<title>13</title>
<ellipse fill="none" stroke="black" cx="323" cy="-162" rx="27" ry="18"/>
<text text-anchor="middle" x="323" y="-156.95" font-family="Times,serif" font-size="14.00">^</text>
</g>
<!-- 14&#45;&#45;13 -->
<g id="edge14" class="edge">
<title>14&#45;&#45;13</title>
<path fill="none" stroke="black" d="M319.99,-215.7C320.61,-204.85 321.4,-190.92 322.02,-180.1"/>
</g>
<!-- 11 -->
<g id="node16" class="node">
<title>11</title>
<ellipse fill="none" stroke="black" cx="287" cy="-90" rx="27" ry="18"/>
<text text-anchor="middle" x="287" y="-84.95" font-family="Times,serif" font-size="14.00">c</text>
</g>
<!-- 13&#45;&#45;11 -->
<g id="edge15" class="edge">
<title>13&#45;&#45;11</title>
<path fill="none" stroke="black" d="M314.65,-144.76C308.83,-133.46 301.11,-118.44 295.3,-107.15"/>
</g>
<!-- 12 -->
<g id="node17" class="node">
<title>12</title>
<ellipse fill="none" stroke="black" cx="359" cy="-90" rx="27" ry="18"/>
<text text-anchor="middle" x="359" y="-84.95" font-family="Times,serif" font-size="14.00">2</text>
</g>
<!-- 13&#45;&#45;12 -->
<g id="edge16" class="edge">
<title>13&#45;&#45;12</title>
<path fill="none" stroke="black" d="M331.35,-144.76C337.17,-133.46 344.89,-118.44 350.7,-107.15"/>
</g>
<!-- 15 -->
<g id="node19" class="node">
<title>15</title>
<ellipse fill="none" stroke="black" cx="395" cy="-162" rx="27" ry="18"/>
<text text-anchor="middle" x="395" y="-156.95" font-family="Times,serif" font-size="14.00">d</text>
</g>
<!-- 17&#45;&#45;15 -->
<g id="edge18" class="edge">
<title>17&#45;&#45;15</title>
<path fill="none" stroke="black" d="M395,-215.7C395,-204.85 395,-190.92 395,-180.1"/>
</g>
<!-- 16 -->
<g id="node20" class="node">
<title>16</title>
<ellipse fill="none" stroke="black" cx="467" cy="-162" rx="27" ry="18"/>
<text text-anchor="middle" x="467" y="-156.95" font-family="Times,serif" font-size="14.00">2</text>
</g>
<!-- 17&#45;&#45;16 -->
<g id="edge19" class="edge">
<title>17&#45;&#45;16</title>
<path fill="none" stroke="black" d="M409.92,-218.5C422.28,-206.48 439.75,-189.49 452.1,-177.49"/>
</g>
</g>
</svg>
