<?xml version="1.0" encoding="UTF-8" standalone="no"?>
<!DOCTYPE svg PUBLIC "-//W3C//DTD SVG 1.1//EN"
 "http://www.w3.org/Graphics/SVG/1.1/DTD/svg11.dtd">
<!-- Generated by graphviz version 9.0.0 (20230911.1827)
 -->
<!-- Title: G Pages: 1 -->
<svg width="566pt" height="501pt"
 viewBox="0.00 0.00 566.00 500.50" xmlns="http://www.w3.org/2000/svg" xmlns:xlink="http://www.w3.org/1999/xlink">
<g id="graph0" class="graph" transform="scale(1 1) rotate(0) translate(4 496.5)">
<title>G</title>
<polygon fill="white" stroke="none" points="-4,4 -4,-496.5 562,-496.5 562,4 -4,4"/>
<text text-anchor="middle" x="279" y="-475.2" font-family="Times,serif" font-size="14.00">1/(2*m)*(p**2+m**2*omega**2*x**2*(1+alpha*x/y)), depth = 6</text>
<!-- 29 -->
<g id="node1" class="node">
<title>29</title>
<ellipse fill="none" stroke="black" cx="135" cy="-450" rx="27" ry="18"/>
<text text-anchor="middle" x="135" y="-444.95" font-family="Times,serif" font-size="14.00">*</text>
</g>
<!-- 5 -->
<g id="node2" class="node">
<title>5</title>
<ellipse fill="none" stroke="black" cx="99" cy="-378" rx="27" ry="18"/>
<text text-anchor="middle" x="99" y="-372.95" font-family="Times,serif" font-size="14.00">/</text>
</g>
<!-- 29&#45;&#45;5 -->
<g id="edge1" class="edge">
<title>29&#45;&#45;5</title>
<path fill="none" stroke="black" d="M126.65,-432.76C120.83,-421.46 113.11,-406.44 107.3,-395.15"/>
</g>
<!-- 28 -->
<g id="node7" class="node">
<title>28</title>
<ellipse fill="none" stroke="black" cx="207" cy="-378" rx="27" ry="18"/>
<text text-anchor="middle" x="207" y="-372.95" font-family="Times,serif" font-size="14.00">+</text>
</g>
<!-- 29&#45;&#45;28 -->
<g id="edge6" class="edge">
<title>29&#45;&#45;28</title>
<path fill="none" stroke="black" d="M149.92,-434.5C162.28,-422.48 179.75,-405.49 192.1,-393.49"/>
</g>
<!-- 1 -->
<g id="node3" class="node">
<title>1</title>
<ellipse fill="none" stroke="black" cx="27" cy="-306" rx="27" ry="18"/>
<text text-anchor="middle" x="27" y="-300.95" font-family="Times,serif" font-size="14.00">1</text>
</g>
<!-- 5&#45;&#45;1 -->
<g id="edge2" class="edge">
<title>5&#45;&#45;1</title>
<path fill="none" stroke="black" d="M84.08,-362.5C71.72,-350.48 54.25,-333.49 41.9,-321.49"/>
</g>
<!-- 4 -->
<g id="node4" class="node">
<title>4</title>
<ellipse fill="none" stroke="black" cx="99" cy="-306" rx="27" ry="18"/>
<text text-anchor="middle" x="99" y="-300.95" font-family="Times,serif" font-size="14.00">*</text>
</g>
<!-- 5&#45;&#45;4 -->
<g id="edge3" class="edge">
<title>5&#45;&#45;4</title>
<path fill="none" stroke="black" d="M99,-359.7C99,-348.85 99,-334.92 99,-324.1"/>
</g>
<!-- 2 -->
<g id="node5" class="node">
<title>2</title>
<ellipse fill="none" stroke="black" cx="27" cy="-234" rx="27" ry="18"/>
<text text-anchor="middle" x="27" y="-228.95" font-family="Times,serif" font-size="14.00">2</text>
</g>
<!-- 4&#45;&#45;2 -->
<g id="edge4" class="edge">
<title>4&#45;&#45;2</title>
<path fill="none" stroke="black" d="M84.08,-290.5C71.72,-278.48 54.25,-261.49 41.9,-249.49"/>
</g>
<!-- 3 -->
<g id="node6" class="node">
<title>3</title>
<ellipse fill="none" stroke="black" cx="99" cy="-234" rx="27" ry="18"/>
<text text-anchor="middle" x="99" y="-228.95" font-family="Times,serif" font-size="14.00">m</text>
</g>
<!-- 4&#45;&#45;3 -->
<g id="edge5" class="edge">
<title>4&#45;&#45;3</title>
<path fill="none" stroke="black" d="M99,-287.7C99,-276.85 99,-262.92 99,-252.1"/>
</g>
<!-- 8 -->
<g id="node8" class="node">
<title>8</title>
<ellipse fill="none" stroke="black" cx="207" cy="-306" rx="27" ry="18"/>
<text text-anchor="middle" x="207" y="-300.95" font-family="Times,serif" font-size="14.00">^</text>
</g>
<!-- 28&#45;&#45;8 -->
<g id="edge7" class="edge">
<title>28&#45;&#45;8</title>
<path fill="none" stroke="black" d="M207,-359.7C207,-348.85 207,-334.92 207,-324.1"/>
</g>
<!-- 27 -->
<g id="node11" class="node">
<title>27</title>
<ellipse fill="none" stroke="black" cx="315" cy="-306" rx="27" ry="18"/>
<text text-anchor="middle" x="315" y="-300.95" font-family="Times,serif" font-size="14.00">*</text>
</g>
<!-- 28&#45;&#45;27 -->
<g id="edge10" class="edge">
<title>28&#45;&#45;27</title>
<path fill="none" stroke="black" d="M225.81,-364.81C245.51,-352.04 276.28,-332.09 296.04,-319.29"/>
</g>
<!-- 6 -->
<g id="node9" class="node">
<title>6</title>
<ellipse fill="none" stroke="black" cx="171" cy="-234" rx="27" ry="18"/>
<text text-anchor="middle" x="171" y="-228.95" font-family="Times,serif" font-size="14.00">p</text>
</g>
<!-- 8&#45;&#45;6 -->
<g id="edge8" class="edge">
<title>8&#45;&#45;6</title>
<path fill="none" stroke="black" d="M198.65,-288.76C192.83,-277.46 185.11,-262.44 179.3,-251.15"/>
</g>
<!-- 7 -->
<g id="node10" class="node">
<title>7</title>
<ellipse fill="none" stroke="black" cx="243" cy="-234" rx="27" ry="18"/>
<text text-anchor="middle" x="243" y="-228.95" font-family="Times,serif" font-size="14.00">2</text>
</g>
<!-- 8&#45;&#45;7 -->
<g id="edge9" class="edge">
<title>8&#45;&#45;7</title>
<path fill="none" stroke="black" d="M215.35,-288.76C221.17,-277.46 228.89,-262.44 234.7,-251.15"/>
</g>
<!-- 19 -->
<g id="node12" class="node">
<title>19</title>
<ellipse fill="none" stroke="black" cx="315" cy="-234" rx="27" ry="18"/>
<text text-anchor="middle" x="315" y="-228.95" font-family="Times,serif" font-size="14.00">*</text>
</g>
<!-- 27&#45;&#45;19 -->
<g id="edge11" class="edge">
<title>27&#45;&#45;19</title>
<path fill="none" stroke="black" d="M315,-287.7C315,-276.85 315,-262.92 315,-252.1"/>
</g>
<!-- 26 -->
<g id="node23" class="node">
<title>26</title>
<ellipse fill="none" stroke="black" cx="387" cy="-234" rx="27" ry="18"/>
<text text-anchor="middle" x="387" y="-228.95" font-family="Times,serif" font-size="14.00">+</text>
</g>
<!-- 27&#45;&#45;26 -->
<g id="edge22" class="edge">
<title>27&#45;&#45;26</title>
<path fill="none" stroke="black" d="M329.92,-290.5C342.28,-278.48 359.75,-261.49 372.1,-249.49"/>
</g>
<!-- 15 -->
<g id="node13" class="node">
<title>15</title>
<ellipse fill="none" stroke="black" cx="243" cy="-162" rx="27" ry="18"/>
<text text-anchor="middle" x="243" y="-156.95" font-family="Times,serif" font-size="14.00">*</text>
</g>
<!-- 19&#45;&#45;15 -->
<g id="edge12" class="edge">
<title>19&#45;&#45;15</title>
<path fill="none" stroke="black" d="M300.08,-218.5C287.72,-206.48 270.25,-189.49 257.9,-177.49"/>
</g>
<!-- 18 -->
<g id="node20" class="node">
<title>18</title>
<ellipse fill="none" stroke="black" cx="315" cy="-162" rx="27" ry="18"/>
<text text-anchor="middle" x="315" y="-156.95" font-family="Times,serif" font-size="14.00">^</text>
</g>
<!-- 19&#45;&#45;18 -->
<g id="edge19" class="edge">
<title>19&#45;&#45;18</title>
<path fill="none" stroke="black" d="M315,-215.7C315,-204.85 315,-190.92 315,-180.1"/>
</g>
<!-- 11 -->
<g id="node14" class="node">
<title>11</title>
<ellipse fill="none" stroke="black" cx="162" cy="-90" rx="27" ry="18"/>
<text text-anchor="middle" x="162" y="-84.95" font-family="Times,serif" font-size="14.00">^</text>
</g>
<!-- 15&#45;&#45;11 -->
<g id="edge13" class="edge">
<title>15&#45;&#45;11</title>
<path fill="none" stroke="black" d="M227,-147.17C212.8,-134.9 192.16,-117.06 177.97,-104.8"/>
</g>
<!-- 14 -->
<g id="node17" class="node">
<title>14</title>
<ellipse fill="none" stroke="black" cx="243" cy="-90" rx="27" ry="18"/>
<text text-anchor="middle" x="243" y="-84.95" font-family="Times,serif" font-size="14.00">^</text>
</g>
<!-- 15&#45;&#45;14 -->
<g id="edge16" class="edge">
<title>15&#45;&#45;14</title>
<path fill="none" stroke="black" d="M243,-143.7C243,-132.85 243,-118.92 243,-108.1"/>
</g>
<!-- 9 -->
<g id="node15" class="node">
<title>9</title>
<ellipse fill="none" stroke="black" cx="90" cy="-18" rx="27" ry="18"/>
<text text-anchor="middle" x="90" y="-12.95" font-family="Times,serif" font-size="14.00">m</text>
</g>
<!-- 11&#45;&#45;9 -->
<g id="edge14" class="edge">
<title>11&#45;&#45;9</title>
<path fill="none" stroke="black" d="M147.08,-74.5C134.72,-62.48 117.25,-45.49 104.9,-33.49"/>
</g>
<!-- 10 -->
<g id="node16" class="node">
<title>10</title>
<ellipse fill="none" stroke="black" cx="162" cy="-18" rx="27" ry="18"/>
<text text-anchor="middle" x="162" y="-12.95" font-family="Times,serif" font-size="14.00">2</text>
</g>
<!-- 11&#45;&#45;10 -->
<g id="edge15" class="edge">
<title>11&#45;&#45;10</title>
<path fill="none" stroke="black" d="M162,-71.7C162,-60.85 162,-46.92 162,-36.1"/>
</g>
<!-- 12 -->
<g id="node18" class="node">
<title>12</title>
<ellipse fill="none" stroke="black" cx="243" cy="-18" rx="36" ry="18"/>
<text text-anchor="middle" x="243" y="-12.95" font-family="Times,serif" font-size="14.00">omega</text>
</g>
<!-- 14&#45;&#45;12 -->
<g id="edge17" class="edge">
<title>14&#45;&#45;12</title>
<path fill="none" stroke="black" d="M243,-71.7C243,-60.85 243,-46.92 243,-36.1"/>
</g>
<!-- 13 -->
<g id="node19" class="node">
<title>13</title>
<ellipse fill="none" stroke="black" cx="324" cy="-18" rx="27" ry="18"/>
<text text-anchor="middle" x="324" y="-12.95" font-family="Times,serif" font-size="14.00">2</text>
</g>
<!-- 14&#45;&#45;13 -->
<g id="edge18" class="edge">
<title>14&#45;&#45;13</title>
<path fill="none" stroke="black" d="M259,-75.17C273.2,-62.9 293.84,-45.06 308.03,-32.8"/>
</g>
<!-- 16 -->
<g id="node21" class="node">
<title>16</title>
<ellipse fill="none" stroke="black" cx="315" cy="-90" rx="27" ry="18"/>
<text text-anchor="middle" x="315" y="-84.95" font-family="Times,serif" font-size="14.00">x</text>
</g>
<!-- 18&#45;&#45;16 -->
<g id="edge20" class="edge">
<title>18&#45;&#45;16</title>
<path fill="none" stroke="black" d="M315,-143.7C315,-132.85 315,-118.92 315,-108.1"/>
</g>
<!-- 17 -->
<g id="node22" class="node">
<title>17</title>
<ellipse fill="none" stroke="black" cx="387" cy="-90" rx="27" ry="18"/>
<text text-anchor="middle" x="387" y="-84.95" font-family="Times,serif" font-size="14.00">2</text>
</g>
<!-- 18&#45;&#45;17 -->
<g id="edge21" class="edge">
<title>18&#45;&#45;17</title>
<path fill="none" stroke="black" d="M329.92,-146.5C342.28,-134.48 359.75,-117.49 372.1,-105.49"/>
</g>
<!-- 20 -->
<g id="node24" class="node">
<title>20</title>
<ellipse fill="none" stroke="black" cx="387" cy="-162" rx="27" ry="18"/>
<text text-anchor="middle" x="387" y="-156.95" font-family="Times,serif" font-size="14.00">1</text>
</g>
<!-- 26&#45;&#45;20 -->
<g id="edge23" class="edge">
<title>26&#45;&#45;20</title>
<path fill="none" stroke="black" d="M387,-215.7C387,-204.85 387,-190.92 387,-180.1"/>
</g>
<!-- 25 -->
<g id="node25" class="node">
<title>25</title>
<ellipse fill="none" stroke="black" cx="459" cy="-162" rx="27" ry="18"/>
<text text-anchor="middle" x="459" y="-156.95" font-family="Times,serif" font-size="14.00">/</text>
</g>
<!-- 26&#45;&#45;25 -->
<g id="edge24" class="edge">
<title>26&#45;&#45;25</title>
<path fill="none" stroke="black" d="M401.92,-218.5C414.28,-206.48 431.75,-189.49 444.1,-177.49"/>
</g>
<!-- 23 -->
<g id="node26" class="node">
<title>23</title>
<ellipse fill="none" stroke="black" cx="459" cy="-90" rx="27" ry="18"/>
<text text-anchor="middle" x="459" y="-84.95" font-family="Times,serif" font-size="14.00">*</text>
</g>
<!-- 25&#45;&#45;23 -->
<g id="edge25" class="edge">
<title>25&#45;&#45;23</title>
<path fill="none" stroke="black" d="M459,-143.7C459,-132.85 459,-118.92 459,-108.1"/>
</g>
<!-- 24 -->
<g id="node29" class="node">
<title>24</title>
<ellipse fill="none" stroke="black" cx="531" cy="-90" rx="27" ry="18"/>
<text text-anchor="middle" x="531" y="-84.95" font-family="Times,serif" font-size="14.00">y</text>
</g>
<!-- 25&#45;&#45;24 -->
<g id="edge28" class="edge">
<title>25&#45;&#45;24</title>
<path fill="none" stroke="black" d="M473.92,-146.5C486.28,-134.48 503.75,-117.49 516.1,-105.49"/>
</g>
<!-- 21 -->
<g id="node27" class="node">
<title>21</title>
<ellipse fill="none" stroke="black" cx="430" cy="-18" rx="30.88" ry="18"/>
<text text-anchor="middle" x="430" y="-12.95" font-family="Times,serif" font-size="14.00">alpha</text>
</g>
<!-- 23&#45;&#45;21 -->
<g id="edge26" class="edge">
<title>23&#45;&#45;21</title>
<path fill="none" stroke="black" d="M452.13,-72.41C447.57,-61.41 441.61,-47.03 437.02,-35.96"/>
</g>
<!-- 22 -->
<g id="node28" class="node">
<title>22</title>
<ellipse fill="none" stroke="black" cx="506" cy="-18" rx="27" ry="18"/>
<text text-anchor="middle" x="506" y="-12.95" font-family="Times,serif" font-size="14.00">x</text>
</g>
<!-- 23&#45;&#45;22 -->
<g id="edge27" class="edge">
<title>23&#45;&#45;22</title>
<path fill="none" stroke="black" d="M469.67,-73.12C477.36,-61.66 487.7,-46.26 495.38,-34.82"/>
</g>
</g>
</svg>
