<?xml version="1.0" encoding="UTF-8" standalone="no"?>
<!DOCTYPE svg PUBLIC "-//W3C//DTD SVG 1.1//EN"
 "http://www.w3.org/Graphics/SVG/1.1/DTD/svg11.dtd">
<!-- Generated by graphviz version 9.0.0 (20230911.1827)
 -->
<!-- Title: G Pages: 1 -->
<svg width="571pt" height="573pt"
 viewBox="0.00 0.00 571.00 572.50" xmlns="http://www.w3.org/2000/svg" xmlns:xlink="http://www.w3.org/1999/xlink">
<g id="graph0" class="graph" transform="scale(1 1) rotate(0) translate(4 568.5)">
<title>G</title>
<polygon fill="white" stroke="none" points="-4,4 -4,-568.5 567,-568.5 567,4 -4,4"/>
<text text-anchor="middle" x="281.5" y="-547.2" font-family="Times,serif" font-size="14.00">p_d/(4*pi*epsilon)*3*z/r**5*sqrt(x**2+y**2), depth = 7</text>
<!-- 24 -->
<g id="node1" class="node">
<title>24</title>
<ellipse fill="none" stroke="black" cx="302" cy="-522" rx="27" ry="18"/>
<text text-anchor="middle" x="302" y="-516.95" font-family="Times,serif" font-size="14.00">*</text>
</g>
<!-- 15 -->
<g id="node2" class="node">
<title>15</title>
<ellipse fill="none" stroke="black" cx="266" cy="-450" rx="27" ry="18"/>
<text text-anchor="middle" x="266" y="-444.95" font-family="Times,serif" font-size="14.00">/</text>
</g>
<!-- 24&#45;&#45;15 -->
<g id="edge1" class="edge">
<title>24&#45;&#45;15</title>
<path fill="none" stroke="black" d="M293.65,-504.76C287.83,-493.46 280.11,-478.44 274.3,-467.15"/>
</g>
<!-- 23 -->
<g id="node17" class="node">
<title>23</title>
<ellipse fill="none" stroke="black" cx="374" cy="-450" rx="27" ry="18"/>
<text text-anchor="middle" x="374" y="-444.95" font-family="Times,serif" font-size="14.00">sqrt</text>
</g>
<!-- 24&#45;&#45;23 -->
<g id="edge16" class="edge">
<title>24&#45;&#45;23</title>
<path fill="none" stroke="black" d="M316.92,-506.5C329.28,-494.48 346.75,-477.49 359.1,-465.49"/>
</g>
<!-- 11 -->
<g id="node3" class="node">
<title>11</title>
<ellipse fill="none" stroke="black" cx="176" cy="-378" rx="27" ry="18"/>
<text text-anchor="middle" x="176" y="-372.95" font-family="Times,serif" font-size="14.00">*</text>
</g>
<!-- 15&#45;&#45;11 -->
<g id="edge2" class="edge">
<title>15&#45;&#45;11</title>
<path fill="none" stroke="black" d="M249.07,-435.83C233.08,-423.4 209.22,-404.84 193.16,-392.35"/>
</g>
<!-- 14 -->
<g id="node14" class="node">
<title>14</title>
<ellipse fill="none" stroke="black" cx="266" cy="-378" rx="27" ry="18"/>
<text text-anchor="middle" x="266" y="-372.95" font-family="Times,serif" font-size="14.00">^</text>
</g>
<!-- 15&#45;&#45;14 -->
<g id="edge13" class="edge">
<title>15&#45;&#45;14</title>
<path fill="none" stroke="black" d="M266,-431.7C266,-420.85 266,-406.92 266,-396.1"/>
</g>
<!-- 9 -->
<g id="node4" class="node">
<title>9</title>
<ellipse fill="none" stroke="black" cx="104" cy="-306" rx="27" ry="18"/>
<text text-anchor="middle" x="104" y="-300.95" font-family="Times,serif" font-size="14.00">*</text>
</g>
<!-- 11&#45;&#45;9 -->
<g id="edge3" class="edge">
<title>11&#45;&#45;9</title>
<path fill="none" stroke="black" d="M161.08,-362.5C148.72,-350.48 131.25,-333.49 118.9,-321.49"/>
</g>
<!-- 10 -->
<g id="node13" class="node">
<title>10</title>
<ellipse fill="none" stroke="black" cx="176" cy="-306" rx="27" ry="18"/>
<text text-anchor="middle" x="176" y="-300.95" font-family="Times,serif" font-size="14.00">z</text>
</g>
<!-- 11&#45;&#45;10 -->
<g id="edge12" class="edge">
<title>11&#45;&#45;10</title>
<path fill="none" stroke="black" d="M176,-359.7C176,-348.85 176,-334.92 176,-324.1"/>
</g>
<!-- 7 -->
<g id="node5" class="node">
<title>7</title>
<ellipse fill="none" stroke="black" cx="68" cy="-234" rx="27" ry="18"/>
<text text-anchor="middle" x="68" y="-228.95" font-family="Times,serif" font-size="14.00">/</text>
</g>
<!-- 9&#45;&#45;7 -->
<g id="edge4" class="edge">
<title>9&#45;&#45;7</title>
<path fill="none" stroke="black" d="M95.65,-288.76C89.83,-277.46 82.11,-262.44 76.3,-251.15"/>
</g>
<!-- 8 -->
<g id="node12" class="node">
<title>8</title>
<ellipse fill="none" stroke="black" cx="140" cy="-234" rx="27" ry="18"/>
<text text-anchor="middle" x="140" y="-228.95" font-family="Times,serif" font-size="14.00">3</text>
</g>
<!-- 9&#45;&#45;8 -->
<g id="edge11" class="edge">
<title>9&#45;&#45;8</title>
<path fill="none" stroke="black" d="M112.35,-288.76C118.17,-277.46 125.89,-262.44 131.7,-251.15"/>
</g>
<!-- 1 -->
<g id="node6" class="node">
<title>1</title>
<ellipse fill="none" stroke="black" cx="32" cy="-162" rx="27" ry="18"/>
<text text-anchor="middle" x="32" y="-156.95" font-family="Times,serif" font-size="14.00">p_d</text>
</g>
<!-- 7&#45;&#45;1 -->
<g id="edge5" class="edge">
<title>7&#45;&#45;1</title>
<path fill="none" stroke="black" d="M59.65,-216.76C53.83,-205.46 46.11,-190.44 40.3,-179.15"/>
</g>
<!-- 6 -->
<g id="node7" class="node">
<title>6</title>
<ellipse fill="none" stroke="black" cx="104" cy="-162" rx="27" ry="18"/>
<text text-anchor="middle" x="104" y="-156.95" font-family="Times,serif" font-size="14.00">*</text>
</g>
<!-- 7&#45;&#45;6 -->
<g id="edge6" class="edge">
<title>7&#45;&#45;6</title>
<path fill="none" stroke="black" d="M76.35,-216.76C82.17,-205.46 89.89,-190.44 95.7,-179.15"/>
</g>
<!-- 4 -->
<g id="node8" class="node">
<title>4</title>
<ellipse fill="none" stroke="black" cx="63" cy="-90" rx="27" ry="18"/>
<text text-anchor="middle" x="63" y="-84.95" font-family="Times,serif" font-size="14.00">*</text>
</g>
<!-- 6&#45;&#45;4 -->
<g id="edge7" class="edge">
<title>6&#45;&#45;4</title>
<path fill="none" stroke="black" d="M94.49,-144.76C87.87,-133.46 79.07,-118.44 72.46,-107.15"/>
</g>
<!-- 5 -->
<g id="node11" class="node">
<title>5</title>
<ellipse fill="none" stroke="black" cx="146" cy="-90" rx="37.53" ry="18"/>
<text text-anchor="middle" x="146" y="-84.95" font-family="Times,serif" font-size="14.00">epsilon</text>
</g>
<!-- 6&#45;&#45;5 -->
<g id="edge10" class="edge">
<title>6&#45;&#45;5</title>
<path fill="none" stroke="black" d="M113.74,-144.76C120.43,-133.62 129.28,-118.87 136.02,-107.63"/>
</g>
<!-- 2 -->
<g id="node9" class="node">
<title>2</title>
<ellipse fill="none" stroke="black" cx="27" cy="-18" rx="27" ry="18"/>
<text text-anchor="middle" x="27" y="-12.95" font-family="Times,serif" font-size="14.00">4</text>
</g>
<!-- 4&#45;&#45;2 -->
<g id="edge8" class="edge">
<title>4&#45;&#45;2</title>
<path fill="none" stroke="black" d="M54.65,-72.76C48.83,-61.46 41.11,-46.44 35.3,-35.15"/>
</g>
<!-- 3 -->
<g id="node10" class="node">
<title>3</title>
<ellipse fill="none" stroke="black" cx="99" cy="-18" rx="27" ry="18"/>
<text text-anchor="middle" x="99" y="-12.95" font-family="Times,serif" font-size="14.00">pi</text>
</g>
<!-- 4&#45;&#45;3 -->
<g id="edge9" class="edge">
<title>4&#45;&#45;3</title>
<path fill="none" stroke="black" d="M71.35,-72.76C77.17,-61.46 84.89,-46.44 90.7,-35.15"/>
</g>
<!-- 12 -->
<g id="node15" class="node">
<title>12</title>
<ellipse fill="none" stroke="black" cx="248" cy="-306" rx="27" ry="18"/>
<text text-anchor="middle" x="248" y="-300.95" font-family="Times,serif" font-size="14.00">r</text>
</g>
<!-- 14&#45;&#45;12 -->
<g id="edge14" class="edge">
<title>14&#45;&#45;12</title>
<path fill="none" stroke="black" d="M261.64,-360.05C258.81,-349.05 255.14,-334.76 252.32,-323.79"/>
</g>
<!-- 13 -->
<g id="node16" class="node">
<title>13</title>
<ellipse fill="none" stroke="black" cx="320" cy="-306" rx="27" ry="18"/>
<text text-anchor="middle" x="320" y="-300.95" font-family="Times,serif" font-size="14.00">5</text>
</g>
<!-- 14&#45;&#45;13 -->
<g id="edge15" class="edge">
<title>14&#45;&#45;13</title>
<path fill="none" stroke="black" d="M277.98,-361.46C286.93,-349.86 299.11,-334.08 308.05,-322.49"/>
</g>
<!-- 22 -->
<g id="node18" class="node">
<title>22</title>
<ellipse fill="none" stroke="black" cx="392" cy="-378" rx="27" ry="18"/>
<text text-anchor="middle" x="392" y="-372.95" font-family="Times,serif" font-size="14.00">+</text>
</g>
<!-- 23&#45;&#45;22 -->
<g id="edge17" class="edge">
<title>23&#45;&#45;22</title>
<path fill="none" stroke="black" d="M378.36,-432.05C381.19,-421.05 384.86,-406.76 387.68,-395.79"/>
</g>
<!-- 18 -->
<g id="node19" class="node">
<title>18</title>
<ellipse fill="none" stroke="black" cx="392" cy="-306" rx="27" ry="18"/>
<text text-anchor="middle" x="392" y="-300.95" font-family="Times,serif" font-size="14.00">^</text>
</g>
<!-- 22&#45;&#45;18 -->
<g id="edge18" class="edge">
<title>22&#45;&#45;18</title>
<path fill="none" stroke="black" d="M392,-359.7C392,-348.85 392,-334.92 392,-324.1"/>
</g>
<!-- 21 -->
<g id="node22" class="node">
<title>21</title>
<ellipse fill="none" stroke="black" cx="464" cy="-306" rx="27" ry="18"/>
<text text-anchor="middle" x="464" y="-300.95" font-family="Times,serif" font-size="14.00">^</text>
</g>
<!-- 22&#45;&#45;21 -->
<g id="edge21" class="edge">
<title>22&#45;&#45;21</title>
<path fill="none" stroke="black" d="M406.92,-362.5C419.28,-350.48 436.75,-333.49 449.1,-321.49"/>
</g>
<!-- 16 -->
<g id="node20" class="node">
<title>16</title>
<ellipse fill="none" stroke="black" cx="320" cy="-234" rx="27" ry="18"/>
<text text-anchor="middle" x="320" y="-228.95" font-family="Times,serif" font-size="14.00">x</text>
</g>
<!-- 18&#45;&#45;16 -->
<g id="edge19" class="edge">
<title>18&#45;&#45;16</title>
<path fill="none" stroke="black" d="M377.08,-290.5C364.72,-278.48 347.25,-261.49 334.9,-249.49"/>
</g>
<!-- 17 -->
<g id="node21" class="node">
<title>17</title>
<ellipse fill="none" stroke="black" cx="392" cy="-234" rx="27" ry="18"/>
<text text-anchor="middle" x="392" y="-228.95" font-family="Times,serif" font-size="14.00">2</text>
</g>
<!-- 18&#45;&#45;17 -->
<g id="edge20" class="edge">
<title>18&#45;&#45;17</title>
<path fill="none" stroke="black" d="M392,-287.7C392,-276.85 392,-262.92 392,-252.1"/>
</g>
<!-- 19 -->
<g id="node23" class="node">
<title>19</title>
<ellipse fill="none" stroke="black" cx="464" cy="-234" rx="27" ry="18"/>
<text text-anchor="middle" x="464" y="-228.95" font-family="Times,serif" font-size="14.00">y</text>
</g>
<!-- 21&#45;&#45;19 -->
<g id="edge22" class="edge">
<title>21&#45;&#45;19</title>
<path fill="none" stroke="black" d="M464,-287.7C464,-276.85 464,-262.92 464,-252.1"/>
</g>
<!-- 20 -->
<g id="node24" class="node">
<title>20</title>
<ellipse fill="none" stroke="black" cx="536" cy="-234" rx="27" ry="18"/>
<text text-anchor="middle" x="536" y="-228.95" font-family="Times,serif" font-size="14.00">2</text>
</g>
<!-- 21&#45;&#45;20 -->
<g id="edge23" class="edge">
<title>21&#45;&#45;20</title>
<path fill="none" stroke="black" d="M478.92,-290.5C491.28,-278.48 508.75,-261.49 521.1,-249.49"/>
</g>
</g>
</svg>
