<?xml version="1.0" encoding="UTF-8" standalone="no"?>
<!DOCTYPE svg PUBLIC "-//W3C//DTD SVG 1.1//EN"
 "http://www.w3.org/Graphics/SVG/1.1/DTD/svg11.dtd">
<!-- Generated by graphviz version 9.0.0 (20230911.1827)
 -->
<!-- Title: G Pages: 1 -->
<svg width="385pt" height="429pt"
 viewBox="0.00 0.00 385.44 428.50" xmlns="http://www.w3.org/2000/svg" xmlns:xlink="http://www.w3.org/1999/xlink">
<g id="graph0" class="graph" transform="scale(1 1) rotate(0) translate(4 424.5)">
<title>G</title>
<polygon fill="white" stroke="none" points="-4,4 -4,-424.5 381.44,-424.5 381.44,4 -4,4"/>
<text text-anchor="middle" x="188.72" y="-403.2" font-family="Times,serif" font-size="14.00">d*(1&#45;alpha**2)/(1+alpha*cos(theta1&#45;theta2)), depth = 5</text>
<!-- 16 -->
<g id="node1" class="node">
<title>16</title>
<ellipse fill="none" stroke="black" cx="135" cy="-378" rx="27" ry="18"/>
<text text-anchor="middle" x="135" y="-372.95" font-family="Times,serif" font-size="14.00">/</text>
</g>
<!-- 7 -->
<g id="node2" class="node">
<title>7</title>
<ellipse fill="none" stroke="black" cx="99" cy="-306" rx="27" ry="18"/>
<text text-anchor="middle" x="99" y="-300.95" font-family="Times,serif" font-size="14.00">*</text>
</g>
<!-- 16&#45;&#45;7 -->
<g id="edge1" class="edge">
<title>16&#45;&#45;7</title>
<path fill="none" stroke="black" d="M126.65,-360.76C120.83,-349.46 113.11,-334.44 107.3,-323.15"/>
</g>
<!-- 15 -->
<g id="node9" class="node">
<title>15</title>
<ellipse fill="none" stroke="black" cx="171" cy="-306" rx="27" ry="18"/>
<text text-anchor="middle" x="171" y="-300.95" font-family="Times,serif" font-size="14.00">+</text>
</g>
<!-- 16&#45;&#45;15 -->
<g id="edge8" class="edge">
<title>16&#45;&#45;15</title>
<path fill="none" stroke="black" d="M143.35,-360.76C149.17,-349.46 156.89,-334.44 162.7,-323.15"/>
</g>
<!-- 1 -->
<g id="node3" class="node">
<title>1</title>
<ellipse fill="none" stroke="black" cx="27" cy="-234" rx="27" ry="18"/>
<text text-anchor="middle" x="27" y="-228.95" font-family="Times,serif" font-size="14.00">d</text>
</g>
<!-- 7&#45;&#45;1 -->
<g id="edge2" class="edge">
<title>7&#45;&#45;1</title>
<path fill="none" stroke="black" d="M84.08,-290.5C71.72,-278.48 54.25,-261.49 41.9,-249.49"/>
</g>
<!-- 6 -->
<g id="node4" class="node">
<title>6</title>
<ellipse fill="none" stroke="black" cx="99" cy="-234" rx="27" ry="18"/>
<text text-anchor="middle" x="99" y="-228.95" font-family="Times,serif" font-size="14.00">&#45;</text>
</g>
<!-- 7&#45;&#45;6 -->
<g id="edge3" class="edge">
<title>7&#45;&#45;6</title>
<path fill="none" stroke="black" d="M99,-287.7C99,-276.85 99,-262.92 99,-252.1"/>
</g>
<!-- 2 -->
<g id="node5" class="node">
<title>2</title>
<ellipse fill="none" stroke="black" cx="44" cy="-162" rx="27" ry="18"/>
<text text-anchor="middle" x="44" y="-156.95" font-family="Times,serif" font-size="14.00">1</text>
</g>
<!-- 6&#45;&#45;2 -->
<g id="edge4" class="edge">
<title>6&#45;&#45;2</title>
<path fill="none" stroke="black" d="M86.79,-217.46C77.68,-205.86 65.28,-190.08 56.17,-178.49"/>
</g>
<!-- 5 -->
<g id="node6" class="node">
<title>5</title>
<ellipse fill="none" stroke="black" cx="116" cy="-162" rx="27" ry="18"/>
<text text-anchor="middle" x="116" y="-156.95" font-family="Times,serif" font-size="14.00">^</text>
</g>
<!-- 6&#45;&#45;5 -->
<g id="edge5" class="edge">
<title>6&#45;&#45;5</title>
<path fill="none" stroke="black" d="M103.12,-216.05C105.75,-205.21 109.16,-191.18 111.8,-180.28"/>
</g>
<!-- 3 -->
<g id="node7" class="node">
<title>3</title>
<ellipse fill="none" stroke="black" cx="78" cy="-90" rx="30.88" ry="18"/>
<text text-anchor="middle" x="78" y="-84.95" font-family="Times,serif" font-size="14.00">alpha</text>
</g>
<!-- 5&#45;&#45;3 -->
<g id="edge6" class="edge">
<title>5&#45;&#45;3</title>
<path fill="none" stroke="black" d="M107.19,-144.76C101.14,-133.62 93.13,-118.87 87.03,-107.63"/>
</g>
<!-- 4 -->
<g id="node8" class="node">
<title>4</title>
<ellipse fill="none" stroke="black" cx="154" cy="-90" rx="27" ry="18"/>
<text text-anchor="middle" x="154" y="-84.95" font-family="Times,serif" font-size="14.00">2</text>
</g>
<!-- 5&#45;&#45;4 -->
<g id="edge7" class="edge">
<title>5&#45;&#45;4</title>
<path fill="none" stroke="black" d="M124.81,-144.76C130.95,-133.46 139.11,-118.44 145.23,-107.15"/>
</g>
<!-- 8 -->
<g id="node10" class="node">
<title>8</title>
<ellipse fill="none" stroke="black" cx="171" cy="-234" rx="27" ry="18"/>
<text text-anchor="middle" x="171" y="-228.95" font-family="Times,serif" font-size="14.00">1</text>
</g>
<!-- 15&#45;&#45;8 -->
<g id="edge9" class="edge">
<title>15&#45;&#45;8</title>
<path fill="none" stroke="black" d="M171,-287.7C171,-276.85 171,-262.92 171,-252.1"/>
</g>
<!-- 14 -->
<g id="node11" class="node">
<title>14</title>
<ellipse fill="none" stroke="black" cx="243" cy="-234" rx="27" ry="18"/>
<text text-anchor="middle" x="243" y="-228.95" font-family="Times,serif" font-size="14.00">*</text>
</g>
<!-- 15&#45;&#45;14 -->
<g id="edge10" class="edge">
<title>15&#45;&#45;14</title>
<path fill="none" stroke="black" d="M185.92,-290.5C198.28,-278.48 215.75,-261.49 228.1,-249.49"/>
</g>
<!-- 9 -->
<g id="node12" class="node">
<title>9</title>
<ellipse fill="none" stroke="black" cx="226" cy="-162" rx="30.88" ry="18"/>
<text text-anchor="middle" x="226" y="-156.95" font-family="Times,serif" font-size="14.00">alpha</text>
</g>
<!-- 14&#45;&#45;9 -->
<g id="edge11" class="edge">
<title>14&#45;&#45;9</title>
<path fill="none" stroke="black" d="M238.88,-216.05C236.25,-205.21 232.84,-191.18 230.2,-180.28"/>
</g>
<!-- 13 -->
<g id="node13" class="node">
<title>13</title>
<ellipse fill="none" stroke="black" cx="302" cy="-162" rx="27" ry="18"/>
<text text-anchor="middle" x="302" y="-156.95" font-family="Times,serif" font-size="14.00">cos</text>
</g>
<!-- 14&#45;&#45;13 -->
<g id="edge12" class="edge">
<title>14&#45;&#45;13</title>
<path fill="none" stroke="black" d="M255.8,-217.81C265.7,-206.07 279.33,-189.89 289.22,-178.16"/>
</g>
<!-- 12 -->
<g id="node14" class="node">
<title>12</title>
<ellipse fill="none" stroke="black" cx="302" cy="-90" rx="27" ry="18"/>
<text text-anchor="middle" x="302" y="-84.95" font-family="Times,serif" font-size="14.00">&#45;</text>
</g>
<!-- 13&#45;&#45;12 -->
<g id="edge13" class="edge">
<title>13&#45;&#45;12</title>
<path fill="none" stroke="black" d="M302,-143.7C302,-132.85 302,-118.92 302,-108.1"/>
</g>
<!-- 10 -->
<g id="node15" class="node">
<title>10</title>
<ellipse fill="none" stroke="black" cx="259" cy="-18" rx="33.44" ry="18"/>
<text text-anchor="middle" x="259" y="-12.95" font-family="Times,serif" font-size="14.00">theta1</text>
</g>
<!-- 12&#45;&#45;10 -->
<g id="edge14" class="edge">
<title>12&#45;&#45;10</title>
<path fill="none" stroke="black" d="M292.03,-72.76C285.18,-61.62 276.12,-46.87 269.22,-35.63"/>
</g>
<!-- 11 -->
<g id="node16" class="node">
<title>11</title>
<ellipse fill="none" stroke="black" cx="344" cy="-18" rx="33.44" ry="18"/>
<text text-anchor="middle" x="344" y="-12.95" font-family="Times,serif" font-size="14.00">theta2</text>
</g>
<!-- 12&#45;&#45;11 -->
<g id="edge15" class="edge">
<title>12&#45;&#45;11</title>
<path fill="none" stroke="black" d="M311.74,-72.76C318.43,-61.62 327.28,-46.87 334.02,-35.63"/>
</g>
</g>
</svg>
