<?xml version="1.0" encoding="UTF-8" standalone="no"?>
<!DOCTYPE svg PUBLIC "-//W3C//DTD SVG 1.1//EN"
 "http://www.w3.org/Graphics/SVG/1.1/DTD/svg11.dtd">
<!-- Generated by graphviz version 9.0.0 (20230911.1827)
 -->
<!-- Title: G Pages: 1 -->
<svg width="192pt" height="285pt"
 viewBox="0.00 0.00 191.53 284.50" xmlns="http://www.w3.org/2000/svg" xmlns:xlink="http://www.w3.org/1999/xlink">
<g id="graph0" class="graph" transform="scale(1 1) rotate(0) translate(4 280.5)">
<title>G</title>
<polygon fill="white" stroke="none" points="-4,4 -4,-280.5 187.53,-280.5 187.53,4 -4,4"/>
<text text-anchor="middle" x="91.77" y="-259.2" font-family="Times,serif" font-size="14.00">epsilon*Ef**2/2, depth = 3</text>
<!-- 7 -->
<g id="node1" class="node">
<title>7</title>
<ellipse fill="none" stroke="black" cx="114.53" cy="-234" rx="27" ry="18"/>
<text text-anchor="middle" x="114.53" y="-228.95" font-family="Times,serif" font-size="14.00">/</text>
</g>
<!-- 5 -->
<g id="node2" class="node">
<title>5</title>
<ellipse fill="none" stroke="black" cx="78.53" cy="-162" rx="27" ry="18"/>
<text text-anchor="middle" x="78.53" y="-156.95" font-family="Times,serif" font-size="14.00">*</text>
</g>
<!-- 7&#45;&#45;5 -->
<g id="edge1" class="edge">
<title>7&#45;&#45;5</title>
<path fill="none" stroke="black" d="M106.18,-216.76C100.37,-205.46 92.64,-190.44 86.84,-179.15"/>
</g>
<!-- 6 -->
<g id="node7" class="node">
<title>6</title>
<ellipse fill="none" stroke="black" cx="150.53" cy="-162" rx="27" ry="18"/>
<text text-anchor="middle" x="150.53" y="-156.95" font-family="Times,serif" font-size="14.00">2</text>
</g>
<!-- 7&#45;&#45;6 -->
<g id="edge6" class="edge">
<title>7&#45;&#45;6</title>
<path fill="none" stroke="black" d="M122.88,-216.76C128.7,-205.46 136.42,-190.44 142.23,-179.15"/>
</g>
<!-- 1 -->
<g id="node3" class="node">
<title>1</title>
<ellipse fill="none" stroke="black" cx="37.53" cy="-90" rx="37.53" ry="18"/>
<text text-anchor="middle" x="37.53" y="-84.95" font-family="Times,serif" font-size="14.00">epsilon</text>
</g>
<!-- 5&#45;&#45;1 -->
<g id="edge2" class="edge">
<title>5&#45;&#45;1</title>
<path fill="none" stroke="black" d="M69.02,-144.76C62.49,-133.62 53.85,-118.87 47.28,-107.63"/>
</g>
<!-- 4 -->
<g id="node4" class="node">
<title>4</title>
<ellipse fill="none" stroke="black" cx="120.53" cy="-90" rx="27" ry="18"/>
<text text-anchor="middle" x="120.53" y="-84.95" font-family="Times,serif" font-size="14.00">^</text>
</g>
<!-- 5&#45;&#45;4 -->
<g id="edge3" class="edge">
<title>5&#45;&#45;4</title>
<path fill="none" stroke="black" d="M88.27,-144.76C95.06,-133.46 104.07,-118.44 110.84,-107.15"/>
</g>
<!-- 2 -->
<g id="node5" class="node">
<title>2</title>
<ellipse fill="none" stroke="black" cx="84.53" cy="-18" rx="27" ry="18"/>
<text text-anchor="middle" x="84.53" y="-12.95" font-family="Times,serif" font-size="14.00">Ef</text>
</g>
<!-- 4&#45;&#45;2 -->
<g id="edge4" class="edge">
<title>4&#45;&#45;2</title>
<path fill="none" stroke="black" d="M112.18,-72.76C106.37,-61.46 98.64,-46.44 92.84,-35.15"/>
</g>
<!-- 3 -->
<g id="node6" class="node">
<title>3</title>
<ellipse fill="none" stroke="black" cx="156.53" cy="-18" rx="27" ry="18"/>
<text text-anchor="middle" x="156.53" y="-12.95" font-family="Times,serif" font-size="14.00">2</text>
</g>
<!-- 4&#45;&#45;3 -->
<g id="edge5" class="edge">
<title>4&#45;&#45;3</title>
<path fill="none" stroke="black" d="M128.88,-72.76C134.7,-61.46 142.42,-46.44 148.23,-35.15"/>
</g>
</g>
</svg>
