<?xml version="1.0" encoding="UTF-8" standalone="no"?>
<!DOCTYPE svg PUBLIC "-//W3C//DTD SVG 1.1//EN"
 "http://www.w3.org/Graphics/SVG/1.1/DTD/svg11.dtd">
<!-- Generated by graphviz version 9.0.0 (20230911.1827)
 -->
<!-- Title: G Pages: 1 -->
<svg width="314pt" height="357pt"
 viewBox="0.00 0.00 314.00 356.50" xmlns="http://www.w3.org/2000/svg" xmlns:xlink="http://www.w3.org/1999/xlink">
<g id="graph0" class="graph" transform="scale(1 1) rotate(0) translate(4 352.5)">
<title>G</title>
<polygon fill="white" stroke="none" points="-4,4 -4,-352.5 310,-352.5 310,4 -4,4"/>
<text text-anchor="middle" x="153" y="-331.2" font-family="Times,serif" font-size="14.00">sqrt((x2&#45;x1)**2+(y2&#45;y1)**2), depth = 4</text>
<!-- 12 -->
<g id="node1" class="node">
<title>12</title>
<ellipse fill="none" stroke="black" cx="171" cy="-306" rx="27" ry="18"/>
<text text-anchor="middle" x="171" y="-300.95" font-family="Times,serif" font-size="14.00">sqrt</text>
</g>
<!-- 11 -->
<g id="node2" class="node">
<title>11</title>
<ellipse fill="none" stroke="black" cx="171" cy="-234" rx="27" ry="18"/>
<text text-anchor="middle" x="171" y="-228.95" font-family="Times,serif" font-size="14.00">+</text>
</g>
<!-- 12&#45;&#45;11 -->
<g id="edge1" class="edge">
<title>12&#45;&#45;11</title>
<path fill="none" stroke="black" d="M171,-287.7C171,-276.85 171,-262.92 171,-252.1"/>
</g>
<!-- 5 -->
<g id="node3" class="node">
<title>5</title>
<ellipse fill="none" stroke="black" cx="135" cy="-162" rx="27" ry="18"/>
<text text-anchor="middle" x="135" y="-156.95" font-family="Times,serif" font-size="14.00">^</text>
</g>
<!-- 11&#45;&#45;5 -->
<g id="edge2" class="edge">
<title>11&#45;&#45;5</title>
<path fill="none" stroke="black" d="M162.65,-216.76C156.83,-205.46 149.11,-190.44 143.3,-179.15"/>
</g>
<!-- 10 -->
<g id="node8" class="node">
<title>10</title>
<ellipse fill="none" stroke="black" cx="207" cy="-162" rx="27" ry="18"/>
<text text-anchor="middle" x="207" y="-156.95" font-family="Times,serif" font-size="14.00">^</text>
</g>
<!-- 11&#45;&#45;10 -->
<g id="edge7" class="edge">
<title>11&#45;&#45;10</title>
<path fill="none" stroke="black" d="M179.35,-216.76C185.17,-205.46 192.89,-190.44 198.7,-179.15"/>
</g>
<!-- 3 -->
<g id="node4" class="node">
<title>3</title>
<ellipse fill="none" stroke="black" cx="63" cy="-90" rx="27" ry="18"/>
<text text-anchor="middle" x="63" y="-84.95" font-family="Times,serif" font-size="14.00">&#45;</text>
</g>
<!-- 5&#45;&#45;3 -->
<g id="edge3" class="edge">
<title>5&#45;&#45;3</title>
<path fill="none" stroke="black" d="M120.08,-146.5C107.72,-134.48 90.25,-117.49 77.9,-105.49"/>
</g>
<!-- 4 -->
<g id="node7" class="node">
<title>4</title>
<ellipse fill="none" stroke="black" cx="135" cy="-90" rx="27" ry="18"/>
<text text-anchor="middle" x="135" y="-84.95" font-family="Times,serif" font-size="14.00">2</text>
</g>
<!-- 5&#45;&#45;4 -->
<g id="edge6" class="edge">
<title>5&#45;&#45;4</title>
<path fill="none" stroke="black" d="M135,-143.7C135,-132.85 135,-118.92 135,-108.1"/>
</g>
<!-- 1 -->
<g id="node5" class="node">
<title>1</title>
<ellipse fill="none" stroke="black" cx="27" cy="-18" rx="27" ry="18"/>
<text text-anchor="middle" x="27" y="-12.95" font-family="Times,serif" font-size="14.00">x2</text>
</g>
<!-- 3&#45;&#45;1 -->
<g id="edge4" class="edge">
<title>3&#45;&#45;1</title>
<path fill="none" stroke="black" d="M54.65,-72.76C48.83,-61.46 41.11,-46.44 35.3,-35.15"/>
</g>
<!-- 2 -->
<g id="node6" class="node">
<title>2</title>
<ellipse fill="none" stroke="black" cx="99" cy="-18" rx="27" ry="18"/>
<text text-anchor="middle" x="99" y="-12.95" font-family="Times,serif" font-size="14.00">x1</text>
</g>
<!-- 3&#45;&#45;2 -->
<g id="edge5" class="edge">
<title>3&#45;&#45;2</title>
<path fill="none" stroke="black" d="M71.35,-72.76C77.17,-61.46 84.89,-46.44 90.7,-35.15"/>
</g>
<!-- 8 -->
<g id="node9" class="node">
<title>8</title>
<ellipse fill="none" stroke="black" cx="207" cy="-90" rx="27" ry="18"/>
<text text-anchor="middle" x="207" y="-84.95" font-family="Times,serif" font-size="14.00">&#45;</text>
</g>
<!-- 10&#45;&#45;8 -->
<g id="edge8" class="edge">
<title>10&#45;&#45;8</title>
<path fill="none" stroke="black" d="M207,-143.7C207,-132.85 207,-118.92 207,-108.1"/>
</g>
<!-- 9 -->
<g id="node12" class="node">
<title>9</title>
<ellipse fill="none" stroke="black" cx="279" cy="-90" rx="27" ry="18"/>
<text text-anchor="middle" x="279" y="-84.95" font-family="Times,serif" font-size="14.00">2</text>
</g>
<!-- 10&#45;&#45;9 -->
<g id="edge11" class="edge">
<title>10&#45;&#45;9</title>
<path fill="none" stroke="black" d="M221.92,-146.5C234.28,-134.48 251.75,-117.49 264.1,-105.49"/>
</g>
<!-- 6 -->
<g id="node10" class="node">
<title>6</title>
<ellipse fill="none" stroke="black" cx="189" cy="-18" rx="27" ry="18"/>
<text text-anchor="middle" x="189" y="-12.95" font-family="Times,serif" font-size="14.00">y2</text>
</g>
<!-- 8&#45;&#45;6 -->
<g id="edge9" class="edge">
<title>8&#45;&#45;6</title>
<path fill="none" stroke="black" d="M202.64,-72.05C199.81,-61.05 196.14,-46.76 193.32,-35.79"/>
</g>
<!-- 7 -->
<g id="node11" class="node">
<title>7</title>
<ellipse fill="none" stroke="black" cx="261" cy="-18" rx="27" ry="18"/>
<text text-anchor="middle" x="261" y="-12.95" font-family="Times,serif" font-size="14.00">y1</text>
</g>
<!-- 8&#45;&#45;7 -->
<g id="edge10" class="edge">
<title>8&#45;&#45;7</title>
<path fill="none" stroke="black" d="M218.98,-73.46C227.93,-61.86 240.11,-46.08 249.05,-34.49"/>
</g>
</g>
</svg>
