<?xml version="1.0" encoding="UTF-8" standalone="no"?>
<!DOCTYPE svg PUBLIC "-//W3C//DTD SVG 1.1//EN"
 "http://www.w3.org/Graphics/SVG/1.1/DTD/svg11.dtd">
<!-- Generated by graphviz version 9.0.0 (20230911.1827)
 -->
<!-- Title: G Pages: 1 -->
<svg width="392pt" height="501pt"
 viewBox="0.00 0.00 392.00 500.50" xmlns="http://www.w3.org/2000/svg" xmlns:xlink="http://www.w3.org/1999/xlink">
<g id="graph0" class="graph" transform="scale(1 1) rotate(0) translate(4 496.5)">
<title>G</title>
<polygon fill="white" stroke="none" points="-4,4 -4,-496.5 388,-496.5 388,4 -4,4"/>
<text text-anchor="middle" x="192" y="-475.2" font-family="Times,serif" font-size="14.00">1/(4*pi*epsilon)*p_d*cos(theta)/r**2, depth = 6</text>
<!-- 16 -->
<g id="node1" class="node">
<title>16</title>
<ellipse fill="none" stroke="black" cx="249" cy="-450" rx="27" ry="18"/>
<text text-anchor="middle" x="249" y="-444.95" font-family="Times,serif" font-size="14.00">/</text>
</g>
<!-- 12 -->
<g id="node2" class="node">
<title>12</title>
<ellipse fill="none" stroke="black" cx="213" cy="-378" rx="27" ry="18"/>
<text text-anchor="middle" x="213" y="-372.95" font-family="Times,serif" font-size="14.00">*</text>
</g>
<!-- 16&#45;&#45;12 -->
<g id="edge1" class="edge">
<title>16&#45;&#45;12</title>
<path fill="none" stroke="black" d="M240.65,-432.76C234.83,-421.46 227.11,-406.44 221.3,-395.15"/>
</g>
<!-- 15 -->
<g id="node14" class="node">
<title>15</title>
<ellipse fill="none" stroke="black" cx="285" cy="-378" rx="27" ry="18"/>
<text text-anchor="middle" x="285" y="-372.95" font-family="Times,serif" font-size="14.00">^</text>
</g>
<!-- 16&#45;&#45;15 -->
<g id="edge13" class="edge">
<title>16&#45;&#45;15</title>
<path fill="none" stroke="black" d="M257.35,-432.76C263.17,-421.46 270.89,-406.44 276.7,-395.15"/>
</g>
<!-- 9 -->
<g id="node3" class="node">
<title>9</title>
<ellipse fill="none" stroke="black" cx="140" cy="-306" rx="27" ry="18"/>
<text text-anchor="middle" x="140" y="-300.95" font-family="Times,serif" font-size="14.00">*</text>
</g>
<!-- 12&#45;&#45;9 -->
<g id="edge2" class="edge">
<title>12&#45;&#45;9</title>
<path fill="none" stroke="black" d="M198.23,-362.83C185.65,-350.77 167.65,-333.51 155,-321.38"/>
</g>
<!-- 11 -->
<g id="node12" class="node">
<title>11</title>
<ellipse fill="none" stroke="black" cx="213" cy="-306" rx="27" ry="18"/>
<text text-anchor="middle" x="213" y="-300.95" font-family="Times,serif" font-size="14.00">cos</text>
</g>
<!-- 12&#45;&#45;11 -->
<g id="edge11" class="edge">
<title>12&#45;&#45;11</title>
<path fill="none" stroke="black" d="M213,-359.7C213,-348.85 213,-334.92 213,-324.1"/>
</g>
<!-- 7 -->
<g id="node4" class="node">
<title>7</title>
<ellipse fill="none" stroke="black" cx="68" cy="-234" rx="27" ry="18"/>
<text text-anchor="middle" x="68" y="-228.95" font-family="Times,serif" font-size="14.00">/</text>
</g>
<!-- 9&#45;&#45;7 -->
<g id="edge3" class="edge">
<title>9&#45;&#45;7</title>
<path fill="none" stroke="black" d="M125.08,-290.5C112.72,-278.48 95.25,-261.49 82.9,-249.49"/>
</g>
<!-- 8 -->
<g id="node11" class="node">
<title>8</title>
<ellipse fill="none" stroke="black" cx="140" cy="-234" rx="27" ry="18"/>
<text text-anchor="middle" x="140" y="-228.95" font-family="Times,serif" font-size="14.00">p_d</text>
</g>
<!-- 9&#45;&#45;8 -->
<g id="edge10" class="edge">
<title>9&#45;&#45;8</title>
<path fill="none" stroke="black" d="M140,-287.7C140,-276.85 140,-262.92 140,-252.1"/>
</g>
<!-- 1 -->
<g id="node5" class="node">
<title>1</title>
<ellipse fill="none" stroke="black" cx="32" cy="-162" rx="27" ry="18"/>
<text text-anchor="middle" x="32" y="-156.95" font-family="Times,serif" font-size="14.00">1</text>
</g>
<!-- 7&#45;&#45;1 -->
<g id="edge4" class="edge">
<title>7&#45;&#45;1</title>
<path fill="none" stroke="black" d="M59.65,-216.76C53.83,-205.46 46.11,-190.44 40.3,-179.15"/>
</g>
<!-- 6 -->
<g id="node6" class="node">
<title>6</title>
<ellipse fill="none" stroke="black" cx="104" cy="-162" rx="27" ry="18"/>
<text text-anchor="middle" x="104" y="-156.95" font-family="Times,serif" font-size="14.00">*</text>
</g>
<!-- 7&#45;&#45;6 -->
<g id="edge5" class="edge">
<title>7&#45;&#45;6</title>
<path fill="none" stroke="black" d="M76.35,-216.76C82.17,-205.46 89.89,-190.44 95.7,-179.15"/>
</g>
<!-- 4 -->
<g id="node7" class="node">
<title>4</title>
<ellipse fill="none" stroke="black" cx="63" cy="-90" rx="27" ry="18"/>
<text text-anchor="middle" x="63" y="-84.95" font-family="Times,serif" font-size="14.00">*</text>
</g>
<!-- 6&#45;&#45;4 -->
<g id="edge6" class="edge">
<title>6&#45;&#45;4</title>
<path fill="none" stroke="black" d="M94.49,-144.76C87.87,-133.46 79.07,-118.44 72.46,-107.15"/>
</g>
<!-- 5 -->
<g id="node10" class="node">
<title>5</title>
<ellipse fill="none" stroke="black" cx="146" cy="-90" rx="37.53" ry="18"/>
<text text-anchor="middle" x="146" y="-84.95" font-family="Times,serif" font-size="14.00">epsilon</text>
</g>
<!-- 6&#45;&#45;5 -->
<g id="edge9" class="edge">
<title>6&#45;&#45;5</title>
<path fill="none" stroke="black" d="M113.74,-144.76C120.43,-133.62 129.28,-118.87 136.02,-107.63"/>
</g>
<!-- 2 -->
<g id="node8" class="node">
<title>2</title>
<ellipse fill="none" stroke="black" cx="27" cy="-18" rx="27" ry="18"/>
<text text-anchor="middle" x="27" y="-12.95" font-family="Times,serif" font-size="14.00">4</text>
</g>
<!-- 4&#45;&#45;2 -->
<g id="edge7" class="edge">
<title>4&#45;&#45;2</title>
<path fill="none" stroke="black" d="M54.65,-72.76C48.83,-61.46 41.11,-46.44 35.3,-35.15"/>
</g>
<!-- 3 -->
<g id="node9" class="node">
<title>3</title>
<ellipse fill="none" stroke="black" cx="99" cy="-18" rx="27" ry="18"/>
<text text-anchor="middle" x="99" y="-12.95" font-family="Times,serif" font-size="14.00">pi</text>
</g>
<!-- 4&#45;&#45;3 -->
<g id="edge8" class="edge">
<title>4&#45;&#45;3</title>
<path fill="none" stroke="black" d="M71.35,-72.76C77.17,-61.46 84.89,-46.44 90.7,-35.15"/>
</g>
<!-- 10 -->
<g id="node13" class="node">
<title>10</title>
<ellipse fill="none" stroke="black" cx="214" cy="-234" rx="28.83" ry="18"/>
<text text-anchor="middle" x="214" y="-228.95" font-family="Times,serif" font-size="14.00">theta</text>
</g>
<!-- 11&#45;&#45;10 -->
<g id="edge12" class="edge">
<title>11&#45;&#45;10</title>
<path fill="none" stroke="black" d="M213.25,-287.7C213.4,-276.85 213.6,-262.92 213.76,-252.1"/>
</g>
<!-- 13 -->
<g id="node15" class="node">
<title>13</title>
<ellipse fill="none" stroke="black" cx="285" cy="-306" rx="27" ry="18"/>
<text text-anchor="middle" x="285" y="-300.95" font-family="Times,serif" font-size="14.00">r</text>
</g>
<!-- 15&#45;&#45;13 -->
<g id="edge14" class="edge">
<title>15&#45;&#45;13</title>
<path fill="none" stroke="black" d="M285,-359.7C285,-348.85 285,-334.92 285,-324.1"/>
</g>
<!-- 14 -->
<g id="node16" class="node">
<title>14</title>
<ellipse fill="none" stroke="black" cx="357" cy="-306" rx="27" ry="18"/>
<text text-anchor="middle" x="357" y="-300.95" font-family="Times,serif" font-size="14.00">2</text>
</g>
<!-- 15&#45;&#45;14 -->
<g id="edge15" class="edge">
<title>15&#45;&#45;14</title>
<path fill="none" stroke="black" d="M299.92,-362.5C312.28,-350.48 329.75,-333.49 342.1,-321.49"/>
</g>
</g>
</svg>
