<?xml version="1.0" encoding="UTF-8" standalone="no"?>
<!DOCTYPE svg PUBLIC "-//W3C//DTD SVG 1.1//EN"
 "http://www.w3.org/Graphics/SVG/1.1/DTD/svg11.dtd">
<!-- Generated by graphviz version 9.0.0 (20230911.1827)
 -->
<!-- Title: G Pages: 1 -->
<svg width="503pt" height="429pt"
 viewBox="0.00 0.00 503.00 428.50" xmlns="http://www.w3.org/2000/svg" xmlns:xlink="http://www.w3.org/1999/xlink">
<g id="graph0" class="graph" transform="scale(1 1) rotate(0) translate(4 424.5)">
<title>G</title>
<polygon fill="white" stroke="none" points="-4,4 -4,-424.5 499,-424.5 499,4 -4,4"/>
<text text-anchor="middle" x="247.5" y="-403.2" font-family="Times,serif" font-size="14.00">1/2*m*(omega**2+omega_0**2)*(1/2)*x**2, depth = 5</text>
<!-- 21 -->
<g id="node1" class="node">
<title>21</title>
<ellipse fill="none" stroke="black" cx="360" cy="-378" rx="27" ry="18"/>
<text text-anchor="middle" x="360" y="-372.95" font-family="Times,serif" font-size="14.00">*</text>
</g>
<!-- 17 -->
<g id="node2" class="node">
<title>17</title>
<ellipse fill="none" stroke="black" cx="324" cy="-306" rx="27" ry="18"/>
<text text-anchor="middle" x="324" y="-300.95" font-family="Times,serif" font-size="14.00">*</text>
</g>
<!-- 21&#45;&#45;17 -->
<g id="edge1" class="edge">
<title>21&#45;&#45;17</title>
<path fill="none" stroke="black" d="M351.65,-360.76C345.83,-349.46 338.11,-334.44 332.3,-323.15"/>
</g>
<!-- 20 -->
<g id="node19" class="node">
<title>20</title>
<ellipse fill="none" stroke="black" cx="396" cy="-306" rx="27" ry="18"/>
<text text-anchor="middle" x="396" y="-300.95" font-family="Times,serif" font-size="14.00">^</text>
</g>
<!-- 21&#45;&#45;20 -->
<g id="edge18" class="edge">
<title>21&#45;&#45;20</title>
<path fill="none" stroke="black" d="M368.35,-360.76C374.17,-349.46 381.89,-334.44 387.7,-323.15"/>
</g>
<!-- 13 -->
<g id="node3" class="node">
<title>13</title>
<ellipse fill="none" stroke="black" cx="252" cy="-234" rx="27" ry="18"/>
<text text-anchor="middle" x="252" y="-228.95" font-family="Times,serif" font-size="14.00">*</text>
</g>
<!-- 17&#45;&#45;13 -->
<g id="edge2" class="edge">
<title>17&#45;&#45;13</title>
<path fill="none" stroke="black" d="M309.08,-290.5C296.72,-278.48 279.25,-261.49 266.9,-249.49"/>
</g>
<!-- 16 -->
<g id="node16" class="node">
<title>16</title>
<ellipse fill="none" stroke="black" cx="324" cy="-234" rx="27" ry="18"/>
<text text-anchor="middle" x="324" y="-228.95" font-family="Times,serif" font-size="14.00">/</text>
</g>
<!-- 17&#45;&#45;16 -->
<g id="edge15" class="edge">
<title>17&#45;&#45;16</title>
<path fill="none" stroke="black" d="M324,-287.7C324,-276.85 324,-262.92 324,-252.1"/>
</g>
<!-- 5 -->
<g id="node4" class="node">
<title>5</title>
<ellipse fill="none" stroke="black" cx="176" cy="-162" rx="27" ry="18"/>
<text text-anchor="middle" x="176" y="-156.95" font-family="Times,serif" font-size="14.00">*</text>
</g>
<!-- 13&#45;&#45;5 -->
<g id="edge3" class="edge">
<title>13&#45;&#45;5</title>
<path fill="none" stroke="black" d="M236.62,-218.83C223.43,-206.69 204.54,-189.28 191.36,-177.14"/>
</g>
<!-- 12 -->
<g id="node9" class="node">
<title>12</title>
<ellipse fill="none" stroke="black" cx="252" cy="-162" rx="27" ry="18"/>
<text text-anchor="middle" x="252" y="-156.95" font-family="Times,serif" font-size="14.00">+</text>
</g>
<!-- 13&#45;&#45;12 -->
<g id="edge8" class="edge">
<title>13&#45;&#45;12</title>
<path fill="none" stroke="black" d="M252,-215.7C252,-204.85 252,-190.92 252,-180.1"/>
</g>
<!-- 3 -->
<g id="node5" class="node">
<title>3</title>
<ellipse fill="none" stroke="black" cx="99" cy="-90" rx="27" ry="18"/>
<text text-anchor="middle" x="99" y="-84.95" font-family="Times,serif" font-size="14.00">/</text>
</g>
<!-- 5&#45;&#45;3 -->
<g id="edge4" class="edge">
<title>5&#45;&#45;3</title>
<path fill="none" stroke="black" d="M160.42,-146.83C147.06,-134.69 127.91,-117.28 114.56,-105.14"/>
</g>
<!-- 4 -->
<g id="node8" class="node">
<title>4</title>
<ellipse fill="none" stroke="black" cx="176" cy="-90" rx="27" ry="18"/>
<text text-anchor="middle" x="176" y="-84.95" font-family="Times,serif" font-size="14.00">m</text>
</g>
<!-- 5&#45;&#45;4 -->
<g id="edge7" class="edge">
<title>5&#45;&#45;4</title>
<path fill="none" stroke="black" d="M176,-143.7C176,-132.85 176,-118.92 176,-108.1"/>
</g>
<!-- 1 -->
<g id="node6" class="node">
<title>1</title>
<ellipse fill="none" stroke="black" cx="27" cy="-18" rx="27" ry="18"/>
<text text-anchor="middle" x="27" y="-12.95" font-family="Times,serif" font-size="14.00">1</text>
</g>
<!-- 3&#45;&#45;1 -->
<g id="edge5" class="edge">
<title>3&#45;&#45;1</title>
<path fill="none" stroke="black" d="M84.08,-74.5C71.72,-62.48 54.25,-45.49 41.9,-33.49"/>
</g>
<!-- 2 -->
<g id="node7" class="node">
<title>2</title>
<ellipse fill="none" stroke="black" cx="99" cy="-18" rx="27" ry="18"/>
<text text-anchor="middle" x="99" y="-12.95" font-family="Times,serif" font-size="14.00">2</text>
</g>
<!-- 3&#45;&#45;2 -->
<g id="edge6" class="edge">
<title>3&#45;&#45;2</title>
<path fill="none" stroke="black" d="M99,-71.7C99,-60.85 99,-46.92 99,-36.1"/>
</g>
<!-- 8 -->
<g id="node10" class="node">
<title>8</title>
<ellipse fill="none" stroke="black" cx="252" cy="-90" rx="27" ry="18"/>
<text text-anchor="middle" x="252" y="-84.95" font-family="Times,serif" font-size="14.00">^</text>
</g>
<!-- 12&#45;&#45;8 -->
<g id="edge9" class="edge">
<title>12&#45;&#45;8</title>
<path fill="none" stroke="black" d="M252,-143.7C252,-132.85 252,-118.92 252,-108.1"/>
</g>
<!-- 11 -->
<g id="node13" class="node">
<title>11</title>
<ellipse fill="none" stroke="black" cx="351" cy="-90" rx="27" ry="18"/>
<text text-anchor="middle" x="351" y="-84.95" font-family="Times,serif" font-size="14.00">^</text>
</g>
<!-- 12&#45;&#45;11 -->
<g id="edge12" class="edge">
<title>12&#45;&#45;11</title>
<path fill="none" stroke="black" d="M270.16,-148.16C288.02,-135.53 315.13,-116.36 332.96,-103.76"/>
</g>
<!-- 6 -->
<g id="node11" class="node">
<title>6</title>
<ellipse fill="none" stroke="black" cx="180" cy="-18" rx="36" ry="18"/>
<text text-anchor="middle" x="180" y="-12.95" font-family="Times,serif" font-size="14.00">omega</text>
</g>
<!-- 8&#45;&#45;6 -->
<g id="edge10" class="edge">
<title>8&#45;&#45;6</title>
<path fill="none" stroke="black" d="M237.08,-74.5C225.05,-62.8 208.18,-46.4 195.9,-34.46"/>
</g>
<!-- 7 -->
<g id="node12" class="node">
<title>7</title>
<ellipse fill="none" stroke="black" cx="261" cy="-18" rx="27" ry="18"/>
<text text-anchor="middle" x="261" y="-12.95" font-family="Times,serif" font-size="14.00">2</text>
</g>
<!-- 8&#45;&#45;7 -->
<g id="edge11" class="edge">
<title>8&#45;&#45;7</title>
<path fill="none" stroke="black" d="M254.22,-71.7C255.62,-60.85 257.41,-46.92 258.8,-36.1"/>
</g>
<!-- 9 -->
<g id="node14" class="node">
<title>9</title>
<ellipse fill="none" stroke="black" cx="351" cy="-18" rx="45.21" ry="18"/>
<text text-anchor="middle" x="351" y="-12.95" font-family="Times,serif" font-size="14.00">omega_0</text>
</g>
<!-- 11&#45;&#45;9 -->
<g id="edge13" class="edge">
<title>11&#45;&#45;9</title>
<path fill="none" stroke="black" d="M351,-71.7C351,-60.85 351,-46.92 351,-36.1"/>
</g>
<!-- 10 -->
<g id="node15" class="node">
<title>10</title>
<ellipse fill="none" stroke="black" cx="441" cy="-18" rx="27" ry="18"/>
<text text-anchor="middle" x="441" y="-12.95" font-family="Times,serif" font-size="14.00">2</text>
</g>
<!-- 11&#45;&#45;10 -->
<g id="edge14" class="edge">
<title>11&#45;&#45;10</title>
<path fill="none" stroke="black" d="M367.93,-75.83C383.92,-63.4 407.78,-44.84 423.84,-32.35"/>
</g>
<!-- 14 -->
<g id="node17" class="node">
<title>14</title>
<ellipse fill="none" stroke="black" cx="324" cy="-162" rx="27" ry="18"/>
<text text-anchor="middle" x="324" y="-156.95" font-family="Times,serif" font-size="14.00">1</text>
</g>
<!-- 16&#45;&#45;14 -->
<g id="edge16" class="edge">
<title>16&#45;&#45;14</title>
<path fill="none" stroke="black" d="M324,-215.7C324,-204.85 324,-190.92 324,-180.1"/>
</g>
<!-- 15 -->
<g id="node18" class="node">
<title>15</title>
<ellipse fill="none" stroke="black" cx="396" cy="-162" rx="27" ry="18"/>
<text text-anchor="middle" x="396" y="-156.95" font-family="Times,serif" font-size="14.00">2</text>
</g>
<!-- 16&#45;&#45;15 -->
<g id="edge17" class="edge">
<title>16&#45;&#45;15</title>
<path fill="none" stroke="black" d="M338.92,-218.5C351.28,-206.48 368.75,-189.49 381.1,-177.49"/>
</g>
<!-- 18 -->
<g id="node20" class="node">
<title>18</title>
<ellipse fill="none" stroke="black" cx="396" cy="-234" rx="27" ry="18"/>
<text text-anchor="middle" x="396" y="-228.95" font-family="Times,serif" font-size="14.00">x</text>
</g>
<!-- 20&#45;&#45;18 -->
<g id="edge19" class="edge">
<title>20&#45;&#45;18</title>
<path fill="none" stroke="black" d="M396,-287.7C396,-276.85 396,-262.92 396,-252.1"/>
</g>
<!-- 19 -->
<g id="node21" class="node">
<title>19</title>
<ellipse fill="none" stroke="black" cx="468" cy="-234" rx="27" ry="18"/>
<text text-anchor="middle" x="468" y="-228.95" font-family="Times,serif" font-size="14.00">2</text>
</g>
<!-- 20&#45;&#45;19 -->
<g id="edge20" class="edge">
<title>20&#45;&#45;19</title>
<path fill="none" stroke="black" d="M410.92,-290.5C423.28,-278.48 440.75,-261.49 453.1,-249.49"/>
</g>
</g>
</svg>
