<?xml version="1.0" encoding="UTF-8" standalone="no"?>
<!DOCTYPE svg PUBLIC "-//W3C//DTD SVG 1.1//EN"
 "http://www.w3.org/Graphics/SVG/1.1/DTD/svg11.dtd">
<!-- Generated by graphviz version 9.0.0 (20230911.1827)
 -->
<!-- Title: G Pages: 1 -->
<svg width="242pt" height="285pt"
 viewBox="0.00 0.00 242.21 284.50" xmlns="http://www.w3.org/2000/svg" xmlns:xlink="http://www.w3.org/1999/xlink">
<g id="graph0" class="graph" transform="scale(1 1) rotate(0) translate(4 280.5)">
<title>G</title>
<polygon fill="white" stroke="none" points="-4,4 -4,-280.5 238.21,-280.5 238.21,4 -4,4"/>
<text text-anchor="middle" x="117.1" y="-259.2" font-family="Times,serif" font-size="14.00">omega_0/(1&#45;v/c), depth = 3</text>
<!-- 7 -->
<g id="node1" class="node">
<title>7</title>
<ellipse fill="none" stroke="black" cx="90.21" cy="-234" rx="27" ry="18"/>
<text text-anchor="middle" x="90.21" y="-228.95" font-family="Times,serif" font-size="14.00">/</text>
</g>
<!-- 1 -->
<g id="node2" class="node">
<title>1</title>
<ellipse fill="none" stroke="black" cx="45.21" cy="-162" rx="45.21" ry="18"/>
<text text-anchor="middle" x="45.21" y="-156.95" font-family="Times,serif" font-size="14.00">omega_0</text>
</g>
<!-- 7&#45;&#45;1 -->
<g id="edge1" class="edge">
<title>7&#45;&#45;1</title>
<path fill="none" stroke="black" d="M80,-217.12C72.84,-205.98 63.29,-191.13 56.01,-179.8"/>
</g>
<!-- 6 -->
<g id="node3" class="node">
<title>6</title>
<ellipse fill="none" stroke="black" cx="135.21" cy="-162" rx="27" ry="18"/>
<text text-anchor="middle" x="135.21" y="-156.95" font-family="Times,serif" font-size="14.00">&#45;</text>
</g>
<!-- 7&#45;&#45;6 -->
<g id="edge2" class="edge">
<title>7&#45;&#45;6</title>
<path fill="none" stroke="black" d="M100.42,-217.12C107.79,-205.66 117.68,-190.26 125.04,-178.82"/>
</g>
<!-- 2 -->
<g id="node4" class="node">
<title>2</title>
<ellipse fill="none" stroke="black" cx="99.21" cy="-90" rx="27" ry="18"/>
<text text-anchor="middle" x="99.21" y="-84.95" font-family="Times,serif" font-size="14.00">1</text>
</g>
<!-- 6&#45;&#45;2 -->
<g id="edge3" class="edge">
<title>6&#45;&#45;2</title>
<path fill="none" stroke="black" d="M126.86,-144.76C121.04,-133.46 113.32,-118.44 107.51,-107.15"/>
</g>
<!-- 5 -->
<g id="node5" class="node">
<title>5</title>
<ellipse fill="none" stroke="black" cx="171.21" cy="-90" rx="27" ry="18"/>
<text text-anchor="middle" x="171.21" y="-84.95" font-family="Times,serif" font-size="14.00">/</text>
</g>
<!-- 6&#45;&#45;5 -->
<g id="edge4" class="edge">
<title>6&#45;&#45;5</title>
<path fill="none" stroke="black" d="M143.56,-144.76C149.38,-133.46 157.1,-118.44 162.91,-107.15"/>
</g>
<!-- 3 -->
<g id="node6" class="node">
<title>3</title>
<ellipse fill="none" stroke="black" cx="135.21" cy="-18" rx="27" ry="18"/>
<text text-anchor="middle" x="135.21" y="-12.95" font-family="Times,serif" font-size="14.00">v</text>
</g>
<!-- 5&#45;&#45;3 -->
<g id="edge5" class="edge">
<title>5&#45;&#45;3</title>
<path fill="none" stroke="black" d="M162.86,-72.76C157.04,-61.46 149.32,-46.44 143.51,-35.15"/>
</g>
<!-- 4 -->
<g id="node7" class="node">
<title>4</title>
<ellipse fill="none" stroke="black" cx="207.21" cy="-18" rx="27" ry="18"/>
<text text-anchor="middle" x="207.21" y="-12.95" font-family="Times,serif" font-size="14.00">c</text>
</g>
<!-- 5&#45;&#45;4 -->
<g id="edge6" class="edge">
<title>5&#45;&#45;4</title>
<path fill="none" stroke="black" d="M179.56,-72.76C185.38,-61.46 193.1,-46.44 198.91,-35.15"/>
</g>
</g>
</svg>
