<?xml version="1.0" encoding="UTF-8" standalone="no"?>
<!DOCTYPE svg PUBLIC "-//W3C//DTD SVG 1.1//EN"
 "http://www.w3.org/Graphics/SVG/1.1/DTD/svg11.dtd">
<!-- Generated by graphviz version 9.0.0 (20230911.1827)
 -->
<!-- Title: G Pages: 1 -->
<svg width="322pt" height="429pt"
 viewBox="0.00 0.00 322.00 428.50" xmlns="http://www.w3.org/2000/svg" xmlns:xlink="http://www.w3.org/1999/xlink">
<g id="graph0" class="graph" transform="scale(1 1) rotate(0) translate(4 424.5)">
<title>G</title>
<polygon fill="white" stroke="none" points="-4,4 -4,-424.5 318,-424.5 318,4 -4,4"/>
<text text-anchor="middle" x="157" y="-403.2" font-family="Times,serif" font-size="14.00">1+n*alpha/(1&#45;(n*alpha/3)), depth = 5</text>
<!-- 13 -->
<g id="node1" class="node">
<title>13</title>
<ellipse fill="none" stroke="black" cx="105" cy="-378" rx="27" ry="18"/>
<text text-anchor="middle" x="105" y="-372.95" font-family="Times,serif" font-size="14.00">+</text>
</g>
<!-- 1 -->
<g id="node2" class="node">
<title>1</title>
<ellipse fill="none" stroke="black" cx="69" cy="-306" rx="27" ry="18"/>
<text text-anchor="middle" x="69" y="-300.95" font-family="Times,serif" font-size="14.00">1</text>
</g>
<!-- 13&#45;&#45;1 -->
<g id="edge1" class="edge">
<title>13&#45;&#45;1</title>
<path fill="none" stroke="black" d="M96.65,-360.76C90.83,-349.46 83.11,-334.44 77.3,-323.15"/>
</g>
<!-- 12 -->
<g id="node3" class="node">
<title>12</title>
<ellipse fill="none" stroke="black" cx="141" cy="-306" rx="27" ry="18"/>
<text text-anchor="middle" x="141" y="-300.95" font-family="Times,serif" font-size="14.00">/</text>
</g>
<!-- 13&#45;&#45;12 -->
<g id="edge2" class="edge">
<title>13&#45;&#45;12</title>
<path fill="none" stroke="black" d="M113.35,-360.76C119.17,-349.46 126.89,-334.44 132.7,-323.15"/>
</g>
<!-- 4 -->
<g id="node4" class="node">
<title>4</title>
<ellipse fill="none" stroke="black" cx="103" cy="-234" rx="27" ry="18"/>
<text text-anchor="middle" x="103" y="-228.95" font-family="Times,serif" font-size="14.00">*</text>
</g>
<!-- 12&#45;&#45;4 -->
<g id="edge3" class="edge">
<title>12&#45;&#45;4</title>
<path fill="none" stroke="black" d="M132.19,-288.76C126.05,-277.46 117.89,-262.44 111.77,-251.15"/>
</g>
<!-- 11 -->
<g id="node7" class="node">
<title>11</title>
<ellipse fill="none" stroke="black" cx="179" cy="-234" rx="27" ry="18"/>
<text text-anchor="middle" x="179" y="-228.95" font-family="Times,serif" font-size="14.00">&#45;</text>
</g>
<!-- 12&#45;&#45;11 -->
<g id="edge6" class="edge">
<title>12&#45;&#45;11</title>
<path fill="none" stroke="black" d="M149.81,-288.76C155.95,-277.46 164.11,-262.44 170.23,-251.15"/>
</g>
<!-- 2 -->
<g id="node5" class="node">
<title>2</title>
<ellipse fill="none" stroke="black" cx="27" cy="-162" rx="27" ry="18"/>
<text text-anchor="middle" x="27" y="-156.95" font-family="Times,serif" font-size="14.00">n</text>
</g>
<!-- 4&#45;&#45;2 -->
<g id="edge4" class="edge">
<title>4&#45;&#45;2</title>
<path fill="none" stroke="black" d="M87.62,-218.83C74.43,-206.69 55.54,-189.28 42.36,-177.14"/>
</g>
<!-- 3 -->
<g id="node6" class="node">
<title>3</title>
<ellipse fill="none" stroke="black" cx="103" cy="-162" rx="30.88" ry="18"/>
<text text-anchor="middle" x="103" y="-156.95" font-family="Times,serif" font-size="14.00">alpha</text>
</g>
<!-- 4&#45;&#45;3 -->
<g id="edge5" class="edge">
<title>4&#45;&#45;3</title>
<path fill="none" stroke="black" d="M103,-215.7C103,-204.85 103,-190.92 103,-180.1"/>
</g>
<!-- 5 -->
<g id="node8" class="node">
<title>5</title>
<ellipse fill="none" stroke="black" cx="179" cy="-162" rx="27" ry="18"/>
<text text-anchor="middle" x="179" y="-156.95" font-family="Times,serif" font-size="14.00">1</text>
</g>
<!-- 11&#45;&#45;5 -->
<g id="edge7" class="edge">
<title>11&#45;&#45;5</title>
<path fill="none" stroke="black" d="M179,-215.7C179,-204.85 179,-190.92 179,-180.1"/>
</g>
<!-- 10 -->
<g id="node9" class="node">
<title>10</title>
<ellipse fill="none" stroke="black" cx="251" cy="-162" rx="27" ry="18"/>
<text text-anchor="middle" x="251" y="-156.95" font-family="Times,serif" font-size="14.00">/</text>
</g>
<!-- 11&#45;&#45;10 -->
<g id="edge8" class="edge">
<title>11&#45;&#45;10</title>
<path fill="none" stroke="black" d="M193.92,-218.5C206.28,-206.48 223.75,-189.49 236.1,-177.49"/>
</g>
<!-- 8 -->
<g id="node10" class="node">
<title>8</title>
<ellipse fill="none" stroke="black" cx="215" cy="-90" rx="27" ry="18"/>
<text text-anchor="middle" x="215" y="-84.95" font-family="Times,serif" font-size="14.00">*</text>
</g>
<!-- 10&#45;&#45;8 -->
<g id="edge9" class="edge">
<title>10&#45;&#45;8</title>
<path fill="none" stroke="black" d="M242.65,-144.76C236.83,-133.46 229.11,-118.44 223.3,-107.15"/>
</g>
<!-- 9 -->
<g id="node13" class="node">
<title>9</title>
<ellipse fill="none" stroke="black" cx="287" cy="-90" rx="27" ry="18"/>
<text text-anchor="middle" x="287" y="-84.95" font-family="Times,serif" font-size="14.00">3</text>
</g>
<!-- 10&#45;&#45;9 -->
<g id="edge12" class="edge">
<title>10&#45;&#45;9</title>
<path fill="none" stroke="black" d="M259.35,-144.76C265.17,-133.46 272.89,-118.44 278.7,-107.15"/>
</g>
<!-- 6 -->
<g id="node11" class="node">
<title>6</title>
<ellipse fill="none" stroke="black" cx="177" cy="-18" rx="27" ry="18"/>
<text text-anchor="middle" x="177" y="-12.95" font-family="Times,serif" font-size="14.00">n</text>
</g>
<!-- 8&#45;&#45;6 -->
<g id="edge10" class="edge">
<title>8&#45;&#45;6</title>
<path fill="none" stroke="black" d="M206.19,-72.76C200.05,-61.46 191.89,-46.44 185.77,-35.15"/>
</g>
<!-- 7 -->
<g id="node12" class="node">
<title>7</title>
<ellipse fill="none" stroke="black" cx="253" cy="-18" rx="30.88" ry="18"/>
<text text-anchor="middle" x="253" y="-12.95" font-family="Times,serif" font-size="14.00">alpha</text>
</g>
<!-- 8&#45;&#45;7 -->
<g id="edge11" class="edge">
<title>8&#45;&#45;7</title>
<path fill="none" stroke="black" d="M223.81,-72.76C229.86,-61.62 237.87,-46.87 243.97,-35.63"/>
</g>
</g>
</svg>
