<?xml version="1.0" encoding="UTF-8" standalone="no"?>
<!DOCTYPE svg PUBLIC "-//W3C//DTD SVG 1.1//EN"
 "http://www.w3.org/Graphics/SVG/1.1/DTD/svg11.dtd">
<!-- Generated by graphviz version 9.0.0 (20230911.1827)
 -->
<!-- Title: G Pages: 1 -->
<svg width="336pt" height="573pt"
 viewBox="0.00 0.00 336.00 572.50" xmlns="http://www.w3.org/2000/svg" xmlns:xlink="http://www.w3.org/1999/xlink">
<g id="graph0" class="graph" transform="scale(1 1) rotate(0) translate(4 568.5)">
<title>G</title>
<polygon fill="white" stroke="none" points="-4,4 -4,-568.5 332,-568.5 332,4 -4,4"/>
<text text-anchor="middle" x="164" y="-547.2" font-family="Times,serif" font-size="14.00">1/(4*pi*epsilon*c**2)*2*I/r, depth = 7</text>
<!-- 17 -->
<g id="node1" class="node">
<title>17</title>
<ellipse fill="none" stroke="black" cx="259" cy="-522" rx="27" ry="18"/>
<text text-anchor="middle" x="259" y="-516.95" font-family="Times,serif" font-size="14.00">/</text>
</g>
<!-- 15 -->
<g id="node2" class="node">
<title>15</title>
<ellipse fill="none" stroke="black" cx="223" cy="-450" rx="27" ry="18"/>
<text text-anchor="middle" x="223" y="-444.95" font-family="Times,serif" font-size="14.00">*</text>
</g>
<!-- 17&#45;&#45;15 -->
<g id="edge1" class="edge">
<title>17&#45;&#45;15</title>
<path fill="none" stroke="black" d="M250.65,-504.76C244.83,-493.46 237.11,-478.44 231.3,-467.15"/>
</g>
<!-- 16 -->
<g id="node17" class="node">
<title>16</title>
<ellipse fill="none" stroke="black" cx="295" cy="-450" rx="27" ry="18"/>
<text text-anchor="middle" x="295" y="-444.95" font-family="Times,serif" font-size="14.00">r</text>
</g>
<!-- 17&#45;&#45;16 -->
<g id="edge16" class="edge">
<title>17&#45;&#45;16</title>
<path fill="none" stroke="black" d="M267.35,-504.76C273.17,-493.46 280.89,-478.44 286.7,-467.15"/>
</g>
<!-- 13 -->
<g id="node3" class="node">
<title>13</title>
<ellipse fill="none" stroke="black" cx="187" cy="-378" rx="27" ry="18"/>
<text text-anchor="middle" x="187" y="-372.95" font-family="Times,serif" font-size="14.00">*</text>
</g>
<!-- 15&#45;&#45;13 -->
<g id="edge2" class="edge">
<title>15&#45;&#45;13</title>
<path fill="none" stroke="black" d="M214.65,-432.76C208.83,-421.46 201.11,-406.44 195.3,-395.15"/>
</g>
<!-- 14 -->
<g id="node16" class="node">
<title>14</title>
<ellipse fill="none" stroke="black" cx="259" cy="-378" rx="27" ry="18"/>
<text text-anchor="middle" x="259" y="-372.95" font-family="Times,serif" font-size="14.00">I</text>
</g>
<!-- 15&#45;&#45;14 -->
<g id="edge15" class="edge">
<title>15&#45;&#45;14</title>
<path fill="none" stroke="black" d="M231.35,-432.76C237.17,-421.46 244.89,-406.44 250.7,-395.15"/>
</g>
<!-- 11 -->
<g id="node4" class="node">
<title>11</title>
<ellipse fill="none" stroke="black" cx="151" cy="-306" rx="27" ry="18"/>
<text text-anchor="middle" x="151" y="-300.95" font-family="Times,serif" font-size="14.00">/</text>
</g>
<!-- 13&#45;&#45;11 -->
<g id="edge3" class="edge">
<title>13&#45;&#45;11</title>
<path fill="none" stroke="black" d="M178.65,-360.76C172.83,-349.46 165.11,-334.44 159.3,-323.15"/>
</g>
<!-- 12 -->
<g id="node15" class="node">
<title>12</title>
<ellipse fill="none" stroke="black" cx="223" cy="-306" rx="27" ry="18"/>
<text text-anchor="middle" x="223" y="-300.95" font-family="Times,serif" font-size="14.00">2</text>
</g>
<!-- 13&#45;&#45;12 -->
<g id="edge14" class="edge">
<title>13&#45;&#45;12</title>
<path fill="none" stroke="black" d="M195.35,-360.76C201.17,-349.46 208.89,-334.44 214.7,-323.15"/>
</g>
<!-- 1 -->
<g id="node5" class="node">
<title>1</title>
<ellipse fill="none" stroke="black" cx="115" cy="-234" rx="27" ry="18"/>
<text text-anchor="middle" x="115" y="-228.95" font-family="Times,serif" font-size="14.00">1</text>
</g>
<!-- 11&#45;&#45;1 -->
<g id="edge4" class="edge">
<title>11&#45;&#45;1</title>
<path fill="none" stroke="black" d="M142.65,-288.76C136.83,-277.46 129.11,-262.44 123.3,-251.15"/>
</g>
<!-- 10 -->
<g id="node6" class="node">
<title>10</title>
<ellipse fill="none" stroke="black" cx="187" cy="-234" rx="27" ry="18"/>
<text text-anchor="middle" x="187" y="-228.95" font-family="Times,serif" font-size="14.00">*</text>
</g>
<!-- 11&#45;&#45;10 -->
<g id="edge5" class="edge">
<title>11&#45;&#45;10</title>
<path fill="none" stroke="black" d="M159.35,-288.76C165.17,-277.46 172.89,-262.44 178.7,-251.15"/>
</g>
<!-- 6 -->
<g id="node7" class="node">
<title>6</title>
<ellipse fill="none" stroke="black" cx="146" cy="-162" rx="27" ry="18"/>
<text text-anchor="middle" x="146" y="-156.95" font-family="Times,serif" font-size="14.00">*</text>
</g>
<!-- 10&#45;&#45;6 -->
<g id="edge6" class="edge">
<title>10&#45;&#45;6</title>
<path fill="none" stroke="black" d="M177.49,-216.76C170.87,-205.46 162.07,-190.44 155.46,-179.15"/>
</g>
<!-- 9 -->
<g id="node12" class="node">
<title>9</title>
<ellipse fill="none" stroke="black" cx="229" cy="-162" rx="27" ry="18"/>
<text text-anchor="middle" x="229" y="-156.95" font-family="Times,serif" font-size="14.00">^</text>
</g>
<!-- 10&#45;&#45;9 -->
<g id="edge11" class="edge">
<title>10&#45;&#45;9</title>
<path fill="none" stroke="black" d="M196.74,-216.76C203.53,-205.46 212.54,-190.44 219.31,-179.15"/>
</g>
<!-- 4 -->
<g id="node8" class="node">
<title>4</title>
<ellipse fill="none" stroke="black" cx="63" cy="-90" rx="27" ry="18"/>
<text text-anchor="middle" x="63" y="-84.95" font-family="Times,serif" font-size="14.00">*</text>
</g>
<!-- 6&#45;&#45;4 -->
<g id="edge7" class="edge">
<title>6&#45;&#45;4</title>
<path fill="none" stroke="black" d="M129.6,-147.17C115.05,-134.9 93.9,-117.06 79.36,-104.8"/>
</g>
<!-- 5 -->
<g id="node11" class="node">
<title>5</title>
<ellipse fill="none" stroke="black" cx="146" cy="-90" rx="37.53" ry="18"/>
<text text-anchor="middle" x="146" y="-84.95" font-family="Times,serif" font-size="14.00">epsilon</text>
</g>
<!-- 6&#45;&#45;5 -->
<g id="edge10" class="edge">
<title>6&#45;&#45;5</title>
<path fill="none" stroke="black" d="M146,-143.7C146,-132.85 146,-118.92 146,-108.1"/>
</g>
<!-- 2 -->
<g id="node9" class="node">
<title>2</title>
<ellipse fill="none" stroke="black" cx="27" cy="-18" rx="27" ry="18"/>
<text text-anchor="middle" x="27" y="-12.95" font-family="Times,serif" font-size="14.00">4</text>
</g>
<!-- 4&#45;&#45;2 -->
<g id="edge8" class="edge">
<title>4&#45;&#45;2</title>
<path fill="none" stroke="black" d="M54.65,-72.76C48.83,-61.46 41.11,-46.44 35.3,-35.15"/>
</g>
<!-- 3 -->
<g id="node10" class="node">
<title>3</title>
<ellipse fill="none" stroke="black" cx="99" cy="-18" rx="27" ry="18"/>
<text text-anchor="middle" x="99" y="-12.95" font-family="Times,serif" font-size="14.00">pi</text>
</g>
<!-- 4&#45;&#45;3 -->
<g id="edge9" class="edge">
<title>4&#45;&#45;3</title>
<path fill="none" stroke="black" d="M71.35,-72.76C77.17,-61.46 84.89,-46.44 90.7,-35.15"/>
</g>
<!-- 7 -->
<g id="node13" class="node">
<title>7</title>
<ellipse fill="none" stroke="black" cx="229" cy="-90" rx="27" ry="18"/>
<text text-anchor="middle" x="229" y="-84.95" font-family="Times,serif" font-size="14.00">c</text>
</g>
<!-- 9&#45;&#45;7 -->
<g id="edge12" class="edge">
<title>9&#45;&#45;7</title>
<path fill="none" stroke="black" d="M229,-143.7C229,-132.85 229,-118.92 229,-108.1"/>
</g>
<!-- 8 -->
<g id="node14" class="node">
<title>8</title>
<ellipse fill="none" stroke="black" cx="301" cy="-90" rx="27" ry="18"/>
<text text-anchor="middle" x="301" y="-84.95" font-family="Times,serif" font-size="14.00">2</text>
</g>
<!-- 9&#45;&#45;8 -->
<g id="edge13" class="edge">
<title>9&#45;&#45;8</title>
<path fill="none" stroke="black" d="M243.92,-146.5C256.28,-134.48 273.75,-117.49 286.1,-105.49"/>
</g>
</g>
</svg>
