<?xml version="1.0" encoding="UTF-8" standalone="no"?>
<!DOCTYPE svg PUBLIC "-//W3C//DTD SVG 1.1//EN"
 "http://www.w3.org/Graphics/SVG/1.1/DTD/svg11.dtd">
<!-- Generated by graphviz version 9.0.0 (20230911.1827)
 -->
<!-- Title: G Pages: 1 -->
<svg width="336pt" height="501pt"
 viewBox="0.00 0.00 336.00 500.50" xmlns="http://www.w3.org/2000/svg" xmlns:xlink="http://www.w3.org/1999/xlink">
<g id="graph0" class="graph" transform="scale(1 1) rotate(0) translate(4 496.5)">
<title>G</title>
<polygon fill="white" stroke="none" points="-4,4 -4,-496.5 332,-496.5 332,4 -4,4"/>
<text text-anchor="middle" x="164" y="-475.2" font-family="Times,serif" font-size="14.00">x1*(cos(omega*t)+alpha*cos(omega*t)**2), depth = 6</text>
<!-- 15 -->
<g id="node1" class="node">
<title>15</title>
<ellipse fill="none" stroke="black" cx="100" cy="-450" rx="27" ry="18"/>
<text text-anchor="middle" x="100" y="-444.95" font-family="Times,serif" font-size="14.00">*</text>
</g>
<!-- 1 -->
<g id="node2" class="node">
<title>1</title>
<ellipse fill="none" stroke="black" cx="64" cy="-378" rx="27" ry="18"/>
<text text-anchor="middle" x="64" y="-372.95" font-family="Times,serif" font-size="14.00">x1</text>
</g>
<!-- 15&#45;&#45;1 -->
<g id="edge1" class="edge">
<title>15&#45;&#45;1</title>
<path fill="none" stroke="black" d="M91.65,-432.76C85.83,-421.46 78.11,-406.44 72.3,-395.15"/>
</g>
<!-- 14 -->
<g id="node3" class="node">
<title>14</title>
<ellipse fill="none" stroke="black" cx="136" cy="-378" rx="27" ry="18"/>
<text text-anchor="middle" x="136" y="-372.95" font-family="Times,serif" font-size="14.00">+</text>
</g>
<!-- 15&#45;&#45;14 -->
<g id="edge2" class="edge">
<title>15&#45;&#45;14</title>
<path fill="none" stroke="black" d="M108.35,-432.76C114.16,-421.46 121.89,-406.44 127.69,-395.15"/>
</g>
<!-- 5 -->
<g id="node4" class="node">
<title>5</title>
<ellipse fill="none" stroke="black" cx="99" cy="-306" rx="27" ry="18"/>
<text text-anchor="middle" x="99" y="-300.95" font-family="Times,serif" font-size="14.00">cos</text>
</g>
<!-- 14&#45;&#45;5 -->
<g id="edge3" class="edge">
<title>14&#45;&#45;5</title>
<path fill="none" stroke="black" d="M127.42,-360.76C121.44,-349.46 113.5,-334.44 107.53,-323.15"/>
</g>
<!-- 13 -->
<g id="node8" class="node">
<title>13</title>
<ellipse fill="none" stroke="black" cx="173" cy="-306" rx="27" ry="18"/>
<text text-anchor="middle" x="173" y="-300.95" font-family="Times,serif" font-size="14.00">*</text>
</g>
<!-- 14&#45;&#45;13 -->
<g id="edge7" class="edge">
<title>14&#45;&#45;13</title>
<path fill="none" stroke="black" d="M144.58,-360.76C150.56,-349.46 158.49,-334.44 164.46,-323.15"/>
</g>
<!-- 4 -->
<g id="node5" class="node">
<title>4</title>
<ellipse fill="none" stroke="black" cx="97" cy="-234" rx="27" ry="18"/>
<text text-anchor="middle" x="97" y="-228.95" font-family="Times,serif" font-size="14.00">*</text>
</g>
<!-- 5&#45;&#45;4 -->
<g id="edge4" class="edge">
<title>5&#45;&#45;4</title>
<path fill="none" stroke="black" d="M98.5,-287.7C98.19,-276.85 97.79,-262.92 97.49,-252.1"/>
</g>
<!-- 2 -->
<g id="node6" class="node">
<title>2</title>
<ellipse fill="none" stroke="black" cx="36" cy="-162" rx="36" ry="18"/>
<text text-anchor="middle" x="36" y="-156.95" font-family="Times,serif" font-size="14.00">omega</text>
</g>
<!-- 4&#45;&#45;2 -->
<g id="edge5" class="edge">
<title>4&#45;&#45;2</title>
<path fill="none" stroke="black" d="M83.76,-217.81C73.67,-206.23 59.82,-190.34 49.63,-178.64"/>
</g>
<!-- 3 -->
<g id="node7" class="node">
<title>3</title>
<ellipse fill="none" stroke="black" cx="117" cy="-162" rx="27" ry="18"/>
<text text-anchor="middle" x="117" y="-156.95" font-family="Times,serif" font-size="14.00">t</text>
</g>
<!-- 4&#45;&#45;3 -->
<g id="edge6" class="edge">
<title>4&#45;&#45;3</title>
<path fill="none" stroke="black" d="M101.84,-216.05C104.98,-205.05 109.06,-190.76 112.2,-179.79"/>
</g>
<!-- 6 -->
<g id="node9" class="node">
<title>6</title>
<ellipse fill="none" stroke="black" cx="173" cy="-234" rx="30.88" ry="18"/>
<text text-anchor="middle" x="173" y="-228.95" font-family="Times,serif" font-size="14.00">alpha</text>
</g>
<!-- 13&#45;&#45;6 -->
<g id="edge8" class="edge">
<title>13&#45;&#45;6</title>
<path fill="none" stroke="black" d="M173,-287.7C173,-276.85 173,-262.92 173,-252.1"/>
</g>
<!-- 12 -->
<g id="node10" class="node">
<title>12</title>
<ellipse fill="none" stroke="black" cx="249" cy="-234" rx="27" ry="18"/>
<text text-anchor="middle" x="249" y="-228.95" font-family="Times,serif" font-size="14.00">^</text>
</g>
<!-- 13&#45;&#45;12 -->
<g id="edge9" class="edge">
<title>13&#45;&#45;12</title>
<path fill="none" stroke="black" d="M188.38,-290.83C201.56,-278.69 220.46,-261.28 233.64,-249.14"/>
</g>
<!-- 10 -->
<g id="node11" class="node">
<title>10</title>
<ellipse fill="none" stroke="black" cx="229" cy="-162" rx="27" ry="18"/>
<text text-anchor="middle" x="229" y="-156.95" font-family="Times,serif" font-size="14.00">cos</text>
</g>
<!-- 12&#45;&#45;10 -->
<g id="edge10" class="edge">
<title>12&#45;&#45;10</title>
<path fill="none" stroke="black" d="M244.16,-216.05C241.01,-205.05 236.93,-190.76 233.79,-179.79"/>
</g>
<!-- 11 -->
<g id="node15" class="node">
<title>11</title>
<ellipse fill="none" stroke="black" cx="301" cy="-162" rx="27" ry="18"/>
<text text-anchor="middle" x="301" y="-156.95" font-family="Times,serif" font-size="14.00">2</text>
</g>
<!-- 12&#45;&#45;11 -->
<g id="edge14" class="edge">
<title>12&#45;&#45;11</title>
<path fill="none" stroke="black" d="M260.54,-217.46C269.15,-205.86 280.88,-190.08 289.49,-178.49"/>
</g>
<!-- 9 -->
<g id="node12" class="node">
<title>9</title>
<ellipse fill="none" stroke="black" cx="229" cy="-90" rx="27" ry="18"/>
<text text-anchor="middle" x="229" y="-84.95" font-family="Times,serif" font-size="14.00">*</text>
</g>
<!-- 10&#45;&#45;9 -->
<g id="edge11" class="edge">
<title>10&#45;&#45;9</title>
<path fill="none" stroke="black" d="M229,-143.7C229,-132.85 229,-118.92 229,-108.1"/>
</g>
<!-- 7 -->
<g id="node13" class="node">
<title>7</title>
<ellipse fill="none" stroke="black" cx="189" cy="-18" rx="36" ry="18"/>
<text text-anchor="middle" x="189" y="-12.95" font-family="Times,serif" font-size="14.00">omega</text>
</g>
<!-- 9&#45;&#45;7 -->
<g id="edge12" class="edge">
<title>9&#45;&#45;7</title>
<path fill="none" stroke="black" d="M219.72,-72.76C213.35,-61.62 204.92,-46.87 198.5,-35.63"/>
</g>
<!-- 8 -->
<g id="node14" class="node">
<title>8</title>
<ellipse fill="none" stroke="black" cx="270" cy="-18" rx="27" ry="18"/>
<text text-anchor="middle" x="270" y="-12.95" font-family="Times,serif" font-size="14.00">t</text>
</g>
<!-- 9&#45;&#45;8 -->
<g id="edge13" class="edge">
<title>9&#45;&#45;8</title>
<path fill="none" stroke="black" d="M238.51,-72.76C245.13,-61.46 253.93,-46.44 260.54,-35.15"/>
</g>
</g>
</svg>
