<?xml version="1.0" encoding="UTF-8" standalone="no"?>
<!DOCTYPE svg PUBLIC "-//W3C//DTD SVG 1.1//EN"
 "http://www.w3.org/Graphics/SVG/1.1/DTD/svg11.dtd">
<!-- Generated by graphviz version 9.0.0 (20230911.1827)
 -->
<!-- Title: G Pages: 1 -->
<svg width="227pt" height="357pt"
 viewBox="0.00 0.00 226.50 356.50" xmlns="http://www.w3.org/2000/svg" xmlns:xlink="http://www.w3.org/1999/xlink">
<g id="graph0" class="graph" transform="scale(1 1) rotate(0) translate(4 352.5)">
<title>G</title>
<polygon fill="white" stroke="none" points="-4,4 -4,-352.5 222.5,-352.5 222.5,4 -4,4"/>
<text text-anchor="middle" x="109.25" y="-331.2" font-family="Times,serif" font-size="14.00">beta*(1+alpha*cos(theta)), depth = 4</text>
<!-- 8 -->
<g id="node1" class="node">
<title>8</title>
<ellipse fill="none" stroke="black" cx="71.33" cy="-306" rx="27" ry="18"/>
<text text-anchor="middle" x="71.33" y="-300.95" font-family="Times,serif" font-size="14.00">*</text>
</g>
<!-- 1 -->
<g id="node2" class="node">
<title>1</title>
<ellipse fill="none" stroke="black" cx="35.33" cy="-234" rx="27" ry="18"/>
<text text-anchor="middle" x="35.33" y="-228.95" font-family="Times,serif" font-size="14.00">beta</text>
</g>
<!-- 8&#45;&#45;1 -->
<g id="edge1" class="edge">
<title>8&#45;&#45;1</title>
<path fill="none" stroke="black" d="M62.98,-288.76C57.17,-277.46 49.44,-262.44 43.64,-251.15"/>
</g>
<!-- 7 -->
<g id="node3" class="node">
<title>7</title>
<ellipse fill="none" stroke="black" cx="107.33" cy="-234" rx="27" ry="18"/>
<text text-anchor="middle" x="107.33" y="-228.95" font-family="Times,serif" font-size="14.00">+</text>
</g>
<!-- 8&#45;&#45;7 -->
<g id="edge2" class="edge">
<title>8&#45;&#45;7</title>
<path fill="none" stroke="black" d="M79.68,-288.76C85.5,-277.46 93.22,-262.44 99.03,-251.15"/>
</g>
<!-- 2 -->
<g id="node4" class="node">
<title>2</title>
<ellipse fill="none" stroke="black" cx="71.33" cy="-162" rx="27" ry="18"/>
<text text-anchor="middle" x="71.33" y="-156.95" font-family="Times,serif" font-size="14.00">1</text>
</g>
<!-- 7&#45;&#45;2 -->
<g id="edge3" class="edge">
<title>7&#45;&#45;2</title>
<path fill="none" stroke="black" d="M98.98,-216.76C93.17,-205.46 85.44,-190.44 79.64,-179.15"/>
</g>
<!-- 6 -->
<g id="node5" class="node">
<title>6</title>
<ellipse fill="none" stroke="black" cx="143.33" cy="-162" rx="27" ry="18"/>
<text text-anchor="middle" x="143.33" y="-156.95" font-family="Times,serif" font-size="14.00">*</text>
</g>
<!-- 7&#45;&#45;6 -->
<g id="edge4" class="edge">
<title>7&#45;&#45;6</title>
<path fill="none" stroke="black" d="M115.68,-216.76C121.5,-205.46 129.22,-190.44 135.03,-179.15"/>
</g>
<!-- 3 -->
<g id="node6" class="node">
<title>3</title>
<ellipse fill="none" stroke="black" cx="105.33" cy="-90" rx="30.88" ry="18"/>
<text text-anchor="middle" x="105.33" y="-84.95" font-family="Times,serif" font-size="14.00">alpha</text>
</g>
<!-- 6&#45;&#45;3 -->
<g id="edge5" class="edge">
<title>6&#45;&#45;3</title>
<path fill="none" stroke="black" d="M134.52,-144.76C128.47,-133.62 120.46,-118.87 114.36,-107.63"/>
</g>
<!-- 5 -->
<g id="node7" class="node">
<title>5</title>
<ellipse fill="none" stroke="black" cx="181.33" cy="-90" rx="27" ry="18"/>
<text text-anchor="middle" x="181.33" y="-84.95" font-family="Times,serif" font-size="14.00">cos</text>
</g>
<!-- 6&#45;&#45;5 -->
<g id="edge6" class="edge">
<title>6&#45;&#45;5</title>
<path fill="none" stroke="black" d="M152.15,-144.76C158.29,-133.46 166.44,-118.44 172.57,-107.15"/>
</g>
<!-- 4 -->
<g id="node8" class="node">
<title>4</title>
<ellipse fill="none" stroke="black" cx="181.33" cy="-18" rx="28.83" ry="18"/>
<text text-anchor="middle" x="181.33" y="-12.95" font-family="Times,serif" font-size="14.00">theta</text>
</g>
<!-- 5&#45;&#45;4 -->
<g id="edge7" class="edge">
<title>5&#45;&#45;4</title>
<path fill="none" stroke="black" d="M181.33,-71.7C181.33,-60.85 181.33,-46.92 181.33,-36.1"/>
</g>
</g>
</svg>
