<?xml version="1.0" encoding="UTF-8" standalone="no"?>
<!DOCTYPE svg PUBLIC "-//W3C//DTD SVG 1.1//EN"
 "http://www.w3.org/Graphics/SVG/1.1/DTD/svg11.dtd">
<!-- Generated by graphviz version 9.0.0 (20230911.1827)
 -->
<!-- Title: G Pages: 1 -->
<svg width="588pt" height="357pt"
 viewBox="0.00 0.00 588.00 356.50" xmlns="http://www.w3.org/2000/svg" xmlns:xlink="http://www.w3.org/1999/xlink">
<g id="graph0" class="graph" transform="scale(1 1) rotate(0) translate(4 352.5)">
<title>G</title>
<polygon fill="white" stroke="none" points="-4,4 -4,-352.5 584,-352.5 584,4 -4,4"/>
<text text-anchor="middle" x="290" y="-331.2" font-family="Times,serif" font-size="14.00">q**2*a**2/(6*pi*epsilon*c**3), depth = 4</text>
<!-- 17 -->
<g id="node1" class="node">
<title>17</title>
<ellipse fill="none" stroke="black" cx="279" cy="-306" rx="27" ry="18"/>
<text text-anchor="middle" x="279" y="-300.95" font-family="Times,serif" font-size="14.00">/</text>
</g>
<!-- 7 -->
<g id="node2" class="node">
<title>7</title>
<ellipse fill="none" stroke="black" cx="207" cy="-234" rx="27" ry="18"/>
<text text-anchor="middle" x="207" y="-228.95" font-family="Times,serif" font-size="14.00">*</text>
</g>
<!-- 17&#45;&#45;7 -->
<g id="edge1" class="edge">
<title>17&#45;&#45;7</title>
<path fill="none" stroke="black" d="M264.08,-290.5C251.72,-278.48 234.25,-261.49 221.9,-249.49"/>
</g>
<!-- 16 -->
<g id="node9" class="node">
<title>16</title>
<ellipse fill="none" stroke="black" cx="356" cy="-234" rx="27" ry="18"/>
<text text-anchor="middle" x="356" y="-228.95" font-family="Times,serif" font-size="14.00">*</text>
</g>
<!-- 17&#45;&#45;16 -->
<g id="edge8" class="edge">
<title>17&#45;&#45;16</title>
<path fill="none" stroke="black" d="M294.58,-290.83C307.94,-278.69 327.09,-261.28 340.44,-249.14"/>
</g>
<!-- 3 -->
<g id="node3" class="node">
<title>3</title>
<ellipse fill="none" stroke="black" cx="99" cy="-162" rx="27" ry="18"/>
<text text-anchor="middle" x="99" y="-156.95" font-family="Times,serif" font-size="14.00">^</text>
</g>
<!-- 7&#45;&#45;3 -->
<g id="edge2" class="edge">
<title>7&#45;&#45;3</title>
<path fill="none" stroke="black" d="M188.19,-220.81C168.49,-208.04 137.72,-188.09 117.96,-175.29"/>
</g>
<!-- 6 -->
<g id="node6" class="node">
<title>6</title>
<ellipse fill="none" stroke="black" cx="207" cy="-162" rx="27" ry="18"/>
<text text-anchor="middle" x="207" y="-156.95" font-family="Times,serif" font-size="14.00">^</text>
</g>
<!-- 7&#45;&#45;6 -->
<g id="edge5" class="edge">
<title>7&#45;&#45;6</title>
<path fill="none" stroke="black" d="M207,-215.7C207,-204.85 207,-190.92 207,-180.1"/>
</g>
<!-- 1 -->
<g id="node4" class="node">
<title>1</title>
<ellipse fill="none" stroke="black" cx="27" cy="-90" rx="27" ry="18"/>
<text text-anchor="middle" x="27" y="-84.95" font-family="Times,serif" font-size="14.00">q</text>
</g>
<!-- 3&#45;&#45;1 -->
<g id="edge3" class="edge">
<title>3&#45;&#45;1</title>
<path fill="none" stroke="black" d="M84.08,-146.5C71.72,-134.48 54.25,-117.49 41.9,-105.49"/>
</g>
<!-- 2 -->
<g id="node5" class="node">
<title>2</title>
<ellipse fill="none" stroke="black" cx="99" cy="-90" rx="27" ry="18"/>
<text text-anchor="middle" x="99" y="-84.95" font-family="Times,serif" font-size="14.00">2</text>
</g>
<!-- 3&#45;&#45;2 -->
<g id="edge4" class="edge">
<title>3&#45;&#45;2</title>
<path fill="none" stroke="black" d="M99,-143.7C99,-132.85 99,-118.92 99,-108.1"/>
</g>
<!-- 4 -->
<g id="node7" class="node">
<title>4</title>
<ellipse fill="none" stroke="black" cx="171" cy="-90" rx="27" ry="18"/>
<text text-anchor="middle" x="171" y="-84.95" font-family="Times,serif" font-size="14.00">a</text>
</g>
<!-- 6&#45;&#45;4 -->
<g id="edge6" class="edge">
<title>6&#45;&#45;4</title>
<path fill="none" stroke="black" d="M198.65,-144.76C192.83,-133.46 185.11,-118.44 179.3,-107.15"/>
</g>
<!-- 5 -->
<g id="node8" class="node">
<title>5</title>
<ellipse fill="none" stroke="black" cx="243" cy="-90" rx="27" ry="18"/>
<text text-anchor="middle" x="243" y="-84.95" font-family="Times,serif" font-size="14.00">2</text>
</g>
<!-- 6&#45;&#45;5 -->
<g id="edge7" class="edge">
<title>6&#45;&#45;5</title>
<path fill="none" stroke="black" d="M215.35,-144.76C221.17,-133.46 228.89,-118.44 234.7,-107.15"/>
</g>
<!-- 12 -->
<g id="node10" class="node">
<title>12</title>
<ellipse fill="none" stroke="black" cx="356" cy="-162" rx="27" ry="18"/>
<text text-anchor="middle" x="356" y="-156.95" font-family="Times,serif" font-size="14.00">*</text>
</g>
<!-- 16&#45;&#45;12 -->
<g id="edge9" class="edge">
<title>16&#45;&#45;12</title>
<path fill="none" stroke="black" d="M356,-215.7C356,-204.85 356,-190.92 356,-180.1"/>
</g>
<!-- 15 -->
<g id="node15" class="node">
<title>15</title>
<ellipse fill="none" stroke="black" cx="481" cy="-162" rx="27" ry="18"/>
<text text-anchor="middle" x="481" y="-156.95" font-family="Times,serif" font-size="14.00">^</text>
</g>
<!-- 16&#45;&#45;15 -->
<g id="edge14" class="edge">
<title>16&#45;&#45;15</title>
<path fill="none" stroke="black" d="M376.36,-221.6C399.61,-208.58 437.41,-187.41 460.65,-174.4"/>
</g>
<!-- 10 -->
<g id="node11" class="node">
<title>10</title>
<ellipse fill="none" stroke="black" cx="315" cy="-90" rx="27" ry="18"/>
<text text-anchor="middle" x="315" y="-84.95" font-family="Times,serif" font-size="14.00">*</text>
</g>
<!-- 12&#45;&#45;10 -->
<g id="edge10" class="edge">
<title>12&#45;&#45;10</title>
<path fill="none" stroke="black" d="M346.49,-144.76C339.87,-133.46 331.07,-118.44 324.46,-107.15"/>
</g>
<!-- 11 -->
<g id="node14" class="node">
<title>11</title>
<ellipse fill="none" stroke="black" cx="398" cy="-90" rx="37.53" ry="18"/>
<text text-anchor="middle" x="398" y="-84.95" font-family="Times,serif" font-size="14.00">epsilon</text>
</g>
<!-- 12&#45;&#45;11 -->
<g id="edge13" class="edge">
<title>12&#45;&#45;11</title>
<path fill="none" stroke="black" d="M365.74,-144.76C372.43,-133.62 381.28,-118.87 388.02,-107.63"/>
</g>
<!-- 8 -->
<g id="node12" class="node">
<title>8</title>
<ellipse fill="none" stroke="black" cx="279" cy="-18" rx="27" ry="18"/>
<text text-anchor="middle" x="279" y="-12.95" font-family="Times,serif" font-size="14.00">6</text>
</g>
<!-- 10&#45;&#45;8 -->
<g id="edge11" class="edge">
<title>10&#45;&#45;8</title>
<path fill="none" stroke="black" d="M306.65,-72.76C300.83,-61.46 293.11,-46.44 287.3,-35.15"/>
</g>
<!-- 9 -->
<g id="node13" class="node">
<title>9</title>
<ellipse fill="none" stroke="black" cx="351" cy="-18" rx="27" ry="18"/>
<text text-anchor="middle" x="351" y="-12.95" font-family="Times,serif" font-size="14.00">pi</text>
</g>
<!-- 10&#45;&#45;9 -->
<g id="edge12" class="edge">
<title>10&#45;&#45;9</title>
<path fill="none" stroke="black" d="M323.35,-72.76C329.17,-61.46 336.89,-46.44 342.7,-35.15"/>
</g>
<!-- 13 -->
<g id="node16" class="node">
<title>13</title>
<ellipse fill="none" stroke="black" cx="481" cy="-90" rx="27" ry="18"/>
<text text-anchor="middle" x="481" y="-84.95" font-family="Times,serif" font-size="14.00">c</text>
</g>
<!-- 15&#45;&#45;13 -->
<g id="edge15" class="edge">
<title>15&#45;&#45;13</title>
<path fill="none" stroke="black" d="M481,-143.7C481,-132.85 481,-118.92 481,-108.1"/>
</g>
<!-- 14 -->
<g id="node17" class="node">
<title>14</title>
<ellipse fill="none" stroke="black" cx="553" cy="-90" rx="27" ry="18"/>
<text text-anchor="middle" x="553" y="-84.95" font-family="Times,serif" font-size="14.00">3</text>
</g>
<!-- 15&#45;&#45;14 -->
<g id="edge16" class="edge">
<title>15&#45;&#45;14</title>
<path fill="none" stroke="black" d="M495.92,-146.5C508.28,-134.48 525.75,-117.49 538.1,-105.49"/>
</g>
</g>
</svg>
