<?xml version="1.0" encoding="UTF-8" standalone="no"?>
<!DOCTYPE svg PUBLIC "-//W3C//DTD SVG 1.1//EN"
 "http://www.w3.org/Graphics/SVG/1.1/DTD/svg11.dtd">
<!-- Generated by graphviz version 9.0.0 (20230911.1827)
 -->
<!-- Title: G Pages: 1 -->
<svg width="231pt" height="285pt"
 viewBox="0.00 0.00 230.67 284.50" xmlns="http://www.w3.org/2000/svg" xmlns:xlink="http://www.w3.org/1999/xlink">
<g id="graph0" class="graph" transform="scale(1 1) rotate(0) translate(4 280.5)">
<title>G</title>
<polygon fill="white" stroke="none" points="-4,4 -4,-280.5 226.67,-280.5 226.67,4 -4,4"/>
<text text-anchor="middle" x="111.34" y="-259.2" font-family="Times,serif" font-size="14.00">mu_drift*q*Volt/d, depth = 3</text>
<!-- 7 -->
<g id="node1" class="node">
<title>7</title>
<ellipse fill="none" stroke="black" cx="159.67" cy="-234" rx="27" ry="18"/>
<text text-anchor="middle" x="159.67" y="-228.95" font-family="Times,serif" font-size="14.00">/</text>
</g>
<!-- 5 -->
<g id="node2" class="node">
<title>5</title>
<ellipse fill="none" stroke="black" cx="123.67" cy="-162" rx="27" ry="18"/>
<text text-anchor="middle" x="123.67" y="-156.95" font-family="Times,serif" font-size="14.00">*</text>
</g>
<!-- 7&#45;&#45;5 -->
<g id="edge1" class="edge">
<title>7&#45;&#45;5</title>
<path fill="none" stroke="black" d="M151.32,-216.76C145.51,-205.46 137.78,-190.44 131.98,-179.15"/>
</g>
<!-- 6 -->
<g id="node7" class="node">
<title>6</title>
<ellipse fill="none" stroke="black" cx="195.67" cy="-162" rx="27" ry="18"/>
<text text-anchor="middle" x="195.67" y="-156.95" font-family="Times,serif" font-size="14.00">d</text>
</g>
<!-- 7&#45;&#45;6 -->
<g id="edge6" class="edge">
<title>7&#45;&#45;6</title>
<path fill="none" stroke="black" d="M168.02,-216.76C173.84,-205.46 181.56,-190.44 187.37,-179.15"/>
</g>
<!-- 3 -->
<g id="node3" class="node">
<title>3</title>
<ellipse fill="none" stroke="black" cx="87.67" cy="-90" rx="27" ry="18"/>
<text text-anchor="middle" x="87.67" y="-84.95" font-family="Times,serif" font-size="14.00">*</text>
</g>
<!-- 5&#45;&#45;3 -->
<g id="edge2" class="edge">
<title>5&#45;&#45;3</title>
<path fill="none" stroke="black" d="M115.32,-144.76C109.51,-133.46 101.78,-118.44 95.98,-107.15"/>
</g>
<!-- 4 -->
<g id="node6" class="node">
<title>4</title>
<ellipse fill="none" stroke="black" cx="159.67" cy="-90" rx="27" ry="18"/>
<text text-anchor="middle" x="159.67" y="-84.95" font-family="Times,serif" font-size="14.00">Volt</text>
</g>
<!-- 5&#45;&#45;4 -->
<g id="edge5" class="edge">
<title>5&#45;&#45;4</title>
<path fill="none" stroke="black" d="M132.02,-144.76C137.84,-133.46 145.56,-118.44 151.37,-107.15"/>
</g>
<!-- 1 -->
<g id="node4" class="node">
<title>1</title>
<ellipse fill="none" stroke="black" cx="43.67" cy="-18" rx="43.67" ry="18"/>
<text text-anchor="middle" x="43.67" y="-12.95" font-family="Times,serif" font-size="14.00">mu_drift</text>
</g>
<!-- 3&#45;&#45;1 -->
<g id="edge3" class="edge">
<title>3&#45;&#45;1</title>
<path fill="none" stroke="black" d="M77.69,-73.12C70.69,-61.98 61.35,-47.13 54.23,-35.8"/>
</g>
<!-- 2 -->
<g id="node5" class="node">
<title>2</title>
<ellipse fill="none" stroke="black" cx="132.67" cy="-18" rx="27" ry="18"/>
<text text-anchor="middle" x="132.67" y="-12.95" font-family="Times,serif" font-size="14.00">q</text>
</g>
<!-- 3&#45;&#45;2 -->
<g id="edge4" class="edge">
<title>3&#45;&#45;2</title>
<path fill="none" stroke="black" d="M97.89,-73.12C105.25,-61.66 115.15,-46.26 122.5,-34.82"/>
</g>
</g>
</svg>
