<?xml version="1.0" encoding="UTF-8" standalone="no"?>
<!DOCTYPE svg PUBLIC "-//W3C//DTD SVG 1.1//EN"
 "http://www.w3.org/Graphics/SVG/1.1/DTD/svg11.dtd">
<!-- Generated by graphviz version 9.0.0 (20230911.1827)
 -->
<!-- Title: G Pages: 1 -->
<svg width="434pt" height="501pt"
 viewBox="0.00 0.00 434.00 500.50" xmlns="http://www.w3.org/2000/svg" xmlns:xlink="http://www.w3.org/1999/xlink">
<g id="graph0" class="graph" transform="scale(1 1) rotate(0) translate(4 496.5)">
<title>G</title>
<polygon fill="white" stroke="none" points="-4,4 -4,-496.5 430,-496.5 430,4 -4,4"/>
<text text-anchor="middle" x="213" y="-475.2" font-family="Times,serif" font-size="14.00">Ef*cos(theta)*(~r+d**3/r**2*(alpha&#45;1)/(alpha+2)), depth = 6</text>
<!-- 23 -->
<g id="node1" class="node">
<title>23</title>
<ellipse fill="none" stroke="black" cx="139" cy="-450" rx="27" ry="18"/>
<text text-anchor="middle" x="139" y="-444.95" font-family="Times,serif" font-size="14.00">*</text>
</g>
<!-- 4 -->
<g id="node2" class="node">
<title>4</title>
<ellipse fill="none" stroke="black" cx="102" cy="-378" rx="27" ry="18"/>
<text text-anchor="middle" x="102" y="-372.95" font-family="Times,serif" font-size="14.00">*</text>
</g>
<!-- 23&#45;&#45;4 -->
<g id="edge1" class="edge">
<title>23&#45;&#45;4</title>
<path fill="none" stroke="black" d="M130.42,-432.76C124.44,-421.46 116.5,-406.44 110.54,-395.15"/>
</g>
<!-- 22 -->
<g id="node6" class="node">
<title>22</title>
<ellipse fill="none" stroke="black" cx="175" cy="-378" rx="27" ry="18"/>
<text text-anchor="middle" x="175" y="-372.95" font-family="Times,serif" font-size="14.00">+</text>
</g>
<!-- 23&#45;&#45;22 -->
<g id="edge5" class="edge">
<title>23&#45;&#45;22</title>
<path fill="none" stroke="black" d="M147.35,-432.76C153.17,-421.46 160.89,-406.44 166.7,-395.15"/>
</g>
<!-- 1 -->
<g id="node3" class="node">
<title>1</title>
<ellipse fill="none" stroke="black" cx="30" cy="-306" rx="27" ry="18"/>
<text text-anchor="middle" x="30" y="-300.95" font-family="Times,serif" font-size="14.00">Ef</text>
</g>
<!-- 4&#45;&#45;1 -->
<g id="edge2" class="edge">
<title>4&#45;&#45;1</title>
<path fill="none" stroke="black" d="M87.08,-362.5C74.72,-350.48 57.25,-333.49 44.9,-321.49"/>
</g>
<!-- 3 -->
<g id="node4" class="node">
<title>3</title>
<ellipse fill="none" stroke="black" cx="102" cy="-306" rx="27" ry="18"/>
<text text-anchor="middle" x="102" y="-300.95" font-family="Times,serif" font-size="14.00">cos</text>
</g>
<!-- 4&#45;&#45;3 -->
<g id="edge3" class="edge">
<title>4&#45;&#45;3</title>
<path fill="none" stroke="black" d="M102,-359.7C102,-348.85 102,-334.92 102,-324.1"/>
</g>
<!-- 2 -->
<g id="node5" class="node">
<title>2</title>
<ellipse fill="none" stroke="black" cx="101" cy="-234" rx="28.83" ry="18"/>
<text text-anchor="middle" x="101" y="-228.95" font-family="Times,serif" font-size="14.00">theta</text>
</g>
<!-- 3&#45;&#45;2 -->
<g id="edge4" class="edge">
<title>3&#45;&#45;2</title>
<path fill="none" stroke="black" d="M101.75,-287.7C101.6,-276.85 101.4,-262.92 101.24,-252.1"/>
</g>
<!-- 6 -->
<g id="node7" class="node">
<title>6</title>
<ellipse fill="none" stroke="black" cx="175" cy="-306" rx="27" ry="18"/>
<text text-anchor="middle" x="175" y="-300.95" font-family="Times,serif" font-size="14.00">~</text>
</g>
<!-- 22&#45;&#45;6 -->
<g id="edge6" class="edge">
<title>22&#45;&#45;6</title>
<path fill="none" stroke="black" d="M175,-359.7C175,-348.85 175,-334.92 175,-324.1"/>
</g>
<!-- 21 -->
<g id="node9" class="node">
<title>21</title>
<ellipse fill="none" stroke="black" cx="247" cy="-306" rx="27" ry="18"/>
<text text-anchor="middle" x="247" y="-300.95" font-family="Times,serif" font-size="14.00">/</text>
</g>
<!-- 22&#45;&#45;21 -->
<g id="edge8" class="edge">
<title>22&#45;&#45;21</title>
<path fill="none" stroke="black" d="M189.92,-362.5C202.28,-350.48 219.75,-333.49 232.1,-321.49"/>
</g>
<!-- 5 -->
<g id="node8" class="node">
<title>5</title>
<ellipse fill="none" stroke="black" cx="175" cy="-234" rx="27" ry="18"/>
<text text-anchor="middle" x="175" y="-228.95" font-family="Times,serif" font-size="14.00">r</text>
</g>
<!-- 6&#45;&#45;5 -->
<g id="edge7" class="edge">
<title>6&#45;&#45;5</title>
<path fill="none" stroke="black" d="M175,-287.7C175,-276.85 175,-262.92 175,-252.1"/>
</g>
<!-- 17 -->
<g id="node10" class="node">
<title>17</title>
<ellipse fill="none" stroke="black" cx="247" cy="-234" rx="27" ry="18"/>
<text text-anchor="middle" x="247" y="-228.95" font-family="Times,serif" font-size="14.00">*</text>
</g>
<!-- 21&#45;&#45;17 -->
<g id="edge9" class="edge">
<title>21&#45;&#45;17</title>
<path fill="none" stroke="black" d="M247,-287.7C247,-276.85 247,-262.92 247,-252.1"/>
</g>
<!-- 20 -->
<g id="node21" class="node">
<title>20</title>
<ellipse fill="none" stroke="black" cx="323" cy="-234" rx="27" ry="18"/>
<text text-anchor="middle" x="323" y="-228.95" font-family="Times,serif" font-size="14.00">+</text>
</g>
<!-- 21&#45;&#45;20 -->
<g id="edge20" class="edge">
<title>21&#45;&#45;20</title>
<path fill="none" stroke="black" d="M262.38,-290.83C275.57,-278.69 294.46,-261.28 307.64,-249.14"/>
</g>
<!-- 13 -->
<g id="node11" class="node">
<title>13</title>
<ellipse fill="none" stroke="black" cx="171" cy="-162" rx="27" ry="18"/>
<text text-anchor="middle" x="171" y="-156.95" font-family="Times,serif" font-size="14.00">/</text>
</g>
<!-- 17&#45;&#45;13 -->
<g id="edge10" class="edge">
<title>17&#45;&#45;13</title>
<path fill="none" stroke="black" d="M231.62,-218.83C218.43,-206.69 199.54,-189.28 186.36,-177.14"/>
</g>
<!-- 16 -->
<g id="node18" class="node">
<title>16</title>
<ellipse fill="none" stroke="black" cx="247" cy="-162" rx="27" ry="18"/>
<text text-anchor="middle" x="247" y="-156.95" font-family="Times,serif" font-size="14.00">&#45;</text>
</g>
<!-- 17&#45;&#45;16 -->
<g id="edge17" class="edge">
<title>17&#45;&#45;16</title>
<path fill="none" stroke="black" d="M247,-215.7C247,-204.85 247,-190.92 247,-180.1"/>
</g>
<!-- 9 -->
<g id="node12" class="node">
<title>9</title>
<ellipse fill="none" stroke="black" cx="99" cy="-90" rx="27" ry="18"/>
<text text-anchor="middle" x="99" y="-84.95" font-family="Times,serif" font-size="14.00">^</text>
</g>
<!-- 13&#45;&#45;9 -->
<g id="edge11" class="edge">
<title>13&#45;&#45;9</title>
<path fill="none" stroke="black" d="M156.08,-146.5C143.72,-134.48 126.25,-117.49 113.9,-105.49"/>
</g>
<!-- 12 -->
<g id="node15" class="node">
<title>12</title>
<ellipse fill="none" stroke="black" cx="171" cy="-90" rx="27" ry="18"/>
<text text-anchor="middle" x="171" y="-84.95" font-family="Times,serif" font-size="14.00">^</text>
</g>
<!-- 13&#45;&#45;12 -->
<g id="edge14" class="edge">
<title>13&#45;&#45;12</title>
<path fill="none" stroke="black" d="M171,-143.7C171,-132.85 171,-118.92 171,-108.1"/>
</g>
<!-- 7 -->
<g id="node13" class="node">
<title>7</title>
<ellipse fill="none" stroke="black" cx="27" cy="-18" rx="27" ry="18"/>
<text text-anchor="middle" x="27" y="-12.95" font-family="Times,serif" font-size="14.00">d</text>
</g>
<!-- 9&#45;&#45;7 -->
<g id="edge12" class="edge">
<title>9&#45;&#45;7</title>
<path fill="none" stroke="black" d="M84.08,-74.5C71.72,-62.48 54.25,-45.49 41.9,-33.49"/>
</g>
<!-- 8 -->
<g id="node14" class="node">
<title>8</title>
<ellipse fill="none" stroke="black" cx="99" cy="-18" rx="27" ry="18"/>
<text text-anchor="middle" x="99" y="-12.95" font-family="Times,serif" font-size="14.00">3</text>
</g>
<!-- 9&#45;&#45;8 -->
<g id="edge13" class="edge">
<title>9&#45;&#45;8</title>
<path fill="none" stroke="black" d="M99,-71.7C99,-60.85 99,-46.92 99,-36.1"/>
</g>
<!-- 10 -->
<g id="node16" class="node">
<title>10</title>
<ellipse fill="none" stroke="black" cx="171" cy="-18" rx="27" ry="18"/>
<text text-anchor="middle" x="171" y="-12.95" font-family="Times,serif" font-size="14.00">r</text>
</g>
<!-- 12&#45;&#45;10 -->
<g id="edge15" class="edge">
<title>12&#45;&#45;10</title>
<path fill="none" stroke="black" d="M171,-71.7C171,-60.85 171,-46.92 171,-36.1"/>
</g>
<!-- 11 -->
<g id="node17" class="node">
<title>11</title>
<ellipse fill="none" stroke="black" cx="243" cy="-18" rx="27" ry="18"/>
<text text-anchor="middle" x="243" y="-12.95" font-family="Times,serif" font-size="14.00">2</text>
</g>
<!-- 12&#45;&#45;11 -->
<g id="edge16" class="edge">
<title>12&#45;&#45;11</title>
<path fill="none" stroke="black" d="M185.92,-74.5C198.28,-62.48 215.75,-45.49 228.1,-33.49"/>
</g>
<!-- 14 -->
<g id="node19" class="node">
<title>14</title>
<ellipse fill="none" stroke="black" cx="247" cy="-90" rx="30.88" ry="18"/>
<text text-anchor="middle" x="247" y="-84.95" font-family="Times,serif" font-size="14.00">alpha</text>
</g>
<!-- 16&#45;&#45;14 -->
<g id="edge18" class="edge">
<title>16&#45;&#45;14</title>
<path fill="none" stroke="black" d="M247,-143.7C247,-132.85 247,-118.92 247,-108.1"/>
</g>
<!-- 15 -->
<g id="node20" class="node">
<title>15</title>
<ellipse fill="none" stroke="black" cx="323" cy="-90" rx="27" ry="18"/>
<text text-anchor="middle" x="323" y="-84.95" font-family="Times,serif" font-size="14.00">1</text>
</g>
<!-- 16&#45;&#45;15 -->
<g id="edge19" class="edge">
<title>16&#45;&#45;15</title>
<path fill="none" stroke="black" d="M262.38,-146.83C275.57,-134.69 294.46,-117.28 307.64,-105.14"/>
</g>
<!-- 18 -->
<g id="node22" class="node">
<title>18</title>
<ellipse fill="none" stroke="black" cx="323" cy="-162" rx="30.88" ry="18"/>
<text text-anchor="middle" x="323" y="-156.95" font-family="Times,serif" font-size="14.00">alpha</text>
</g>
<!-- 20&#45;&#45;18 -->
<g id="edge21" class="edge">
<title>20&#45;&#45;18</title>
<path fill="none" stroke="black" d="M323,-215.7C323,-204.85 323,-190.92 323,-180.1"/>
</g>
<!-- 19 -->
<g id="node23" class="node">
<title>19</title>
<ellipse fill="none" stroke="black" cx="399" cy="-162" rx="27" ry="18"/>
<text text-anchor="middle" x="399" y="-156.95" font-family="Times,serif" font-size="14.00">2</text>
</g>
<!-- 20&#45;&#45;19 -->
<g id="edge22" class="edge">
<title>20&#45;&#45;19</title>
<path fill="none" stroke="black" d="M338.38,-218.83C351.57,-206.69 370.46,-189.28 383.64,-177.14"/>
</g>
</g>
</svg>
