<?xml version="1.0" encoding="UTF-8" standalone="no"?>
<!DOCTYPE svg PUBLIC "-//W3C//DTD SVG 1.1//EN"
 "http://www.w3.org/Graphics/SVG/1.1/DTD/svg11.dtd">
<!-- Generated by graphviz version 9.0.0 (20230911.1827)
 -->
<!-- Title: G Pages: 1 -->
<svg width="346pt" height="285pt"
 viewBox="0.00 0.00 346.00 284.50" xmlns="http://www.w3.org/2000/svg" xmlns:xlink="http://www.w3.org/1999/xlink">
<g id="graph0" class="graph" transform="scale(1 1) rotate(0) translate(4 280.5)">
<title>G</title>
<polygon fill="white" stroke="none" points="-4,4 -4,-280.5 342,-280.5 342,4 -4,4"/>
<text text-anchor="middle" x="169" y="-259.2" font-family="Times,serif" font-size="14.00">1/2*k_spring*x**2, depth = 3</text>
<!-- 9 -->
<g id="node1" class="node">
<title>9</title>
<ellipse fill="none" stroke="black" cx="195" cy="-234" rx="27" ry="18"/>
<text text-anchor="middle" x="195" y="-228.95" font-family="Times,serif" font-size="14.00">*</text>
</g>
<!-- 5 -->
<g id="node2" class="node">
<title>5</title>
<ellipse fill="none" stroke="black" cx="151" cy="-162" rx="27" ry="18"/>
<text text-anchor="middle" x="151" y="-156.95" font-family="Times,serif" font-size="14.00">*</text>
</g>
<!-- 9&#45;&#45;5 -->
<g id="edge1" class="edge">
<title>9&#45;&#45;5</title>
<path fill="none" stroke="black" d="M185.02,-217.12C177.81,-205.66 168.14,-190.26 160.94,-178.82"/>
</g>
<!-- 8 -->
<g id="node7" class="node">
<title>8</title>
<ellipse fill="none" stroke="black" cx="239" cy="-162" rx="27" ry="18"/>
<text text-anchor="middle" x="239" y="-156.95" font-family="Times,serif" font-size="14.00">^</text>
</g>
<!-- 9&#45;&#45;8 -->
<g id="edge6" class="edge">
<title>9&#45;&#45;8</title>
<path fill="none" stroke="black" d="M204.98,-217.12C212.19,-205.66 221.86,-190.26 229.06,-178.82"/>
</g>
<!-- 3 -->
<g id="node3" class="node">
<title>3</title>
<ellipse fill="none" stroke="black" cx="63" cy="-90" rx="27" ry="18"/>
<text text-anchor="middle" x="63" y="-84.95" font-family="Times,serif" font-size="14.00">/</text>
</g>
<!-- 5&#45;&#45;3 -->
<g id="edge2" class="edge">
<title>5&#45;&#45;3</title>
<path fill="none" stroke="black" d="M134.03,-147.5C118.45,-135.11 95.48,-116.84 79.92,-104.46"/>
</g>
<!-- 4 -->
<g id="node6" class="node">
<title>4</title>
<ellipse fill="none" stroke="black" cx="151" cy="-90" rx="43.16" ry="18"/>
<text text-anchor="middle" x="151" y="-84.95" font-family="Times,serif" font-size="14.00">k_spring</text>
</g>
<!-- 5&#45;&#45;4 -->
<g id="edge5" class="edge">
<title>5&#45;&#45;4</title>
<path fill="none" stroke="black" d="M151,-143.7C151,-132.85 151,-118.92 151,-108.1"/>
</g>
<!-- 1 -->
<g id="node4" class="node">
<title>1</title>
<ellipse fill="none" stroke="black" cx="27" cy="-18" rx="27" ry="18"/>
<text text-anchor="middle" x="27" y="-12.95" font-family="Times,serif" font-size="14.00">1</text>
</g>
<!-- 3&#45;&#45;1 -->
<g id="edge3" class="edge">
<title>3&#45;&#45;1</title>
<path fill="none" stroke="black" d="M54.65,-72.76C48.83,-61.46 41.11,-46.44 35.3,-35.15"/>
</g>
<!-- 2 -->
<g id="node5" class="node">
<title>2</title>
<ellipse fill="none" stroke="black" cx="99" cy="-18" rx="27" ry="18"/>
<text text-anchor="middle" x="99" y="-12.95" font-family="Times,serif" font-size="14.00">2</text>
</g>
<!-- 3&#45;&#45;2 -->
<g id="edge4" class="edge">
<title>3&#45;&#45;2</title>
<path fill="none" stroke="black" d="M71.35,-72.76C77.17,-61.46 84.89,-46.44 90.7,-35.15"/>
</g>
<!-- 6 -->
<g id="node8" class="node">
<title>6</title>
<ellipse fill="none" stroke="black" cx="239" cy="-90" rx="27" ry="18"/>
<text text-anchor="middle" x="239" y="-84.95" font-family="Times,serif" font-size="14.00">x</text>
</g>
<!-- 8&#45;&#45;6 -->
<g id="edge7" class="edge">
<title>8&#45;&#45;6</title>
<path fill="none" stroke="black" d="M239,-143.7C239,-132.85 239,-118.92 239,-108.1"/>
</g>
<!-- 7 -->
<g id="node9" class="node">
<title>7</title>
<ellipse fill="none" stroke="black" cx="311" cy="-90" rx="27" ry="18"/>
<text text-anchor="middle" x="311" y="-84.95" font-family="Times,serif" font-size="14.00">2</text>
</g>
<!-- 8&#45;&#45;7 -->
<g id="edge8" class="edge">
<title>8&#45;&#45;7</title>
<path fill="none" stroke="black" d="M253.92,-146.5C266.28,-134.48 283.75,-117.49 296.1,-105.49"/>
</g>
</g>
</svg>
