<?xml version="1.0" encoding="UTF-8" standalone="no"?>
<!DOCTYPE svg PUBLIC "-//W3C//DTD SVG 1.1//EN"
 "http://www.w3.org/Graphics/SVG/1.1/DTD/svg11.dtd">
<!-- Generated by graphviz version 9.0.0 (20230911.1827)
 -->
<!-- Title: G Pages: 1 -->
<svg width="314pt" height="501pt"
 viewBox="0.00 0.00 314.00 500.50" xmlns="http://www.w3.org/2000/svg" xmlns:xlink="http://www.w3.org/1999/xlink">
<g id="graph0" class="graph" transform="scale(1 1) rotate(0) translate(4 496.5)">
<title>G</title>
<polygon fill="white" stroke="none" points="-4,4 -4,-496.5 310,-496.5 310,4 -4,4"/>
<text text-anchor="middle" x="153" y="-475.2" font-family="Times,serif" font-size="14.00">n_0*exp(~m*g*x/(kb*T)), depth = 6</text>
<!-- 13 -->
<g id="node1" class="node">
<title>13</title>
<ellipse fill="none" stroke="black" cx="135" cy="-450" rx="27" ry="18"/>
<text text-anchor="middle" x="135" y="-444.95" font-family="Times,serif" font-size="14.00">*</text>
</g>
<!-- 1 -->
<g id="node2" class="node">
<title>1</title>
<ellipse fill="none" stroke="black" cx="99" cy="-378" rx="27" ry="18"/>
<text text-anchor="middle" x="99" y="-372.95" font-family="Times,serif" font-size="14.00">n_0</text>
</g>
<!-- 13&#45;&#45;1 -->
<g id="edge1" class="edge">
<title>13&#45;&#45;1</title>
<path fill="none" stroke="black" d="M126.65,-432.76C120.83,-421.46 113.11,-406.44 107.3,-395.15"/>
</g>
<!-- 12 -->
<g id="node3" class="node">
<title>12</title>
<ellipse fill="none" stroke="black" cx="171" cy="-378" rx="27" ry="18"/>
<text text-anchor="middle" x="171" y="-372.95" font-family="Times,serif" font-size="14.00">exp</text>
</g>
<!-- 13&#45;&#45;12 -->
<g id="edge2" class="edge">
<title>13&#45;&#45;12</title>
<path fill="none" stroke="black" d="M143.35,-432.76C149.17,-421.46 156.89,-406.44 162.7,-395.15"/>
</g>
<!-- 11 -->
<g id="node4" class="node">
<title>11</title>
<ellipse fill="none" stroke="black" cx="171" cy="-306" rx="27" ry="18"/>
<text text-anchor="middle" x="171" y="-300.95" font-family="Times,serif" font-size="14.00">/</text>
</g>
<!-- 12&#45;&#45;11 -->
<g id="edge3" class="edge">
<title>12&#45;&#45;11</title>
<path fill="none" stroke="black" d="M171,-359.7C171,-348.85 171,-334.92 171,-324.1"/>
</g>
<!-- 7 -->
<g id="node5" class="node">
<title>7</title>
<ellipse fill="none" stroke="black" cx="135" cy="-234" rx="27" ry="18"/>
<text text-anchor="middle" x="135" y="-228.95" font-family="Times,serif" font-size="14.00">*</text>
</g>
<!-- 11&#45;&#45;7 -->
<g id="edge4" class="edge">
<title>11&#45;&#45;7</title>
<path fill="none" stroke="black" d="M162.65,-288.76C156.83,-277.46 149.11,-262.44 143.3,-251.15"/>
</g>
<!-- 10 -->
<g id="node11" class="node">
<title>10</title>
<ellipse fill="none" stroke="black" cx="207" cy="-234" rx="27" ry="18"/>
<text text-anchor="middle" x="207" y="-228.95" font-family="Times,serif" font-size="14.00">*</text>
</g>
<!-- 11&#45;&#45;10 -->
<g id="edge10" class="edge">
<title>11&#45;&#45;10</title>
<path fill="none" stroke="black" d="M179.35,-288.76C185.17,-277.46 192.89,-262.44 198.7,-251.15"/>
</g>
<!-- 5 -->
<g id="node6" class="node">
<title>5</title>
<ellipse fill="none" stroke="black" cx="63" cy="-162" rx="27" ry="18"/>
<text text-anchor="middle" x="63" y="-156.95" font-family="Times,serif" font-size="14.00">*</text>
</g>
<!-- 7&#45;&#45;5 -->
<g id="edge5" class="edge">
<title>7&#45;&#45;5</title>
<path fill="none" stroke="black" d="M120.08,-218.5C107.72,-206.48 90.25,-189.49 77.9,-177.49"/>
</g>
<!-- 6 -->
<g id="node10" class="node">
<title>6</title>
<ellipse fill="none" stroke="black" cx="135" cy="-162" rx="27" ry="18"/>
<text text-anchor="middle" x="135" y="-156.95" font-family="Times,serif" font-size="14.00">x</text>
</g>
<!-- 7&#45;&#45;6 -->
<g id="edge9" class="edge">
<title>7&#45;&#45;6</title>
<path fill="none" stroke="black" d="M135,-215.7C135,-204.85 135,-190.92 135,-180.1"/>
</g>
<!-- 3 -->
<g id="node7" class="node">
<title>3</title>
<ellipse fill="none" stroke="black" cx="27" cy="-90" rx="27" ry="18"/>
<text text-anchor="middle" x="27" y="-84.95" font-family="Times,serif" font-size="14.00">~</text>
</g>
<!-- 5&#45;&#45;3 -->
<g id="edge6" class="edge">
<title>5&#45;&#45;3</title>
<path fill="none" stroke="black" d="M54.65,-144.76C48.83,-133.46 41.11,-118.44 35.3,-107.15"/>
</g>
<!-- 4 -->
<g id="node9" class="node">
<title>4</title>
<ellipse fill="none" stroke="black" cx="99" cy="-90" rx="27" ry="18"/>
<text text-anchor="middle" x="99" y="-84.95" font-family="Times,serif" font-size="14.00">g</text>
</g>
<!-- 5&#45;&#45;4 -->
<g id="edge8" class="edge">
<title>5&#45;&#45;4</title>
<path fill="none" stroke="black" d="M71.35,-144.76C77.17,-133.46 84.89,-118.44 90.7,-107.15"/>
</g>
<!-- 2 -->
<g id="node8" class="node">
<title>2</title>
<ellipse fill="none" stroke="black" cx="27" cy="-18" rx="27" ry="18"/>
<text text-anchor="middle" x="27" y="-12.95" font-family="Times,serif" font-size="14.00">m</text>
</g>
<!-- 3&#45;&#45;2 -->
<g id="edge7" class="edge">
<title>3&#45;&#45;2</title>
<path fill="none" stroke="black" d="M27,-71.7C27,-60.85 27,-46.92 27,-36.1"/>
</g>
<!-- 8 -->
<g id="node12" class="node">
<title>8</title>
<ellipse fill="none" stroke="black" cx="207" cy="-162" rx="27" ry="18"/>
<text text-anchor="middle" x="207" y="-156.95" font-family="Times,serif" font-size="14.00">kb</text>
</g>
<!-- 10&#45;&#45;8 -->
<g id="edge11" class="edge">
<title>10&#45;&#45;8</title>
<path fill="none" stroke="black" d="M207,-215.7C207,-204.85 207,-190.92 207,-180.1"/>
</g>
<!-- 9 -->
<g id="node13" class="node">
<title>9</title>
<ellipse fill="none" stroke="black" cx="279" cy="-162" rx="27" ry="18"/>
<text text-anchor="middle" x="279" y="-156.95" font-family="Times,serif" font-size="14.00">T</text>
</g>
<!-- 10&#45;&#45;9 -->
<g id="edge12" class="edge">
<title>10&#45;&#45;9</title>
<path fill="none" stroke="black" d="M221.92,-218.5C234.28,-206.48 251.75,-189.49 264.1,-177.49"/>
</g>
</g>
</svg>
