<?xml version="1.0" encoding="UTF-8" standalone="no"?>
<!DOCTYPE svg PUBLIC "-//W3C//DTD SVG 1.1//EN"
 "http://www.w3.org/Graphics/SVG/1.1/DTD/svg11.dtd">
<!-- Generated by graphviz version 9.0.0 (20230911.1827)
 -->
<!-- Title: G Pages: 1 -->
<svg width="224pt" height="357pt"
 viewBox="0.00 0.00 224.12 356.50" xmlns="http://www.w3.org/2000/svg" xmlns:xlink="http://www.w3.org/1999/xlink">
<g id="graph0" class="graph" transform="scale(1 1) rotate(0) translate(4 352.5)">
<title>G</title>
<polygon fill="white" stroke="none" points="-4,4 -4,-352.5 220.12,-352.5 220.12,4 -4,4"/>
<text text-anchor="middle" x="108.06" y="-331.2" font-family="Times,serif" font-size="14.00">~rho_c_0*q*A_vec/m, depth = 4</text>
<!-- 8 -->
<g id="node1" class="node">
<title>8</title>
<ellipse fill="none" stroke="black" cx="153.12" cy="-306" rx="27" ry="18"/>
<text text-anchor="middle" x="153.12" y="-300.95" font-family="Times,serif" font-size="14.00">/</text>
</g>
<!-- 6 -->
<g id="node2" class="node">
<title>6</title>
<ellipse fill="none" stroke="black" cx="117.12" cy="-234" rx="27" ry="18"/>
<text text-anchor="middle" x="117.12" y="-228.95" font-family="Times,serif" font-size="14.00">*</text>
</g>
<!-- 8&#45;&#45;6 -->
<g id="edge1" class="edge">
<title>8&#45;&#45;6</title>
<path fill="none" stroke="black" d="M144.77,-288.76C138.95,-277.46 131.23,-262.44 125.42,-251.15"/>
</g>
<!-- 7 -->
<g id="node8" class="node">
<title>7</title>
<ellipse fill="none" stroke="black" cx="189.12" cy="-234" rx="27" ry="18"/>
<text text-anchor="middle" x="189.12" y="-228.95" font-family="Times,serif" font-size="14.00">m</text>
</g>
<!-- 8&#45;&#45;7 -->
<g id="edge7" class="edge">
<title>8&#45;&#45;7</title>
<path fill="none" stroke="black" d="M161.46,-288.76C167.28,-277.46 175,-262.44 180.81,-251.15"/>
</g>
<!-- 4 -->
<g id="node3" class="node">
<title>4</title>
<ellipse fill="none" stroke="black" cx="77.12" cy="-162" rx="27" ry="18"/>
<text text-anchor="middle" x="77.12" y="-156.95" font-family="Times,serif" font-size="14.00">*</text>
</g>
<!-- 6&#45;&#45;4 -->
<g id="edge2" class="edge">
<title>6&#45;&#45;4</title>
<path fill="none" stroke="black" d="M107.84,-216.76C101.38,-205.46 92.79,-190.44 86.34,-179.15"/>
</g>
<!-- 5 -->
<g id="node7" class="node">
<title>5</title>
<ellipse fill="none" stroke="black" cx="157.12" cy="-162" rx="34.97" ry="18"/>
<text text-anchor="middle" x="157.12" y="-156.95" font-family="Times,serif" font-size="14.00">A_vec</text>
</g>
<!-- 6&#45;&#45;5 -->
<g id="edge6" class="edge">
<title>6&#45;&#45;5</title>
<path fill="none" stroke="black" d="M126.39,-216.76C132.76,-205.62 141.19,-190.87 147.61,-179.63"/>
</g>
<!-- 2 -->
<g id="node4" class="node">
<title>2</title>
<ellipse fill="none" stroke="black" cx="41.12" cy="-90" rx="27" ry="18"/>
<text text-anchor="middle" x="41.12" y="-84.95" font-family="Times,serif" font-size="14.00">~</text>
</g>
<!-- 4&#45;&#45;2 -->
<g id="edge3" class="edge">
<title>4&#45;&#45;2</title>
<path fill="none" stroke="black" d="M68.77,-144.76C62.95,-133.46 55.23,-118.44 49.42,-107.15"/>
</g>
<!-- 3 -->
<g id="node6" class="node">
<title>3</title>
<ellipse fill="none" stroke="black" cx="113.12" cy="-90" rx="27" ry="18"/>
<text text-anchor="middle" x="113.12" y="-84.95" font-family="Times,serif" font-size="14.00">q</text>
</g>
<!-- 4&#45;&#45;3 -->
<g id="edge5" class="edge">
<title>4&#45;&#45;3</title>
<path fill="none" stroke="black" d="M85.46,-144.76C91.28,-133.46 99,-118.44 104.81,-107.15"/>
</g>
<!-- 1 -->
<g id="node5" class="node">
<title>1</title>
<ellipse fill="none" stroke="black" cx="41.12" cy="-18" rx="41.12" ry="18"/>
<text text-anchor="middle" x="41.12" y="-12.95" font-family="Times,serif" font-size="14.00">rho_c_0</text>
</g>
<!-- 2&#45;&#45;1 -->
<g id="edge4" class="edge">
<title>2&#45;&#45;1</title>
<path fill="none" stroke="black" d="M41.12,-71.7C41.12,-60.85 41.12,-46.92 41.12,-36.1"/>
</g>
</g>
</svg>
