<?xml version="1.0" encoding="UTF-8" standalone="no"?>
<!DOCTYPE svg PUBLIC "-//W3C//DTD SVG 1.1//EN"
 "http://www.w3.org/Graphics/SVG/1.1/DTD/svg11.dtd">
<!-- Generated by graphviz version 9.0.0 (20230911.1827)
 -->
<!-- Title: G Pages: 1 -->
<svg width="351pt" height="429pt"
 viewBox="0.00 0.00 351.00 428.50" xmlns="http://www.w3.org/2000/svg" xmlns:xlink="http://www.w3.org/1999/xlink">
<g id="graph0" class="graph" transform="scale(1 1) rotate(0) translate(4 424.5)">
<title>G</title>
<polygon fill="white" stroke="none" points="-4,4 -4,-424.5 347,-424.5 347,4 -4,4"/>
<text text-anchor="middle" x="171.5" y="-403.2" font-family="Times,serif" font-size="14.00">n_0*(1+p_d*Ef*cos(theta)/(kb*T)), depth = 5</text>
<!-- 14 -->
<g id="node1" class="node">
<title>14</title>
<ellipse fill="none" stroke="black" cx="136" cy="-378" rx="27" ry="18"/>
<text text-anchor="middle" x="136" y="-372.95" font-family="Times,serif" font-size="14.00">*</text>
</g>
<!-- 1 -->
<g id="node2" class="node">
<title>1</title>
<ellipse fill="none" stroke="black" cx="100" cy="-306" rx="27" ry="18"/>
<text text-anchor="middle" x="100" y="-300.95" font-family="Times,serif" font-size="14.00">n_0</text>
</g>
<!-- 14&#45;&#45;1 -->
<g id="edge1" class="edge">
<title>14&#45;&#45;1</title>
<path fill="none" stroke="black" d="M127.65,-360.76C121.83,-349.46 114.11,-334.44 108.3,-323.15"/>
</g>
<!-- 13 -->
<g id="node3" class="node">
<title>13</title>
<ellipse fill="none" stroke="black" cx="172" cy="-306" rx="27" ry="18"/>
<text text-anchor="middle" x="172" y="-300.95" font-family="Times,serif" font-size="14.00">+</text>
</g>
<!-- 14&#45;&#45;13 -->
<g id="edge2" class="edge">
<title>14&#45;&#45;13</title>
<path fill="none" stroke="black" d="M144.35,-360.76C150.17,-349.46 157.89,-334.44 163.7,-323.15"/>
</g>
<!-- 2 -->
<g id="node4" class="node">
<title>2</title>
<ellipse fill="none" stroke="black" cx="136" cy="-234" rx="27" ry="18"/>
<text text-anchor="middle" x="136" y="-228.95" font-family="Times,serif" font-size="14.00">1</text>
</g>
<!-- 13&#45;&#45;2 -->
<g id="edge3" class="edge">
<title>13&#45;&#45;2</title>
<path fill="none" stroke="black" d="M163.65,-288.76C157.83,-277.46 150.11,-262.44 144.3,-251.15"/>
</g>
<!-- 12 -->
<g id="node5" class="node">
<title>12</title>
<ellipse fill="none" stroke="black" cx="208" cy="-234" rx="27" ry="18"/>
<text text-anchor="middle" x="208" y="-228.95" font-family="Times,serif" font-size="14.00">/</text>
</g>
<!-- 13&#45;&#45;12 -->
<g id="edge4" class="edge">
<title>13&#45;&#45;12</title>
<path fill="none" stroke="black" d="M180.35,-288.76C186.17,-277.46 193.89,-262.44 199.7,-251.15"/>
</g>
<!-- 8 -->
<g id="node6" class="node">
<title>8</title>
<ellipse fill="none" stroke="black" cx="172" cy="-162" rx="27" ry="18"/>
<text text-anchor="middle" x="172" y="-156.95" font-family="Times,serif" font-size="14.00">*</text>
</g>
<!-- 12&#45;&#45;8 -->
<g id="edge5" class="edge">
<title>12&#45;&#45;8</title>
<path fill="none" stroke="black" d="M199.65,-216.76C193.83,-205.46 186.11,-190.44 180.3,-179.15"/>
</g>
<!-- 11 -->
<g id="node12" class="node">
<title>11</title>
<ellipse fill="none" stroke="black" cx="244" cy="-162" rx="27" ry="18"/>
<text text-anchor="middle" x="244" y="-156.95" font-family="Times,serif" font-size="14.00">*</text>
</g>
<!-- 12&#45;&#45;11 -->
<g id="edge11" class="edge">
<title>12&#45;&#45;11</title>
<path fill="none" stroke="black" d="M216.35,-216.76C222.17,-205.46 229.89,-190.44 235.7,-179.15"/>
</g>
<!-- 5 -->
<g id="node7" class="node">
<title>5</title>
<ellipse fill="none" stroke="black" cx="99" cy="-90" rx="27" ry="18"/>
<text text-anchor="middle" x="99" y="-84.95" font-family="Times,serif" font-size="14.00">*</text>
</g>
<!-- 8&#45;&#45;5 -->
<g id="edge6" class="edge">
<title>8&#45;&#45;5</title>
<path fill="none" stroke="black" d="M157.23,-146.83C144.65,-134.77 126.65,-117.51 114,-105.38"/>
</g>
<!-- 7 -->
<g id="node10" class="node">
<title>7</title>
<ellipse fill="none" stroke="black" cx="172" cy="-90" rx="27" ry="18"/>
<text text-anchor="middle" x="172" y="-84.95" font-family="Times,serif" font-size="14.00">cos</text>
</g>
<!-- 8&#45;&#45;7 -->
<g id="edge9" class="edge">
<title>8&#45;&#45;7</title>
<path fill="none" stroke="black" d="M172,-143.7C172,-132.85 172,-118.92 172,-108.1"/>
</g>
<!-- 3 -->
<g id="node8" class="node">
<title>3</title>
<ellipse fill="none" stroke="black" cx="27" cy="-18" rx="27" ry="18"/>
<text text-anchor="middle" x="27" y="-12.95" font-family="Times,serif" font-size="14.00">p_d</text>
</g>
<!-- 5&#45;&#45;3 -->
<g id="edge7" class="edge">
<title>5&#45;&#45;3</title>
<path fill="none" stroke="black" d="M84.08,-74.5C71.72,-62.48 54.25,-45.49 41.9,-33.49"/>
</g>
<!-- 4 -->
<g id="node9" class="node">
<title>4</title>
<ellipse fill="none" stroke="black" cx="99" cy="-18" rx="27" ry="18"/>
<text text-anchor="middle" x="99" y="-12.95" font-family="Times,serif" font-size="14.00">Ef</text>
</g>
<!-- 5&#45;&#45;4 -->
<g id="edge8" class="edge">
<title>5&#45;&#45;4</title>
<path fill="none" stroke="black" d="M99,-71.7C99,-60.85 99,-46.92 99,-36.1"/>
</g>
<!-- 6 -->
<g id="node11" class="node">
<title>6</title>
<ellipse fill="none" stroke="black" cx="173" cy="-18" rx="28.83" ry="18"/>
<text text-anchor="middle" x="173" y="-12.95" font-family="Times,serif" font-size="14.00">theta</text>
</g>
<!-- 7&#45;&#45;6 -->
<g id="edge10" class="edge">
<title>7&#45;&#45;6</title>
<path fill="none" stroke="black" d="M172.25,-71.7C172.4,-60.85 172.6,-46.92 172.76,-36.1"/>
</g>
<!-- 9 -->
<g id="node13" class="node">
<title>9</title>
<ellipse fill="none" stroke="black" cx="244" cy="-90" rx="27" ry="18"/>
<text text-anchor="middle" x="244" y="-84.95" font-family="Times,serif" font-size="14.00">kb</text>
</g>
<!-- 11&#45;&#45;9 -->
<g id="edge12" class="edge">
<title>11&#45;&#45;9</title>
<path fill="none" stroke="black" d="M244,-143.7C244,-132.85 244,-118.92 244,-108.1"/>
</g>
<!-- 10 -->
<g id="node14" class="node">
<title>10</title>
<ellipse fill="none" stroke="black" cx="316" cy="-90" rx="27" ry="18"/>
<text text-anchor="middle" x="316" y="-84.95" font-family="Times,serif" font-size="14.00">T</text>
</g>
<!-- 11&#45;&#45;10 -->
<g id="edge13" class="edge">
<title>11&#45;&#45;10</title>
<path fill="none" stroke="black" d="M258.92,-146.5C271.28,-134.48 288.75,-117.49 301.1,-105.49"/>
</g>
</g>
</svg>
