<?xml version="1.0" encoding="UTF-8" standalone="no"?>
<!DOCTYPE svg PUBLIC "-//W3C//DTD SVG 1.1//EN"
 "http://www.w3.org/Graphics/SVG/1.1/DTD/svg11.dtd">
<!-- Generated by graphviz version 9.0.0 (20230911.1827)
 -->
<!-- Title: G Pages: 1 -->
<svg width="584pt" height="357pt"
 viewBox="0.00 0.00 584.00 356.50" xmlns="http://www.w3.org/2000/svg" xmlns:xlink="http://www.w3.org/1999/xlink">
<g id="graph0" class="graph" transform="scale(1 1) rotate(0) translate(4 352.5)">
<title>G</title>
<polygon fill="white" stroke="none" points="-4,4 -4,-352.5 580,-352.5 580,4 -4,4"/>
<text text-anchor="middle" x="288" y="-331.2" font-family="Times,serif" font-size="14.00">sqrt(omega**2/c**2&#45;pi**2/d**2), depth = 4</text>
<!-- 16 -->
<g id="node1" class="node">
<title>16</title>
<ellipse fill="none" stroke="black" cx="297" cy="-306" rx="27" ry="18"/>
<text text-anchor="middle" x="297" y="-300.95" font-family="Times,serif" font-size="14.00">sqrt</text>
</g>
<!-- 15 -->
<g id="node2" class="node">
<title>15</title>
<ellipse fill="none" stroke="black" cx="297" cy="-234" rx="27" ry="18"/>
<text text-anchor="middle" x="297" y="-228.95" font-family="Times,serif" font-size="14.00">&#45;</text>
</g>
<!-- 16&#45;&#45;15 -->
<g id="edge1" class="edge">
<title>16&#45;&#45;15</title>
<path fill="none" stroke="black" d="M297,-287.7C297,-276.85 297,-262.92 297,-252.1"/>
</g>
<!-- 7 -->
<g id="node3" class="node">
<title>7</title>
<ellipse fill="none" stroke="black" cx="225" cy="-162" rx="27" ry="18"/>
<text text-anchor="middle" x="225" y="-156.95" font-family="Times,serif" font-size="14.00">/</text>
</g>
<!-- 15&#45;&#45;7 -->
<g id="edge2" class="edge">
<title>15&#45;&#45;7</title>
<path fill="none" stroke="black" d="M282.08,-218.5C269.72,-206.48 252.25,-189.49 239.9,-177.49"/>
</g>
<!-- 14 -->
<g id="node10" class="node">
<title>14</title>
<ellipse fill="none" stroke="black" cx="369" cy="-162" rx="27" ry="18"/>
<text text-anchor="middle" x="369" y="-156.95" font-family="Times,serif" font-size="14.00">/</text>
</g>
<!-- 15&#45;&#45;14 -->
<g id="edge9" class="edge">
<title>15&#45;&#45;14</title>
<path fill="none" stroke="black" d="M311.92,-218.5C324.27,-206.48 341.75,-189.49 354.1,-177.49"/>
</g>
<!-- 3 -->
<g id="node4" class="node">
<title>3</title>
<ellipse fill="none" stroke="black" cx="117" cy="-90" rx="27" ry="18"/>
<text text-anchor="middle" x="117" y="-84.95" font-family="Times,serif" font-size="14.00">^</text>
</g>
<!-- 7&#45;&#45;3 -->
<g id="edge3" class="edge">
<title>7&#45;&#45;3</title>
<path fill="none" stroke="black" d="M206.19,-148.81C186.48,-136.04 155.71,-116.09 135.96,-103.29"/>
</g>
<!-- 6 -->
<g id="node7" class="node">
<title>6</title>
<ellipse fill="none" stroke="black" cx="225" cy="-90" rx="27" ry="18"/>
<text text-anchor="middle" x="225" y="-84.95" font-family="Times,serif" font-size="14.00">^</text>
</g>
<!-- 7&#45;&#45;6 -->
<g id="edge6" class="edge">
<title>7&#45;&#45;6</title>
<path fill="none" stroke="black" d="M225,-143.7C225,-132.85 225,-118.92 225,-108.1"/>
</g>
<!-- 1 -->
<g id="node5" class="node">
<title>1</title>
<ellipse fill="none" stroke="black" cx="36" cy="-18" rx="36" ry="18"/>
<text text-anchor="middle" x="36" y="-12.95" font-family="Times,serif" font-size="14.00">omega</text>
</g>
<!-- 3&#45;&#45;1 -->
<g id="edge4" class="edge">
<title>3&#45;&#45;1</title>
<path fill="none" stroke="black" d="M100.99,-75.17C87.25,-63.3 67.49,-46.22 53.37,-34.01"/>
</g>
<!-- 2 -->
<g id="node6" class="node">
<title>2</title>
<ellipse fill="none" stroke="black" cx="117" cy="-18" rx="27" ry="18"/>
<text text-anchor="middle" x="117" y="-12.95" font-family="Times,serif" font-size="14.00">2</text>
</g>
<!-- 3&#45;&#45;2 -->
<g id="edge5" class="edge">
<title>3&#45;&#45;2</title>
<path fill="none" stroke="black" d="M117,-71.7C117,-60.85 117,-46.92 117,-36.1"/>
</g>
<!-- 4 -->
<g id="node8" class="node">
<title>4</title>
<ellipse fill="none" stroke="black" cx="189" cy="-18" rx="27" ry="18"/>
<text text-anchor="middle" x="189" y="-12.95" font-family="Times,serif" font-size="14.00">c</text>
</g>
<!-- 6&#45;&#45;4 -->
<g id="edge7" class="edge">
<title>6&#45;&#45;4</title>
<path fill="none" stroke="black" d="M216.65,-72.76C210.83,-61.46 203.11,-46.44 197.3,-35.15"/>
</g>
<!-- 5 -->
<g id="node9" class="node">
<title>5</title>
<ellipse fill="none" stroke="black" cx="261" cy="-18" rx="27" ry="18"/>
<text text-anchor="middle" x="261" y="-12.95" font-family="Times,serif" font-size="14.00">2</text>
</g>
<!-- 6&#45;&#45;5 -->
<g id="edge8" class="edge">
<title>6&#45;&#45;5</title>
<path fill="none" stroke="black" d="M233.35,-72.76C239.16,-61.46 246.89,-46.44 252.69,-35.15"/>
</g>
<!-- 10 -->
<g id="node11" class="node">
<title>10</title>
<ellipse fill="none" stroke="black" cx="369" cy="-90" rx="27" ry="18"/>
<text text-anchor="middle" x="369" y="-84.95" font-family="Times,serif" font-size="14.00">^</text>
</g>
<!-- 14&#45;&#45;10 -->
<g id="edge10" class="edge">
<title>14&#45;&#45;10</title>
<path fill="none" stroke="black" d="M369,-143.7C369,-132.85 369,-118.92 369,-108.1"/>
</g>
<!-- 13 -->
<g id="node14" class="node">
<title>13</title>
<ellipse fill="none" stroke="black" cx="477" cy="-90" rx="27" ry="18"/>
<text text-anchor="middle" x="477" y="-84.95" font-family="Times,serif" font-size="14.00">^</text>
</g>
<!-- 14&#45;&#45;13 -->
<g id="edge13" class="edge">
<title>14&#45;&#45;13</title>
<path fill="none" stroke="black" d="M387.81,-148.81C407.51,-136.04 438.28,-116.09 458.04,-103.29"/>
</g>
<!-- 8 -->
<g id="node12" class="node">
<title>8</title>
<ellipse fill="none" stroke="black" cx="333" cy="-18" rx="27" ry="18"/>
<text text-anchor="middle" x="333" y="-12.95" font-family="Times,serif" font-size="14.00">pi</text>
</g>
<!-- 10&#45;&#45;8 -->
<g id="edge11" class="edge">
<title>10&#45;&#45;8</title>
<path fill="none" stroke="black" d="M360.65,-72.76C354.83,-61.46 347.11,-46.44 341.3,-35.15"/>
</g>
<!-- 9 -->
<g id="node13" class="node">
<title>9</title>
<ellipse fill="none" stroke="black" cx="405" cy="-18" rx="27" ry="18"/>
<text text-anchor="middle" x="405" y="-12.95" font-family="Times,serif" font-size="14.00">2</text>
</g>
<!-- 10&#45;&#45;9 -->
<g id="edge12" class="edge">
<title>10&#45;&#45;9</title>
<path fill="none" stroke="black" d="M377.35,-72.76C383.16,-61.46 390.89,-46.44 396.69,-35.15"/>
</g>
<!-- 11 -->
<g id="node15" class="node">
<title>11</title>
<ellipse fill="none" stroke="black" cx="477" cy="-18" rx="27" ry="18"/>
<text text-anchor="middle" x="477" y="-12.95" font-family="Times,serif" font-size="14.00">d</text>
</g>
<!-- 13&#45;&#45;11 -->
<g id="edge14" class="edge">
<title>13&#45;&#45;11</title>
<path fill="none" stroke="black" d="M477,-71.7C477,-60.85 477,-46.92 477,-36.1"/>
</g>
<!-- 12 -->
<g id="node16" class="node">
<title>12</title>
<ellipse fill="none" stroke="black" cx="549" cy="-18" rx="27" ry="18"/>
<text text-anchor="middle" x="549" y="-12.95" font-family="Times,serif" font-size="14.00">2</text>
</g>
<!-- 13&#45;&#45;12 -->
<g id="edge15" class="edge">
<title>13&#45;&#45;12</title>
<path fill="none" stroke="black" d="M491.92,-74.5C504.27,-62.48 521.75,-45.49 534.1,-33.49"/>
</g>
</g>
</svg>
