<?xml version="1.0" encoding="UTF-8" standalone="no"?>
<!DOCTYPE svg PUBLIC "-//W3C//DTD SVG 1.1//EN"
 "http://www.w3.org/Graphics/SVG/1.1/DTD/svg11.dtd">
<!-- Generated by graphviz version 9.0.0 (20230911.1827)
 -->
<!-- Title: G Pages: 1 -->
<svg width="494pt" height="501pt"
 viewBox="0.00 0.00 494.00 500.50" xmlns="http://www.w3.org/2000/svg" xmlns:xlink="http://www.w3.org/1999/xlink">
<g id="graph0" class="graph" transform="scale(1 1) rotate(0) translate(4 496.5)">
<title>G</title>
<polygon fill="white" stroke="none" points="-4,4 -4,-496.5 490,-496.5 490,4 -4,4"/>
<text text-anchor="middle" x="243" y="-475.2" font-family="Times,serif" font-size="14.00">sqrt(2/m*(E_n&#45;U&#45;L**2/(2*m*r**2))), depth = 6</text>
<!-- 20 -->
<g id="node1" class="node">
<title>20</title>
<ellipse fill="none" stroke="black" cx="135" cy="-450" rx="27" ry="18"/>
<text text-anchor="middle" x="135" y="-444.95" font-family="Times,serif" font-size="14.00">sqrt</text>
</g>
<!-- 19 -->
<g id="node2" class="node">
<title>19</title>
<ellipse fill="none" stroke="black" cx="135" cy="-378" rx="27" ry="18"/>
<text text-anchor="middle" x="135" y="-372.95" font-family="Times,serif" font-size="14.00">*</text>
</g>
<!-- 20&#45;&#45;19 -->
<g id="edge1" class="edge">
<title>20&#45;&#45;19</title>
<path fill="none" stroke="black" d="M135,-431.7C135,-420.85 135,-406.92 135,-396.1"/>
</g>
<!-- 3 -->
<g id="node3" class="node">
<title>3</title>
<ellipse fill="none" stroke="black" cx="99" cy="-306" rx="27" ry="18"/>
<text text-anchor="middle" x="99" y="-300.95" font-family="Times,serif" font-size="14.00">/</text>
</g>
<!-- 19&#45;&#45;3 -->
<g id="edge2" class="edge">
<title>19&#45;&#45;3</title>
<path fill="none" stroke="black" d="M126.65,-360.76C120.83,-349.46 113.11,-334.44 107.3,-323.15"/>
</g>
<!-- 18 -->
<g id="node6" class="node">
<title>18</title>
<ellipse fill="none" stroke="black" cx="171" cy="-306" rx="27" ry="18"/>
<text text-anchor="middle" x="171" y="-300.95" font-family="Times,serif" font-size="14.00">&#45;</text>
</g>
<!-- 19&#45;&#45;18 -->
<g id="edge5" class="edge">
<title>19&#45;&#45;18</title>
<path fill="none" stroke="black" d="M143.35,-360.76C149.17,-349.46 156.89,-334.44 162.7,-323.15"/>
</g>
<!-- 1 -->
<g id="node4" class="node">
<title>1</title>
<ellipse fill="none" stroke="black" cx="27" cy="-234" rx="27" ry="18"/>
<text text-anchor="middle" x="27" y="-228.95" font-family="Times,serif" font-size="14.00">2</text>
</g>
<!-- 3&#45;&#45;1 -->
<g id="edge3" class="edge">
<title>3&#45;&#45;1</title>
<path fill="none" stroke="black" d="M84.08,-290.5C71.72,-278.48 54.25,-261.49 41.9,-249.49"/>
</g>
<!-- 2 -->
<g id="node5" class="node">
<title>2</title>
<ellipse fill="none" stroke="black" cx="99" cy="-234" rx="27" ry="18"/>
<text text-anchor="middle" x="99" y="-228.95" font-family="Times,serif" font-size="14.00">m</text>
</g>
<!-- 3&#45;&#45;2 -->
<g id="edge4" class="edge">
<title>3&#45;&#45;2</title>
<path fill="none" stroke="black" d="M99,-287.7C99,-276.85 99,-262.92 99,-252.1"/>
</g>
<!-- 6 -->
<g id="node7" class="node">
<title>6</title>
<ellipse fill="none" stroke="black" cx="171" cy="-234" rx="27" ry="18"/>
<text text-anchor="middle" x="171" y="-228.95" font-family="Times,serif" font-size="14.00">&#45;</text>
</g>
<!-- 18&#45;&#45;6 -->
<g id="edge6" class="edge">
<title>18&#45;&#45;6</title>
<path fill="none" stroke="black" d="M171,-287.7C171,-276.85 171,-262.92 171,-252.1"/>
</g>
<!-- 17 -->
<g id="node10" class="node">
<title>17</title>
<ellipse fill="none" stroke="black" cx="243" cy="-234" rx="27" ry="18"/>
<text text-anchor="middle" x="243" y="-228.95" font-family="Times,serif" font-size="14.00">/</text>
</g>
<!-- 18&#45;&#45;17 -->
<g id="edge9" class="edge">
<title>18&#45;&#45;17</title>
<path fill="none" stroke="black" d="M185.92,-290.5C198.28,-278.48 215.75,-261.49 228.1,-249.49"/>
</g>
<!-- 4 -->
<g id="node8" class="node">
<title>4</title>
<ellipse fill="none" stroke="black" cx="99" cy="-162" rx="27" ry="18"/>
<text text-anchor="middle" x="99" y="-156.95" font-family="Times,serif" font-size="14.00">E_n</text>
</g>
<!-- 6&#45;&#45;4 -->
<g id="edge7" class="edge">
<title>6&#45;&#45;4</title>
<path fill="none" stroke="black" d="M156.08,-218.5C143.72,-206.48 126.25,-189.49 113.9,-177.49"/>
</g>
<!-- 5 -->
<g id="node9" class="node">
<title>5</title>
<ellipse fill="none" stroke="black" cx="171" cy="-162" rx="27" ry="18"/>
<text text-anchor="middle" x="171" y="-156.95" font-family="Times,serif" font-size="14.00">U</text>
</g>
<!-- 6&#45;&#45;5 -->
<g id="edge8" class="edge">
<title>6&#45;&#45;5</title>
<path fill="none" stroke="black" d="M171,-215.7C171,-204.85 171,-190.92 171,-180.1"/>
</g>
<!-- 9 -->
<g id="node11" class="node">
<title>9</title>
<ellipse fill="none" stroke="black" cx="243" cy="-162" rx="27" ry="18"/>
<text text-anchor="middle" x="243" y="-156.95" font-family="Times,serif" font-size="14.00">^</text>
</g>
<!-- 17&#45;&#45;9 -->
<g id="edge10" class="edge">
<title>17&#45;&#45;9</title>
<path fill="none" stroke="black" d="M243,-215.7C243,-204.85 243,-190.92 243,-180.1"/>
</g>
<!-- 16 -->
<g id="node14" class="node">
<title>16</title>
<ellipse fill="none" stroke="black" cx="315" cy="-162" rx="27" ry="18"/>
<text text-anchor="middle" x="315" y="-156.95" font-family="Times,serif" font-size="14.00">*</text>
</g>
<!-- 17&#45;&#45;16 -->
<g id="edge13" class="edge">
<title>17&#45;&#45;16</title>
<path fill="none" stroke="black" d="M257.92,-218.5C270.28,-206.48 287.75,-189.49 300.1,-177.49"/>
</g>
<!-- 7 -->
<g id="node12" class="node">
<title>7</title>
<ellipse fill="none" stroke="black" cx="171" cy="-90" rx="27" ry="18"/>
<text text-anchor="middle" x="171" y="-84.95" font-family="Times,serif" font-size="14.00">L</text>
</g>
<!-- 9&#45;&#45;7 -->
<g id="edge11" class="edge">
<title>9&#45;&#45;7</title>
<path fill="none" stroke="black" d="M228.08,-146.5C215.72,-134.48 198.25,-117.49 185.9,-105.49"/>
</g>
<!-- 8 -->
<g id="node13" class="node">
<title>8</title>
<ellipse fill="none" stroke="black" cx="243" cy="-90" rx="27" ry="18"/>
<text text-anchor="middle" x="243" y="-84.95" font-family="Times,serif" font-size="14.00">2</text>
</g>
<!-- 9&#45;&#45;8 -->
<g id="edge12" class="edge">
<title>9&#45;&#45;8</title>
<path fill="none" stroke="black" d="M243,-143.7C243,-132.85 243,-118.92 243,-108.1"/>
</g>
<!-- 12 -->
<g id="node15" class="node">
<title>12</title>
<ellipse fill="none" stroke="black" cx="315" cy="-90" rx="27" ry="18"/>
<text text-anchor="middle" x="315" y="-84.95" font-family="Times,serif" font-size="14.00">*</text>
</g>
<!-- 16&#45;&#45;12 -->
<g id="edge14" class="edge">
<title>16&#45;&#45;12</title>
<path fill="none" stroke="black" d="M315,-143.7C315,-132.85 315,-118.92 315,-108.1"/>
</g>
<!-- 15 -->
<g id="node18" class="node">
<title>15</title>
<ellipse fill="none" stroke="black" cx="387" cy="-90" rx="27" ry="18"/>
<text text-anchor="middle" x="387" y="-84.95" font-family="Times,serif" font-size="14.00">^</text>
</g>
<!-- 16&#45;&#45;15 -->
<g id="edge17" class="edge">
<title>16&#45;&#45;15</title>
<path fill="none" stroke="black" d="M329.92,-146.5C342.28,-134.48 359.75,-117.49 372.1,-105.49"/>
</g>
<!-- 10 -->
<g id="node16" class="node">
<title>10</title>
<ellipse fill="none" stroke="black" cx="243" cy="-18" rx="27" ry="18"/>
<text text-anchor="middle" x="243" y="-12.95" font-family="Times,serif" font-size="14.00">2</text>
</g>
<!-- 12&#45;&#45;10 -->
<g id="edge15" class="edge">
<title>12&#45;&#45;10</title>
<path fill="none" stroke="black" d="M300.08,-74.5C287.72,-62.48 270.25,-45.49 257.9,-33.49"/>
</g>
<!-- 11 -->
<g id="node17" class="node">
<title>11</title>
<ellipse fill="none" stroke="black" cx="315" cy="-18" rx="27" ry="18"/>
<text text-anchor="middle" x="315" y="-12.95" font-family="Times,serif" font-size="14.00">m</text>
</g>
<!-- 12&#45;&#45;11 -->
<g id="edge16" class="edge">
<title>12&#45;&#45;11</title>
<path fill="none" stroke="black" d="M315,-71.7C315,-60.85 315,-46.92 315,-36.1"/>
</g>
<!-- 13 -->
<g id="node19" class="node">
<title>13</title>
<ellipse fill="none" stroke="black" cx="387" cy="-18" rx="27" ry="18"/>
<text text-anchor="middle" x="387" y="-12.95" font-family="Times,serif" font-size="14.00">r</text>
</g>
<!-- 15&#45;&#45;13 -->
<g id="edge18" class="edge">
<title>15&#45;&#45;13</title>
<path fill="none" stroke="black" d="M387,-71.7C387,-60.85 387,-46.92 387,-36.1"/>
</g>
<!-- 14 -->
<g id="node20" class="node">
<title>14</title>
<ellipse fill="none" stroke="black" cx="459" cy="-18" rx="27" ry="18"/>
<text text-anchor="middle" x="459" y="-12.95" font-family="Times,serif" font-size="14.00">2</text>
</g>
<!-- 15&#45;&#45;14 -->
<g id="edge19" class="edge">
<title>15&#45;&#45;14</title>
<path fill="none" stroke="black" d="M401.92,-74.5C414.28,-62.48 431.75,-45.49 444.1,-33.49"/>
</g>
</g>
</svg>
