<?xml version="1.0" encoding="UTF-8" standalone="no"?>
<!DOCTYPE svg PUBLIC "-//W3C//DTD SVG 1.1//EN"
 "http://www.w3.org/Graphics/SVG/1.1/DTD/svg11.dtd">
<!-- Generated by graphviz version 9.0.0 (20230911.1827)
 -->
<!-- Title: G Pages: 1 -->
<svg width="246pt" height="285pt"
 viewBox="0.00 0.00 245.83 284.50" xmlns="http://www.w3.org/2000/svg" xmlns:xlink="http://www.w3.org/1999/xlink">
<g id="graph0" class="graph" transform="scale(1 1) rotate(0) translate(4 280.5)">
<title>G</title>
<polygon fill="white" stroke="none" points="-4,4 -4,-280.5 241.83,-280.5 241.83,4 -4,4"/>
<text text-anchor="middle" x="118.92" y="-259.2" font-family="Times,serif" font-size="14.00">m*r*v*sin(theta), depth = 3</text>
<!-- 8 -->
<g id="node1" class="node">
<title>8</title>
<ellipse fill="none" stroke="black" cx="171" cy="-234" rx="27" ry="18"/>
<text text-anchor="middle" x="171" y="-228.95" font-family="Times,serif" font-size="14.00">*</text>
</g>
<!-- 5 -->
<g id="node2" class="node">
<title>5</title>
<ellipse fill="none" stroke="black" cx="135" cy="-162" rx="27" ry="18"/>
<text text-anchor="middle" x="135" y="-156.95" font-family="Times,serif" font-size="14.00">*</text>
</g>
<!-- 8&#45;&#45;5 -->
<g id="edge1" class="edge">
<title>8&#45;&#45;5</title>
<path fill="none" stroke="black" d="M162.65,-216.76C156.83,-205.46 149.11,-190.44 143.3,-179.15"/>
</g>
<!-- 7 -->
<g id="node7" class="node">
<title>7</title>
<ellipse fill="none" stroke="black" cx="208" cy="-162" rx="27" ry="18"/>
<text text-anchor="middle" x="208" y="-156.95" font-family="Times,serif" font-size="14.00">sin</text>
</g>
<!-- 8&#45;&#45;7 -->
<g id="edge6" class="edge">
<title>8&#45;&#45;7</title>
<path fill="none" stroke="black" d="M179.58,-216.76C185.56,-205.46 193.5,-190.44 199.46,-179.15"/>
</g>
<!-- 3 -->
<g id="node3" class="node">
<title>3</title>
<ellipse fill="none" stroke="black" cx="63" cy="-90" rx="27" ry="18"/>
<text text-anchor="middle" x="63" y="-84.95" font-family="Times,serif" font-size="14.00">*</text>
</g>
<!-- 5&#45;&#45;3 -->
<g id="edge2" class="edge">
<title>5&#45;&#45;3</title>
<path fill="none" stroke="black" d="M120.08,-146.5C107.72,-134.48 90.25,-117.49 77.9,-105.49"/>
</g>
<!-- 4 -->
<g id="node6" class="node">
<title>4</title>
<ellipse fill="none" stroke="black" cx="135" cy="-90" rx="27" ry="18"/>
<text text-anchor="middle" x="135" y="-84.95" font-family="Times,serif" font-size="14.00">v</text>
</g>
<!-- 5&#45;&#45;4 -->
<g id="edge5" class="edge">
<title>5&#45;&#45;4</title>
<path fill="none" stroke="black" d="M135,-143.7C135,-132.85 135,-118.92 135,-108.1"/>
</g>
<!-- 1 -->
<g id="node4" class="node">
<title>1</title>
<ellipse fill="none" stroke="black" cx="27" cy="-18" rx="27" ry="18"/>
<text text-anchor="middle" x="27" y="-12.95" font-family="Times,serif" font-size="14.00">m</text>
</g>
<!-- 3&#45;&#45;1 -->
<g id="edge3" class="edge">
<title>3&#45;&#45;1</title>
<path fill="none" stroke="black" d="M54.65,-72.76C48.83,-61.46 41.11,-46.44 35.3,-35.15"/>
</g>
<!-- 2 -->
<g id="node5" class="node">
<title>2</title>
<ellipse fill="none" stroke="black" cx="99" cy="-18" rx="27" ry="18"/>
<text text-anchor="middle" x="99" y="-12.95" font-family="Times,serif" font-size="14.00">r</text>
</g>
<!-- 3&#45;&#45;2 -->
<g id="edge4" class="edge">
<title>3&#45;&#45;2</title>
<path fill="none" stroke="black" d="M71.35,-72.76C77.17,-61.46 84.89,-46.44 90.7,-35.15"/>
</g>
<!-- 6 -->
<g id="node8" class="node">
<title>6</title>
<ellipse fill="none" stroke="black" cx="209" cy="-90" rx="28.83" ry="18"/>
<text text-anchor="middle" x="209" y="-84.95" font-family="Times,serif" font-size="14.00">theta</text>
</g>
<!-- 7&#45;&#45;6 -->
<g id="edge7" class="edge">
<title>7&#45;&#45;6</title>
<path fill="none" stroke="black" d="M208.25,-143.7C208.4,-132.85 208.6,-118.92 208.76,-108.1"/>
</g>
</g>
</svg>
