<?xml version="1.0" encoding="UTF-8" standalone="no"?>
<!DOCTYPE svg PUBLIC "-//W3C//DTD SVG 1.1//EN"
 "http://www.w3.org/Graphics/SVG/1.1/DTD/svg11.dtd">
<!-- Generated by graphviz version 9.0.0 (20230911.1827)
 -->
<!-- Title: G Pages: 1 -->
<svg width="638pt" height="573pt"
 viewBox="0.00 0.00 638.00 572.50" xmlns="http://www.w3.org/2000/svg" xmlns:xlink="http://www.w3.org/1999/xlink">
<g id="graph0" class="graph" transform="scale(1 1) rotate(0) translate(4 568.5)">
<title>G</title>
<polygon fill="white" stroke="none" points="-4,4 -4,-568.5 634,-568.5 634,4 -4,4"/>
<text text-anchor="middle" x="315" y="-547.2" font-family="Times,serif" font-size="14.00">~32/5*G**4/c**5*(m1*m2)**2*(m1+m2)/r**5, depth = 7</text>
<!-- 26 -->
<g id="node1" class="node">
<title>26</title>
<ellipse fill="none" stroke="black" cx="495" cy="-522" rx="27" ry="18"/>
<text text-anchor="middle" x="495" y="-516.95" font-family="Times,serif" font-size="14.00">/</text>
</g>
<!-- 22 -->
<g id="node2" class="node">
<title>22</title>
<ellipse fill="none" stroke="black" cx="459" cy="-450" rx="27" ry="18"/>
<text text-anchor="middle" x="459" y="-444.95" font-family="Times,serif" font-size="14.00">*</text>
</g>
<!-- 26&#45;&#45;22 -->
<g id="edge1" class="edge">
<title>26&#45;&#45;22</title>
<path fill="none" stroke="black" d="M486.65,-504.76C480.83,-493.46 473.11,-478.44 467.3,-467.15"/>
</g>
<!-- 25 -->
<g id="node24" class="node">
<title>25</title>
<ellipse fill="none" stroke="black" cx="531" cy="-450" rx="27" ry="18"/>
<text text-anchor="middle" x="531" y="-444.95" font-family="Times,serif" font-size="14.00">^</text>
</g>
<!-- 26&#45;&#45;25 -->
<g id="edge23" class="edge">
<title>26&#45;&#45;25</title>
<path fill="none" stroke="black" d="M503.35,-504.76C509.17,-493.46 516.89,-478.44 522.7,-467.15"/>
</g>
<!-- 18 -->
<g id="node3" class="node">
<title>18</title>
<ellipse fill="none" stroke="black" cx="387" cy="-378" rx="27" ry="18"/>
<text text-anchor="middle" x="387" y="-372.95" font-family="Times,serif" font-size="14.00">*</text>
</g>
<!-- 22&#45;&#45;18 -->
<g id="edge2" class="edge">
<title>22&#45;&#45;18</title>
<path fill="none" stroke="black" d="M444.08,-434.5C431.72,-422.48 414.25,-405.49 401.9,-393.49"/>
</g>
<!-- 21 -->
<g id="node21" class="node">
<title>21</title>
<ellipse fill="none" stroke="black" cx="459" cy="-378" rx="27" ry="18"/>
<text text-anchor="middle" x="459" y="-372.95" font-family="Times,serif" font-size="14.00">+</text>
</g>
<!-- 22&#45;&#45;21 -->
<g id="edge20" class="edge">
<title>22&#45;&#45;21</title>
<path fill="none" stroke="black" d="M459,-431.7C459,-420.85 459,-406.92 459,-396.1"/>
</g>
<!-- 12 -->
<g id="node4" class="node">
<title>12</title>
<ellipse fill="none" stroke="black" cx="279" cy="-306" rx="27" ry="18"/>
<text text-anchor="middle" x="279" y="-300.95" font-family="Times,serif" font-size="14.00">/</text>
</g>
<!-- 18&#45;&#45;12 -->
<g id="edge3" class="edge">
<title>18&#45;&#45;12</title>
<path fill="none" stroke="black" d="M368.19,-364.81C348.49,-352.04 317.72,-332.09 297.96,-319.29"/>
</g>
<!-- 17 -->
<g id="node16" class="node">
<title>17</title>
<ellipse fill="none" stroke="black" cx="387" cy="-306" rx="27" ry="18"/>
<text text-anchor="middle" x="387" y="-300.95" font-family="Times,serif" font-size="14.00">^</text>
</g>
<!-- 18&#45;&#45;17 -->
<g id="edge15" class="edge">
<title>18&#45;&#45;17</title>
<path fill="none" stroke="black" d="M387,-359.7C387,-348.85 387,-334.92 387,-324.1"/>
</g>
<!-- 8 -->
<g id="node5" class="node">
<title>8</title>
<ellipse fill="none" stroke="black" cx="171" cy="-234" rx="27" ry="18"/>
<text text-anchor="middle" x="171" y="-228.95" font-family="Times,serif" font-size="14.00">*</text>
</g>
<!-- 12&#45;&#45;8 -->
<g id="edge4" class="edge">
<title>12&#45;&#45;8</title>
<path fill="none" stroke="black" d="M260.19,-292.81C240.49,-280.04 209.72,-260.09 189.96,-247.29"/>
</g>
<!-- 11 -->
<g id="node13" class="node">
<title>11</title>
<ellipse fill="none" stroke="black" cx="279" cy="-234" rx="27" ry="18"/>
<text text-anchor="middle" x="279" y="-228.95" font-family="Times,serif" font-size="14.00">^</text>
</g>
<!-- 12&#45;&#45;11 -->
<g id="edge12" class="edge">
<title>12&#45;&#45;11</title>
<path fill="none" stroke="black" d="M279,-287.7C279,-276.85 279,-262.92 279,-252.1"/>
</g>
<!-- 4 -->
<g id="node6" class="node">
<title>4</title>
<ellipse fill="none" stroke="black" cx="99" cy="-162" rx="27" ry="18"/>
<text text-anchor="middle" x="99" y="-156.95" font-family="Times,serif" font-size="14.00">/</text>
</g>
<!-- 8&#45;&#45;4 -->
<g id="edge5" class="edge">
<title>8&#45;&#45;4</title>
<path fill="none" stroke="black" d="M156.08,-218.5C143.72,-206.48 126.25,-189.49 113.9,-177.49"/>
</g>
<!-- 7 -->
<g id="node10" class="node">
<title>7</title>
<ellipse fill="none" stroke="black" cx="171" cy="-162" rx="27" ry="18"/>
<text text-anchor="middle" x="171" y="-156.95" font-family="Times,serif" font-size="14.00">^</text>
</g>
<!-- 8&#45;&#45;7 -->
<g id="edge9" class="edge">
<title>8&#45;&#45;7</title>
<path fill="none" stroke="black" d="M171,-215.7C171,-204.85 171,-190.92 171,-180.1"/>
</g>
<!-- 2 -->
<g id="node7" class="node">
<title>2</title>
<ellipse fill="none" stroke="black" cx="27" cy="-90" rx="27" ry="18"/>
<text text-anchor="middle" x="27" y="-84.95" font-family="Times,serif" font-size="14.00">~</text>
</g>
<!-- 4&#45;&#45;2 -->
<g id="edge6" class="edge">
<title>4&#45;&#45;2</title>
<path fill="none" stroke="black" d="M84.08,-146.5C71.72,-134.48 54.25,-117.49 41.9,-105.49"/>
</g>
<!-- 3 -->
<g id="node9" class="node">
<title>3</title>
<ellipse fill="none" stroke="black" cx="99" cy="-90" rx="27" ry="18"/>
<text text-anchor="middle" x="99" y="-84.95" font-family="Times,serif" font-size="14.00">5</text>
</g>
<!-- 4&#45;&#45;3 -->
<g id="edge8" class="edge">
<title>4&#45;&#45;3</title>
<path fill="none" stroke="black" d="M99,-143.7C99,-132.85 99,-118.92 99,-108.1"/>
</g>
<!-- 1 -->
<g id="node8" class="node">
<title>1</title>
<ellipse fill="none" stroke="black" cx="27" cy="-18" rx="27" ry="18"/>
<text text-anchor="middle" x="27" y="-12.95" font-family="Times,serif" font-size="14.00">32</text>
</g>
<!-- 2&#45;&#45;1 -->
<g id="edge7" class="edge">
<title>2&#45;&#45;1</title>
<path fill="none" stroke="black" d="M27,-71.7C27,-60.85 27,-46.92 27,-36.1"/>
</g>
<!-- 5 -->
<g id="node11" class="node">
<title>5</title>
<ellipse fill="none" stroke="black" cx="171" cy="-90" rx="27" ry="18"/>
<text text-anchor="middle" x="171" y="-84.95" font-family="Times,serif" font-size="14.00">G</text>
</g>
<!-- 7&#45;&#45;5 -->
<g id="edge10" class="edge">
<title>7&#45;&#45;5</title>
<path fill="none" stroke="black" d="M171,-143.7C171,-132.85 171,-118.92 171,-108.1"/>
</g>
<!-- 6 -->
<g id="node12" class="node">
<title>6</title>
<ellipse fill="none" stroke="black" cx="243" cy="-90" rx="27" ry="18"/>
<text text-anchor="middle" x="243" y="-84.95" font-family="Times,serif" font-size="14.00">4</text>
</g>
<!-- 7&#45;&#45;6 -->
<g id="edge11" class="edge">
<title>7&#45;&#45;6</title>
<path fill="none" stroke="black" d="M185.92,-146.5C198.28,-134.48 215.75,-117.49 228.1,-105.49"/>
</g>
<!-- 9 -->
<g id="node14" class="node">
<title>9</title>
<ellipse fill="none" stroke="black" cx="243" cy="-162" rx="27" ry="18"/>
<text text-anchor="middle" x="243" y="-156.95" font-family="Times,serif" font-size="14.00">c</text>
</g>
<!-- 11&#45;&#45;9 -->
<g id="edge13" class="edge">
<title>11&#45;&#45;9</title>
<path fill="none" stroke="black" d="M270.65,-216.76C264.83,-205.46 257.11,-190.44 251.3,-179.15"/>
</g>
<!-- 10 -->
<g id="node15" class="node">
<title>10</title>
<ellipse fill="none" stroke="black" cx="315" cy="-162" rx="27" ry="18"/>
<text text-anchor="middle" x="315" y="-156.95" font-family="Times,serif" font-size="14.00">5</text>
</g>
<!-- 11&#45;&#45;10 -->
<g id="edge14" class="edge">
<title>11&#45;&#45;10</title>
<path fill="none" stroke="black" d="M287.35,-216.76C293.17,-205.46 300.89,-190.44 306.7,-179.15"/>
</g>
<!-- 15 -->
<g id="node17" class="node">
<title>15</title>
<ellipse fill="none" stroke="black" cx="387" cy="-234" rx="27" ry="18"/>
<text text-anchor="middle" x="387" y="-228.95" font-family="Times,serif" font-size="14.00">*</text>
</g>
<!-- 17&#45;&#45;15 -->
<g id="edge16" class="edge">
<title>17&#45;&#45;15</title>
<path fill="none" stroke="black" d="M387,-287.7C387,-276.85 387,-262.92 387,-252.1"/>
</g>
<!-- 16 -->
<g id="node20" class="node">
<title>16</title>
<ellipse fill="none" stroke="black" cx="459" cy="-234" rx="27" ry="18"/>
<text text-anchor="middle" x="459" y="-228.95" font-family="Times,serif" font-size="14.00">2</text>
</g>
<!-- 17&#45;&#45;16 -->
<g id="edge19" class="edge">
<title>17&#45;&#45;16</title>
<path fill="none" stroke="black" d="M401.92,-290.5C414.28,-278.48 431.75,-261.49 444.1,-249.49"/>
</g>
<!-- 13 -->
<g id="node18" class="node">
<title>13</title>
<ellipse fill="none" stroke="black" cx="387" cy="-162" rx="27" ry="18"/>
<text text-anchor="middle" x="387" y="-156.95" font-family="Times,serif" font-size="14.00">m1</text>
</g>
<!-- 15&#45;&#45;13 -->
<g id="edge17" class="edge">
<title>15&#45;&#45;13</title>
<path fill="none" stroke="black" d="M387,-215.7C387,-204.85 387,-190.92 387,-180.1"/>
</g>
<!-- 14 -->
<g id="node19" class="node">
<title>14</title>
<ellipse fill="none" stroke="black" cx="459" cy="-162" rx="27" ry="18"/>
<text text-anchor="middle" x="459" y="-156.95" font-family="Times,serif" font-size="14.00">m2</text>
</g>
<!-- 15&#45;&#45;14 -->
<g id="edge18" class="edge">
<title>15&#45;&#45;14</title>
<path fill="none" stroke="black" d="M401.92,-218.5C414.28,-206.48 431.75,-189.49 444.1,-177.49"/>
</g>
<!-- 19 -->
<g id="node22" class="node">
<title>19</title>
<ellipse fill="none" stroke="black" cx="459" cy="-306" rx="27" ry="18"/>
<text text-anchor="middle" x="459" y="-300.95" font-family="Times,serif" font-size="14.00">m1</text>
</g>
<!-- 21&#45;&#45;19 -->
<g id="edge21" class="edge">
<title>21&#45;&#45;19</title>
<path fill="none" stroke="black" d="M459,-359.7C459,-348.85 459,-334.92 459,-324.1"/>
</g>
<!-- 20 -->
<g id="node23" class="node">
<title>20</title>
<ellipse fill="none" stroke="black" cx="531" cy="-306" rx="27" ry="18"/>
<text text-anchor="middle" x="531" y="-300.95" font-family="Times,serif" font-size="14.00">m2</text>
</g>
<!-- 21&#45;&#45;20 -->
<g id="edge22" class="edge">
<title>21&#45;&#45;20</title>
<path fill="none" stroke="black" d="M473.92,-362.5C486.28,-350.48 503.75,-333.49 516.1,-321.49"/>
</g>
<!-- 23 -->
<g id="node25" class="node">
<title>23</title>
<ellipse fill="none" stroke="black" cx="531" cy="-378" rx="27" ry="18"/>
<text text-anchor="middle" x="531" y="-372.95" font-family="Times,serif" font-size="14.00">r</text>
</g>
<!-- 25&#45;&#45;23 -->
<g id="edge24" class="edge">
<title>25&#45;&#45;23</title>
<path fill="none" stroke="black" d="M531,-431.7C531,-420.85 531,-406.92 531,-396.1"/>
</g>
<!-- 24 -->
<g id="node26" class="node">
<title>24</title>
<ellipse fill="none" stroke="black" cx="603" cy="-378" rx="27" ry="18"/>
<text text-anchor="middle" x="603" y="-372.95" font-family="Times,serif" font-size="14.00">5</text>
</g>
<!-- 25&#45;&#45;24 -->
<g id="edge25" class="edge">
<title>25&#45;&#45;24</title>
<path fill="none" stroke="black" d="M545.92,-434.5C558.28,-422.48 575.75,-405.49 588.1,-393.49"/>
</g>
</g>
</svg>
