<?xml version="1.0" encoding="UTF-8" standalone="no"?>
<!DOCTYPE svg PUBLIC "-//W3C//DTD SVG 1.1//EN"
 "http://www.w3.org/Graphics/SVG/1.1/DTD/svg11.dtd">
<!-- Generated by graphviz version 9.0.0 (20230911.1827)
 -->
<!-- Title: G Pages: 1 -->
<svg width="998pt" height="789pt"
 viewBox="0.00 0.00 998.00 788.50" xmlns="http://www.w3.org/2000/svg" xmlns:xlink="http://www.w3.org/1999/xlink">
<g id="graph0" class="graph" transform="scale(1 1) rotate(0) translate(4 784.5)">
<title>G</title>
<polygon fill="white" stroke="none" points="-4,4 -4,-784.5 994,-784.5 994,4 -4,4"/>
<text text-anchor="middle" x="495" y="-763.2" font-family="Times,serif" font-size="14.00">(((((((((30 * (x ^ 2)) / ((10 &#45; x) * y)) + (x ^ 4)) &#45; ((4 / 5) * (x ^ 3))) + ((y ^ 2) / 2)) &#45; (2 * y)) + (8 / ((2 + (x ^ 2)) + (y ^ 2)))) + ((y ^ 3) / 2)) &#45; x)</text>
<!-- 53 -->
<g id="node1" class="node">
<title>53</title>
<ellipse fill="none" stroke="black" cx="891" cy="-738" rx="27" ry="18"/>
<text text-anchor="middle" x="891" y="-732.95" font-family="Times,serif" font-size="14.00">&#45;</text>
</g>
<!-- 51 -->
<g id="node2" class="node">
<title>51</title>
<ellipse fill="none" stroke="black" cx="855" cy="-666" rx="27" ry="18"/>
<text text-anchor="middle" x="855" y="-660.95" font-family="Times,serif" font-size="14.00">+</text>
</g>
<!-- 53&#45;&#45;51 -->
<g id="edge1" class="edge">
<title>53&#45;&#45;51</title>
<path fill="none" stroke="black" d="M882.65,-720.76C876.83,-709.46 869.11,-694.44 863.3,-683.15"/>
</g>
<!-- 52 -->
<g id="node53" class="node">
<title>52</title>
<ellipse fill="none" stroke="black" cx="927" cy="-666" rx="27" ry="18"/>
<text text-anchor="middle" x="927" y="-660.95" font-family="Times,serif" font-size="14.00">x</text>
</g>
<!-- 53&#45;&#45;52 -->
<g id="edge52" class="edge">
<title>53&#45;&#45;52</title>
<path fill="none" stroke="black" d="M899.35,-720.76C905.17,-709.46 912.89,-694.44 918.7,-683.15"/>
</g>
<!-- 45 -->
<g id="node3" class="node">
<title>45</title>
<ellipse fill="none" stroke="black" cx="783" cy="-594" rx="27" ry="18"/>
<text text-anchor="middle" x="783" y="-588.95" font-family="Times,serif" font-size="14.00">+</text>
</g>
<!-- 51&#45;&#45;45 -->
<g id="edge2" class="edge">
<title>51&#45;&#45;45</title>
<path fill="none" stroke="black" d="M840.08,-650.5C827.72,-638.48 810.25,-621.49 797.9,-609.49"/>
</g>
<!-- 50 -->
<g id="node48" class="node">
<title>50</title>
<ellipse fill="none" stroke="black" cx="891" cy="-594" rx="27" ry="18"/>
<text text-anchor="middle" x="891" y="-588.95" font-family="Times,serif" font-size="14.00">/</text>
</g>
<!-- 51&#45;&#45;50 -->
<g id="edge47" class="edge">
<title>51&#45;&#45;50</title>
<path fill="none" stroke="black" d="M863.35,-648.76C869.17,-637.46 876.89,-622.44 882.7,-611.15"/>
</g>
<!-- 33 -->
<g id="node4" class="node">
<title>33</title>
<ellipse fill="none" stroke="black" cx="675" cy="-522" rx="27" ry="18"/>
<text text-anchor="middle" x="675" y="-516.95" font-family="Times,serif" font-size="14.00">&#45;</text>
</g>
<!-- 45&#45;&#45;33 -->
<g id="edge3" class="edge">
<title>45&#45;&#45;33</title>
<path fill="none" stroke="black" d="M764.19,-580.81C744.49,-568.04 713.72,-548.09 693.96,-535.29"/>
</g>
<!-- 44 -->
<g id="node37" class="node">
<title>44</title>
<ellipse fill="none" stroke="black" cx="783" cy="-522" rx="27" ry="18"/>
<text text-anchor="middle" x="783" y="-516.95" font-family="Times,serif" font-size="14.00">/</text>
</g>
<!-- 45&#45;&#45;44 -->
<g id="edge36" class="edge">
<title>45&#45;&#45;44</title>
<path fill="none" stroke="black" d="M783,-575.7C783,-564.85 783,-550.92 783,-540.1"/>
</g>
<!-- 29 -->
<g id="node5" class="node">
<title>29</title>
<ellipse fill="none" stroke="black" cx="603" cy="-450" rx="27" ry="18"/>
<text text-anchor="middle" x="603" y="-444.95" font-family="Times,serif" font-size="14.00">+</text>
</g>
<!-- 33&#45;&#45;29 -->
<g id="edge4" class="edge">
<title>33&#45;&#45;29</title>
<path fill="none" stroke="black" d="M660.08,-506.5C647.72,-494.48 630.25,-477.49 617.9,-465.49"/>
</g>
<!-- 32 -->
<g id="node34" class="node">
<title>32</title>
<ellipse fill="none" stroke="black" cx="675" cy="-450" rx="27" ry="18"/>
<text text-anchor="middle" x="675" y="-444.95" font-family="Times,serif" font-size="14.00">*</text>
</g>
<!-- 33&#45;&#45;32 -->
<g id="edge33" class="edge">
<title>33&#45;&#45;32</title>
<path fill="none" stroke="black" d="M675,-503.7C675,-492.85 675,-478.92 675,-468.1"/>
</g>
<!-- 23 -->
<g id="node6" class="node">
<title>23</title>
<ellipse fill="none" stroke="black" cx="495" cy="-378" rx="27" ry="18"/>
<text text-anchor="middle" x="495" y="-372.95" font-family="Times,serif" font-size="14.00">&#45;</text>
</g>
<!-- 29&#45;&#45;23 -->
<g id="edge5" class="edge">
<title>29&#45;&#45;23</title>
<path fill="none" stroke="black" d="M584.19,-436.81C564.49,-424.04 533.72,-404.09 513.96,-391.29"/>
</g>
<!-- 28 -->
<g id="node29" class="node">
<title>28</title>
<ellipse fill="none" stroke="black" cx="603" cy="-378" rx="27" ry="18"/>
<text text-anchor="middle" x="603" y="-372.95" font-family="Times,serif" font-size="14.00">/</text>
</g>
<!-- 29&#45;&#45;28 -->
<g id="edge28" class="edge">
<title>29&#45;&#45;28</title>
<path fill="none" stroke="black" d="M603,-431.7C603,-420.85 603,-406.92 603,-396.1"/>
</g>
<!-- 15 -->
<g id="node7" class="node">
<title>15</title>
<ellipse fill="none" stroke="black" cx="279" cy="-306" rx="27" ry="18"/>
<text text-anchor="middle" x="279" y="-300.95" font-family="Times,serif" font-size="14.00">+</text>
</g>
<!-- 23&#45;&#45;15 -->
<g id="edge6" class="edge">
<title>23&#45;&#45;15</title>
<path fill="none" stroke="black" d="M471.06,-369.24C429.54,-355.79 344.64,-328.27 303.05,-314.79"/>
</g>
<!-- 22 -->
<g id="node22" class="node">
<title>22</title>
<ellipse fill="none" stroke="black" cx="495" cy="-306" rx="27" ry="18"/>
<text text-anchor="middle" x="495" y="-300.95" font-family="Times,serif" font-size="14.00">*</text>
</g>
<!-- 23&#45;&#45;22 -->
<g id="edge21" class="edge">
<title>23&#45;&#45;22</title>
<path fill="none" stroke="black" d="M495,-359.7C495,-348.85 495,-334.92 495,-324.1"/>
</g>
<!-- 11 -->
<g id="node8" class="node">
<title>11</title>
<ellipse fill="none" stroke="black" cx="171" cy="-234" rx="27" ry="18"/>
<text text-anchor="middle" x="171" y="-228.95" font-family="Times,serif" font-size="14.00">/</text>
</g>
<!-- 15&#45;&#45;11 -->
<g id="edge7" class="edge">
<title>15&#45;&#45;11</title>
<path fill="none" stroke="black" d="M260.19,-292.81C240.49,-280.04 209.72,-260.09 189.96,-247.29"/>
</g>
<!-- 14 -->
<g id="node19" class="node">
<title>14</title>
<ellipse fill="none" stroke="black" cx="279" cy="-234" rx="27" ry="18"/>
<text text-anchor="middle" x="279" y="-228.95" font-family="Times,serif" font-size="14.00">^</text>
</g>
<!-- 15&#45;&#45;14 -->
<g id="edge18" class="edge">
<title>15&#45;&#45;14</title>
<path fill="none" stroke="black" d="M279,-287.7C279,-276.85 279,-262.92 279,-252.1"/>
</g>
<!-- 5 -->
<g id="node9" class="node">
<title>5</title>
<ellipse fill="none" stroke="black" cx="99" cy="-162" rx="27" ry="18"/>
<text text-anchor="middle" x="99" y="-156.95" font-family="Times,serif" font-size="14.00">*</text>
</g>
<!-- 11&#45;&#45;5 -->
<g id="edge8" class="edge">
<title>11&#45;&#45;5</title>
<path fill="none" stroke="black" d="M156.08,-218.5C143.72,-206.48 126.25,-189.49 113.9,-177.49"/>
</g>
<!-- 10 -->
<g id="node14" class="node">
<title>10</title>
<ellipse fill="none" stroke="black" cx="171" cy="-162" rx="27" ry="18"/>
<text text-anchor="middle" x="171" y="-156.95" font-family="Times,serif" font-size="14.00">*</text>
</g>
<!-- 11&#45;&#45;10 -->
<g id="edge13" class="edge">
<title>11&#45;&#45;10</title>
<path fill="none" stroke="black" d="M171,-215.7C171,-204.85 171,-190.92 171,-180.1"/>
</g>
<!-- 1 -->
<g id="node10" class="node">
<title>1</title>
<ellipse fill="none" stroke="black" cx="27" cy="-90" rx="27" ry="18"/>
<text text-anchor="middle" x="27" y="-84.95" font-family="Times,serif" font-size="14.00">30</text>
</g>
<!-- 5&#45;&#45;1 -->
<g id="edge9" class="edge">
<title>5&#45;&#45;1</title>
<path fill="none" stroke="black" d="M84.08,-146.5C71.72,-134.48 54.25,-117.49 41.9,-105.49"/>
</g>
<!-- 4 -->
<g id="node11" class="node">
<title>4</title>
<ellipse fill="none" stroke="black" cx="99" cy="-90" rx="27" ry="18"/>
<text text-anchor="middle" x="99" y="-84.95" font-family="Times,serif" font-size="14.00">^</text>
</g>
<!-- 5&#45;&#45;4 -->
<g id="edge10" class="edge">
<title>5&#45;&#45;4</title>
<path fill="none" stroke="black" d="M99,-143.7C99,-132.85 99,-118.92 99,-108.1"/>
</g>
<!-- 2 -->
<g id="node12" class="node">
<title>2</title>
<ellipse fill="none" stroke="black" cx="27" cy="-18" rx="27" ry="18"/>
<text text-anchor="middle" x="27" y="-12.95" font-family="Times,serif" font-size="14.00">x</text>
</g>
<!-- 4&#45;&#45;2 -->
<g id="edge11" class="edge">
<title>4&#45;&#45;2</title>
<path fill="none" stroke="black" d="M84.08,-74.5C71.72,-62.48 54.25,-45.49 41.9,-33.49"/>
</g>
<!-- 3 -->
<g id="node13" class="node">
<title>3</title>
<ellipse fill="none" stroke="black" cx="99" cy="-18" rx="27" ry="18"/>
<text text-anchor="middle" x="99" y="-12.95" font-family="Times,serif" font-size="14.00">2</text>
</g>
<!-- 4&#45;&#45;3 -->
<g id="edge12" class="edge">
<title>4&#45;&#45;3</title>
<path fill="none" stroke="black" d="M99,-71.7C99,-60.85 99,-46.92 99,-36.1"/>
</g>
<!-- 8 -->
<g id="node15" class="node">
<title>8</title>
<ellipse fill="none" stroke="black" cx="171" cy="-90" rx="27" ry="18"/>
<text text-anchor="middle" x="171" y="-84.95" font-family="Times,serif" font-size="14.00">&#45;</text>
</g>
<!-- 10&#45;&#45;8 -->
<g id="edge14" class="edge">
<title>10&#45;&#45;8</title>
<path fill="none" stroke="black" d="M171,-143.7C171,-132.85 171,-118.92 171,-108.1"/>
</g>
<!-- 9 -->
<g id="node18" class="node">
<title>9</title>
<ellipse fill="none" stroke="black" cx="243" cy="-90" rx="27" ry="18"/>
<text text-anchor="middle" x="243" y="-84.95" font-family="Times,serif" font-size="14.00">y</text>
</g>
<!-- 10&#45;&#45;9 -->
<g id="edge17" class="edge">
<title>10&#45;&#45;9</title>
<path fill="none" stroke="black" d="M185.92,-146.5C198.28,-134.48 215.75,-117.49 228.1,-105.49"/>
</g>
<!-- 6 -->
<g id="node16" class="node">
<title>6</title>
<ellipse fill="none" stroke="black" cx="171" cy="-18" rx="27" ry="18"/>
<text text-anchor="middle" x="171" y="-12.95" font-family="Times,serif" font-size="14.00">10</text>
</g>
<!-- 8&#45;&#45;6 -->
<g id="edge15" class="edge">
<title>8&#45;&#45;6</title>
<path fill="none" stroke="black" d="M171,-71.7C171,-60.85 171,-46.92 171,-36.1"/>
</g>
<!-- 7 -->
<g id="node17" class="node">
<title>7</title>
<ellipse fill="none" stroke="black" cx="243" cy="-18" rx="27" ry="18"/>
<text text-anchor="middle" x="243" y="-12.95" font-family="Times,serif" font-size="14.00">x</text>
</g>
<!-- 8&#45;&#45;7 -->
<g id="edge16" class="edge">
<title>8&#45;&#45;7</title>
<path fill="none" stroke="black" d="M185.92,-74.5C198.28,-62.48 215.75,-45.49 228.1,-33.49"/>
</g>
<!-- 12 -->
<g id="node20" class="node">
<title>12</title>
<ellipse fill="none" stroke="black" cx="243" cy="-162" rx="27" ry="18"/>
<text text-anchor="middle" x="243" y="-156.95" font-family="Times,serif" font-size="14.00">x</text>
</g>
<!-- 14&#45;&#45;12 -->
<g id="edge19" class="edge">
<title>14&#45;&#45;12</title>
<path fill="none" stroke="black" d="M270.65,-216.76C264.83,-205.46 257.11,-190.44 251.3,-179.15"/>
</g>
<!-- 13 -->
<g id="node21" class="node">
<title>13</title>
<ellipse fill="none" stroke="black" cx="315" cy="-162" rx="27" ry="18"/>
<text text-anchor="middle" x="315" y="-156.95" font-family="Times,serif" font-size="14.00">4</text>
</g>
<!-- 14&#45;&#45;13 -->
<g id="edge20" class="edge">
<title>14&#45;&#45;13</title>
<path fill="none" stroke="black" d="M287.35,-216.76C293.17,-205.46 300.89,-190.44 306.7,-179.15"/>
</g>
<!-- 18 -->
<g id="node23" class="node">
<title>18</title>
<ellipse fill="none" stroke="black" cx="459" cy="-234" rx="27" ry="18"/>
<text text-anchor="middle" x="459" y="-228.95" font-family="Times,serif" font-size="14.00">/</text>
</g>
<!-- 22&#45;&#45;18 -->
<g id="edge22" class="edge">
<title>22&#45;&#45;18</title>
<path fill="none" stroke="black" d="M486.65,-288.76C480.83,-277.46 473.11,-262.44 467.3,-251.15"/>
</g>
<!-- 21 -->
<g id="node26" class="node">
<title>21</title>
<ellipse fill="none" stroke="black" cx="531" cy="-234" rx="27" ry="18"/>
<text text-anchor="middle" x="531" y="-228.95" font-family="Times,serif" font-size="14.00">^</text>
</g>
<!-- 22&#45;&#45;21 -->
<g id="edge25" class="edge">
<title>22&#45;&#45;21</title>
<path fill="none" stroke="black" d="M503.35,-288.76C509.17,-277.46 516.89,-262.44 522.7,-251.15"/>
</g>
<!-- 16 -->
<g id="node24" class="node">
<title>16</title>
<ellipse fill="none" stroke="black" cx="387" cy="-162" rx="27" ry="18"/>
<text text-anchor="middle" x="387" y="-156.95" font-family="Times,serif" font-size="14.00">4</text>
</g>
<!-- 18&#45;&#45;16 -->
<g id="edge23" class="edge">
<title>18&#45;&#45;16</title>
<path fill="none" stroke="black" d="M444.08,-218.5C431.72,-206.48 414.25,-189.49 401.9,-177.49"/>
</g>
<!-- 17 -->
<g id="node25" class="node">
<title>17</title>
<ellipse fill="none" stroke="black" cx="459" cy="-162" rx="27" ry="18"/>
<text text-anchor="middle" x="459" y="-156.95" font-family="Times,serif" font-size="14.00">5</text>
</g>
<!-- 18&#45;&#45;17 -->
<g id="edge24" class="edge">
<title>18&#45;&#45;17</title>
<path fill="none" stroke="black" d="M459,-215.7C459,-204.85 459,-190.92 459,-180.1"/>
</g>
<!-- 19 -->
<g id="node27" class="node">
<title>19</title>
<ellipse fill="none" stroke="black" cx="531" cy="-162" rx="27" ry="18"/>
<text text-anchor="middle" x="531" y="-156.95" font-family="Times,serif" font-size="14.00">x</text>
</g>
<!-- 21&#45;&#45;19 -->
<g id="edge26" class="edge">
<title>21&#45;&#45;19</title>
<path fill="none" stroke="black" d="M531,-215.7C531,-204.85 531,-190.92 531,-180.1"/>
</g>
<!-- 20 -->
<g id="node28" class="node">
<title>20</title>
<ellipse fill="none" stroke="black" cx="603" cy="-162" rx="27" ry="18"/>
<text text-anchor="middle" x="603" y="-156.95" font-family="Times,serif" font-size="14.00">3</text>
</g>
<!-- 21&#45;&#45;20 -->
<g id="edge27" class="edge">
<title>21&#45;&#45;20</title>
<path fill="none" stroke="black" d="M545.92,-218.5C558.28,-206.48 575.75,-189.49 588.1,-177.49"/>
</g>
<!-- 26 -->
<g id="node30" class="node">
<title>26</title>
<ellipse fill="none" stroke="black" cx="603" cy="-306" rx="27" ry="18"/>
<text text-anchor="middle" x="603" y="-300.95" font-family="Times,serif" font-size="14.00">^</text>
</g>
<!-- 28&#45;&#45;26 -->
<g id="edge29" class="edge">
<title>28&#45;&#45;26</title>
<path fill="none" stroke="black" d="M603,-359.7C603,-348.85 603,-334.92 603,-324.1"/>
</g>
<!-- 27 -->
<g id="node33" class="node">
<title>27</title>
<ellipse fill="none" stroke="black" cx="675" cy="-306" rx="27" ry="18"/>
<text text-anchor="middle" x="675" y="-300.95" font-family="Times,serif" font-size="14.00">2</text>
</g>
<!-- 28&#45;&#45;27 -->
<g id="edge32" class="edge">
<title>28&#45;&#45;27</title>
<path fill="none" stroke="black" d="M617.92,-362.5C630.28,-350.48 647.75,-333.49 660.1,-321.49"/>
</g>
<!-- 24 -->
<g id="node31" class="node">
<title>24</title>
<ellipse fill="none" stroke="black" cx="603" cy="-234" rx="27" ry="18"/>
<text text-anchor="middle" x="603" y="-228.95" font-family="Times,serif" font-size="14.00">y</text>
</g>
<!-- 26&#45;&#45;24 -->
<g id="edge30" class="edge">
<title>26&#45;&#45;24</title>
<path fill="none" stroke="black" d="M603,-287.7C603,-276.85 603,-262.92 603,-252.1"/>
</g>
<!-- 25 -->
<g id="node32" class="node">
<title>25</title>
<ellipse fill="none" stroke="black" cx="675" cy="-234" rx="27" ry="18"/>
<text text-anchor="middle" x="675" y="-228.95" font-family="Times,serif" font-size="14.00">2</text>
</g>
<!-- 26&#45;&#45;25 -->
<g id="edge31" class="edge">
<title>26&#45;&#45;25</title>
<path fill="none" stroke="black" d="M617.92,-290.5C630.28,-278.48 647.75,-261.49 660.1,-249.49"/>
</g>
<!-- 30 -->
<g id="node35" class="node">
<title>30</title>
<ellipse fill="none" stroke="black" cx="675" cy="-378" rx="27" ry="18"/>
<text text-anchor="middle" x="675" y="-372.95" font-family="Times,serif" font-size="14.00">2</text>
</g>
<!-- 32&#45;&#45;30 -->
<g id="edge34" class="edge">
<title>32&#45;&#45;30</title>
<path fill="none" stroke="black" d="M675,-431.7C675,-420.85 675,-406.92 675,-396.1"/>
</g>
<!-- 31 -->
<g id="node36" class="node">
<title>31</title>
<ellipse fill="none" stroke="black" cx="747" cy="-378" rx="27" ry="18"/>
<text text-anchor="middle" x="747" y="-372.95" font-family="Times,serif" font-size="14.00">y</text>
</g>
<!-- 32&#45;&#45;31 -->
<g id="edge35" class="edge">
<title>32&#45;&#45;31</title>
<path fill="none" stroke="black" d="M689.92,-434.5C702.28,-422.48 719.75,-405.49 732.1,-393.49"/>
</g>
<!-- 34 -->
<g id="node38" class="node">
<title>34</title>
<ellipse fill="none" stroke="black" cx="747" cy="-450" rx="27" ry="18"/>
<text text-anchor="middle" x="747" y="-444.95" font-family="Times,serif" font-size="14.00">8</text>
</g>
<!-- 44&#45;&#45;34 -->
<g id="edge37" class="edge">
<title>44&#45;&#45;34</title>
<path fill="none" stroke="black" d="M774.65,-504.76C768.83,-493.46 761.11,-478.44 755.3,-467.15"/>
</g>
<!-- 43 -->
<g id="node39" class="node">
<title>43</title>
<ellipse fill="none" stroke="black" cx="819" cy="-450" rx="27" ry="18"/>
<text text-anchor="middle" x="819" y="-444.95" font-family="Times,serif" font-size="14.00">+</text>
</g>
<!-- 44&#45;&#45;43 -->
<g id="edge38" class="edge">
<title>44&#45;&#45;43</title>
<path fill="none" stroke="black" d="M791.35,-504.76C797.17,-493.46 804.89,-478.44 810.7,-467.15"/>
</g>
<!-- 39 -->
<g id="node40" class="node">
<title>39</title>
<ellipse fill="none" stroke="black" cx="819" cy="-378" rx="27" ry="18"/>
<text text-anchor="middle" x="819" y="-372.95" font-family="Times,serif" font-size="14.00">+</text>
</g>
<!-- 43&#45;&#45;39 -->
<g id="edge39" class="edge">
<title>43&#45;&#45;39</title>
<path fill="none" stroke="black" d="M819,-431.7C819,-420.85 819,-406.92 819,-396.1"/>
</g>
<!-- 42 -->
<g id="node45" class="node">
<title>42</title>
<ellipse fill="none" stroke="black" cx="891" cy="-378" rx="27" ry="18"/>
<text text-anchor="middle" x="891" y="-372.95" font-family="Times,serif" font-size="14.00">^</text>
</g>
<!-- 43&#45;&#45;42 -->
<g id="edge44" class="edge">
<title>43&#45;&#45;42</title>
<path fill="none" stroke="black" d="M833.92,-434.5C846.28,-422.48 863.75,-405.49 876.1,-393.49"/>
</g>
<!-- 35 -->
<g id="node41" class="node">
<title>35</title>
<ellipse fill="none" stroke="black" cx="747" cy="-306" rx="27" ry="18"/>
<text text-anchor="middle" x="747" y="-300.95" font-family="Times,serif" font-size="14.00">2</text>
</g>
<!-- 39&#45;&#45;35 -->
<g id="edge40" class="edge">
<title>39&#45;&#45;35</title>
<path fill="none" stroke="black" d="M804.08,-362.5C791.72,-350.48 774.25,-333.49 761.9,-321.49"/>
</g>
<!-- 38 -->
<g id="node42" class="node">
<title>38</title>
<ellipse fill="none" stroke="black" cx="819" cy="-306" rx="27" ry="18"/>
<text text-anchor="middle" x="819" y="-300.95" font-family="Times,serif" font-size="14.00">^</text>
</g>
<!-- 39&#45;&#45;38 -->
<g id="edge41" class="edge">
<title>39&#45;&#45;38</title>
<path fill="none" stroke="black" d="M819,-359.7C819,-348.85 819,-334.92 819,-324.1"/>
</g>
<!-- 36 -->
<g id="node43" class="node">
<title>36</title>
<ellipse fill="none" stroke="black" cx="783" cy="-234" rx="27" ry="18"/>
<text text-anchor="middle" x="783" y="-228.95" font-family="Times,serif" font-size="14.00">x</text>
</g>
<!-- 38&#45;&#45;36 -->
<g id="edge42" class="edge">
<title>38&#45;&#45;36</title>
<path fill="none" stroke="black" d="M810.65,-288.76C804.83,-277.46 797.11,-262.44 791.3,-251.15"/>
</g>
<!-- 37 -->
<g id="node44" class="node">
<title>37</title>
<ellipse fill="none" stroke="black" cx="855" cy="-234" rx="27" ry="18"/>
<text text-anchor="middle" x="855" y="-228.95" font-family="Times,serif" font-size="14.00">2</text>
</g>
<!-- 38&#45;&#45;37 -->
<g id="edge43" class="edge">
<title>38&#45;&#45;37</title>
<path fill="none" stroke="black" d="M827.35,-288.76C833.17,-277.46 840.89,-262.44 846.7,-251.15"/>
</g>
<!-- 40 -->
<g id="node46" class="node">
<title>40</title>
<ellipse fill="none" stroke="black" cx="891" cy="-306" rx="27" ry="18"/>
<text text-anchor="middle" x="891" y="-300.95" font-family="Times,serif" font-size="14.00">y</text>
</g>
<!-- 42&#45;&#45;40 -->
<g id="edge45" class="edge">
<title>42&#45;&#45;40</title>
<path fill="none" stroke="black" d="M891,-359.7C891,-348.85 891,-334.92 891,-324.1"/>
</g>
<!-- 41 -->
<g id="node47" class="node">
<title>41</title>
<ellipse fill="none" stroke="black" cx="963" cy="-306" rx="27" ry="18"/>
<text text-anchor="middle" x="963" y="-300.95" font-family="Times,serif" font-size="14.00">2</text>
</g>
<!-- 42&#45;&#45;41 -->
<g id="edge46" class="edge">
<title>42&#45;&#45;41</title>
<path fill="none" stroke="black" d="M905.92,-362.5C918.28,-350.48 935.75,-333.49 948.1,-321.49"/>
</g>
<!-- 48 -->
<g id="node49" class="node">
<title>48</title>
<ellipse fill="none" stroke="black" cx="891" cy="-522" rx="27" ry="18"/>
<text text-anchor="middle" x="891" y="-516.95" font-family="Times,serif" font-size="14.00">^</text>
</g>
<!-- 50&#45;&#45;48 -->
<g id="edge48" class="edge">
<title>50&#45;&#45;48</title>
<path fill="none" stroke="black" d="M891,-575.7C891,-564.85 891,-550.92 891,-540.1"/>
</g>
<!-- 49 -->
<g id="node52" class="node">
<title>49</title>
<ellipse fill="none" stroke="black" cx="963" cy="-522" rx="27" ry="18"/>
<text text-anchor="middle" x="963" y="-516.95" font-family="Times,serif" font-size="14.00">2</text>
</g>
<!-- 50&#45;&#45;49 -->
<g id="edge51" class="edge">
<title>50&#45;&#45;49</title>
<path fill="none" stroke="black" d="M905.92,-578.5C918.28,-566.48 935.75,-549.49 948.1,-537.49"/>
</g>
<!-- 46 -->
<g id="node50" class="node">
<title>46</title>
<ellipse fill="none" stroke="black" cx="891" cy="-450" rx="27" ry="18"/>
<text text-anchor="middle" x="891" y="-444.95" font-family="Times,serif" font-size="14.00">y</text>
</g>
<!-- 48&#45;&#45;46 -->
<g id="edge49" class="edge">
<title>48&#45;&#45;46</title>
<path fill="none" stroke="black" d="M891,-503.7C891,-492.85 891,-478.92 891,-468.1"/>
</g>
<!-- 47 -->
<g id="node51" class="node">
<title>47</title>
<ellipse fill="none" stroke="black" cx="963" cy="-450" rx="27" ry="18"/>
<text text-anchor="middle" x="963" y="-444.95" font-family="Times,serif" font-size="14.00">3</text>
</g>
<!-- 48&#45;&#45;47 -->
<g id="edge50" class="edge">
<title>48&#45;&#45;47</title>
<path fill="none" stroke="black" d="M905.92,-506.5C918.28,-494.48 935.75,-477.49 948.1,-465.49"/>
</g>
</g>
</svg>
